<svg version="1.1" id="Layer_1" xmlns="http://www.w3.org/2000/svg" xmlns:xlink="http://www.w3.org/1999/xlink" x="0px" y="0px"
	 width="100%" viewBox="0 0 1024 1024" enable-background="new 0 0 1024 1024" xml:space="preserve">
<path fill="#000000" opacity="1.000000" stroke="none" 
	d="
M281.767273,520.197021 
	C284.421539,504.552612 286.787109,489.304932 289.691956,474.160706 
	C293.464294,454.493744 298.240051,435.044647 309.778564,418.213165 
	C323.617218,398.026398 343.253754,385.205658 365.389374,375.732513 
	C383.763245,367.869293 402.953003,362.183319 421.425659,354.591034 
	C422.466919,354.163086 423.489227,353.689056 425.100250,352.981964 
	C424.045746,352.415009 423.549927,352.022827 422.988251,351.864838 
	C408.531311,347.797577 403.010254,337.922119 406.078400,323.991913 
	C410.825531,302.438416 405.025635,283.364929 397.169342,264.063293 
	C392.718567,253.128372 389.273956,241.883560 389.520416,229.730789 
	C389.666046,222.549576 391.460846,216.054993 395.890076,210.730179 
	C399.768433,206.067719 399.657043,201.347946 399.213501,195.851822 
	C397.338348,172.616135 400.384796,150.270309 413.484222,130.320251 
	C420.669434,119.377403 430.118591,110.863953 442.687073,106.288895 
	C444.356445,105.681221 446.397278,105.353027 446.600494,102.991966 
	C448.264862,83.653061 462.583679,75.139427 477.779083,68.753342 
	C506.498352,56.683666 534.832458,58.439335 561.955322,74.466431 
	C571.329285,80.005562 576.844116,88.060524 578.415283,98.777809 
	C579.021729,102.914780 580.883179,105.158272 585.063538,106.847496 
	C602.256531,113.795029 613.266479,126.911407 620.095459,143.860077 
	C627.692932,162.716141 628.700745,182.291656 626.571106,202.214569 
	C626.405273,203.765839 626.312988,205.256973 627.372864,206.482819 
	C640.638489,221.825577 638.030151,238.715515 632.152100,255.883514 
	C630.158264,261.706970 628.204590,267.573853 625.718079,273.193237 
	C618.851318,288.712036 616.735168,304.505554 620.268555,321.341034 
	C623.657776,337.489441 619.814575,344.383942 605.309753,352.156372 
	C605.409058,354.319153 607.367432,354.465118 608.725830,355.189178 
	C624.375122,363.529816 641.327576,368.626984 657.867981,374.712708 
	C683.806335,384.256256 705.641785,398.856293 719.980713,423.177795 
	C728.742493,438.039398 732.575562,454.591858 736.227112,471.156250 
	C741.911621,496.942657 745.071533,523.136597 748.450500,549.297485 
	C751.703674,574.484802 756.812439,599.363953 761.478577,624.315247 
	C765.929749,648.117981 763.786560,670.710815 748.633606,690.761414 
	C748.246948,691.273010 748.072144,691.944824 747.682495,692.795227 
	C751.068604,695.227844 755.106506,695.608032 758.853088,696.606567 
	C772.703918,700.298157 786.525269,704.141113 799.062500,711.280518 
	C828.806824,728.218689 843.666931,754.001282 841.040771,788.116089 
	C838.822998,816.925232 824.862427,840.174072 801.819397,857.787415 
	C799.197754,859.791382 796.544373,861.753845 793.664917,863.916321 
	C800.915649,877.144775 799.955017,891.042236 798.503540,905.039490 
	C797.636658,913.399719 792.764954,918.550354 785.747620,922.268921 
	C774.993286,927.967712 763.295654,930.498657 751.434326,932.288391 
	C724.768250,936.312012 697.880432,937.927368 670.963501,938.776733 
	C663.052734,939.026367 663.095947,938.306763 660.241699,947.208008 
	C656.260254,959.624634 650.672180,963.513489 638.016479,962.237671 
	C620.928345,960.515076 604.169434,957.295898 588.385681,950.081177 
	C582.157837,947.234436 576.086670,944.133240 570.504150,940.181274 
	C568.174927,938.532410 566.520142,938.671753 564.379700,940.540527 
	C550.962708,952.253784 535.290588,959.696045 518.290283,964.592468 
	C515.318726,965.448303 512.436584,965.581299 509.452332,964.762756 
	C492.264679,960.048828 475.951599,953.593750 462.825562,940.976624 
	C460.293640,938.542908 458.287781,938.621887 455.479126,940.562256 
	C437.520172,952.969666 417.286469,958.985596 395.811768,961.385071 
	C392.842712,961.716797 389.875763,962.261597 386.900970,962.313477 
	C376.427063,962.496094 371.400360,959.884705 368.336761,949.971558 
	C365.700165,941.440063 361.560760,938.641541 352.510651,938.610474 
	C330.405670,938.534729 308.330780,936.524597 286.332275,934.243469 
	C270.806274,932.633423 255.355225,930.524292 241.121414,923.151978 
	C231.891068,918.371216 227.836212,910.783020 227.748413,900.950012 
	C227.672897,892.495117 226.668182,883.973877 228.639267,875.566406 
	C229.594971,871.489929 231.508926,867.790588 233.316284,863.632019 
	C224.973373,857.132324 216.726303,850.669128 209.754196,842.821411 
	C195.635559,826.929749 187.238754,808.749817 185.506378,787.217285 
	C182.251984,746.767273 207.916733,719.316223 236.271530,706.814575 
	C249.112473,701.153076 262.633728,697.616821 276.046143,693.721436 
	C278.269470,693.075745 280.576447,692.629700 282.588654,691.204651 
	C282.767365,689.021790 280.887024,688.116882 279.761688,686.831116 
	C268.736877,674.234680 262.215057,659.742065 262.125824,642.883972 
	C262.071136,632.555725 264.529755,622.463684 266.792023,612.420410 
	C272.009399,589.257812 276.065765,565.904724 278.746948,542.308716 
	C279.569824,535.066711 280.718750,527.861694 281.767273,520.197021 
M398.606079,618.493408 
	C395.361053,605.993103 399.012756,598.437866 410.821198,593.222351 
	C411.277985,593.020691 411.724243,592.782654 412.198273,592.634766 
	C414.781952,591.829346 415.450043,590.280884 414.543060,587.685852 
	C408.876495,571.472534 406.427246,554.950684 408.558075,537.699646 
	C411.267029,515.768250 418.932739,495.943481 433.559174,479.439880 
	C459.260529,450.439972 491.831116,439.209808 530.058044,444.673401 
	C555.303284,448.281647 576.622681,459.881531 592.922485,479.360687 
	C619.232361,510.802429 625.626038,546.542175 613.085938,585.515137 
	C611.625671,590.053345 612.296082,591.980225 616.675537,593.667236 
	C624.845398,596.814392 628.883850,602.814636 628.422424,611.898743 
	C628.083008,618.582092 625.727051,624.525635 623.064331,630.446411 
	C622.234863,632.291016 621.301941,633.998962 622.402649,636.095459 
	C626.782532,644.437317 624.516357,652.151794 620.203735,659.733826 
	C619.036804,661.785461 616.869324,663.429504 616.921570,666.411377 
	C620.996460,666.776611 623.191528,663.822449 625.589844,661.894348 
	C632.280212,656.515442 637.946594,649.980225 636.412964,640.744263 
	C635.418335,634.754150 636.226013,629.657898 638.893372,624.478760 
	C639.873535,622.575745 640.456116,620.445435 641.051086,618.370300 
	C644.740662,605.502075 643.079773,591.864990 630.730042,584.995483 
	C629.066345,584.070068 628.490173,582.677490 628.998413,580.782654 
	C631.414917,571.772644 631.671936,562.351440 633.906616,553.346802 
	C636.628906,542.377502 639.159790,531.410767 640.729553,520.207092 
	C642.597046,506.877716 643.716919,493.486481 644.878906,480.087128 
	C645.276733,475.500183 645.448364,470.787964 647.020874,466.324921 
	C648.126221,463.188019 650.168579,460.981567 653.470581,460.930725 
	C656.929810,460.877441 658.648071,463.278625 659.522278,466.533569 
	C660.139832,468.832794 660.303711,471.110535 660.324158,473.445953 
	C660.401245,482.275848 660.326538,491.111298 660.620483,499.934265 
	C661.330017,521.233765 662.116211,542.526672 661.503174,563.846191 
	C661.414001,566.946838 660.363831,570.287964 662.309448,573.202637 
	C664.664490,572.815674 664.643188,571.060547 665.031799,569.705078 
	C672.698547,542.962219 678.355103,515.884888 678.686707,487.910492 
	C678.749756,482.589050 678.435181,477.243195 679.422485,471.953064 
	C679.809875,469.877411 680.234192,467.936798 682.861755,467.820312 
	C685.273071,467.713348 686.455383,469.273529 687.192322,471.267120 
	C687.651367,472.508881 688.081177,473.786804 688.305786,475.086243 
	C692.428406,498.935913 691.441284,522.789246 687.892273,546.570374 
	C684.803467,567.267822 677.938538,586.867737 669.614441,605.993164 
	C668.918762,607.591553 667.634827,609.140442 668.505188,611.738281 
	C675.227295,607.593872 680.712341,602.358459 685.697449,596.637817 
	C697.681702,582.885437 703.155273,566.219604 706.653076,548.721558 
	C707.691101,543.528809 708.523926,538.284790 709.827942,533.160156 
	C710.415405,530.851257 712.210083,528.955444 714.992554,529.385437 
	C717.577942,529.784973 718.134583,531.840820 718.411987,534.204407 
	C721.241516,558.313110 717.342163,580.930481 703.693848,601.413513 
	C701.500610,604.705139 699.170105,607.905396 696.811707,611.278381 
	C698.606628,612.942444 700.482117,613.321777 702.469177,613.709229 
	C709.538330,615.087952 716.500427,616.973999 722.092407,621.784119 
	C725.032410,624.313049 727.736267,627.736450 725.682495,631.811401 
	C723.705017,635.735229 719.548889,634.833130 716.295410,633.776794 
	C707.701172,630.986450 698.898804,630.713013 690.106995,631.448547 
	C677.820251,632.476562 667.244629,637.638550 658.211792,645.871399 
	C658.949768,647.567383 660.244995,647.612366 661.303223,647.896179 
	C670.886902,650.466003 678.879089,655.590698 685.851379,662.584839 
	C692.689026,669.443909 699.996643,675.735535 708.750366,680.167542 
	C710.871582,681.241455 713.747742,682.706787 712.196411,685.802917 
	C710.790344,688.608826 708.149292,688.396484 705.238953,687.546082 
	C694.110474,684.294312 683.943909,679.025757 674.034241,673.186401 
	C667.146301,669.127686 660.386841,664.957825 652.206726,663.753174 
	C645.444336,662.757324 642.847534,663.920532 639.438965,671.176758 
	C650.161133,677.098267 657.653015,686.819031 666.232056,695.353882 
	C671.939697,701.032104 678.866638,703.341980 686.511719,703.585205 
	C705.121826,704.177124 719.613770,695.145081 731.343811,681.997864 
	C745.591309,666.028992 746.795715,646.602661 743.122253,626.473511 
	C738.504456,601.170532 733.999634,575.846985 730.726379,550.327698 
	C727.432495,524.648193 724.072449,498.975830 718.567505,473.658020 
	C715.598816,460.004608 712.308411,446.353607 705.546387,433.967773 
	C691.303589,407.879425 666.705505,396.181702 640.039856,387.531860 
	C637.211426,386.614349 635.413635,387.958405 635.424622,390.983704 
	C635.446594,396.987030 634.699280,402.940582 634.426819,408.913635 
	C633.561218,427.888123 631.193115,446.659241 627.153442,465.191650 
	C625.122375,474.509583 622.532532,483.730072 618.265442,493.209076 
	C615.030823,487.732178 611.580200,483.351501 612.721741,477.110321 
	C614.245117,468.781708 614.890869,460.331238 615.839783,451.919739 
	C618.387329,429.338104 618.035339,406.718750 617.640320,384.080780 
	C617.601685,381.865204 617.515991,379.473846 615.242432,378.431366 
	C610.771729,376.381439 606.291260,374.235382 600.317200,373.220673 
	C598.521729,402.004120 598.449219,430.517059 590.709900,458.712921 
	C583.647217,454.065643 578.434387,448.377838 571.574280,445.377502 
	C566.877808,443.323517 566.798218,440.686188 568.114807,436.444183 
	C573.747070,418.296448 576.015930,399.496368 578.717773,380.763702 
	C580.262939,370.051086 570.209778,363.418793 571.152832,352.881042 
	C531.977478,381.373474 493.911835,381.355316 455.700226,353.277954 
	C455.465210,354.577637 455.289124,355.867523 454.994598,357.129791 
	C452.731262,366.830475 448.400085,370.597107 438.432098,371.280640 
	C436.088593,371.441345 433.809418,371.715118 431.553162,372.334778 
	C408.416840,378.688965 385.796417,386.503571 363.966705,396.492615 
	C338.659576,408.072876 321.293823,426.734711 313.436127,453.749878 
	C304.593628,484.150848 300.516083,515.446960 296.457825,546.702881 
	C293.165924,572.056580 289.401581,597.292847 283.806610,622.248596 
	C281.558960,632.274048 279.103546,642.311646 281.925751,652.703064 
	C286.864136,670.886292 298.980408,683.345337 314.467957,692.785950 
	C332.307495,703.660339 351.969666,710.737793 371.102905,718.905212 
	C406.756073,734.124512 443.151489,745.676453 482.685944,742.672363 
	C499.428406,741.400146 515.538818,737.735107 530.696777,730.387573 
	C533.616821,728.972229 536.465820,727.266724 538.723206,724.332458 
	C537.757263,723.985229 537.163574,723.643127 536.540833,723.577576 
	C535.556458,723.473938 534.539490,723.451660 533.558899,723.574768 
	C514.316650,725.990845 495.079254,726.314941 475.872711,723.299500 
	C468.971375,722.216003 462.094910,720.880676 455.848999,717.513428 
	C452.797424,715.868286 450.954193,713.335632 451.825378,709.731201 
	C452.639008,706.364929 455.469025,705.959656 458.443817,705.605469 
	C466.242004,704.677002 474.064331,704.796692 481.886841,704.590271 
	C487.524200,704.441528 493.192535,703.914368 498.639221,702.304810 
	C501.792145,701.373108 503.732300,699.140320 503.616241,695.647766 
	C503.508087,692.393494 500.909515,691.783264 498.468018,691.152222 
	C497.029022,690.780273 495.550262,690.517273 494.073090,690.345337 
	C483.185303,689.078186 472.256195,688.104065 461.411774,686.540771 
	C446.693481,684.418945 431.965973,682.666504 417.340515,686.431885 
	C408.847809,688.618347 402.194794,686.059509 395.677643,680.914062 
	C386.690369,673.818420 379.822571,664.773804 372.164581,656.451233 
	C360.467102,643.738525 346.893280,634.518738 329.257812,632.057007 
	C324.517609,631.395325 319.532593,632.237854 315.008484,630.045410 
	C312.182800,628.676025 309.874146,626.911255 309.706329,623.427063 
	C309.532166,619.812134 311.837189,618.064026 314.734741,616.753845 
	C320.041077,614.354370 325.671570,614.072327 331.332581,614.442749 
	C336.570831,614.785522 341.787628,615.455933 347.306000,616.011475 
	C351.741302,597.998596 354.702209,580.007080 356.529968,561.883057 
	C358.666046,540.702026 359.687531,519.432739 359.780457,498.119507 
	C359.806305,492.185730 360.318909,486.155548 361.893250,480.354858 
	C362.572540,477.852112 364.029144,475.899902 367.039673,475.647888 
	C370.130157,475.389221 372.213013,476.625214 373.333099,479.439117 
	C374.068237,481.286011 374.919312,483.158112 375.215332,485.095825 
	C376.367432,492.637146 377.311066,500.210144 378.346008,507.769531 
	C380.230255,521.531860 382.768463,535.066956 391.882812,546.288696 
	C393.415009,548.175110 394.215485,550.423767 394.219391,552.755798 
	C394.233826,561.343750 396.169952,569.571960 398.739471,577.663513 
	C399.785156,580.956421 399.197418,582.978210 395.893066,584.401245 
	C389.097534,587.327698 385.122437,592.674011 383.860016,599.888000 
	C382.264923,609.002747 383.451996,617.903931 387.682190,626.081116 
	C389.953705,630.472107 390.575195,634.819580 390.324951,639.538940 
	C390.201630,641.863892 390.107941,644.211060 390.281067,646.527222 
	C390.878174,654.515015 401.533051,665.380188 409.595154,666.260742 
	C409.625214,664.030823 407.864441,662.766296 406.849640,661.149536 
	C403.313873,655.516296 400.116638,649.316711 401.958099,642.833984 
	C404.001038,635.641907 402.605927,629.504578 399.816132,623.169189 
	C399.285919,621.965088 399.074249,620.620728 398.606079,618.493408 
M704.357666,722.114990 
	C697.086670,723.832703 689.888489,726.071472 682.521240,727.100769 
	C676.779236,727.903015 671.498901,729.448730 666.487427,732.158630 
	C656.976807,737.301331 647.515564,742.529114 637.504333,746.681274 
	C632.777771,748.641663 629.797302,751.968201 628.720276,757.266602 
	C626.605896,767.668457 624.875366,778.126404 623.030579,788.567505 
	C621.925659,794.821472 624.322449,798.354553 628.233398,801.968445 
	C642.401978,815.060913 660.008301,819.768372 678.435181,821.541626 
	C703.089172,823.914307 726.800781,819.598450 749.352844,809.212158 
	C751.866394,808.054565 754.528748,807.189392 756.479797,810.101440 
	C758.344604,812.884583 756.871277,815.172485 754.958313,817.224976 
	C750.227722,822.300964 744.460754,825.961426 738.254211,828.876648 
	C719.423340,837.721802 699.617126,840.158936 678.962646,838.520691 
	C657.796387,836.841980 638.204163,831.016785 620.456848,819.253479 
	C619.384155,818.542480 618.394653,817.489075 616.892761,817.828430 
	C611.207764,827.020325 612.173340,832.283081 620.659546,838.308777 
	C625.420044,841.688843 630.320923,844.903564 635.670715,847.224060 
	C673.997620,863.848633 713.830383,868.553589 754.575867,859.508972 
	C783.795349,853.022888 805.885132,836.285278 817.461365,807.718262 
	C828.072632,781.532349 822.642151,754.578796 803.036438,736.162903 
	C792.429810,726.199951 779.132874,721.251160 765.424133,717.432434 
	C755.170898,714.576355 744.882324,712.418152 733.978638,714.160156 
	C724.045898,715.746948 714.771973,719.423889 704.357666,722.114990 
M367.038574,738.604858 
	C353.788513,733.159363 340.789246,727.167847 327.924805,720.865601 
	C320.891785,717.420288 313.648499,714.038696 305.782410,713.499451 
	C281.571503,711.839722 258.290131,715.528381 236.748566,727.320618 
	C223.814987,734.400635 213.530228,744.215149 208.179718,758.219543 
	C197.636505,785.815552 207.836258,819.389465 231.983490,838.473145 
	C251.495834,853.893799 273.848419,861.385986 298.417084,862.579163 
	C323.328003,863.789001 347.972748,861.277649 372.033752,854.823303 
	C407.831757,845.220520 438.135071,826.219910 463.412262,799.200928 
	C468.994293,793.234192 473.912964,786.708984 477.644470,779.366089 
	C479.061127,776.578308 478.984375,774.973328 475.311890,774.070557 
	C468.274139,772.340576 464.774384,773.024658 460.422546,778.822998 
	C455.104340,785.909058 448.379761,791.258179 440.760223,795.510681 
	C400.543701,817.955750 358.640106,821.754272 315.241364,806.185852 
	C294.829468,798.863403 277.623993,786.985291 265.642334,768.447327 
	C262.825500,764.089111 260.438080,759.501038 260.575195,754.076111 
	C260.684662,749.746765 263.631073,747.842102 267.656952,749.417358 
	C269.798615,750.255371 271.050537,751.991821 272.359863,753.739868 
	C281.175537,765.509338 291.919189,775.136475 304.921112,782.027893 
	C332.221588,796.497986 361.299408,800.428589 391.544159,795.333496 
	C406.901917,792.746155 421.630554,787.890564 434.220123,778.185364 
	C437.661560,775.532349 441.418396,772.914734 442.686035,767.945190 
	C438.609192,766.749939 435.543610,768.831848 432.419281,769.945251 
	C396.308258,782.812866 360.971954,781.971741 326.661316,763.969238 
	C318.665619,759.773987 311.380981,754.461670 305.558197,747.414734 
	C303.759644,745.238037 302.680084,742.657654 304.587708,740.117126 
	C306.623840,737.405640 309.295654,738.347656 311.801758,739.608948 
	C316.117859,741.781128 320.496735,743.841003 324.724731,746.173767 
	C347.631989,758.813049 372.164032,761.920227 397.729706,758.467163 
	C401.838165,757.912292 406.249298,757.872375 410.287811,754.707275 
	C395.763397,750.178284 381.623169,744.874084 367.038574,738.604858 
M592.635132,240.179916 
	C592.643494,238.846695 592.648743,237.513428 592.660706,236.180237 
	C592.785278,222.352173 593.045166,208.422119 587.885376,195.311478 
	C583.285278,183.623032 575.887512,174.653671 562.279236,172.829056 
	C552.149475,171.470825 542.065735,172.007935 531.967163,172.874374 
	C522.687683,173.670578 513.405212,175.125366 504.089661,174.005295 
	C491.660339,172.510849 479.202057,171.793304 466.719910,172.420959 
	C455.743652,172.972931 447.059570,177.340225 441.732483,187.781738 
	C436.910431,197.233246 434.953796,207.263397 434.431183,217.560043 
	C433.272675,240.386139 435.087280,263.025635 439.261505,285.534088 
	C443.304565,307.335510 453.703400,325.537354 469.770782,340.388733 
	C482.636780,352.281006 498.424103,356.497894 515.834778,355.914886 
	C530.106384,355.436981 543.228577,351.950836 554.228638,342.666321 
	C572.890625,326.914734 584.145996,306.952271 587.718567,282.627472 
	C589.745056,268.829651 590.973083,254.954865 592.635132,240.179916 
M435.873291,586.622742 
	C439.526337,597.226440 447.565186,601.223572 458.150604,601.707458 
	C462.616425,601.911621 467.047424,602.787415 471.507721,603.219116 
	C490.104614,605.019287 508.753967,604.807495 527.401550,604.553833 
	C528.210632,604.542847 529.063538,604.294128 529.814514,603.968384 
	C545.709595,597.072815 557.201843,585.465759 565.328552,570.389221 
	C567.156616,566.997803 567.945251,562.857483 564.027710,560.572266 
	C560.257446,558.372986 558.127075,562.283264 555.958252,564.530090 
	C552.840088,567.760315 550.281372,571.552979 547.035706,574.633362 
	C539.007935,582.252258 528.530579,579.523376 524.948669,569.035400 
	C524.034302,566.358215 523.559753,563.585083 523.617493,560.696838 
	C523.717041,555.713318 523.813599,550.735046 522.666809,545.796631 
	C520.303772,535.620850 517.302429,525.792480 508.896942,518.739136 
	C501.991272,512.944336 493.350403,512.964844 486.484833,518.649292 
	C481.511780,522.766785 481.821503,525.928528 487.238434,529.083679 
	C495.642822,533.978943 499.996490,541.276001 500.425476,551.127380 
	C500.634247,555.921692 498.921967,560.446960 498.719330,565.310730 
	C501.167969,564.889587 501.747803,563.201660 502.517822,561.800049 
	C506.519135,554.516296 507.625275,546.782654 505.995087,538.637207 
	C505.597565,536.651001 505.145844,534.439270 507.528076,533.419617 
	C510.008118,532.358093 511.132080,534.464050 512.212280,536.084595 
	C514.847107,540.037231 515.992004,544.573975 516.951111,549.142029 
	C519.596313,561.741150 513.507202,576.651489 502.861450,583.794189 
	C494.630127,589.316956 486.595306,585.698975 485.669556,575.850342 
	C485.283447,571.742615 485.639923,567.565552 485.647400,563.420044 
	C485.654816,559.290649 485.362244,554.933105 480.809418,553.430664 
	C476.220459,551.916260 473.545502,555.252991 471.076782,558.663574 
	C467.512329,563.588013 465.507446,569.243408 462.957672,574.658875 
	C458.514099,584.096558 450.117798,584.960693 443.839050,576.636169 
	C442.153503,574.401489 440.769714,571.854431 439.680420,569.268372 
	C432.757111,552.832947 435.298218,536.703918 441.643219,520.803223 
	C443.108154,517.132080 444.740601,512.579529 449.530823,512.978394 
	C454.178497,513.365295 454.698090,518.001770 455.420380,521.757751 
	C456.503784,527.391724 458.977295,532.163757 463.855164,535.356445 
	C465.404602,536.370605 467.251373,538.180237 469.223358,536.542969 
	C470.920868,535.133484 470.050415,532.976685 469.275177,531.416382 
	C463.353851,519.498840 473.373840,502.184082 486.627411,498.716675 
	C499.383514,495.379425 510.915619,497.667389 521.231812,506.139526 
	C530.707336,513.921265 535.732483,524.129517 538.404053,535.805664 
	C539.216858,539.358215 540.008301,543.003601 542.577820,545.840515 
	C546.012512,549.632629 549.826233,549.302551 552.218506,544.796387 
	C554.454346,540.584839 555.162354,536.013367 554.337524,531.250732 
	C551.849854,516.888062 542.861755,506.741913 532.265686,497.807312 
	C522.692505,489.735199 511.688019,484.977753 498.894165,485.354279 
	C488.285034,485.666504 478.597076,488.649017 470.325378,495.562561 
	C469.035156,496.640961 467.612549,497.887878 465.909576,496.537537 
	C464.066345,495.075989 464.710419,493.262360 465.772034,491.625458 
	C466.402802,490.652985 467.164520,489.752991 467.947662,488.893585 
	C481.728668,473.771301 499.455292,469.293945 519.061279,470.191681 
	C527.361267,470.571686 535.581177,471.789490 543.708740,473.609070 
	C545.115540,473.924011 547.177429,475.034485 547.855347,472.465759 
	C548.468018,470.144440 546.332703,469.800293 545.001526,469.022125 
	C543.864380,468.357330 542.589111,467.893707 541.329529,467.478882 
	C525.251770,462.184082 508.924561,461.736816 492.631439,465.931610 
	C439.956726,479.493103 414.420227,536.074524 435.873291,586.622742 
M536.702759,856.833923 
	C534.036865,854.582886 534.553833,852.275635 536.553955,849.913025 
	C538.167358,848.007385 539.810486,846.121948 541.331299,844.143677 
	C556.761108,824.071899 563.905640,800.681091 568.440247,776.257385 
	C569.118835,772.602478 566.947693,771.289368 563.819092,771.523499 
	C559.524841,771.844788 555.264832,772.598145 550.979736,773.072815 
	C545.780579,773.648743 543.457031,776.584839 542.167114,781.634766 
	C536.645264,803.253418 528.360107,823.678284 514.205505,841.260803 
	C509.972626,846.518799 505.308105,851.429321 500.814423,856.529480 
	C502.886444,858.919006 505.607513,859.451782 508.053467,860.288635 
	C520.859558,864.669678 534.158386,864.945618 547.493774,864.630920 
	C554.932251,864.455383 561.985291,862.754883 568.317627,858.659180 
	C582.081543,849.756836 590.607849,836.924438 595.629761,821.628784 
	C601.802673,802.827271 606.367432,783.606750 609.905884,764.141907 
	C610.678528,759.891357 609.412231,758.535706 605.249146,759.685120 
	C599.966919,761.143616 594.759521,762.900635 589.588440,764.723572 
	C586.421143,765.840210 584.591980,767.897949 584.141663,771.651733 
	C583.194397,779.549622 581.786560,787.404236 580.277344,795.220520 
	C575.738831,818.725159 564.755066,838.628601 546.538391,854.317627 
	C544.027344,856.480225 541.390381,859.406250 536.702759,856.833923 
M519.928101,751.285034 
	C518.508240,751.892212 517.088379,752.499329 514.396362,753.650513 
	C524.665527,753.685547 533.375549,752.728271 542.117310,751.793152 
	C567.521484,749.075684 592.187805,743.235413 616.106445,734.407715 
	C628.117493,729.974731 639.932373,724.915100 650.394043,717.265747 
	C652.700012,715.579651 654.783081,714.037598 651.827454,711.018616 
	C644.601990,703.638184 637.514526,696.112732 629.444763,689.629517 
	C626.533630,687.290710 623.374084,685.676392 619.308228,687.094421 
	C617.866089,687.597412 616.020630,687.109863 614.388367,686.873840 
	C606.171387,685.685913 598.003296,684.267578 589.636047,684.267456 
	C582.436768,684.267273 575.411804,685.565247 568.313293,686.326416 
	C555.599365,687.689697 542.880676,689.010803 530.174988,690.446960 
	C526.923462,690.814453 524.301147,692.701111 523.778015,695.908020 
	C523.270996,699.016052 525.533936,701.163574 528.237122,702.453125 
	C529.556946,703.082764 531.078430,703.474548 532.539429,703.592468 
	C540.332886,704.221436 548.121948,705.017090 555.963379,704.668884 
	C560.305786,704.476013 564.605469,704.877991 568.862183,705.756775 
	C572.385498,706.484192 574.065125,708.343384 574.444092,712.221069 
	C575.199280,719.949646 570.417480,724.222717 565.301208,728.312317 
	C551.987976,738.953857 536.757751,745.916870 519.928101,751.285034 
M422.380798,859.382446 
	C439.832672,864.726685 457.196472,864.669800 473.064636,855.222229 
	C501.083191,838.540588 516.690125,812.608215 525.041992,781.751953 
	C525.849609,778.768188 524.481140,777.525635 521.911377,777.490051 
	C515.273926,777.397888 508.609802,776.673523 502.013702,778.253540 
	C499.924347,778.754089 498.333344,779.535889 497.406921,781.583801 
	C485.309265,808.325500 464.526581,827.272095 441.103607,843.699036 
	C434.084869,848.621399 426.381378,852.567444 419.043182,856.930115 
	C419.378815,858.579285 420.754089,858.567322 422.380798,859.382446 
M539.364807,931.841003 
	C550.171448,924.003540 555.328552,913.455505 554.651855,900.081848 
	C554.536499,897.801697 554.401978,895.297607 551.373901,895.558899 
	C540.132080,896.529114 529.582153,898.994019 523.409729,909.945862 
	C522.024109,912.404358 520.554077,914.851013 518.830078,917.076233 
	C514.438293,922.744629 511.286621,922.616638 507.228577,916.777283 
	C506.566650,915.824707 505.927490,914.826355 505.470123,913.766174 
	C499.868744,900.781677 489.011292,896.347351 475.914001,895.461792 
	C473.179077,895.276855 471.455505,895.889832 471.261719,899.091492 
	C470.753662,907.486023 472.202698,915.276001 477.285004,922.229004 
	C485.384064,933.309204 496.967224,938.714233 509.602478,942.576782 
	C512.437378,943.443298 515.071167,943.540527 517.844360,942.582092 
	C525.261841,940.018555 532.453979,937.014954 539.364807,931.841003 
M341.065735,908.187805 
	C346.865845,909.114197 352.708008,908.477051 358.528320,908.654419 
	C359.928772,908.697083 361.405396,908.480530 361.841034,906.983459 
	C363.449585,901.455994 366.304382,896.401489 368.529877,890.814636 
	C366.926605,890.465759 365.972748,890.116516 365.004059,890.068909 
	C353.046387,889.481201 341.091858,888.686035 329.126221,888.434998 
	C304.318909,887.914490 279.604767,886.766663 255.554947,879.905518 
	C253.038132,879.187500 251.616898,879.942932 250.840637,882.102478 
	C247.674545,890.910156 248.789719,895.053284 256.793701,898.053833 
	C269.708191,902.895020 283.247437,904.439209 296.803711,905.559021 
	C311.218079,906.749634 325.690796,907.233521 341.065735,908.187805 
M641.508911,934.002441 
	C642.016113,932.422241 642.582825,930.858337 643.020996,929.259216 
	C646.129517,917.916931 645.836731,907.189880 637.039368,898.164673 
	C634.462708,895.521240 631.557251,893.364990 627.567932,893.237488 
	C624.341125,893.134338 622.898315,894.246094 623.616272,897.676819 
	C624.564941,902.210083 625.311218,906.785706 626.140137,911.343994 
	C626.526367,913.467712 626.266113,915.391846 624.116760,916.461426 
	C622.029541,917.500122 620.534363,916.164673 619.381165,914.771301 
	C617.159485,912.086609 615.075378,909.278320 613.069702,906.426086 
	C604.788330,894.649292 589.442871,892.708069 574.598206,897.431458 
	C576.245361,910.541565 581.984497,920.865295 594.012390,927.361755 
	C606.630737,934.177124 620.239929,937.502747 634.262634,939.615723 
	C638.276001,940.220459 640.005920,937.922485 641.508911,934.002441 
M731.465027,904.677368 
	C744.633362,903.097778 757.834534,901.600708 770.385498,896.993835 
	C778.056946,894.177979 778.891357,891.968994 777.177124,884.077209 
	C776.284851,879.969727 774.621643,879.139282 770.595764,880.254395 
	C749.493835,886.099121 727.763062,887.286072 706.048218,888.292053 
	C692.602600,888.914917 679.134094,889.033691 665.678894,889.471985 
	C663.246704,889.551147 660.829102,890.082031 657.936707,890.466614 
	C660.019165,895.538025 662.971375,899.711975 663.871765,904.619995 
	C664.492249,908.001892 666.382385,908.855164 669.492126,908.701599 
	C678.279907,908.267639 687.080872,908.090271 695.866028,907.615234 
	C707.455444,906.988342 719.046387,906.311890 731.465027,904.677368 
M391.766052,939.627991 
	C394.060577,939.301453 396.358185,938.994995 398.649109,938.645081 
	C412.448364,936.537170 425.534454,932.453918 437.088074,924.356934 
	C446.558655,917.719727 451.039246,908.315613 452.092163,897.003357 
	C446.733887,894.717407 441.366364,895.446960 436.092621,895.293701 
	C427.927399,895.056396 421.116638,897.982544 415.824341,904.203064 
	C413.133118,907.366150 410.772827,910.814331 408.029755,913.928223 
	C406.585419,915.567749 405.007538,918.004578 402.228943,916.424377 
	C399.864990,915.079956 400.613281,912.610779 400.915863,910.539429 
	C401.538177,906.278748 402.122192,901.988586 403.158264,897.818970 
	C404.166016,893.763306 402.124176,893.061035 398.948181,893.306152 
	C393.218567,893.748291 389.680267,897.549561 386.731049,901.870178 
	C380.443298,911.081604 380.835632,928.335999 387.271729,937.509705 
	C388.220795,938.862366 389.308472,939.650146 391.766052,939.627991 
M588.554321,618.347229 
	C531.742004,626.167908 475.116669,625.770020 418.683319,614.403076 
	C418.356995,616.234009 417.545868,617.937378 418.210114,620.082886 
	C419.645508,620.545654 421.175537,621.157471 422.761536,621.532471 
	C446.447662,627.132751 470.552063,629.694397 494.799896,630.555908 
	C522.422974,631.537292 549.987793,629.877502 577.409912,626.494507 
	C586.609070,625.359619 595.679199,623.150085 604.787842,621.329346 
	C607.207520,620.845642 609.438293,619.768677 608.497925,616.626526 
	C607.651550,613.798584 605.467346,614.760315 603.535400,615.188354 
	C598.833618,616.230103 594.128418,617.256714 588.554321,618.347229 
M573.031799,586.395874 
	C570.056213,591.086670 567.080627,595.777527 564.059875,600.539490 
	C571.893494,603.323547 578.817627,602.090210 582.717773,597.445068 
	C594.841980,583.004883 597.171875,553.555969 587.426147,537.570129 
	C585.506165,534.420776 583.208618,531.550842 580.054199,529.555420 
	C576.975464,527.607910 574.130493,528.008728 571.504639,530.640442 
	C568.577576,533.574036 570.550659,535.416138 572.564026,537.695557 
	C578.500305,544.416138 581.761658,552.193726 581.370667,561.355042 
	C580.990601,570.258667 577.492065,578.088623 573.031799,586.395874 
M574.714539,488.764130 
	C572.350098,486.613403 569.713501,484.897736 566.649170,483.936798 
	C563.499695,482.949188 560.375854,482.733856 557.775696,485.241058 
	C555.230103,487.695679 555.022888,490.611267 555.977539,493.960602 
	C559.213440,505.313141 567.070679,512.171875 577.558533,516.470642 
	C580.301025,517.594788 583.388184,518.787231 585.989746,516.245544 
	C588.770020,513.529297 588.157043,510.098785 587.031677,506.908478 
	C584.610413,500.044586 580.565186,494.204041 574.714539,488.764130 
M417.842468,256.335175 
	C416.387421,245.973221 415.179230,235.526733 407.549591,227.223251 
	C407.206787,243.579971 412.145172,258.568298 419.889313,272.906097 
	C419.281219,267.669739 418.673096,262.433411 417.842468,256.335175 
M608.657471,270.130402 
	C613.231323,258.712891 617.177307,247.106796 619.194092,234.924789 
	C619.583801,232.570908 620.412842,230.133698 618.505615,228.146820 
	C616.757019,228.274185 616.209229,229.447189 615.707825,230.416794 
	C609.128113,243.140427 607.655151,256.917786 607.569885,270.947296 
	C607.566040,271.584320 608.260010,271.022552 608.657471,270.130402 
M424.251709,318.447998 
	C423.678497,322.954163 420.933594,327.333405 423.322845,332.008148 
	C424.160309,333.646667 425.292664,335.438477 427.342651,335.322906 
	C429.460419,335.203522 430.159973,333.243591 430.673248,331.443512 
	C433.205109,322.563812 430.348785,314.775085 425.904053,307.253448 
	C425.680908,310.822662 425.078400,314.227509 424.251709,318.447998 
M509.677673,121.908844 
	C514.598145,123.092987 518.934631,121.650620 520.104797,118.039978 
	C521.313538,114.310219 520.029236,111.064217 516.545898,109.264343 
	C512.883179,107.371780 509.399200,108.247093 506.820984,111.470192 
	C504.183868,114.766808 504.993347,118.052803 509.677673,121.908844 
M596.485962,317.082489 
	C595.105774,321.083221 595.261047,325.228821 595.351440,329.363251 
	C595.408325,331.967377 595.936218,334.786865 598.851135,335.135437 
	C601.388611,335.438904 602.816772,333.063660 603.602783,330.778229 
	C604.129822,329.246002 604.806824,327.740570 604.385803,325.967407 
	C603.029053,320.252014 601.791870,314.508209 600.426880,308.410645 
	C598.285522,310.969757 597.911743,313.830414 596.485962,317.082489 
M483.280151,150.221024 
	C486.117798,151.910233 488.855591,152.229401 491.382721,149.633087 
	C494.211517,146.726852 494.438293,142.333832 491.886139,139.861053 
	C488.639099,136.715012 483.870392,136.805618 480.867157,140.070419 
	C478.225830,142.941742 478.818756,146.191177 483.280151,150.221024 
M478.395172,120.018478 
	C480.322235,124.914505 484.417786,123.922615 488.001587,123.146919 
	C490.912964,122.516769 492.948547,120.373764 492.575653,116.989929 
	C492.150696,113.133240 489.533051,111.214539 486.027557,110.569038 
	C481.754944,109.782310 478.726166,113.323242 478.395172,120.018478 
M519.713318,146.111847 
	C519.411011,139.539780 514.667603,135.695770 510.007233,138.335434 
	C507.267731,139.887100 505.231964,142.274368 505.750549,145.548569 
	C506.211853,148.460785 508.260986,150.804520 511.227112,151.364182 
	C514.983826,152.073044 518.024963,150.631714 519.713318,146.111847 
M546.479980,142.951904 
	C546.119568,142.212479 545.879150,141.376968 545.377563,140.750580 
	C543.398560,138.279175 541.054993,136.623123 537.678223,137.928162 
	C533.985718,139.355209 533.004395,142.246506 533.341064,145.903732 
	C533.624268,148.980942 535.393372,150.795700 538.251770,151.327545 
	C541.857971,151.998535 544.232422,150.025940 545.747314,146.967590 
	C546.239441,145.974030 546.311768,144.772522 546.479980,142.951904 
M533.293091,117.605156 
	C533.216492,119.437393 534.157593,120.813805 535.471741,121.876114 
	C538.499817,124.323967 542.010864,124.399727 545.242126,122.753250 
	C547.718323,121.491486 548.058594,118.684853 547.480652,116.144920 
	C546.731873,112.854477 544.291565,110.950012 541.049316,110.878860 
	C537.097168,110.792137 534.786011,113.397812 533.293091,117.605156 
M520.303833,88.785583 
	C522.685242,90.081551 525.315552,90.557045 527.942017,90.572067 
	C530.126770,90.584557 533.034424,91.738091 534.244385,89.006737 
	C535.521118,86.124542 534.141846,83.425430 532.066284,81.293320 
	C530.145386,79.320152 527.786804,77.950752 524.903015,78.674088 
	C521.887329,79.430489 520.918640,81.972527 520.377258,84.681381 
	C520.150452,85.816063 520.137878,86.993538 520.303833,88.785583 
M492.460632,85.062126 
	C491.654785,89.648773 493.954437,91.121078 498.108063,90.598610 
	C499.904907,90.372597 501.678955,89.958847 503.459229,89.609329 
	C506.147064,89.081612 506.952087,87.280807 506.451233,84.827751 
	C505.812042,81.697205 504.210724,79.137894 500.846741,78.622467 
	C496.481018,77.953560 494.167908,80.681877 492.460632,85.062126 
M462.795502,118.714020 
	C461.664215,118.731865 460.433777,118.466652 459.420532,118.821526 
	C456.570618,119.819702 454.524933,121.838638 454.500610,124.966660 
	C454.476227,128.099808 456.553131,130.177399 459.316559,131.239502 
	C462.608398,132.504700 464.701019,130.256714 466.301239,127.932640 
	C469.069214,123.912643 466.927643,121.179016 462.795502,118.714020 
M566.103943,118.546715 
	C561.956238,118.180893 560.001282,120.505074 559.479858,124.233246 
	C559.008362,127.604591 560.559570,129.979080 563.746216,131.175797 
	C567.018677,132.404770 569.194519,130.622223 570.795227,128.149292 
	C573.064453,124.643478 571.618042,121.426826 566.103943,118.546715 
M455.861298,145.389816 
	C453.785553,148.787766 454.294739,151.757614 457.715881,153.796387 
	C460.423157,155.409744 463.149902,154.997070 465.235260,152.477737 
	C467.353821,149.918381 467.096985,147.139053 464.965485,144.865463 
	C462.251465,141.970581 459.191589,142.189545 455.861298,145.389816 
M570.434387,151.959717 
	C572.116699,147.749054 570.853333,144.531021 567.060242,143.365067 
	C563.778931,142.356445 560.236633,144.498734 559.547668,147.957367 
	C559.075928,150.325912 560.041016,152.279205 561.871155,153.593094 
	C564.789856,155.688507 567.482605,154.604523 570.434387,151.959717 
M433.672272,140.844543 
	C434.795898,143.647339 436.792542,145.077789 439.877411,144.753403 
	C442.494904,144.478165 444.111328,142.957520 444.861908,140.516846 
	C445.602661,138.108215 444.272949,136.325699 442.767578,134.748047 
	C441.220154,133.126266 439.160492,132.961014 437.210602,133.749283 
	C434.427521,134.874359 433.253082,137.139999 433.672272,140.844543 
M420.264984,152.991638 
	C417.880280,155.237061 417.576080,157.896637 419.158875,160.606003 
	C420.399872,162.730255 422.389374,163.909790 425.001190,163.322021 
	C427.537231,162.751297 428.970947,161.025879 429.437561,158.554871 
	C430.259949,154.199921 426.145386,151.369843 420.264984,152.991638 
M588.727234,144.438995 
	C591.738831,142.695145 593.673035,140.355316 591.973816,136.770935 
	C590.608704,133.891220 588.027710,132.734268 584.985596,133.792038 
	C582.229004,134.750519 580.708862,136.908035 581.224121,139.958572 
	C581.863525,143.744339 584.271667,145.195007 588.727234,144.438995 
M596.748230,158.893127 
	C597.917969,161.719559 599.764282,163.821320 603.076477,163.226273 
	C605.464844,162.797195 607.261963,161.266144 607.638489,158.615479 
	C608.094543,155.404282 607.013977,152.819061 603.714722,152.192322 
	C599.163757,151.327774 597.082703,154.011368 596.748230,158.893127 
M414.912384,185.503815 
	C416.662720,187.322617 418.667786,188.312271 421.091614,186.939697 
	C422.776855,185.985367 423.804718,184.471176 423.498016,182.425491 
	C423.193329,180.393143 421.769592,179.256851 419.917450,178.730453 
	C416.660187,177.804733 414.646698,180.157288 414.912384,185.503815 
M604.912964,179.363235 
	C602.628296,181.194901 601.877686,183.402039 603.806641,185.833786 
	C605.332947,187.757889 607.387329,188.113571 609.614014,186.856659 
	C611.741516,185.655701 612.121887,183.654572 611.439331,181.673965 
	C610.486328,178.908859 608.432251,177.802795 604.912964,179.363235 
M555.553650,90.942680 
	C554.840515,88.088425 552.619812,88.081406 550.407043,88.369728 
	C547.705261,88.721756 545.958496,90.198067 545.516296,92.833748 
	C547.185242,95.096207 549.609375,94.731689 551.604065,95.349548 
	C554.727478,96.317039 555.922241,94.737427 555.553650,90.942680 
M470.395599,91.717468 
	C470.426086,92.372177 470.229248,93.160805 470.523438,93.660187 
	C472.679596,97.320396 475.619598,95.250786 478.252045,94.492966 
	C479.880341,94.024239 480.605957,92.850113 479.536438,91.065437 
	C477.445526,87.576363 473.081970,87.502747 470.395599,91.717468 
z"/>
<path fill="#000000" opacity="1.000000" stroke="none" 
	d="
M499.148346,387.676727 
	C518.885071,390.388763 537.323059,387.608246 554.865295,379.065094 
	C556.478882,378.279236 558.164307,376.963745 559.965332,378.312592 
	C562.048828,379.872986 561.476196,382.274536 561.117615,384.330078 
	C560.693115,386.762695 558.685791,388.180084 556.833740,389.634064 
	C547.145813,397.239655 535.933228,401.270905 523.951782,403.085236 
	C503.993103,406.107605 485.633514,401.992615 469.334778,389.760559 
	C468.145355,388.867889 466.978516,387.878479 466.033112,386.741211 
	C464.136810,384.460175 462.718964,381.903625 464.964600,379.105835 
	C467.219849,376.296051 469.487823,378.450775 471.618408,379.472290 
	C480.229950,383.601135 489.257690,386.316986 499.148346,387.676727 
z"/>
<path fill="#000000" opacity="1.000000" stroke="none" 
	d="
M714.270386,767.208557 
	C720.086487,764.576416 725.235413,761.516296 730.248047,758.225281 
	C732.348572,756.846313 734.447876,756.041748 736.658630,757.815063 
	C739.069275,759.748596 738.632446,762.203918 737.558350,764.601440 
	C734.548828,771.319519 728.871155,775.594238 722.896790,779.150757 
	C699.519287,793.067383 674.447693,796.599609 648.027893,790.240112 
	C644.560974,789.405579 639.950562,788.407410 640.628479,783.680664 
	C641.325989,778.817566 646.029480,779.473022 649.584473,779.725281 
	C672.149414,781.326904 693.588867,777.240967 714.270386,767.208557 
z"/>
<path fill="#000000" opacity="1.000000" stroke="none" 
	d="
M293.082703,827.716919 
	C315.373688,832.868103 337.472809,834.062866 359.829895,831.930542 
	C367.315765,831.216614 374.604492,829.815552 381.867493,828.009766 
	C383.606201,827.577454 385.501709,827.729004 387.326416,827.702332 
	C389.164276,827.675354 390.609100,828.405273 391.092987,830.307739 
	C391.524567,832.004700 391.375671,833.679260 389.926300,834.880493 
	C389.043091,835.612549 388.054352,836.313171 386.995056,836.723083 
	C345.268921,852.867310 304.048798,853.752075 263.639099,832.424561 
	C258.161285,829.533386 253.248276,825.789307 249.115494,821.129395 
	C247.169647,818.935425 245.499466,816.380188 247.508575,813.519592 
	C249.634262,810.492920 252.596985,811.608154 255.142181,812.965942 
	C267.082672,819.336060 279.452393,824.572388 293.082703,827.716919 
z"/>
<path fill="#000000" opacity="1.000000" stroke="none" 
	d="
M573.612915,214.404144 
	C576.420837,216.952362 578.121704,219.809006 579.009216,223.073639 
	C579.528931,224.985107 579.872131,227.121490 577.927917,228.578751 
	C576.081482,229.962662 574.365662,228.855774 572.872925,227.851318 
	C567.732178,224.392120 561.899475,223.178177 555.919006,222.484161 
	C545.151123,221.234634 538.210083,226.707108 535.554626,238.440903 
	C536.307861,240.064651 538.055908,240.319275 539.364624,240.332062 
	C548.454163,240.420853 557.688965,242.218903 566.514893,238.528992 
	C569.040100,237.473236 571.380615,237.150497 573.273315,239.554321 
	C575.206970,242.010193 573.367676,243.995850 572.152100,245.870804 
	C565.945312,255.444305 551.284729,259.003632 539.931763,253.730347 
	C537.680908,252.684845 535.528442,251.427689 532.946350,250.065430 
	C531.451843,253.953308 533.286255,257.386139 533.857544,260.780426 
	C535.094971,268.131927 537.217590,275.323151 537.387390,282.865845 
	C537.469788,286.524170 535.855896,288.734222 532.745850,290.384674 
	C521.223755,296.499268 509.585175,297.694275 497.344025,292.339539 
	C490.034668,289.142212 487.465668,284.776855 489.232788,277.003998 
	C491.208282,268.314606 494.559326,259.823761 493.481171,250.585327 
	C491.342773,249.956909 490.392609,251.730530 489.096283,252.496048 
	C477.111359,259.573364 459.427521,256.123657 453.505035,245.415741 
	C452.503265,243.604523 450.750488,241.670502 452.641266,239.511017 
	C454.542572,237.339523 456.890717,237.497253 459.496582,238.438934 
	C469.852692,242.181412 480.314575,240.999817 490.825928,239.431000 
	C489.882050,229.446274 482.526703,222.442093 473.390442,222.412109 
	C466.275360,222.388748 459.517578,223.830551 453.345123,227.592087 
	C451.703827,228.592300 449.862366,230.161469 447.895660,228.480209 
	C445.960663,226.826096 446.488983,224.500977 447.133698,222.430420 
	C448.815613,217.028625 452.509094,213.164459 457.450470,210.783173 
	C469.135040,205.152328 481.024261,205.107880 492.421417,211.350113 
	C501.867889,216.523941 505.671783,225.411804 506.319458,235.821564 
	C507.108765,248.507812 504.912628,261.039764 504.266083,273.652588 
	C504.073486,277.409180 504.371796,280.790344 508.589661,282.103394 
	C513.116943,283.512756 517.557983,283.322052 521.277100,280.035919 
	C523.598328,277.984955 522.832397,274.983337 522.502380,272.456116 
	C520.903259,260.210449 520.537842,247.925537 520.647766,235.596497 
	C520.777405,221.062988 527.372803,211.976471 541.381836,208.268082 
	C552.847900,205.232834 563.822021,206.081924 573.612915,214.404144 
z"/>
<path fill="#000000" opacity="1.000000" stroke="none" 
	d="
M543.387756,314.426697 
	C539.325867,316.661133 535.604309,317.430115 531.163025,316.671387 
	C526.524475,315.878937 521.589233,315.639771 516.938232,317.635406 
	C514.090942,318.857117 510.968048,318.872009 508.149353,317.870026 
	C502.627808,315.907135 497.093475,315.954071 491.487793,316.975189 
	C488.847412,317.456116 486.534058,316.778809 484.379974,315.438019 
	C480.418274,312.972168 480.377014,308.211334 484.718964,306.458923 
	C491.943939,303.542877 499.508240,301.224945 507.423645,303.546509 
	C511.241699,304.666382 514.850464,304.762024 518.628601,303.610321 
	C526.582703,301.185608 534.060852,303.965088 541.399658,306.339264 
	C544.912292,307.475647 546.705139,310.452667 543.387756,314.426697 
z"/>
<path fill="#000000" opacity="1.000000" stroke="none" 
	d="
M492.104309,328.351440 
	C492.060974,322.223602 493.772705,320.679657 499.287750,322.276154 
	C507.964691,324.787903 516.503052,325.478119 525.190063,322.372345 
	C527.952087,321.384888 531.434204,320.254150 533.078308,323.864868 
	C534.855042,327.766724 533.039001,331.119751 529.531433,333.181732 
	C521.689087,337.791962 513.210632,338.387878 504.475464,336.478577 
	C499.482788,335.387299 494.910645,333.547089 492.104309,328.351440 
z"/>
<path fill="#000000" opacity="1.000000" stroke="none" 
	d="
M508.307465,204.040695 
	C504.383331,200.824951 503.448517,197.198502 506.231262,193.354858 
	C508.680206,189.972260 512.316650,188.702927 516.329285,190.246399 
	C520.006958,191.660995 522.531860,194.491013 521.901855,198.617950 
	C521.253113,202.867630 518.258179,205.098343 513.899475,205.319565 
	C512.059448,205.412933 510.261292,205.308243 508.307465,204.040695 
z"/>
</svg>