<svg width="32" height="32" viewBox="0 0 32 32" fill="none" xmlns="http://www.w3.org/2000/svg">
  <style>
    @media (prefers-color-scheme: dark) {
      .drum-icon { fill: #FFFFFF; } /* White for dark mode */
    }
    @media (prefers-color-scheme: light) {
      .drum-icon { fill: #4B006E; } /* Purple for light mode */
    }
  </style>
  <path class="drum-icon" d="M6.5 11.5C6.1 11.4 5.9 11 5.7 10.7C5.5 10.3 5.1 10.1 4.7 10.1C4.3 10.1 3.9 10.1 3.5 10.1C3.1 10.1 2.9 10 2.7 9.7C2.6 9.5 2.4 9.3 2.3 9.2C2 8.8 1.6 8.6 1.1 8.7C0.9 8.7 0.7 8.7 0.5 8.6C1.7 5 4 2.3 7.5 0.9C11.4 -0.7 15.1 -0.2 18.6 2.1C18.6 2.2 18.5 2.3 18.5 2.3C18.2 2.6 17.9 2.9 17.6 3.2C17.3 3.5 17.3 3.8 17.3 4.2C17.4 4.5 17.4 4.7 17.4 5C17.3 5.4 17.2 5.7 16.9 5.9C16.8 6 16.6 6.1 16.5 6.1C16.1 6.3 15.9 6.6 15.9 7C15.9 7.2 15.9 7.4 15.9 7.6C16 8.1 15.7 8.4 15.3 8.5C14.5 8.7 14.3 9.1 14.4 9.9C14.4 10.2 14.4 10.5 14.3 10.8C14.3 11.2 13.9 11.4 13.7 11.6C13.6 11.7 13.5 11.7 13.5 11.9C13.6 12 13.7 12.1 13.9 12C14.3 11.8 14.7 11.5 15 11.1C15.1 10.9 15.1 10.6 15.1 10.4C14.9 9.5 15.2 9.1 16 8.8C16.6 8.6 16.8 8.4 16.7 7.7C16.7 7.6 16.7 7.5 16.7 7.4C16.7 7 16.9 6.7 17.2 6.5C17.3 6.4 17.5 6.3 17.6 6.2C18.2 5.9 18.4 5.5 18.3 4.9C18.3 4.6 18.2 4.3 18.3 4C18.3 3.9 18.4 3.7 18.5 3.6C18.7 3.3 18.9 3 19.1 2.7C19.3 2.5 19.3 2.5 19.5 2.7C20.6 3.5 21.5 4.5 22.2 5.6C23.2 7.1 23.8 8.7 24 10.4C24.4 13.3 23.9 16 22.6 18.5C22.5 18.7 22.5 18.7 22.2 18.5C22 18.4 21.7 18.2 21.5 18C21.2 17.8 21 17.7 20.7 17.7C20.5 17.7 20.3 17.7 20.1 17.7C19.9 17.7 19.8 17.6 19.7 17.5C19.6 17.3 19.4 17.1 19.3 17C19 16.4 18.5 16.2 17.9 16.3C17.8 16.3 17.8 16.3 17.7 16.3C17.3 16.4 17 16.2 16.8 15.9C16.7 15.7 16.5 15.6 16.4 15.4C16.1 15.1 15.4 15 15.1 15.2C15 15.3 15 15.4 15.1 15.5C15.2 15.5 15.3 15.6 15.4 15.6C15.7 15.6 15.9 15.8 16 16.1C16.1 16.2 16.2 16.3 16.2 16.4C16.4 17 16.9 17.2 17.4 17.2C17.7 17.2 17.9 17.2 18.2 17.2C18.4 17.3 18.5 17.3 18.6 17.5C18.8 17.7 19 17.9 19.2 18.1C19.4 18.5 19.8 18.6 20.2 18.7C20.3 18.7 20.5 18.7 20.6 18.7C20.9 18.7 21.2 18.8 21.4 19C21.7 19.2 21.9 19.4 22.2 19.6C20.7 21.6 18.8 23.1 16.4 24C13.6 25.1 10.5 24.9 8.7 24.2C8.7 24.1 8.7 24 8.8 23.9C9 23.7 9.2 23.5 9.3 23.2C9.5 22.9 9.6 22.6 9.6 22.3C9.6 22 9.6 21.7 9.6 21.4C9.6 21.2 9.7 21.1 9.8 21C10 20.8 10.2 20.6 10.5 20.4C10.7 20.2 10.8 19.9 10.8 19.6C10.9 19.2 10.8 18.8 10.8 18.4C10.7 18 10.8 17.7 11 17.4C11.2 17.1 11.4 16.8 11.5 16.5C11.6 16.4 11.6 16.4 11.6 16.3C11.7 16.2 11.7 16.1 11.6 16C11.5 15.9 11.4 16 11.3 16C11.2 16.1 11.2 16.1 11.1 16.2C10.9 16.5 10.7 16.8 10.5 17C10.3 17.2 10.2 17.5 10.2 17.8C10.2 18.2 10.2 18.5 10.2 18.9C10.3 19.3 10.1 19.6 9.9 19.8C9.7 20 9.5 20.1 9.3 20.3C9 20.5 8.9 20.8 8.9 21.2C8.9 21.4 8.9 21.6 8.9 21.8C8.9 22.3 8.8 22.8 8.4 23.2C8.2 23.3 8 23.5 7.9 23.7C7.8 23.8 7.8 23.8 7.7 23.7C6.6 23.3 5.6 22.8 4.7 22.1C2.5 20.4 1.1 18.2 0.4 15.5C0.1 14.3 0 13 0 11.8C0 11 0.1 10.3 0.3 9.6C0.3 9.5 0.3 9.4 0.5 9.4C0.7 9.4 1 9.4 1.2 9.4C1.4 9.4 1.6 9.5 1.7 9.7C1.8 9.9 2 10.1 2.2 10.3C2.4 10.7 2.7 10.9 3.2 10.9C3.6 11 4 11 4.5 10.9C4.8 10.9 5.1 11 5.3 11.2C5.4 11.3 5.6 11.4 5.7 11.6C6.1 12 6.6 12.1 7.1 12.2C7.4 12.2 7.6 12.2 7.9 12.2C8.1 12.2 8.2 12.3 8.3 12.5C8.4 13 8.7 13.2 9.2 13.1C9.5 13.1 9.7 13.2 10 13.2C10.1 13.3 10.2 13.3 10.3 13.2C10.4 13 10.3 12.9 10.2 12.8C10 12.7 9.9 12.6 9.7 12.6C9.1 12.6 9 12.5 8.8 12C8.6 11.5 8.5 11.4 8 11.5C7.5 11.5 7 11.5 6.5 11.5ZM12.7 8.8C12.3 9 12.3 9 12.4 9.3C12.4 9.4 12.4 9.4 12.5 9.4C12.8 9.3 13 9.5 12.9 9.8C12.9 10 12.9 10.1 12.8 10.3C12.7 10.4 12.7 10.6 12.8 10.7C12.8 10.8 12.8 10.9 12.9 10.9C13 10.8 13.1 10.7 13.2 10.6C13.3 10.4 13.4 10.2 13.5 10C13.6 9.4 13.6 8.8 13.8 8.2C13.8 8.1 13.8 7.9 13.7 7.8C13.4 7.9 13.1 8.2 12.7 8.8ZM6.7 6.7C6.7 6.8 6.8 6.8 6.8 6.9C7.1 7.1 7.5 7.3 7.7 7.6C7.8 7.7 7.8 7.8 7.9 7.9C7.8 6.8 7.5 5.9 6.6 5.3C6.4 5.2 6.2 5.1 6 5.2C6 5.3 6.1 5.4 6.1 5.5C6.5 5.8 6.8 6.1 6.7 6.6C6.7 6.6 6.7 6.7 6.7 6.7ZM22.8 11C22.6 11 22.5 11.1 22.4 11.1C21.9 11.5 21.4 11.7 20.8 11.8C20.7 11.8 20.7 11.9 20.6 11.9C20.5 11.9 20.4 12 20.3 12C20.2 12.1 20.2 12.1 20.2 12.2C20.2 12.3 20.3 12.3 20.4 12.3C20.8 12.3 21.1 12.3 21.5 12.1C22.1 11.9 22.7 11.6 23.2 11.3C23.3 11.2 23.4 11.2 23.3 11C23.3 10.9 23.2 10.9 23.1 10.8C23 10.8 22.9 10.9 22.8 11ZM17.9 9.9C18 9.8 18 9.7 18 9.5C17.8 9.3 17.9 9.1 18.1 9C18.2 8.9 18.3 8.8 18.3 8.7C18.4 8.7 18.5 8.6 18.4 8.5C18.2 8.4 18.1 8.3 17.9 8.3C17.7 8.4 17.5 8.5 17.4 8.7C17.2 9 17 9.3 16.9 9.7C16.8 9.8 16.9 10 17 10.1C17.2 10.2 17.3 10.2 17.5 10.1C17.6 10 17.7 9.9 17.9 9.9ZM2.3 13.6C1.9 13.5 1.5 13.7 1.1 13.6C0.9 13.6 0.8 13.8 0.9 14C0.9 14.2 1 14.1 1.1 14.1C1.3 14.1 1.4 14 1.5 14.1C1.9 14.1 2.2 14.1 2.6 14.1C2.8 14.1 3 14.1 3.2 14C3.3 14 3.3 13.9 3.3 13.8C3.3 13.7 3.2 13.7 3.1 13.7C2.9 13.6 2.7 13.6 2.3 13.6ZM9.8 9.4C10.1 9.5 10.5 9.4 10.6 9.8C10.7 9.7 10.7 9.6 10.7 9.5C10.6 9.2 10.6 8.9 10.6 8.6C10.6 8.4 10.5 8.4 10.3 8.5C10.1 8.6 9.9 8.6 9.8 8.4C9.6 8.3 9.5 8.1 9.3 8C9.3 8.5 9.4 8.9 9.8 9.4ZM8.7 6.5C8.7 6.4 8.6 6.3 8.6 6.3C8.5 5.7 8.4 5.2 8.3 4.6C8.2 4.1 7.9 3.9 7.5 3.6C7.5 4.2 8.4 6.1 8.8 6.6C8.8 6.5 8.8 6.5 8.7 6.5ZM13.4 18.3C13.4 18.5 13.4 18.7 13.4 18.9C13.4 19 13.4 19.2 13.5 19.3C13.5 19.4 13.6 19.5 13.7 19.5C13.8 19.5 13.8 19.4 13.9 19.3C14 19.2 14 19 14.1 18.8C14.2 18.7 14.2 18.6 14.2 18.5C14.1 18 14 17.6 13.9 17.1C13.9 17 13.8 16.9 13.8 16.8C13.7 16.8 13.7 16.8 13.6 16.8C13.5 16.8 13.4 16.9 13.4 17C13.3 17.2 13.2 17.3 13.3 17.5C13.4 17.7 13.4 17.9 13.4 18.3ZM12.2 18.6C12.1 18.7 12.1 18.8 12.1 18.9C12.1 19.5 12 20.1 12 20.7C12 20.9 12 21.1 12.1 21.3C12.1 21.4 12.1 21.5 12.3 21.5C12.4 21.5 12.4 21.4 12.4 21.3C12.5 20.9 12.5 20.4 12.6 20C12.6 19.6 12.6 19.3 12.5 18.9C12.5 18.8 12.5 18.6 12.2 18.6ZM11.8 5C11.8 4.7 11.7 4.5 11.6 4.2C11.6 4 11.5 4 11.3 4C11.2 4 11.1 4.1 11.1 4.2C11.1 4.7 11.2 5.2 11.3 5.7C11.3 5.8 11.3 6 11.5 6.1C11.7 5.7 11.8 5.4 11.8 5ZM15.8 19.7C15.8 19.8 15.9 19.9 16 20C16 20.1 16.1 20.2 16.2 20.2C16.3 20.2 16.3 20.1 16.4 20C16.4 20 16.4 19.9 16.4 19.9C16.4 19.4 16.2 19 16 18.6C15.8 18.4 15.5 18.5 15.3 18.3C15.3 18.6 15.5 18.8 15.6 19C15.8 19.2 15.8 19.4 15.8 19.7ZM3.9 17.7C3.6 17.8 3.3 18 2.9 18.1C2.9 18.1 2.8 18.2 2.8 18.2C2.7 18.3 2.8 18.5 2.9 18.5C3.6 18.4 4.2 18.1 4.7 17.7C4.7 17.6 4.8 17.6 4.7 17.5C4.7 17.4 4.6 17.4 4.5 17.5C4.3 17.5 4.2 17.6 3.9 17.7ZM10.6 4.8C10.7 4.6 10.6 4.5 10.6 4.4C10.5 4.1 10.3 3.8 10.2 3.5C10.1 3.1 9.9 2.8 9.7 2.6C9.7 3.1 9.8 3.5 9.8 3.8C9.8 4.1 9.9 4.5 10.1 4.7C10.2 4.9 10.3 5 10.6 4.8ZM13.3 14.6C13.2 14.6 13.1 14.6 13.1 14.8C13 15.1 13.1 15.5 13.4 15.7C13.5 15.8 13.5 15.9 13.7 15.8C13.8 15.7 13.8 15.6 13.8 15.5C13.8 15.4 13.7 15.3 13.7 15.2C13.7 14.9 13.5 14.8 13.3 14.6ZM14.1 4.3C14.3 3.8 14.3 3.2 14.1 3C14 3 13.9 3.1 13.9 3.2C13.8 3.5 13.6 3.8 13.5 4.1C13.4 4.3 13.4 4.5 13.4 4.6C13.4 4.7 13.4 4.8 13.5 4.8C13.6 4.9 13.7 4.8 13.7 4.8C13.9 4.6 14 4.5 14.1 4.3ZM15 22.5C14.9 21.9 14.8 21.4 14.6 20.8C14.6 20.7 14.6 20.7 14.5 20.7C14.4 20.7 14.3 20.7 14.3 20.8C14.3 20.9 14.2 21 14.3 21.1C14.3 21.6 14.4 22.1 14.6 22.6C14.6 22.7 14.6 22.7 14.7 22.7C14.8 22.7 14.9 22.7 14.9 22.6C15 22.5 15 22.5 15 22.5ZM5.3 7.7C5.5 7.8 5.6 8 5.9 8.1C6 8.1 6.1 8.1 6.1 7.9C6.1 7.8 6 7.7 6 7.6C5.8 7.5 5.7 7.3 5.5 7.2C5.4 7.1 5.2 7.1 5 7.1C5.1 7.3 5.2 7.5 5.3 7.7ZM13.4 6.5C13.5 6.3 13.5 6.1 13.6 5.9C13.6 5.7 13.6 5.5 13.6 5.3C13.6 5.2 13.5 5.1 13.5 5.1C13.3 5.3 13.2 5.5 13.1 5.7C13 5.9 12.9 6.1 12.9 6.3C12.9 6.4 12.9 6.5 13 6.5C13.1 6.6 13.2 6.5 13.3 6.5C13.3 6.5 13.4 6.5 13.4 6.5ZM7.5 9.2C7.7 9.3 7.8 9.4 8 9.4C8.1 9.4 8.3 9.5 8.4 9.3C8.4 9.2 8.3 9.1 8.3 9C8 8.8 7.8 8.6 7.5 8.5C7.4 8.4 7.3 8.4 7.2 8.5C7.1 8.5 7.1 8.6 7.1 8.7C7.1 8.8 7.2 8.9 7.3 8.9C7.4 9 7.4 9.1 7.5 9.2ZM18.2 19.3C18.4 19.5 18.6 19.5 18.8 19.6C18.9 19.6 19 19.6 19.1 19.5C19.1 19.4 19.1 19.3 19 19.3C18.8 19.1 18.5 19 18.3 18.9C18.2 18.9 18.1 18.9 18 19C18.1 19.1 18.2 19.2 18.2 19.3ZM8.5 14.6C8.3 14.6 8.1 14.6 8 14.7C7.8 14.7 7.6 14.8 7.5 15C7.6 15.1 7.7 15.1 7.8 15.1C8.1 15.1 8.4 15 8.6 14.9C8.8 14.9 8.9 14.8 9 14.6C8.8 14.6 8.7 14.6 8.5 14.6ZM8.4 17.5C8.2 17.5 8 17.6 7.8 17.7C7.7 17.7 7.5 17.8 7.6 18C7.7 18.1 7.8 18.1 7.9 18.1C8.2 18 8.5 17.8 8.7 17.6C8.8 17.6 8.9 17.5 8.8 17.4C8.8 17.3 8.7 17.3 8.6 17.4C8.5 17.4 8.5 17.5 8.4 17.5ZM8.5 2.3C8.6 2.5 8.6 2.8 8.8 3C9 2.8 8.9 2.6 8.9 2.3C8.8 2 8.7 1.7 8.4 1.6C8.4 1.8 8.4 2 8.5 2.3ZM11.3 1C11.1 1.3 11 1.5 11.1 1.8C11.2 1.9 11.2 2 11.3 2C11.4 2 11.4 1.9 11.5 1.9C11.6 1.6 11.7 1.3 11.9 1C11.7 1 11.5 1 11.3 1ZM18.9 7.1C18.8 7.3 18.6 7.5 18.6 7.8C18.7 7.8 18.8 7.8 18.8 7.8C19.1 7.5 19.4 7.2 19.8 6.9C19.6 6.8 19.4 6.9 19.3 6.9C19.1 6.9 19 7 18.9 7.1ZM11.8 11.1C11.9 10.9 11.9 10.7 11.9 10.5C11.9 10.3 11.8 10.2 11.7 10.1C11.6 10.1 11.6 10.1 11.5 10.2C11.3 10.4 11.2 10.7 11.1 11C11.1 11.1 11.1 11.2 11.2 11.2C11.3 11.3 11.4 11.3 11.4 11.2C11.5 11.2 11.6 11.1 11.8 11.1ZM8.8 15.6C9.1 15.6 9.3 15.5 9.5 15.3C9.2 15.2 9 15.2 8.7 15.2C8.5 15.3 8.5 15.4 8.4 15.5C8.3 15.6 8.3 15.7 8.4 15.7C8.5 15.8 8.5 15.8 8.6 15.7C8.7 15.7 8.8 15.6 8.8 15.6ZM9.4 10.8C9.6 11 9.7 11.3 9.9 11.4C10.1 11.2 10.1 11 9.8 10.7C9.6 10.5 9.5 10.5 9.3 10.6C9.4 10.7 9.4 10.7 9.4 10.8ZM11.9 11.6C11.8 11.7 11.8 11.8 11.8 11.9C11.8 12.1 11.9 12.3 12 12.4C12.1 12.5 12.1 12.6 12.2 12.6C12.3 12.6 12.3 12.5 12.4 12.5C12.4 12.2 12.6 12 12.4 11.7C12.3 11.6 12.3 11.5 12.2 11.4C12.1 11.4 12.1 11.5 11.9 11.6ZM20.1 10.8C20.4 10.7 20.7 10.6 21 10.5C21.1 10.5 21.1 10.4 21.1 10.3C21.1 10.2 21 10.2 21 10.2C20.6 10.2 20.3 10.3 19.9 10.4C19.8 10.4 19.7 10.5 19.8 10.6C19.9 10.7 20 10.7 20.1 10.8ZM7.9 16.4C7.6 16.5 7.3 16.7 7 16.8C6.9 16.8 6.9 16.9 6.9 17C6.9 17 6.9 17.1 7 17.1C7.3 17.1 7.6 17 7.9 16.9C8 16.9 8.1 16.8 8.1 16.7C8 16.6 7.9 16.6 7.9 16.4ZM17.8 12.7C18.1 12.6 18.4 12.5 18.6 12.3C18.3 12.2 17.9 12.3 17.6 12.5C17.5 12.5 17.5 12.6 17.5 12.7C17.6 12.7 17.7 12.7 17.8 12.7ZM13.5 13.1C13.4 13.1 13.3 13.1 13.2 13.2C13.1 13.3 13.1 13.4 13.2 13.4C13.3 13.5 13.5 13.6 13.6 13.5C13.8 13.4 14 13.3 14.1 13.2C14.2 13.1 14.2 13.1 14.1 13C14 12.9 13.9 12.9 13.9 13C13.7 13 13.6 13.1 13.5 13.1ZM3.5 12.8C3.8 12.9 4 12.9 4.3 12.9C4.4 12.9 4.5 12.8 4.5 12.7C4.5 12.6 4.4 12.6 4.4 12.6C4.1 12.5 3.7 12.5 3.4 12.5C3.3 12.5 3.2 12.5 3.2 12.6C3.3 12.7 3.4 12.7 3.5 12.8ZM4.7 16.1C4.9 16 5.1 15.9 5.3 15.8C5.4 15.8 5.5 15.7 5.5 15.6C5.5 15.5 5.4 15.5 5.3 15.5C5.1 15.5 4.8 15.6 4.6 15.7C4.5 15.7 4.4 15.8 4.4 15.9C4.5 16 4.6 16 4.7 16.1ZM4.4 15.1C4.1 15 3.8 15.1 3.4 15.1C3.3 15.1 3.2 15.2 3.2 15.3C3.2 15.3 3.3 15.4 3.3 15.4C3.6 15.5 3.8 15.5 4.1 15.3C4.2 15.3 4.3 15.3 4.3 15.1C4.3 15.1 4.3 15.1 4.4 15.1ZM7.8 20.9C8.1 20.8 8.4 20.3 8.4 20C8.4 19.9 8.4 19.9 8.3 19.9C8.3 19.9 8.2 19.9 8.2 19.9C8 20.1 7.8 20.3 7.7 20.6C7.7 20.7 7.7 20.8 7.8 20.9ZM6.2 3.3C6.3 3.5 6.4 3.6 6.6 3.8C6.7 3.8 6.7 3.8 6.7 3.6C6.7 3.6 6.7 3.5 6.7 3.5C6.6 3.2 6.4 2.9 6.3 2.5C6.2 2.7 6.2 2.9 6.2 3.3ZM20.1 10.8C20.4 10.9 20.6 10.9 20.9 10.9C20.9 10.9 21 10.8 21 10.8C21 10.7 21 10.7 20.9 10.7C20.6 10.5 20.3 10.5 20 10.4C19.9 10.4 19.9 10.5 19.9 10.5C19.9 10.6 20 10.7 20.1 10.8ZM5.3 20.5C5.5 20.3 5.6 20.1 5.6 19.8C5.3 19.9 5.2 20 5 20.4C5.1 20.4 5.2 20.4 5.3 20.5ZM14 1.5C14 1.3 13.9 1.2 13.7 1.1C13.7 1.3 13.6 1.5 13.6 1.8C13.7 1.7 13.8 1.6 14 1.5ZM14.3 14.2C14.5 14.1 14.5 13.9 14.5 13.8C14.5 13.7 14.4 13.6 14.3 13.7C14.2 13.8 14.1 13.9 14 14.1C14.1 14.1 14.2 14.1 14.3 14.2ZM17 20.6C16.9 20.8 16.9 21 17 21.2C17.1 21.1 17.2 21 17.2 20.8C17.2 20.7 17.2 20.5 17 20.6ZM3.8 17.3C4 17.2 4.2 17.2 4.4 17.1C4.5 17.1 4.6 17 4.6 16.9C4.6 16.8 4.5 16.8 4.4 16.8C4.2 16.8 3.9 16.9 3.7 17C3.6 17 3.6 17.1 3.6 17.1C3.7 17.2 3.7 17.2 3.8 17.3ZM5.6 13.9C5.8 13.9 6 13.8 6.2 13.8C6.3 13.8 6.4 13.7 6.4 13.6C6.4 13.5 6.3 13.5 6.2 13.5C6 13.5 5.8 13.5 5.6 13.6C5.5 13.6 5.4 13.7 5.5 13.8C5.5 13.8 5.6 13.9 5.6 13.9ZM6.7 14.3C6.9 14.4 7.1 14.4 7.3 14.3C7.1 14.1 6.9 14.1 6.6 14.1C6.7 14.2 6.7 14.2 6.7 14.3ZM16 4.2C16 4.1 16 4 15.9 3.9C15.8 3.9 15.8 4 15.7 4C15.7 4.1 15.6 4.2 15.6 4.3C15.6 4.4 15.7 4.5 15.8 4.5C15.9 4.5 16 4.4 16 4.2ZM18.1 10.4C18.3 10.5 18.5 10.4 18.6 10.3C18.6 10.2 18.6 10.2 18.5 10.1C18.4 10.1 18.3 10.1 18.2 10.1C18.1 10.1 18 10.2 18 10.3C18 10.3 18.1 10.4 18.1 10.4ZM22.5 14.7C22.6 14.7 22.7 14.7 22.8 14.7C22.9 14.7 23 14.6 23 14.5C23 14.4 22.9 14.4 22.9 14.4C22.7 14.4 22.5 14.4 22.3 14.5C22.3 14.5 22.2 14.6 22.3 14.6C22.3 14.7 22.4 14.7 22.5 14.7ZM7.1 21.1C7.3 21 7.4 20.8 7.4 20.6C7.3 20.6 7.2 20.7 7.1 20.8C7 20.9 6.9 21 7.1 21.1ZM13.9 23.5C13.9 23.7 14 23.9 14.1 24.1C14.1 23.8 14.1 23.6 14.1 23.4C14.1 23.3 14.2 23.1 14 23.1C13.9 23.1 13.9 23.3 13.9 23.5ZM12.8 21.1C12.8 21.2 12.8 21.4 12.9 21.5C13 21.4 13 21.3 13 21.1C13 21 13 20.9 12.8 21.1ZM9.7 1.4C9.8 1.4 9.8 1.4 9.9 1.4C10 1.4 10.1 1.3 10.1 1.2C10.1 1.1 10 1.1 9.9 1.1C9.8 1.1 9.7 1.1 9.6 1.2C9.6 1.2 9.5 1.3 9.6 1.3C9.6 1.4 9.7 1.4 9.7 1.4ZM1.8 11.8C1.9 11.8 2 11.8 2 11.7C2 11.6 1.9 11.6 1.9 11.6C1.7 11.6 1.6 11.6 1.4 11.7C1.4 11.8 1.5 11.8 1.8 11.8ZM1.5 15.4C1.6 15.5 1.6 15.5 1.7 15.5C1.8 15.5 1.9 15.4 1.9 15.3C1.9 15.3 1.9 15.2 1.8 15.2C1.7 15.1 1.6 15.1 1.5 15.1C1.4 15.1 1.3 15.2 1.3 15.2C1.4 15.3 1.4 15.3 1.5 15.4ZM21.4 16.3C21.5 16.3 21.6 16.3 21.7 16.3C21.8 16.3 21.9 16.2 21.9 16.1C21.9 16 21.8 16 21.7 16C21.6 16 21.5 16 21.4 16.1C21.3 16.1 21.3 16.2 21.4 16.3ZM20.1 8.5C20.3 8.4 20.5 8.3 20.6 8.1C20.4 8 20.1 8.1 19.9 8.2C19.8 8.2 19.8 8.3 19.8 8.3C19.9 8.4 20 8.4 20.1 8.5ZM13.5 13.8C13.4 13.9 13.4 14 13.4 14.1C13.5 14.1 13.6 14.1 13.6 14C13.7 13.9 13.8 13.8 13.8 13.7C13.8 13.6 13.7 13.6 13.6 13.6C13.6 13.7 13.5 13.7 13.5 13.8ZM11.2 14.8C11.1 14.9 11.1 15 11.1 15.1C11.2 15.1 11.3 15.1 11.3 15C11.4 14.9 11.5 14.8 11.5 14.7C11.5 14.6 11.4 14.6 11.3 14.6C11.3 14.7 11.2 14.7 11.2 14.8ZM10.8 16.5C10.9 16.5 11 16.5 11.1 16.4C11.2 16.4 11.2 16.3 11.2 16.2C11.2 16.1 11.1 16.1 11 16.1C10.9 16.1 10.8 16.2 10.7 16.2C10.7 16.3 10.7 16.3 10.8 16.5ZM2.2 15.9C2.4 15.9 2.5 15.9 2.7 15.8C2.8 15.8 2.9 15.7 2.8 15.6C2.8 15.5 2.7 15.5 2.6 15.5C2.5 15.5 2.3 15.6 2.2 15.6C2.1 15.6 2 15.7 2.1 15.8C2.1 15.8 2.2 15.9 2.2 15.9ZM17.8 20.9C17.8 21 17.8 21.1 17.9 21.2C18 21.1 18 21 18 20.9C18 20.8 18 20.7 17.8 20.9ZM6.1 21.3C6.2 21.2 6.3 21.1 6.2 21C6.1 20.9 6 21 5.9 21.1C5.9 21.2 6 21.2 6.1 21.3ZM15.9 2.1C15.9 2.2 15.9 2.3 16 2.4C16.1 2.3 16.1 2.2 16.1 2.1C16.1 2 16.1 1.9 15.9 2.1ZM12.7 23.8C12.7 23.9 12.7 24 12.8 24.1C12.9 24 12.9 23.9 12.9 23.8C12.9 23.7 12.9 23.6 12.7 23.8ZM29.5 14.2C30.3 17.3 31.1 20.4 31.9 23.5C32.1 24 32.2 24.5 32.1 25.1C31.9 25.6 31.6 25.9 31.1 26C30.6 26.1 30.2 25.9 29.9 25.5C29.6 25.2 29.5 24.8 29.4 24.4C29.1 22.5 28.8 20.6 28.5 18.7C28.2 17 27.9 15.3 27.6 13.6C27.4 12.2 27.1 10.8 26.9 9.4C26.8 9 26.8 8.6 26.7 8.3C26.6 8.3 26.5 8.3 26.4 8.3C26.2 8.4 25.9 8.4 25.8 8.2C25.6 7.9 25.5 7.7 25.6 7.4C25.6 7.3 25.6 7.2 25.5 7.1C25.5 7 25.4 6.9 25.4 6.8C25.2 6.5 25.4 6.2 25.7 6.2C26.6 6.1 27.5 6 28.4 5.9C28.5 5.9 28.6 5.9 28.7 6C28.7 6.1 28.7 6.2 28.8 6.3C29 6.3 29.2 6.2 29.4 6.2C30 6.1 30.5 6.2 31 6.5C31.1 6.6 31.1 6.6 31.2 6.7C31.3 6.9 31.4 7.1 31.3 7.2C31.1 7.4 31 7.3 30.8 7.2C30.4 7.1 30 7 29.6 7C29.8 7.2 30.1 7.4 30.2 7.6C30.5 7.9 30.7 8.2 30.8 8.6C30.8 8.7 30.9 8.9 30.8 9C30.6 9.1 30.5 9 30.3 8.9C30.1 8.8 29.9 8.6 29.8 8.4C29.6 8.2 29.3 8 29 7.9C28.8 7.8 28.7 7.8 28.6 7.9C28.4 8 28.4 8.1 28.4 8.3C28.6 9.2 28.8 10.2 29 11.1C29.2 12.1 29.4 13.1 29.5 14.2Z" fill="#4B006E"/>
</svg> 