<svg width="733" height="588" viewBox="0 0 733 588" fill="none" xmlns="http://www.w3.org/2000/svg">
<path d="M148.929 263.347C139.466 260.747 134.807 253.289 130.61 246.033C125.076 236.469 117.039 232.94 106.604 233.041C97.938 233.125 89.2707 233.025 80.6043 233.034C72.5343 233.042 66.0901 229.882 61.4186 223.253C58.636 219.304 55.9781 215.265 53.1039 211.385C45.9368 201.709 36.7991 196.534 24.2945 198.537C20.6184 199.126 16.7252 199.498 11.8951 197.594C39.3446 115.028 90.579 53.8093 171.744 21.124C261.122 -14.8687 346.716 -4.0091 427.423 47.163C427.158 50.4595 425.469 51.4792 424.225 52.731C417.294 59.7051 410.562 66.9083 403.255 73.4678C396.08 79.908 394.656 87.7128 395.995 96.579C396.914 102.659 397.764 108.718 397.664 114.913C397.533 123.078 394.213 129.43 387.453 133.826C383.837 136.177 379.894 138.033 376.06 140.038C368.321 144.084 363.93 149.902 364.368 159.176C364.608 164.256 363.993 169.357 364.361 174.525C365.096 184.822 358.131 190.51 349.92 193.89C334.98 200.041 330.633 208.019 331.346 225.251C331.623 231.947 331.248 238.608 330.207 245.167C328.833 253.82 321.537 258.184 315.764 263.598C313.952 265.297 310.875 266.312 312.187 269.891C313.562 273.645 315.989 275.587 319.847 273.715C329.895 268.841 338.615 262.221 344.262 252.392C347.216 247.251 346.45 241.285 345.703 235.715C343.237 217.333 348.837 207.577 365.901 201.404C378.717 196.768 382.56 191.036 382.042 177.389C381.953 175.059 382.089 172.715 381.911 170.393C381.227 161.473 385.315 155.012 392.352 150.14C395.634 147.867 399.1 145.857 402.505 143.766C414.257 136.552 418.599 126.464 416.348 112.773C415.246 106.062 414.508 99.2611 414.911 92.4033C415.167 88.0566 416.812 84.3715 419.715 81.1772C425.319 75.0123 430.894 68.8224 436.49 62.6502C441.128 57.5333 441.119 57.5557 446.415 61.8292C469.956 80.8238 489.932 103.028 506.309 128.453C528.049 162.204 542.512 198.865 548.369 238.573C557.98 303.721 546.647 365.359 515.562 423.381C512.227 429.607 512.163 429.552 506.042 425.883C500.001 422.263 494.869 417.472 489.585 412.913C484.147 408.221 478.101 405.887 470.896 405.956C466.255 406 461.605 405.377 456.964 404.99C453.371 404.69 450.813 402.59 448.732 399.87C445.696 395.9 442.41 392.065 439.838 387.806C432.184 375.131 420.659 371.682 406.828 373.249C405.339 373.418 403.831 373.506 402.368 373.807C393.644 375.603 387.718 371.652 382.97 364.771C380.52 361.22 377.702 357.904 374.867 354.641C368.949 347.831 354.565 345.598 346.919 350.147C344.24 351.741 344.027 353.559 346.178 355.763C347.898 357.524 349.937 358.321 352.426 358.395C358.942 358.588 363.854 361.538 367.021 367.299C368.304 369.632 369.964 371.819 370.877 374.285C375.647 387.168 385.54 391.464 398.383 391.367C404.019 391.324 409.685 390.848 415.3 392.23C418.883 393.112 421.731 394.769 423.916 397.724C427.679 402.813 431.755 407.691 435.254 412.953C440.059 420.182 446.92 423.011 455.178 423.328C458.674 423.462 462.178 423.403 465.676 423.489C472.023 423.646 477.675 425.588 482.756 429.547C489.165 434.541 495.813 439.229 502.814 444.385C470.231 492.901 427.344 527.779 373.196 548.728C310.451 573.003 239.25 569.16 197.984 554.134C197.825 551.36 199.844 549.671 201.332 547.767C205.431 542.521 209.964 537.639 213.814 532.17C218.016 526.2 219.806 519.619 219.897 512.489C219.991 505.157 219.964 497.822 219.846 490.491C219.788 486.928 221.014 484.094 223.456 481.529C228.856 475.857 234.308 470.32 240.759 465.746C246.251 461.852 248.558 455.824 248.895 449.289C249.349 440.482 249.108 431.71 247.357 422.956C245.836 415.347 246.882 408.072 252.578 402.003C257.374 396.893 261.366 391.127 265.226 385.287C266.14 383.904 267.071 382.478 267.654 380.943C268.454 378.837 268.59 376.592 266.605 374.977C264.495 373.26 262.143 373.658 260.12 375.075C258.506 376.206 256.958 377.598 255.802 379.183C251.268 385.402 246.058 390.992 240.553 396.343C235.945 400.822 233.473 406.124 233.395 412.777C233.295 421.288 233.846 429.737 234.72 438.168C235.61 446.752 232.471 453.483 225.923 458.741C221.641 462.18 217.221 465.456 212.757 468.658C205.865 473.6 202.493 480.243 202.571 488.701C202.621 494.2 202.5 499.703 202.643 505.199C202.924 516.024 199.914 525.475 191.824 533.072C187.813 536.838 184.23 541.037 181.546 545.879C179.969 548.725 178.002 547.521 176.011 546.734C151.509 537.049 128.919 523.947 108.393 507.522C58.1903 467.35 25.4028 415.794 9.37539 353.616C2.66384 327.578 -0.37876 301.013 0.037531 274.122C0.315805 256.146 2.68072 238.362 6.08668 220.716C6.66496 217.72 8.009 216.139 11.4478 216.312C16.9336 216.587 22.4463 216.476 27.9428 216.338C32.9415 216.213 36.4849 218.233 39.0415 222.546C42.3536 228.133 45.9657 233.542 49.4087 239.052C54.6948 247.512 62.6892 251.6 72.2724 252.239C82.5714 252.925 92.9179 252.843 103.238 251.977C110.244 251.389 115.817 254.653 120.714 259.174C124.138 262.336 127.617 265.54 130.477 269.19C138.866 279.897 150.371 283.032 163.152 283.315C168.483 283.433 173.829 283.549 179.149 283.28C183.904 283.04 187.28 285.125 188.233 289.409C190.886 301.335 198.561 304.735 209.712 303.38C215.437 302.685 220.945 304.437 226.432 305.736C229.293 306.414 231.966 306.401 233.625 303.949C235.545 301.111 233.874 298.542 231.895 296.336C228.447 292.492 224.054 291.008 218.954 290.974C206.446 290.89 205.075 289.879 200.723 278.327C196.367 266.762 193.868 265.071 181.424 266.29C170.511 267.358 159.846 266.268 148.929 263.347ZM289.788 200.797C280.584 206.172 280.584 206.172 282.361 213.338C282.777 213.452 283.247 213.704 283.705 213.686C291.744 213.366 294.582 216.397 293.273 224.397C292.604 228.486 291.791 232.64 290.309 236.482C288.714 240.617 288.764 244.569 289.966 248.593C290.447 250.206 290.082 252.554 292.421 253.115C294.984 253.729 296.468 251.908 297.762 250.185C301.243 245.551 302.636 240.031 303.893 234.529C306.809 221.759 306.961 208.506 310.671 195.848C311.551 192.844 310.592 189.686 309.128 186.156C302.232 190.499 297.675 197.317 289.788 200.797ZM153.651 153.487C154.228 154.932 155.281 155.961 156.527 156.84C163.58 161.816 170.471 166.945 175.693 174.01C176.746 175.435 177.684 177.428 180.346 177.996C177.482 155.095 168.492 135.907 150.75 121.402C146.922 118.272 142.243 116.525 136.978 118.664C137.623 121.587 139.221 123.509 140.933 125.3C147.927 132.616 154.441 140.119 152.858 151.362C152.797 151.792 153.189 152.285 153.651 153.487ZM520.913 250.975C517.936 251 515.351 252.352 513.096 253.973C503.35 260.983 492.48 265.091 480.756 267.24C478.981 267.565 477.288 268.38 475.58 269.029C473.059 269.987 470.911 271.562 468.88 273.293C467.783 274.229 467.26 275.466 467.76 276.87C468.302 278.391 469.357 279.421 471.116 279.33C479.399 278.902 488.091 279.447 495.675 276.175C507.064 271.262 518.336 265.856 528.679 258.809C530.371 257.656 532.375 256.861 531.553 254.3C530.809 251.984 528.931 250.841 526.644 250.639C525.017 250.495 523.348 250.818 520.913 250.975ZM410.156 227.092C411.559 225.432 412.038 223.714 410.991 221.598C408.59 216.748 411.174 213.294 414.549 210.266C416.27 208.722 418.388 207.627 420.155 206.128C421.424 205.051 422.897 203.28 421.323 201.88C418.729 199.572 415.072 196.673 412.045 198.108C407.734 200.15 402.571 201.76 399.989 206.459C396.946 211.995 393.869 217.537 391.285 223.292C389.476 227.322 390.728 231.366 393.974 234.193C397.127 236.94 400.553 235.424 403.668 233.515C406.117 232.015 408.118 230.03 410.156 227.092ZM53.1608 312.344C43.5219 310.706 34.0367 313.945 24.3821 313.233C20.7968 312.968 18.8396 317.107 19.6597 321.567C20.4146 325.672 23.1147 323.827 25.4625 323.63C28.5987 323.366 31.8424 323.012 34.9056 323.514C43.0202 324.846 51.1656 323.944 59.2755 324.396C64.1319 324.667 68.4371 323.246 72.6767 321.26C74.0024 320.639 75.6961 320.159 75.6944 318.331C75.6923 316.099 73.6322 316.003 72.143 315.475C66.2858 313.398 59.9814 314.093 53.1608 312.344ZM222.736 216.001C228.497 218.428 236.242 216.045 239.462 223.909C241.333 221.746 241.029 219.991 240.888 218.403C240.329 212.122 239.378 205.868 239.033 199.579C238.802 195.354 237.302 194.618 233.776 196.491C228.904 199.079 225.019 197.669 221.291 193.84C218.69 191.168 217.12 187.469 212.58 184.965C211.674 197.075 214.118 207.097 222.736 216.001ZM198.552 147.92C198.347 147.289 198.093 146.669 197.946 146.024C194.994 133.089 192.823 119.995 190.059 107.015C187.621 95.5689 179.504 89.9133 171.005 83.6172C171.4 97.0775 189.769 140.116 199.146 149.944C199.023 149.46 198.901 148.975 198.552 147.92ZM306.594 417.227C306.55 421.057 306.502 424.888 306.462 428.718C306.424 432.402 306.659 436.029 308.292 439.443C308.868 440.648 309.163 442.131 310.84 442.08C312.183 442.039 312.65 440.82 313.216 439.783C315.127 436.282 316.871 432.662 319.092 429.367C320.842 426.77 321.271 424.354 320.318 421.407C317.711 413.345 315.392 405.206 313.906 396.84C313.565 394.918 312.597 393.095 311.829 391.264C311.298 390 310.541 388.835 308.901 389.035C307.386 389.219 306.444 390.341 306.194 391.654C305.518 395.19 304.13 398.565 305.089 402.414C306.209 406.908 306.89 411.55 306.594 417.227ZM279.283 424.586C277.295 426.234 276.828 428.747 276.819 430.91C276.765 443.358 273.8 455.61 274.526 468.109C274.795 472.736 274.278 477.438 275.871 481.9C276.498 483.655 276.685 486.224 279.311 486.187C282.122 486.148 281.984 483.628 282.177 481.731C283.166 472.024 283.716 462.258 285.102 452.61C286.213 444.883 285.772 437.405 283.758 429.981C283.16 427.777 283.305 424.755 279.283 424.586ZM270.15 115.331C270.635 109.356 267.137 104.14 266.906 98.3071C266.733 93.9283 263.694 94.0627 260.547 94.0167C257.003 93.9648 256.612 96.0725 256.555 98.8918C256.322 110.421 258.06 121.688 261.061 132.764C261.787 135.442 261.182 138.73 264.31 141.191C269.239 133.306 270.625 125.024 270.15 115.331ZM361.287 453.134C361.876 455.391 362.494 457.658 364.099 459.434C365.567 461.058 367.237 462.602 369.655 462.087C372.156 461.555 372.07 459.202 372.517 457.322C372.746 456.362 372.915 455.341 372.849 454.365C372.188 444.578 368.069 436.064 362.218 428.53C358.736 424.045 352.07 425.786 346.839 421.21C348.113 428.257 350.98 432.719 354.301 436.703C358.176 441.353 360.525 446.408 361.287 453.134ZM89.1459 403.225C81.3897 405.242 74.4605 409.361 66.935 411.962C65.261 412.54 64.0363 413.661 63.2758 415.167C61.8397 418.011 63.8146 421.574 66.6419 421.122C81.7636 418.7 95.2894 412.862 106.418 402.078C107.575 400.957 109.255 399.785 107.913 397.897C106.831 396.375 105.214 397.035 103.815 397.577C99.1718 399.373 94.5446 401.211 89.1459 403.225ZM240.925 108.82C242.618 106.667 241.196 104.704 240.486 102.75C237.604 94.8176 234.255 87.0698 231.957 78.9054C230.017 72.0127 226.669 65.6879 221.998 58.4835C222.971 69.2189 223.513 78.4607 224.737 87.6115C225.656 94.488 227.053 101.461 231.527 107.095C233.714 109.85 236.376 113.173 240.925 108.82ZM305.091 333.334C302.866 332.888 300.819 332.659 299.761 335.432C296.411 344.213 300.212 357.236 307.732 362.35C309.972 363.873 311.958 366.286 315.143 363.749C318.312 361.225 318.424 358.307 317.175 354.851C316.226 352.223 315.076 349.712 314.853 346.774C314.396 340.764 311.363 336.238 305.091 333.334ZM322.201 99.9479C326.145 90.2016 326.38 73.9668 322.616 70.3979C320.829 70.8142 319.48 72.0199 319.204 73.6782C317.967 81.1268 313.356 87.0006 310.049 93.4473C307.88 97.674 307.445 101.926 307.609 106.44C307.664 107.962 307.661 109.534 309.383 110.203C310.958 110.815 312.388 110.214 313.509 109.154C316.399 106.419 319.497 103.874 322.201 99.9479ZM341.934 514.266C341.291 504.19 338.043 494.757 334.778 485.329C334.301 483.951 333.394 482.968 331.845 483.102C330.14 483.249 327.766 483.981 327.861 485.462C328.064 488.643 326.099 491.588 326.806 494.53C329.171 504.373 331.594 514.22 335.4 523.649C335.927 524.955 336.491 526.242 338.136 526.021C339.755 525.804 340.642 524.767 341.052 523.067C341.682 520.452 342.049 517.844 341.934 514.266ZM121.718 175.293C126.09 176.982 128.48 181.688 133.365 182.718C137.544 183.6 139.583 182.101 138.885 177.89C138.426 175.117 137.584 172.402 136.821 169.687C136.163 167.342 134.833 164.965 132.525 164.54C127.735 163.661 123.343 161.749 118.762 160.338C115.137 159.222 111.178 161.828 110.667 164.97C109.877 169.82 112.264 173.604 116.558 174.311C118.026 174.553 119.493 174.798 121.718 175.293ZM306.762 148.868C307.338 145.364 307.914 141.859 308.49 138.355C306.065 142.442 303.077 145.97 300.364 149.698C296.165 155.47 292.092 161.336 288.083 167.241C287.221 168.511 286.015 169.87 287.241 171.761C291.614 178.507 294.6 178.772 300.19 172.78C302.28 170.54 303.623 168.024 304.026 164.882C304.677 159.794 305.656 154.749 306.762 148.868ZM171.072 209.485C174.294 211.642 177.891 212.852 181.687 213.353C183.296 213.565 185.564 215.102 186.455 212.551C187.194 210.433 185.061 209.328 183.681 208.313C177.25 203.581 172.154 197.854 169.472 190.204C169.363 189.893 169.242 189.564 169.041 189.31C166.913 186.611 163.905 184.032 160.792 185.174C158.009 186.195 157.985 189.933 158.421 193.088C158.857 196.251 160.41 198.661 162.516 200.837C165.169 203.578 167.874 206.269 171.072 209.485ZM416.592 441.971C419.333 445.278 423.546 444.704 427.079 445.899C430.51 447.059 431.436 445.106 430.658 442.245C429.189 436.839 425.91 432.654 420.7 430.52C415.435 428.363 410.573 425.584 405.804 422.543C402.666 420.543 399.527 418.354 394.734 418.468C401.12 427.415 409.317 433.781 416.592 441.971ZM348.104 282.789C347.441 284.02 345.973 285.161 347.616 286.654C360.495 287.048 371.409 282.801 373.92 269.935C374.679 266.04 373.077 263.534 369.22 264.331C366.05 264.985 362.597 265.755 360.928 269.191C359.938 271.228 358.398 272.847 356.441 273.736C352.563 275.496 350.287 278.584 348.104 282.789ZM195.449 408.334C193.884 408.87 192.242 409.252 190.765 409.97C183.569 413.47 176.145 416.792 173.691 425.485C172.748 428.825 172.414 432.345 175.979 434.32C179.141 436.071 181.585 433.795 183.863 431.843C190.246 426.375 193.02 418.532 197.155 411.585C197.989 410.186 197.746 409.044 195.449 408.334ZM254.887 503.968C255.171 501.013 256.554 498.183 256.158 494.638C254.595 496.405 253.359 497.75 252.18 499.142C246.879 505.403 244.899 513.493 240.577 520.378C237.829 524.756 239.651 530.818 240.508 536.254C245.675 532.55 250.3 528.925 250.894 522.27C251.428 516.286 253.284 510.573 254.887 503.968ZM222.521 358.871C229.846 358.829 234.662 354.973 238.423 348.701C230.589 346.408 223.455 346.562 216.088 349.179C210.939 351.008 211.063 355.698 208.956 359.22C207.887 361.008 207.38 362.452 209.295 363.979C210.995 365.334 212.482 365.264 214.241 364.017C216.674 362.293 219.265 360.79 222.521 358.871ZM215.537 248.95C219.772 253.88 222.205 260.354 228.025 264.056C233.025 256.51 231.191 250.603 220.979 240.424C215.127 234.591 211.403 233.713 206.067 237.28C209.088 241.004 212.087 244.7 215.537 248.95ZM291.446 511.852C290.852 513.224 290.225 514.584 289.667 515.972C285.635 526.008 284.123 536.11 288.936 546.361C289.556 547.682 289.84 549.314 291.862 549.254C293.178 549.215 294.304 548.651 294.572 547.445C296.144 540.35 300.484 533.442 295.505 525.926C293.459 522.837 293.096 519.042 293.575 515.321C293.797 513.601 293.776 511.891 292.804 510.524C292.191 509.663 291.838 510.71 291.446 511.852ZM85.5651 453.438C84.541 455.559 82.8652 457.505 83.3967 460.19C96.5556 458.476 107.116 449.687 108.907 438.948C103.699 436.911 99.1894 438.419 95.2249 441.862C91.5895 445.019 88.2156 448.474 85.5651 453.438ZM458.255 302.351C451.593 306.223 442.014 302.93 436.761 310.701C438.271 312.914 439.955 314.329 442.274 314.256C451.186 313.976 459.653 311.652 467.823 308.213C470.658 307.02 470.07 304.385 469.819 302.118C469.517 299.394 467.24 300.167 465.525 299.959C463.015 299.656 461.057 300.992 458.255 302.351ZM180.612 374.643C172.125 375.954 164.316 380.339 155.477 380.122C153.434 380.072 152.69 381.544 152.631 383.467C152.571 385.414 152.798 387.497 154.91 387.912C157.962 388.513 161.188 390.161 164.159 389.113C174.403 385.5 182.83 378.708 191.814 372.802C188.33 373.786 184.842 373.918 180.612 374.643ZM408.256 291.901C413.349 291.187 419.186 291.75 420.685 284.769C418.03 283.099 417.996 283.325 415.721 282.979C400.532 280.668 390.156 291.143 378.095 297.258C387.87 295.554 397.644 293.85 408.256 291.901ZM395.079 324.999C392.919 325.008 390.756 325.006 388.826 326.2C387.067 327.288 385.57 328.61 385.709 330.898C385.865 333.446 388.102 333.383 389.77 333.716C395.662 334.894 401.671 334.786 407.561 334.144C411.692 333.694 415.878 332.364 418.745 328.317C414.89 324.237 410.211 323.667 405.36 324.221C402.234 324.579 399.136 325.073 395.079 324.999ZM183.8 53.62C187.013 58.2106 186.121 64.9453 190.962 68.5777C198.127 64.2207 195.199 58.2046 194.224 52.8298C192.94 45.746 189.171 40.1748 181.953 36.0866C181.232 42.4196 181.485 47.7147 183.8 53.62ZM258.732 22.9374C254.994 28.8438 251.402 34.66 255.695 41.9873C257.368 44.8433 257.741 48.2172 256.964 51.6357C256.551 53.451 256.069 55.5265 258.241 56.8329C268.049 46.6702 268.304 36.0296 258.732 22.9374ZM431.395 161.234C429.299 165.917 426.446 170.407 427.011 176.411C428.792 175.905 430.118 175.898 430.915 175.246C439.166 168.496 444.539 158.751 455.338 152.804C448.904 151.722 444.402 154.359 439.649 154.803C435.66 155.177 433.196 157.05 431.395 161.234ZM268.861 260.654C270.214 255.848 265.896 243.491 262.009 240.394C259.55 238.435 257.938 240.547 256.24 241.405C254.414 242.328 251.923 243.731 252.961 246.259C255.827 253.238 259.648 259.682 264.658 265.128C267.022 264.271 267.539 262.555 268.861 260.654ZM275.432 332.985C273.809 333.04 271.9 332.456 270.744 333.926C267.265 338.35 263.902 342.893 262.096 348.313C261.381 350.461 262.484 351.754 264.651 352.257C273.015 354.199 281.907 345.121 279.669 336.872C279.176 335.057 278.308 333.466 275.432 332.985ZM457.7 120.604C459.959 118.399 462.169 116.141 464.494 114.009C466.068 112.565 468.372 111.395 466.795 108.788C465.137 106.048 461.965 106.365 460.186 107.655C455.924 110.746 450.918 113.157 447.874 117.597C445.042 121.728 443.189 126.412 443.043 132.478C448.914 129.139 452.951 124.987 457.7 120.604ZM197.962 335.324C199.96 335.316 201.961 335.382 203.954 335.284C207.565 335.107 210.807 333.751 213.524 331.468C216.613 328.872 216.11 326.909 212.188 325.805C206.264 324.138 200.28 324.662 194.471 326.173C190.852 327.114 187.409 328.878 185.653 333.625C189.705 334.226 193.38 334.77 197.962 335.324ZM109.048 79.5815C112.51 90.3802 119.579 97.6884 130.278 101.379C131.404 93.625 119.799 79.2406 107.866 73.9748C108.191 75.7291 108.485 77.3139 109.048 79.5815ZM391.492 504.056C386.562 499.055 381.631 494.054 376.763 489.117C374.828 490.82 375.002 492.033 375.35 493.416C377.418 501.621 381.785 508.664 386.574 515.454C388.188 517.743 391.783 516.842 392.844 514.05C394.082 510.791 394.308 507.578 391.492 504.056ZM274.317 290.99C272.66 291.027 270.972 290.874 269.352 291.137C265.01 291.84 263.206 295.518 265.461 299.221C268.632 304.431 273.447 307.53 279.236 309.156C280.809 309.598 282.161 309.231 282.799 307.414C284.297 303.151 279.589 293.042 274.317 290.99ZM514.563 202.846C504.01 200.998 490.456 205.27 485.975 212.572C498.099 210.909 510.379 213.896 521.022 206.004C519.316 203.435 517.351 203.177 514.563 202.846ZM81.0252 293.348C86.7162 295.075 92.4373 296.71 98.0825 298.575C100.201 299.275 102.27 299.492 104.427 299.26C107.037 298.979 107.986 296.996 108.51 294.851C109.18 292.109 106.733 292.078 105.166 291.517C96.38 288.371 87.2594 288.788 78.1681 289.261C76.9748 289.323 75.3196 289.445 74.308 291.21C76.5232 291.952 78.3885 292.578 81.0252 293.348ZM107.27 377.352C112.479 375.82 117.674 374.442 123.126 373.738C126.961 373.243 130.693 371.222 133.22 367.815C134.321 366.331 135.562 364.859 134.315 362.884C132.935 360.701 131.104 361.227 129.053 361.875C121.684 364.203 115.275 368.409 108.659 372.189C106.983 373.146 104.497 374.371 107.27 377.352ZM100.608 342.726C92.617 341.021 84.7568 343.197 76.8405 343.603C75.2414 343.686 73.4011 344.562 73.1599 346.473C72.9119 348.438 74.5537 349.252 76.127 349.983C81.475 352.468 86.602 354.981 92.1025 349.807C94.0265 347.998 97.1802 347.463 99.8115 346.448C101.603 345.757 103.534 345.363 105.199 343.299C103.569 343.119 102.463 342.997 100.608 342.726ZM177.616 479.273C184.722 476.04 190.832 465.357 189.996 457.703C189.884 456.67 189.805 455.659 188.698 455.27C187.13 454.719 185.768 455.232 184.633 456.373C179.478 461.557 176.154 467.74 174.755 474.907C174.395 476.748 174.509 478.634 177.616 479.273ZM141.825 75.5457C143.482 79.4662 146.107 82.624 149.524 85.1115C152.362 87.1777 153.816 86.2018 153.876 82.8729C153.9 81.567 153.92 80.1299 153.432 78.9667C149.956 70.6894 143.329 64.5658 138.354 57.1016C137.032 63.5588 139.748 69.1204 141.825 75.5457ZM464.362 249.294C472.408 249.727 478.399 244.895 484.8 241.199C486.273 240.349 486.821 238.57 486.353 236.828C486.022 235.598 485.052 234.921 483.704 235.007C475.035 235.559 467.436 238.107 462.59 246.045C461.557 247.736 461.432 248.772 464.362 249.294ZM108.312 209.447C107.694 207.669 106.636 206.151 105.132 205.08C98.7063 200.505 91.6086 196.933 86.0817 191.523C84.6364 192.485 84.6576 193.321 84.7686 194.144C85.9117 202.621 96.3484 212.369 104.927 212.97C106.981 213.114 107.864 211.799 108.312 209.447ZM123.174 465.924C125.213 463.657 127.763 462.231 130.505 460.908C135.569 458.465 139.309 454.494 142.024 449.568C142.737 448.274 142.686 447.055 141.796 445.849C141.069 444.863 140.096 444.98 139.099 445.156C131.404 446.507 119.903 459.987 119.673 467.932C120.976 467.999 121.784 467.103 123.174 465.924ZM458.801 196.66C464.16 193.985 469.864 191.841 474.263 187.069C465.493 184.858 445.437 192.759 440.753 200.004C446.96 201.275 452.61 199.527 458.801 196.66ZM310.802 299.648C307.736 301.638 304.597 303.511 303.006 307.094C301.729 309.97 302.281 311.612 305.667 311.619C309.69 311.626 313.631 311.05 317.305 309.349C320.34 307.945 324.012 300.964 322.474 298.94C319.645 295.219 316.069 296.955 312.733 298.505C312.282 298.714 311.866 298.996 310.802 299.648ZM52.5085 393.299C58.1253 391.828 63.7881 390.51 69.3431 388.834C73.2085 387.668 76.9052 385.866 78.6274 381.857C79.299 380.294 80.323 378.28 78.6267 376.723C77.0107 375.24 75.1278 375.947 73.5501 376.954C66.6795 381.338 59.8409 385.773 53.0419 390.267C52.1222 390.875 50.4281 391.521 52.5085 393.299ZM138.782 483.631C133.433 489.658 130.03 496.932 124.409 504.454C139.291 497.261 148.708 487.121 149.981 477.75C146.437 479.601 142.923 481.438 138.782 483.631ZM365.01 48.0292C363.419 55.326 358.803 61.8324 358.78 70.0448C362.594 69.7998 364.615 67.9153 365.746 65.2337C367.687 60.6263 369.914 56.1843 372.36 51.8303C374.287 48.3992 374.058 45.2291 370.778 42.6055C367.973 43.1819 366.426 45.019 365.01 48.0292ZM470.991 361.523C462.668 354.665 452.899 354.588 442.748 355.812C452.79 360.857 463.899 363.408 473.637 370.278C474.218 366.389 473.807 363.927 470.991 361.523ZM335.05 115.007C337.365 110.562 339.332 106.033 338.987 100.835C338.846 98.7041 338.486 96.6969 335.956 96.4053C333.643 96.1386 332.078 97.5384 331.584 99.6572C330.346 104.962 329.338 110.32 328.219 115.654C327.762 117.836 326.769 120.042 328.452 122.155C332.711 121.866 333.157 118.219 335.05 115.007ZM148.938 313.585C155.969 316.569 162.583 315.688 169.353 311.815C158.837 304.378 147.439 307.457 136.283 307.457C140.252 309.421 144.222 311.385 148.938 313.585ZM357.642 100.478C357.278 103.49 355.846 106.645 358.709 109.228C361.017 109.563 362.047 107.808 363.29 106.578C366.876 103.027 369.139 98.5303 371.768 94.3055C372.638 92.9074 373.633 91.2091 372.148 89.7408C370.549 88.1588 368.503 88.2297 366.642 89.4101C362.647 91.9442 359.137 94.9357 357.642 100.478ZM412.279 241.005C408.463 243.981 405.924 247.87 403.465 252.201C411.308 253.637 425.722 245.068 427.389 237.157C422.709 239.872 417.346 237.87 412.279 241.005ZM504.372 332.272C508.999 332.608 513.623 332.978 518.253 333.263C519.731 333.353 520.899 332.665 521.169 331.117C521.375 329.934 520.401 329.471 519.511 328.94C512.997 325.055 505.728 324.388 498.418 324.077C495.405 323.949 495.038 325.847 496.465 328.016C498.095 330.494 500.604 331.77 504.372 332.272ZM434.936 470.67C433.973 471.958 433.825 473.279 434.259 474.887C435.882 480.892 440.6 484.572 444.724 488.564C446.646 490.424 448.415 488.692 448.944 486.347C450.321 480.239 441.809 470.081 434.936 470.67ZM477.658 162.434C484.764 164.491 491.871 162.315 494.724 157.136C495.745 155.284 497.326 153.259 495.447 151.214C493.516 149.112 491.142 149.929 489.055 151.136C485.611 153.128 482.181 155.164 478.889 157.394C477.342 158.443 475.403 159.716 477.658 162.434ZM165.655 232.746C162.181 227.18 156.128 226.003 150.746 223.615C153.134 227.138 153.456 231.299 155.252 234.834C158.112 240.463 165.761 242.32 170.74 238.394C169.183 236.693 167.636 235.003 165.655 232.746ZM40.2207 268.317C41.8847 268.261 43.6114 268.329 44.388 265.963C39.7597 262.49 34.3364 260.634 28.7976 259.147C26.7165 258.589 24.5094 259.007 22.5059 260.011C21.2945 260.618 20.0415 261.27 20.07 262.831C20.0957 264.242 21.434 264.581 22.4282 265.106C27.7587 267.919 33.2431 269.969 40.2207 268.317ZM491.006 373.172C491.808 373.379 492.603 373.615 493.412 373.789C498.482 374.878 502.904 377.709 507.825 379.146C509.827 379.731 512.393 380.242 513.55 377.775C514.431 375.897 513.83 373.766 512.144 372.362C508.113 369.004 495.802 368.012 491.063 370.581C490.077 371.115 488.605 371.599 491.006 373.172ZM164.953 508.891C167.902 505.248 169.64 501.115 170.421 496.351C160.682 498.017 157.559 500.919 152.271 513.061C156.986 513.738 160.579 511.182 164.953 508.891ZM320.786 33.8587C320.822 29.2087 318.07 26.6018 314.1 23.9817C312.085 33.2943 311.09 41.8491 311.815 50.7046C314.433 45.034 318.167 40.1628 320.786 33.8587ZM342.808 321.745C346.142 318.83 345.318 314.907 344.607 311.497C344.075 308.943 341.122 307.827 339.107 309.942C335.373 313.861 332.198 318.307 329.921 323.993C334.641 324.627 338.303 322.798 342.808 321.745ZM392.747 449.649C392.567 459.463 399.496 468.264 407.739 467.844C405.728 462.637 403.631 457.712 400.046 453.615C398.168 451.469 396.259 449.038 392.747 449.649ZM131.432 399.958C125.979 397.018 113.221 405.14 112.903 411.782C112.891 412.022 113.284 412.281 113.744 412.844C121.489 411.452 128.203 408.432 131.432 399.958ZM304.051 484.794C303.648 493.113 306.481 500.582 309.925 508.372C309.925 500.037 310.043 492.231 309.855 484.432C309.797 482.008 311.381 477.924 308.137 477.551C304.731 477.16 305.11 481.497 304.051 484.794ZM34.3516 354.006C32.6945 356.108 32.7752 357.671 35.7696 358.094C40.9586 358.828 46.026 357.941 51.0131 356.619C52.4298 356.243 53.9102 355.467 53.7811 353.569C53.6738 351.992 52.4968 351.34 51.1324 350.992C45.3318 349.511 39.6377 348.779 34.3516 354.006ZM408.282 507.158C409.569 509.285 409.894 512.233 413.532 513.075C414.528 504.916 414.18 497.367 410.032 490.233C406.801 491.27 405.827 493.312 405.62 496C405.331 499.745 406.277 503.187 408.282 507.158ZM293.483 62.3867C293.949 59.9624 294.487 57.549 294.853 55.1096C295.065 53.6903 294.408 52.4997 293.152 51.7756C291.597 50.8794 290.604 52.0958 289.771 53.0097C288.675 54.2119 287.105 55.6193 287.032 57.0067C286.726 62.8076 286.903 68.6342 286.903 75.4169C291.025 71.4332 291.455 66.9586 293.483 62.3867ZM354.752 395.61C353.77 392.791 353.207 389.804 351.501 387.272C349.345 384.073 346.367 385.194 343.909 386.366C341.513 387.509 342.59 389.807 343.475 391.597C344.58 393.832 345.745 396.057 347.115 398.135C348.435 400.136 350.529 400.696 352.846 400.292C355.196 399.882 354.867 398.037 354.752 395.61ZM91.9395 112.546C95.876 119.044 102.411 122.295 108.426 126.418C111.013 120.598 101.685 111.17 90.6936 107.983C91.0523 109.377 91.375 110.632 91.9395 112.546ZM249.078 160.81C249.194 155.693 248.827 150.765 243.841 146.799C240.766 152.36 239.404 157.356 242.088 162.776C242.945 164.508 243.759 166.858 246.092 166.642C248.903 166.382 248.77 163.753 249.078 160.81ZM49.0767 178.393C53.3229 183.373 58.0115 187.306 66.1582 185.584C60.0576 180.151 55.1582 174.713 48.3853 171.74C45.51 174.164 47.213 176.005 49.0767 178.393ZM338.239 158.058C344.326 153.295 344.548 146.47 338.224 142.411C335.5 148.845 333.644 155.341 333.316 162.351C334.752 161.038 336.188 159.725 338.239 158.058ZM455.065 231.119C455.896 230.569 456.788 230.092 457.546 229.455C459.002 228.231 461.384 227.323 460.341 224.817C459.391 222.532 457.104 222.768 455.115 223.001C449.614 223.645 445.962 226.966 442.815 231.371C446.941 233.973 450.657 233.179 455.065 231.119ZM256.947 315.744C251.771 314.823 252.157 319.579 250.541 322.166C248.684 325.139 250.637 327.191 253.188 327.738C256.049 328.352 259.329 327.821 261.255 325.283C263.044 322.925 261.514 320.582 259.911 318.591C259.193 317.7 258.32 316.935 256.947 315.744ZM463.907 461.316C464.332 459.129 463.598 457.088 463.206 454.981C462.449 450.915 460.088 448.929 456.213 450.367C451.81 451.999 454.706 455.312 455.774 457.3C457.301 460.143 458.738 464.391 463.907 461.316ZM72.0845 140.884C70.8428 140.813 69.6357 139.618 68.17 140.895C69.0036 145.238 72.1431 147.935 75.3767 150.532C76.6483 151.553 78.2289 151.668 79.6156 150.936C81.3983 149.994 80.4913 148.466 80.2706 146.989C79.6155 142.602 76.4076 141.598 72.0845 140.884ZM152.578 348.319C154.87 348.519 157.175 348.623 159.449 348.943C162.002 349.301 163.826 348.047 164.576 345.981C165.471 343.517 163.234 342.596 161.413 341.804C158.952 340.732 151.555 342.773 150.035 344.896C148.369 347.222 150.288 347.648 152.578 348.319ZM218.745 134.213C221.629 128.034 219.388 122.491 212.989 119.979C210.202 125.276 212.92 132.759 218.745 134.213ZM373.013 314.052C366.966 315.604 364.894 318.992 366.571 325.387C370.904 322.394 375.95 320.68 378.614 315.976C377.131 313.916 375.429 314.03 373.013 314.052ZM478.516 337.76C478.661 333.115 474.724 332.689 471.863 332.28C468.402 331.786 465.035 333.001 463.917 337.537C468.706 339.163 473.231 340.364 478.516 337.76ZM512.76 301.748C516.881 304.751 520.382 302.721 524.193 300.646C522.568 298.883 521.427 297.159 519.853 296.05C517.392 294.317 514.315 294.255 511.952 295.845C509.923 297.211 510.057 299.546 512.76 301.748ZM288.884 110.525C282.803 114.35 283.222 121.906 289.953 126.371C291.986 121.064 290.59 115.961 288.884 110.525ZM101.666 330.194C102.822 330.273 103.977 330.355 105.134 330.431C108.158 330.632 109.485 328.683 109.537 326.182C109.593 323.469 107.038 324.064 105.373 323.887C104.075 323.749 102.722 323.955 101.413 324.143C99.7635 324.378 98.8008 325.396 98.3975 327.033C97.8391 329.299 99.7443 329.305 101.666 330.194ZM146.593 422.05C146.973 423.571 144.999 425.107 146.761 426.83C150.949 425.691 152.296 422.427 153.163 418.717C148.424 416.335 148.052 416.496 146.593 422.05ZM441.754 269.958C444.34 266.289 440.949 265.314 438.848 264.375C437.22 263.648 434.306 263.323 434.057 265.958C433.818 268.48 436.336 269.653 438.653 270.213C439.421 270.398 440.28 270.21 441.754 269.958ZM293.638 379.19C293.087 376.731 291.368 376.313 289.099 376.47C287.977 379.609 286.797 382.568 287.41 386.226C290.939 385.114 292.386 382.635 293.638 379.19ZM220.83 32.4386C222.143 32.2377 223.873 32.0547 223.24 30.2398C222.422 27.8936 221.486 25.3402 218.524 24.6576C215.671 30.6756 215.907 31.692 220.83 32.4386ZM366.378 530.309C365.675 527.477 364.172 525.438 360.893 524.414C360.703 527.314 359.516 529.943 361.547 531.839C362.987 533.183 364.939 532.634 366.378 530.309ZM318.59 543.094C318.763 544.671 318.02 546.423 319.448 547.784C322.984 544.791 323.211 541.49 320.2 536.932C318.12 538.277 318.725 540.406 318.59 543.094ZM377.742 241.205C376.833 238.059 375.131 238.755 373.528 240.493C372.299 241.824 369.781 243.287 371.462 245.281C373.341 247.509 374.868 245.099 376.211 243.796C376.783 243.241 377.181 242.506 377.742 241.205ZM249.296 281.103C250.161 277.802 248.713 275.608 246.034 273.794C244.026 278.573 244.994 281.065 249.296 281.103ZM351.369 472.725C348.163 473.853 349.524 476.197 350.317 477.917C351.171 479.769 352.84 480.91 355.151 479.651C355.145 476.772 353.617 474.851 351.369 472.725ZM229.457 377.421C228.235 378.613 226.263 379.394 227.035 381.72C231.259 381.503 232.119 380.674 233.643 375.365C232.405 375.953 231.217 376.518 229.457 377.421ZM222.678 158.783C221.623 159.289 220.569 159.796 219.486 160.316C219.595 163.143 221.025 164.773 223.273 165.913C225.335 163.205 223.734 161.193 222.678 158.783ZM327.498 461.828C328.004 463.004 329.006 465.008 330.01 463.408C331.654 460.791 328.878 459.009 327.451 456.541C326.385 458.501 326.678 459.853 327.498 461.828Z" fill="white"/>
<path d="M676.495 324.68C694.363 395.954 712.168 466.815 729.935 537.686C732.498 547.909 734.41 558.187 730.682 568.583C727.127 578.498 720.039 584.623 709.928 586.867C699.712 589.135 692.358 584.008 686.128 576.542C679.958 569.148 678.545 560.089 676.942 551.082C669.68 510.251 662.418 469.42 655.184 428.584C648.731 392.156 642.345 355.715 635.873 319.29C630.332 288.1 624.697 256.927 619.136 225.74C617.658 217.45 616.298 209.139 614.937 201.148C612.279 200.382 610.627 201.369 608.921 201.915C603.313 203.711 597.974 203.611 593.632 199.133C588.826 194.177 586.39 188.11 588.35 181.336C589.265 178.171 588.876 176.042 587.151 173.562C585.542 171.248 584.138 168.76 582.911 166.22C579.456 159.068 582.754 152.995 590.739 152.441C609.145 151.164 627.32 148.217 645.485 145.213C648.769 144.67 650.503 145.426 651.491 148.494C652.252 150.855 653.199 153.156 654.179 155.795C659.073 154.83 663.55 152.512 668.492 151.936C681.321 150.44 693.255 153.111 704.424 159.412C705.688 160.125 706.791 161.275 707.705 162.43C710.824 166.37 711.831 172.343 709.448 174.38C705.862 177.446 702.04 176.123 698.281 174.282C690.349 170.398 680.152 168.178 670.872 168.401C676.232 173.147 681.463 177.047 685.845 181.895C691.23 187.853 694.82 194.689 697.138 202.235C698.036 205.158 699.275 208.527 696.043 210.957C692.886 213.33 689.867 211.443 687.248 209.858C682.218 206.815 678.074 202.647 674.53 197.986C670.206 192.299 664.291 189.157 657.825 186.715C654.974 185.638 652.404 186.113 649.645 187.27C645.744 188.904 644.644 191.239 645.66 195.434C650.778 216.564 655.593 237.767 660.631 258.917C665.824 280.719 671.151 302.488 676.495 324.68Z" fill="white"/>
<path d="M640.38 11.4253C660.746 23.7903 670.62 41.9689 672.703 65.0146C674.116 80.6586 670.302 95.3524 665.438 109.88C662.588 118.393 656.976 125.301 649.333 129.66C627.444 142.144 604.286 146.231 579.812 137.974C570.968 134.991 564.032 129.524 559.17 121.499C543.194 95.1338 539.822 67.3242 554.102 39.7763C565.429 17.923 585.359 6.01083 610.002 3.59965C620.591 2.56358 630.69 6.11008 640.38 11.4253Z" fill="white"/>
</svg>
