<svg version="1.1" id="Layer_1" xmlns="http://www.w3.org/2000/svg" xmlns:xlink="http://www.w3.org/1999/xlink" x="0px" y="0px"
	 width="100%" viewBox="0 0 672 1024" enable-background="new 0 0 672 1024" xml:space="preserve">
<path fill="#000000" opacity="1.000000" stroke="none" 
	d="
M315.939453,653.000000 
	C315.842010,607.005981 315.948425,561.510254 315.563568,516.018677 
	C315.362183,492.212708 314.544067,468.403656 313.538849,444.615723 
	C312.847748,428.261841 306.567352,413.191162 301.272858,397.971771 
	C292.327332,372.257446 279.916290,348.086731 267.739990,323.820618 
	C267.142273,322.629395 266.577087,321.415894 265.893036,320.274933 
	C260.930756,311.998047 261.285400,304.159271 266.691345,295.985291 
	C274.901215,283.571777 281.594940,270.327240 285.035217,255.715317 
	C286.747528,248.442642 287.973969,241.054916 289.391052,233.713593 
	C291.019104,225.279449 294.273163,217.471725 298.535400,210.067200 
	C303.318787,201.757233 306.555023,192.993515 307.878662,183.407623 
	C309.176697,174.007126 313.847687,165.835266 318.587799,157.756668 
	C326.838867,143.694260 336.356445,130.339325 342.367615,115.018044 
	C343.641968,111.769997 346.359802,110.125679 349.896820,110.309647 
	C353.316833,110.487541 355.254883,112.650070 356.406860,115.685471 
	C357.720764,119.147392 358.477905,122.707581 358.330566,126.426979 
	C358.012817,134.450043 358.907623,142.376816 360.317444,150.249405 
	C361.985352,159.563049 365.027100,168.362717 371.486206,175.500290 
	C380.199951,185.129272 385.155670,196.236984 385.874115,209.238708 
	C386.685913,223.930588 391.526794,237.567429 397.167603,250.943726 
	C402.214996,262.912872 407.327179,274.863098 412.786530,286.647614 
	C417.660980,297.169708 418.246368,307.594025 414.492554,318.600189 
	C408.686554,335.623322 401.180115,351.997528 395.768616,369.174011 
	C388.045441,393.687866 382.962372,418.749359 379.361908,444.143799 
	C375.385681,472.188416 374.226562,500.442322 373.173584,528.707031 
	C371.715973,567.834595 371.889587,606.992004 370.914886,646.124390 
	C370.201080,674.780884 370.547638,703.437378 369.992188,732.087097 
	C369.479065,758.550964 369.135834,785.032349 367.183594,811.439575 
	C365.345367,836.305481 364.491547,861.256104 361.266571,886.006409 
	C360.215454,894.073364 358.698242,902.085510 357.188843,910.083984 
	C356.572113,913.352295 355.356720,916.477722 353.001495,919.021912 
	C348.388947,924.004272 343.582886,923.793335 339.959747,918.061707 
	C329.222351,901.075745 321.506989,882.665588 314.854095,863.781555 
	C313.621460,860.282715 313.569550,856.594910 313.643555,852.909363 
	C314.978333,786.446167 316.174988,719.981323 315.939453,653.000000 
M350.686127,723.443237 
	C351.007477,701.799622 351.372742,680.156616 351.640198,658.512329 
	C352.074371,623.372253 352.132355,588.223511 353.016296,553.095276 
	C353.312836,541.309998 353.317017,529.477295 354.479980,517.687683 
	C355.425476,508.102844 355.511993,498.432648 355.951263,488.799011 
	C356.042267,486.803345 356.285156,484.607147 354.385742,483.286926 
	C346.317413,477.679047 339.585083,470.627228 333.052460,463.048126 
	C331.895477,465.122559 332.315521,466.809326 332.355774,468.404694 
	C332.888824,489.536774 333.804077,510.664581 333.984711,531.798950 
	C334.323425,571.430664 334.325470,611.065979 334.320374,650.699768 
	C334.313843,701.509460 334.340271,752.320435 333.957764,803.127930 
	C333.851440,817.251221 333.934753,831.426880 332.410431,845.517639 
	C331.111694,857.523132 335.621765,867.793213 342.037445,877.635315 
	C348.194580,826.692139 349.111176,775.538635 350.686127,723.443237 
M351.690399,453.946075 
	C359.318573,426.816406 366.946716,399.686737 374.990631,371.078430 
	C355.362213,386.594116 335.693481,389.405640 313.940735,375.863129 
	C317.497711,385.228943 320.443848,392.949677 323.362976,400.680603 
	C329.117218,415.919739 333.986725,431.517822 341.636108,445.988525 
	C343.794586,450.071869 346.073334,454.104553 349.712952,457.088531 
	C350.180634,456.783600 350.545074,456.669891 350.691650,456.425507 
	C351.031006,455.859650 351.264954,455.230560 351.690399,453.946075 
M359.631775,359.152863 
	C371.522156,349.852936 373.713837,337.339905 371.680237,323.314301 
	C368.249268,299.651245 342.191803,287.948425 322.208130,300.901459 
	C309.320007,309.255249 306.036621,321.489960 307.432434,335.559357 
	C308.779541,349.138000 316.424927,358.763947 328.644653,364.266663 
	C339.510620,369.159698 349.770874,366.675629 359.631775,359.152863 
M350.075531,274.697968 
	C365.394897,267.795837 372.130981,256.305115 370.631805,239.632187 
	C369.281189,224.611893 355.150940,210.653885 340.615540,210.351425 
	C326.280243,210.053116 315.263733,216.314529 309.151703,229.213120 
	C303.189789,241.794968 304.398376,254.399460 313.770233,265.122345 
	C323.281067,276.004242 335.219666,279.846558 350.075531,274.697968 
M350.864624,179.520828 
	C346.007507,171.483200 343.607605,162.686417 343.329590,152.009094 
	C335.771698,165.182877 326.705719,175.913330 324.827484,190.290497 
	C324.282318,194.463425 325.339081,194.912994 328.972107,194.089844 
	C340.302155,191.522781 351.121124,192.909256 361.264160,198.810104 
	C362.133881,199.316071 363.068634,200.447678 364.565002,199.228867 
	C361.775574,191.732269 354.986908,186.972229 350.864624,179.520828 
M390.626373,283.764618 
	C388.185944,278.582489 385.745514,273.400391 382.998749,267.567810 
	C378.865997,274.629913 373.945648,280.149353 368.226562,285.492401 
	C381.972168,297.672516 388.831879,312.462646 389.856964,330.161346 
	C394.425293,321.072754 398.813965,312.002533 397.698700,301.484375 
	C397.035126,295.225830 393.607391,289.961243 390.626373,283.764618 
M302.347656,278.236298 
	C301.075165,276.969604 300.308380,275.190460 298.493561,274.366180 
	C296.948120,275.691803 296.905853,277.650024 296.356232,279.315582 
	C293.882172,286.812866 290.371735,293.746704 285.684814,300.104004 
	C280.577667,307.031372 281.983795,314.969391 289.262604,320.442261 
	C292.404022,306.800903 298.558624,294.905151 310.302032,285.481537 
	C307.480347,282.956818 305.136261,280.859406 302.347656,278.236298 
z"/>
<path fill="#000000" opacity="1.000000" stroke="none" 
	d="
M331.708923,306.341309 
	C348.162292,302.158752 359.227173,308.960327 362.861053,325.106201 
	C366.371399,340.703125 358.198273,354.182007 343.391937,356.754089 
	C334.102570,358.367798 326.640411,354.695160 321.267853,347.260223 
	C310.546844,332.423553 316.802063,310.727386 331.708923,306.341309 
z"/>
<path fill="#000000" opacity="1.000000" stroke="none" 
	d="
M322.232117,226.231567 
	C330.247833,219.025269 339.039001,217.495407 348.346741,222.020325 
	C357.658875,226.547394 361.666290,234.895599 361.863464,244.835510 
	C362.046997,254.087372 355.354004,262.696625 346.329773,266.126099 
	C331.880737,271.617157 316.009979,260.715576 315.591644,245.228546 
	C315.398621,238.082397 316.721100,231.671188 322.232117,226.231567 
z"/>
</svg>