<svg version="1.1" id="Layer_1" xmlns="http://www.w3.org/2000/svg" xmlns:xlink="http://www.w3.org/1999/xlink" x="0px" y="0px"
	 width="100%" viewBox="0 0 1024 1024" enable-background="new 0 0 1024 1024" xml:space="preserve">
<path fill="#000000" opacity="1.000000" stroke="none" 
	d="
M483.513794,78.229515 
	C529.834473,70.560974 572.064209,79.690109 609.692200,107.171356 
	C642.619873,131.219681 663.769775,163.743607 672.039368,203.531281 
	C684.577026,263.854218 668.276001,315.972565 624.063721,359.146698 
	C622.901123,360.282013 621.343079,361.111023 620.857910,363.303284 
	C624.211609,365.452545 627.567932,367.837891 631.138062,369.842529 
	C638.526917,373.991272 642.005859,380.230621 642.089722,388.632782 
	C642.168396,396.518280 641.641541,404.610016 634.702209,409.386200 
	C627.959412,414.027161 626.503601,420.208832 626.424072,427.356384 
	C626.292419,439.187775 626.448608,451.022766 626.273254,462.853088 
	C626.225647,466.068787 628.368896,467.089020 630.454773,468.424744 
	C638.814514,473.777954 645.597473,480.251678 647.768066,490.570221 
	C649.582092,499.193604 649.664124,507.832092 647.981628,516.335144 
	C646.797607,522.319153 643.041931,527.214355 638.172058,531.033813 
	C631.562256,536.217896 624.293823,540.140625 616.258850,542.719116 
	C606.210754,545.943665 598.108582,557.267822 597.260010,567.867371 
	C595.852234,585.450806 602.543945,600.822144 609.922913,615.988708 
	C613.995300,624.359009 618.798828,632.359009 624.810974,640.408386 
	C639.681580,628.959839 655.288635,625.177612 669.218933,640.581543 
	C680.239746,652.768188 678.471741,666.258057 665.690369,684.387268 
	C672.659912,691.340210 679.753174,698.311584 686.728699,705.398804 
	C698.428223,717.285645 710.129089,729.195374 716.833008,744.889526 
	C726.824036,768.278870 725.120605,790.876404 712.187805,812.710266 
	C707.257874,821.033142 701.392517,828.633179 693.876648,835.625977 
	C701.006226,841.508057 707.830811,846.815247 712.929810,853.903198 
	C719.068542,862.436584 721.791931,871.608521 719.451965,882.112183 
	C718.494568,886.409668 716.239197,889.666016 713.091125,892.559204 
	C703.822876,901.076904 692.747131,906.401733 681.047302,910.482239 
	C676.122131,912.199890 674.083313,914.701660 674.185852,920.253540 
	C674.536804,939.243042 665.554871,947.964478 646.213013,950.520386 
	C626.216980,953.162659 607.183960,949.451599 588.161560,944.307373 
	C584.533081,943.326050 582.490540,940.976257 581.676208,937.471069 
	C580.738098,933.433167 580.142700,929.305725 579.031860,925.319336 
	C573.816711,906.604126 561.230652,893.654358 545.462830,883.445435 
	C535.866211,877.232117 525.454163,872.636475 513.788513,872.452271 
	C497.820984,872.200073 484.490448,879.343506 472.310516,888.756592 
	C457.206024,900.429932 447.621979,915.524292 445.219910,934.801575 
	C444.567108,940.040588 441.889709,943.490112 436.305298,944.803772 
	C420.589600,948.500793 404.929535,952.453369 388.581360,951.327148 
	C379.242188,950.683777 370.044922,949.275452 361.926636,944.118835 
	C354.720734,939.541687 351.261993,932.911255 351.550873,924.356201 
	C351.573364,923.689941 351.604706,923.023926 351.618469,922.357483 
	C351.795776,913.766418 351.791809,913.774597 343.961304,910.549744 
	C335.009552,906.863037 326.326019,902.647888 318.389893,897.053223 
	C306.273346,888.511475 303.227600,879.307922 307.544769,865.029602 
	C310.758209,854.401794 318.581635,847.414612 326.656342,840.635986 
	C332.384735,835.827271 332.359375,835.956665 327.536835,830.553650 
	C313.658539,815.004761 303.876434,797.446533 302.952209,776.166565 
	C302.163879,758.015930 307.954224,741.738342 319.284546,727.561768 
	C330.751190,713.214539 343.757202,700.298645 357.090271,687.705078 
	C358.272827,686.588135 359.812744,685.734436 360.247192,683.993164 
	C347.192444,664.354553 346.253998,652.670410 356.983368,640.323425 
	C362.756348,633.680176 370.150146,630.179260 379.048737,630.711060 
	C387.501709,631.216187 394.312836,635.860413 400.738678,640.368530 
	C402.547485,639.690002 403.237885,638.541809 403.977539,637.433899 
	C415.531372,620.128235 425.094330,601.925110 428.284363,581.057617 
	C430.209503,568.464478 428.007782,556.858765 418.714752,547.307800 
	C416.769257,545.308350 414.518616,544.081055 411.937622,543.302490 
	C404.383942,541.023804 397.351349,537.647766 390.921082,533.091614 
	C382.597900,527.194275 377.160309,519.676086 377.598267,508.887146 
	C377.827789,503.232880 377.383636,497.517883 378.030365,491.921204 
	C379.233856,481.505585 385.897644,474.440125 394.197083,469.044861 
	C398.595612,466.185516 399.644867,463.327911 399.204651,458.027344 
	C398.283203,446.932159 398.582153,435.719238 398.724304,424.559052 
	C398.794952,419.011688 397.471130,414.805542 392.681976,411.272522 
	C384.986389,405.595306 383.672638,397.177277 383.854034,388.055969 
	C384.027374,379.340118 388.305420,373.761658 395.288422,369.514099 
	C398.395569,367.624084 401.395935,365.558502 404.393005,363.606354 
	C403.991028,360.911407 401.966248,359.763031 400.482300,358.302032 
	C373.447754,331.686432 356.743408,299.591949 351.928162,262.061890 
	C344.354492,203.033081 362.475159,152.955154 407.525391,113.538689 
	C429.165253,94.604980 454.797333,83.409042 483.513794,78.229515 
M486.623749,697.715454 
	C484.868683,697.226807 483.136993,696.610535 481.352264,696.283813 
	C479.392120,695.924988 477.235107,695.575012 475.909271,697.614380 
	C474.724274,699.437012 475.821808,701.223572 476.627869,702.799500 
	C479.023956,707.484253 482.339813,711.555847 486.909821,714.134277 
	C498.928406,720.915466 506.439423,730.903320 509.633575,744.287354 
	C510.026184,745.932434 510.379700,748.211914 512.788940,748.247192 
	C515.395142,748.285461 515.711914,745.880920 516.466370,744.110718 
	C516.984314,742.895447 517.302673,741.586975 517.629333,740.299561 
	C520.121094,730.479370 525.646851,722.889282 534.174561,717.406372 
	C540.523987,713.323914 546.556396,708.837952 549.790466,701.679626 
	C551.466675,697.969360 550.379150,696.426025 546.319031,696.293396 
	C542.856262,696.180359 539.799744,697.383423 536.931641,699.196228 
	C528.603943,704.459839 524.409363,712.767517 520.577454,721.353088 
	C519.884583,722.905273 519.954956,725.018311 517.750427,725.634155 
	C516.163269,724.407959 516.196838,722.598572 516.117432,721.058411 
	C515.081299,700.951294 518.141174,682.222290 533.931641,667.661011 
	C539.205383,662.797791 544.005859,657.412109 546.748352,650.630554 
	C548.444702,646.435791 546.733032,644.424255 542.313049,645.490906 
	C536.700256,646.845398 531.749268,649.454529 528.296204,654.381287 
	C525.103455,658.936584 523.052307,663.995056 521.229126,669.203613 
	C520.588562,671.033691 520.293884,673.542664 517.216309,673.608032 
	C514.399841,664.734558 515.803223,655.891296 517.328491,647.321167 
	C519.474243,635.264832 520.734192,623.318359 518.570923,611.191284 
	C518.021057,608.108582 516.731750,604.882935 513.247253,604.836426 
	C509.575195,604.787415 507.985992,607.937012 507.402924,611.262512 
	C506.801208,614.694153 506.509338,618.161743 506.246674,621.651733 
	C505.284821,634.430481 508.890594,646.721497 509.839935,659.283325 
	C510.243195,664.619263 511.045746,670.006226 508.513947,675.039795 
	C505.705750,674.551392 505.881287,672.561584 505.301361,671.113220 
	C503.571259,666.792480 502.097198,662.352478 500.106567,658.156738 
	C497.022797,651.656860 491.737091,647.503418 484.940155,645.271790 
	C482.899933,644.601990 480.661804,643.597229 479.035248,645.918945 
	C477.607758,647.956543 478.319366,650.107483 479.421570,652.045288 
	C482.064758,656.692200 484.845459,661.367188 488.974152,664.780945 
	C505.170898,678.172913 509.528229,696.360352 510.101715,716.090332 
	C510.198120,719.407593 509.951874,722.867126 508.189575,726.035217 
	C505.631561,724.743286 505.519104,722.361267 504.701569,720.462769 
	C500.835052,711.483948 496.453888,702.935852 486.623749,697.715454 
M424.574066,396.802155 
	C447.153931,403.161652 470.408905,404.660248 493.629791,405.484253 
	C519.567261,406.404633 545.559448,406.034302 571.353577,402.569763 
	C585.671509,400.646667 600.004456,398.475586 613.406616,392.558258 
	C615.238464,391.749481 617.053162,390.945282 618.510193,389.493042 
	C620.751038,387.259552 621.199219,385.207214 617.854370,383.715210 
	C610.874023,380.601562 604.056946,377.040100 596.343506,382.436432 
	C592.702576,384.983643 588.224426,386.263580 583.833496,387.307709 
	C563.519043,392.138428 542.779602,393.433533 522.031921,394.232391 
	C502.550476,394.982544 483.136017,393.147156 463.774750,391.195312 
	C452.194336,390.027893 440.337311,388.637634 430.227661,382.606140 
	C422.866669,378.214478 416.649078,379.934570 410.006134,382.792480 
	C404.791046,385.036133 404.699493,387.524139 409.500427,390.835907 
	C413.826294,393.819977 418.865631,395.081268 424.574066,396.802155 
M496.931274,534.531677 
	C526.951660,535.487976 556.744934,533.368896 586.204529,527.460022 
	C597.626831,525.168945 608.931213,522.248291 618.719482,515.409424 
	C622.284485,512.918640 625.213135,509.953644 626.428162,504.808624 
	C618.156555,509.121002 610.476257,513.094727 602.065735,515.236572 
	C578.479431,521.243042 554.476807,524.641541 530.181580,525.252075 
	C511.237366,525.728088 492.274261,525.830750 473.353577,523.489380 
	C457.858826,521.571899 442.450470,519.448181 427.276306,515.683533 
	C417.720306,513.312744 408.814545,509.428070 399.388763,504.254211 
	C402.414062,512.105225 407.694946,516.402771 414.083893,519.430176 
	C430.573029,527.243408 448.485107,529.207886 466.243713,531.575867 
	C476.114441,532.892151 486.082367,533.479187 496.931274,534.531677 
M568.219055,432.113281 
	C548.381470,434.423218 528.491943,435.593506 508.505402,435.420563 
	C501.005280,435.355621 493.563995,434.559235 486.086121,434.418396 
	C474.102875,434.192657 462.281403,432.448181 450.438568,430.865082 
	C439.600433,429.416260 429.104309,426.449066 418.536316,423.278229 
	C418.779327,430.111176 420.657898,432.039551 429.095215,434.628967 
	C454.467346,442.415771 480.744019,443.303375 506.931274,444.571411 
	C521.218872,445.263214 535.485962,443.849365 549.739746,442.711487 
	C566.504578,441.373169 583.014160,438.802765 599.068176,433.657440 
	C601.143494,432.992371 603.179749,432.279266 604.788269,430.735718 
	C606.151611,429.427399 607.494873,427.903534 606.532166,425.944336 
	C605.439941,423.721558 603.500977,424.666046 601.717224,425.141205 
	C590.966553,428.005127 580.097961,430.311646 568.219055,432.113281 
M538.196106,778.362244 
	C536.168762,775.939209 534.319031,773.359924 531.716980,771.464783 
	C521.862732,764.288025 511.181274,762.904419 500.141663,767.883850 
	C487.516327,773.578613 482.098053,784.072144 482.362732,797.620911 
	C482.616089,810.592590 489.156586,819.798584 500.642548,825.103699 
	C511.543060,830.138489 522.232788,828.445618 531.650452,821.172058 
	C544.742981,811.060425 547.252380,794.731873 538.196106,778.362244 
M342.403503,819.751831 
	C343.230927,820.331055 343.344604,821.872375 344.880463,821.639771 
	C342.657684,812.867065 340.130768,804.250244 338.327942,795.484436 
	C334.999390,779.300171 335.875244,763.428650 343.255981,748.301697 
	C345.347260,744.015564 348.212708,740.439026 352.444122,738.053528 
	C359.223297,734.231689 367.337799,735.571228 371.221252,741.202698 
	C375.479004,747.376953 373.957611,755.051697 367.493652,760.191467 
	C366.127350,761.277832 364.122345,761.833252 363.969025,764.375549 
	C367.946838,767.058167 371.579224,765.352295 374.780121,763.007507 
	C385.871674,754.882019 385.138824,737.611023 373.524536,730.243408 
	C361.019562,722.310791 343.665466,727.493530 335.689301,742.057739 
	C320.895691,769.070496 326.434357,794.611206 342.403503,819.751831 
M655.228455,728.581848 
	C653.956299,729.371338 652.607239,730.060303 651.423767,730.965759 
	C640.166504,739.578857 641.035706,756.682983 653.140442,763.942017 
	C655.789368,765.530579 658.669800,767.068115 661.652893,763.840088 
	C660.398743,761.505493 658.126770,760.557068 656.513184,758.956116 
	C651.897644,754.377014 650.870911,747.529175 654.044800,742.009277 
	C656.993835,736.880493 663.385132,734.770874 669.715942,736.726501 
	C676.691284,738.881287 680.489807,744.071777 683.358093,750.372986 
	C691.428040,768.101257 690.451233,786.229187 685.976990,804.536560 
	C684.606750,810.143311 683.137939,815.725952 681.377930,822.641418 
	C687.342102,815.903748 690.590698,809.304993 693.076294,802.428406 
	C700.430298,782.082886 702.055664,761.953796 690.052368,742.482910 
	C681.678833,728.900085 669.151001,723.574768 655.228455,728.581848 
M404.191376,729.503906 
	C401.872894,736.460876 401.034515,743.636414 400.730591,750.902100 
	C401.399902,750.382751 401.750763,749.815735 402.024384,749.213745 
	C413.933990,723.009399 426.517212,697.134766 439.664642,671.527222 
	C444.373474,662.355713 448.372345,652.822815 451.172180,642.868713 
	C454.924164,629.529358 457.105804,616.020508 454.808380,601.775146 
	C453.464172,607.293335 452.380981,612.467896 450.937469,617.539917 
	C444.721466,639.380920 434.846039,659.749023 425.529907,680.344421 
	C418.276031,696.380859 409.262848,711.649170 404.191376,729.503906 
M592.891724,662.487976 
	C584.358643,643.792053 576.058960,625.010376 571.877014,603.433777 
	C571.185974,605.411072 570.810791,606.132263 570.695374,606.893005 
	C570.496765,608.202393 570.378906,609.535583 570.367371,610.860107 
	C570.214478,628.457520 574.365967,645.158508 581.747253,660.972534 
	C593.846863,686.895630 608.185181,711.747253 618.875488,738.353760 
	C620.773193,743.076904 622.892517,747.710938 625.458008,753.657471 
	C623.981750,739.068665 621.033508,726.341187 616.302124,714.055176 
	C609.597778,696.646118 600.763916,680.197083 592.891724,662.487976 
M518.400391,576.656799 
	C527.677734,575.949890 537.007385,575.637390 546.216431,574.415649 
	C554.091248,573.371033 562.014038,572.003723 569.363831,568.636230 
	C572.304321,567.289001 575.031738,565.728333 574.679565,561.206299 
	C533.493164,570.657288 492.405579,571.424622 451.275665,561.095154 
	C450.998749,564.683289 452.727509,566.894287 455.538818,568.436829 
	C458.331146,569.968933 461.345184,570.909546 464.433136,571.639771 
	C481.865479,575.761963 499.585052,576.841370 518.400391,576.656799 
M379.385284,850.135620 
	C381.467804,858.835632 382.156097,868.059692 388.492981,875.578125 
	C389.653198,873.663513 389.101471,872.221985 388.968536,870.753540 
	C388.160828,861.831116 387.149445,852.914856 386.730713,843.971985 
	C385.809326,824.293945 387.831268,804.865540 392.249725,785.659302 
	C392.996063,782.415161 393.466949,778.905762 391.675598,775.547729 
	C389.701721,775.956299 389.129974,777.373901 388.434723,778.671875 
	C385.279358,784.562317 382.903442,790.747192 381.317261,797.242493 
	C377.115814,814.447144 377.799500,831.832153 379.385284,850.135620 
M647.630981,814.855957 
	C645.900818,801.099426 643.398987,787.606567 634.232361,776.237305 
	C634.348267,792.613586 638.968018,808.422913 639.392151,824.692871 
	C639.815918,840.948975 638.212524,857.120605 637.634033,873.444519 
	C641.180725,870.497925 642.326965,866.558472 643.606567,862.696167 
	C648.680115,847.383789 647.633362,831.542480 647.630981,814.855957 
M434.392670,800.396179 
	C413.144928,802.933472 400.193176,827.420288 404.972382,840.555969 
	C410.712189,833.960083 415.167419,826.430969 421.459869,820.506042 
	C427.683533,814.645752 434.231842,809.130249 440.587982,803.507568 
	C439.134003,800.969971 437.052246,800.875244 434.392670,800.396179 
M390.921539,680.442261 
	C382.936340,688.497253 373.260468,695.216003 368.847839,707.223999 
	C383.161072,703.930847 417.783966,666.015137 418.560455,653.099976 
	C409.511841,662.529663 400.895325,671.677307 390.921539,680.442261 
M618.520691,836.721497 
	C619.379822,837.309631 619.453003,838.764526 620.666077,838.881653 
	C622.235229,834.671143 621.626343,830.600037 620.520447,826.522461 
	C617.089844,813.873779 602.944946,801.502319 591.686707,801.396545 
	C589.578369,801.376709 586.918640,800.788147 585.951111,803.288391 
	C584.944214,805.890564 587.442383,807.184387 589.127686,808.295654 
	C600.530151,815.814575 609.827332,825.482239 618.520691,836.721497 
M655.677917,702.734802 
	C654.103516,700.804321 652.596863,698.813477 650.943359,696.953308 
	C641.975525,686.864746 631.634399,678.158508 622.236267,668.503662 
	C617.538574,663.677551 612.985107,658.710999 607.952271,653.368408 
	C608.537292,666.146057 644.724426,704.849304 658.101318,707.740295 
	C658.084534,705.944153 656.916138,704.693481 655.677917,702.734802 
M370.012177,199.829300 
	C369.776520,204.184402 369.703705,208.511810 372.887848,212.049591 
	C374.631683,213.987122 376.666840,215.497574 379.422363,214.415405 
	C385.999023,211.832596 393.040802,194.147842 387.642365,187.827362 
	C385.465057,185.278198 383.305664,184.233063 380.356232,185.883148 
	C375.140717,188.801025 370.686005,192.398697 370.012177,199.829300 
M515.554932,497.695282 
	C519.550537,489.277161 517.335144,480.423401 517.156372,471.753571 
	C517.117004,469.844452 515.295227,467.514404 512.749512,467.750763 
	C510.364166,467.972198 508.811401,470.146729 508.645813,472.242706 
	C508.057312,479.692017 507.677948,487.220459 508.818573,494.614288 
	C509.228333,497.270569 510.806641,500.835571 515.554932,497.695282 
M555.639771,488.949951 
	C555.628784,483.315735 555.807800,477.672119 555.531006,472.050995 
	C555.380371,468.992676 554.114014,465.548889 550.540283,465.753998 
	C547.357666,465.936676 546.404907,469.230743 546.356934,472.202209 
	C546.263306,478.000519 546.318481,483.801514 546.339539,489.601288 
	C546.351013,492.770447 547.038513,496.100342 550.544495,496.558105 
	C554.164429,497.030762 554.613281,493.406189 555.528992,490.804138 
	C555.635315,490.502075 555.592834,490.147675 555.639771,488.949951 
M475.882141,496.864838 
	C478.135071,495.657257 479.384186,493.501587 479.469055,491.227448 
	C479.716034,484.609344 479.773651,477.963623 479.424042,471.354218 
	C479.289246,468.805756 478.036072,465.593140 474.800690,465.847870 
	C471.915558,466.075073 470.470123,468.838104 470.410065,471.682678 
	C470.273651,478.142578 470.170135,484.618744 470.499573,491.065491 
	C470.639404,493.801300 471.682770,496.655487 475.882141,496.864838 
M434.859253,457.435455 
	C433.534241,457.911804 432.296295,458.779175 432.065247,460.088409 
	C430.585876,468.471497 430.657471,476.892151 432.181244,485.254364 
	C432.481934,486.904358 434.095306,488.097382 435.880188,488.166107 
	C437.796448,488.239899 438.795258,486.733368 439.443878,485.148438 
	C439.942719,483.929596 440.511963,482.622681 440.534424,481.345856 
	C440.633911,475.694183 440.833832,470.017670 440.410431,464.394318 
	C440.189148,461.455200 439.933685,457.783142 434.859253,457.435455 
M588.905701,487.552917 
	C593.519653,487.863190 594.474487,484.698486 594.590027,481.182831 
	C594.774719,475.562531 594.611145,469.931702 594.670654,464.306091 
	C594.704895,461.063507 593.978699,457.707428 590.431152,457.527191 
	C586.449890,457.324921 585.579773,461.072662 585.445618,464.256134 
	C585.208862,469.871948 585.311462,475.506714 585.425293,481.130463 
	C585.472961,483.488831 586.239441,485.684753 588.905701,487.552917 
M425.067230,752.359924 
	C421.185028,754.884155 419.301025,758.181030 421.016907,762.862122 
	C422.506714,766.926636 425.342041,768.807617 429.743256,768.687744 
	C434.473083,768.558838 436.997314,765.866516 438.315887,761.778809 
	C440.200684,755.935608 433.882965,748.886658 425.067230,752.359924 
M589.921265,753.355591 
	C586.412842,756.638733 586.654724,760.493713 588.746948,764.223877 
	C590.595215,767.519043 593.843933,769.068420 597.588501,768.504578 
	C601.752563,767.877502 604.276184,765.214661 605.211853,761.038574 
	C605.962524,757.687622 604.634705,755.099426 602.115112,753.238037 
	C598.433167,750.517883 594.458618,750.533569 589.921265,753.355591 
M640.479248,921.127075 
	C642.488403,925.558289 639.473816,931.571899 644.628723,935.176819 
	C649.290161,929.948242 649.705505,918.915283 645.420471,907.979614 
	C643.829651,903.919678 642.260010,899.403137 636.480530,897.633240 
	C636.503113,905.968750 640.727295,912.742920 640.479248,921.127075 
M378.233307,929.203796 
	C378.915344,931.333801 378.918243,933.820129 381.219421,935.149353 
	C383.567657,932.562744 389.031036,902.002380 387.896271,898.181274 
	C380.614899,902.153687 375.648712,917.363525 378.233307,929.203796 
M585.990417,844.637512 
	C581.615173,842.561218 579.063354,844.797546 577.195862,848.438354 
	C575.071533,852.579895 577.148682,855.538086 580.316772,857.832031 
	C583.214111,859.929993 586.353271,859.967224 588.741455,856.978455 
	C591.298584,853.778076 591.546692,850.289490 588.855225,846.942200 
	C588.242737,846.180481 587.362427,845.634094 585.990417,844.637512 
M343.621460,852.064575 
	C341.351990,854.008057 340.274353,856.512329 340.186462,859.461609 
	C340.108887,862.063904 340.351379,864.811035 343.453400,865.301941 
	C347.154053,865.887512 350.280579,864.255981 352.294647,861.090454 
	C354.044891,858.339600 355.029602,855.106873 352.825439,852.309509 
	C350.462219,849.310303 347.245087,850.208923 343.621460,852.064575 
M672.397644,857.869202 
	C672.952271,860.228271 674.196106,862.194885 676.191895,863.512024 
	C678.401062,864.970032 680.702576,866.475281 683.545227,864.857361 
	C686.565918,863.138123 685.783081,860.285156 685.516296,857.747620 
	C685.368713,856.342834 684.649719,854.871216 683.817932,853.690552 
	C681.797913,850.822998 678.839966,849.811584 675.502869,850.668152 
	C672.163879,851.525085 672.138184,854.332764 672.397644,857.869202 
M441.670807,858.903015 
	C446.617126,858.999512 449.136780,855.972351 449.416840,851.632507 
	C449.668396,847.733887 446.968903,844.986328 443.099426,844.595764 
	C439.188416,844.200928 436.373322,846.494934 435.527130,850.326294 
	C434.565918,854.678406 436.256989,857.770447 441.670807,858.903015 
z"/>
<path fill="#000000" opacity="1.000000" stroke="none" 
	d="
M520.821045,817.187744 
	C511.361572,820.950012 503.771851,818.208069 497.446533,811.459900 
	C491.227234,804.824768 489.587341,796.903687 492.715881,788.346313 
	C495.940369,779.526611 502.605621,774.737488 511.850525,773.772949 
	C519.300781,772.995667 528.054138,778.621521 531.949219,786.286804 
	C535.955444,794.170654 534.933960,804.177124 529.360962,810.642639 
	C527.070374,813.300232 524.551392,815.737427 520.821045,817.187744 
z"/>
</svg>