<svg version="1.1" id="Layer_1" xmlns="http://www.w3.org/2000/svg" xmlns:xlink="http://www.w3.org/1999/xlink" x="0px" y="0px"
	 width="50%" viewBox="0 0 1024 1024" enable-background="new 0 0 1024 1024" xml:space="preserve">
<path fill="#000000" opacity="1.000000" stroke="none" 
	d="
M297.657166,481.670471 
	C288.194214,479.070557 283.535767,471.612732 279.338196,464.357391 
	C273.804718,454.792969 265.767548,451.264374 255.331909,451.365295 
	C246.666321,451.449127 237.999115,451.349274 229.332642,451.357727 
	C221.262650,451.365570 214.818420,448.206116 210.146957,441.577026 
	C207.364395,437.628418 204.706497,433.588684 201.832291,429.708618 
	C194.665176,420.033173 185.527451,414.857910 173.022827,416.861237 
	C169.346817,417.450195 165.453583,417.821899 160.623428,415.917847 
	C188.073013,333.351898 239.307358,272.133240 320.472656,239.447922 
	C409.850830,203.455231 495.444611,214.314819 576.151672,265.486969 
	C575.886780,268.783386 574.197266,269.803131 572.953186,271.054962 
	C566.022339,278.029053 559.290283,285.232208 551.982910,291.791748 
	C544.808533,298.231903 543.384338,306.036743 544.723633,314.902924 
	C545.642151,320.983398 546.491943,327.041718 546.392273,333.237274 
	C546.260864,341.402130 542.941833,347.754364 536.181458,352.150238 
	C532.565857,354.501251 528.622620,356.356842 524.788269,358.361450 
	C517.049194,362.407501 512.658630,368.226379 513.096252,377.500153 
	C513.335938,382.579987 512.721069,387.680664 513.089600,392.848602 
	C513.823914,403.145691 506.859375,408.833893 498.648590,412.214325 
	C483.708771,418.365265 479.361023,426.342590 480.074280,443.574646 
	C480.351440,450.270721 479.976471,456.932312 478.935059,463.491241 
	C477.561218,472.143860 470.265411,476.507843 464.492310,481.921570 
	C462.680664,483.620422 459.603729,484.635498 460.915070,488.214966 
	C462.290131,491.968414 464.717255,493.910858 468.575378,492.039276 
	C478.623413,487.164886 487.343018,480.544891 492.990601,470.715942 
	C495.944458,465.575104 495.178192,459.608734 494.431000,454.038788 
	C491.965149,435.657257 497.565796,425.900818 514.629089,419.728271 
	C527.445801,415.091919 531.288574,409.360199 530.770081,395.713196 
	C530.681580,393.382690 530.817322,391.038910 530.639404,388.717346 
	C529.955688,379.797363 534.043152,373.336090 541.080444,368.463684 
	C544.362610,366.191223 547.828003,364.180969 551.233826,362.090088 
	C562.985229,354.875824 567.327087,344.787903 565.076843,331.096741 
	C563.973938,324.386108 563.235962,317.585022 563.639832,310.727173 
	C563.895813,306.380493 565.540283,302.695465 568.443604,299.501099 
	C574.046875,293.336212 579.622620,287.146362 585.217896,280.974152 
	C589.856567,275.857239 589.847351,275.879639 595.143616,280.153168 
	C618.683899,299.147675 638.660583,321.352264 655.036865,346.776489 
	C676.777039,380.528046 691.240234,417.188934 697.097839,456.897400 
	C706.708008,522.044922 695.374939,583.683289 664.290222,641.704956 
	C660.954895,647.930664 660.891357,647.875610 654.770691,644.207336 
	C648.729797,640.586914 643.597839,635.795959 638.313538,631.236816 
	C632.875366,626.545044 626.829224,624.211121 619.623962,624.279846 
	C614.983398,624.324036 610.333313,623.701172 605.692810,623.313904 
	C602.099854,623.014038 599.541016,620.913818 597.460449,618.193481 
	C594.424133,614.223511 591.138428,610.388855 588.566528,606.129639 
	C580.912720,593.454468 569.387512,590.005432 555.556824,591.573059 
	C554.067505,591.741882 552.559387,591.829529 551.096191,592.130737 
	C542.372498,593.926697 536.446350,589.975464 531.698730,583.094910 
	C529.248535,579.544006 526.430725,576.228027 523.595581,572.965271 
	C517.677368,566.154419 503.293518,563.922363 495.647736,568.470886 
	C492.968048,570.065063 492.754974,571.883301 494.905945,574.086426 
	C496.626068,575.848206 498.665802,576.645264 501.154358,576.718872 
	C507.670044,576.911621 512.582642,579.861816 515.749817,585.622681 
	C517.032715,587.956055 518.692505,590.142517 519.605652,592.608826 
	C524.375732,605.492310 534.268433,609.788147 547.111328,609.690552 
	C552.747192,609.647644 558.413391,609.171936 564.028687,610.554260 
	C567.611511,611.436218 570.459839,613.092529 572.644592,616.047485 
	C576.407776,621.137329 580.483093,626.014465 583.981873,631.277161 
	C588.787781,638.506226 595.648621,641.335083 603.906677,641.651978 
	C607.402771,641.786133 610.905884,641.726929 614.404358,641.813354 
	C620.751282,641.970093 626.403259,643.911560 631.484314,647.870667 
	C637.893677,652.864807 644.541504,657.553040 651.542114,662.708862 
	C618.959534,711.224548 576.072693,746.102661 521.924133,767.051697 
	C459.179260,791.326599 387.978271,787.483459 346.712006,772.457458 
	C346.552917,769.684082 348.572815,767.995056 350.060577,766.091125 
	C354.159698,760.845337 358.692352,755.963074 362.542358,750.493652 
	C366.744751,744.523621 368.534546,737.942627 368.625641,730.812927 
	C368.719299,723.481262 368.692749,716.145874 368.573914,708.814453 
	C368.516144,705.251587 369.742645,702.418091 372.184662,699.853027 
	C377.584473,694.181091 383.035980,688.644409 389.487152,684.070129 
	C394.979279,680.175842 397.285950,674.148315 397.623230,667.612976 
	C398.077728,658.805603 397.836426,650.033569 396.085785,641.280334 
	C394.563904,633.670959 395.610535,626.395996 401.306488,620.327332 
	C406.102570,615.217346 410.094635,609.451050 413.954071,603.610535 
	C414.868042,602.227478 415.799133,600.802246 416.382355,599.267212 
	C417.182709,597.160645 417.318512,594.915588 415.333740,593.300842 
	C413.223541,591.584045 410.871063,591.981995 408.848206,593.399109 
	C407.234741,594.529419 405.686005,595.922302 404.530823,597.506592 
	C399.995911,603.726074 394.786499,609.316101 389.281586,614.667297 
	C384.673859,619.146301 382.201813,624.448059 382.123627,631.101257 
	C382.023651,639.611877 382.574127,648.061401 383.448364,656.492004 
	C384.338440,665.075745 381.199036,671.806763 374.651764,677.065186 
	C370.369720,680.504211 365.949524,683.780090 361.485321,686.981506 
	C354.593719,691.923706 351.221771,698.567383 351.299377,707.024475 
	C351.349823,712.523987 351.228149,718.026794 351.371094,723.523254 
	C351.652527,734.348022 348.642120,743.798645 340.552185,751.395935 
	C336.541748,755.162170 332.958466,759.360718 330.274750,764.203064 
	C328.697327,767.049316 326.730469,765.844482 324.739838,765.057678 
	C300.237396,755.373047 277.647736,742.271118 257.121338,725.845886 
	C206.918625,685.673706 174.131134,634.118225 158.103760,571.939514 
	C151.392212,545.901855 148.349609,519.336792 148.765900,492.445557 
	C149.044174,474.469696 151.409088,456.685638 154.815048,439.039886 
	C155.393326,436.043854 156.737366,434.463074 160.176208,434.635559 
	C165.661926,434.910706 171.174667,434.799957 176.671204,434.662079 
	C181.669846,434.536713 185.213287,436.557373 187.769852,440.869995 
	C191.081924,446.457031 194.694046,451.865509 198.137085,457.375793 
	C203.423203,465.835724 211.417587,469.923737 221.000809,470.562653 
	C231.299759,471.249298 241.646301,471.166748 251.966476,470.300934 
	C258.972748,469.713135 264.545197,472.977051 269.441925,477.498352 
	C272.865936,480.659790 276.345337,483.863464 279.205536,487.514038 
	C287.594025,498.220581 299.099060,501.355469 311.880829,501.638885 
	C317.211487,501.757080 322.557373,501.872559 327.876923,501.604218 
	C332.632233,501.364319 336.007935,503.448914 336.961182,507.733276 
	C339.614563,519.658997 347.289246,523.058594 358.440186,521.704163 
	C364.165710,521.008667 369.672882,522.760681 375.160278,524.060120 
	C378.020905,524.737488 380.694214,524.724609 382.353363,522.272644 
	C384.273773,519.434570 382.602722,516.865723 380.623474,514.659546 
	C377.175140,510.815796 372.782532,509.332031 367.681885,509.297760 
	C355.174744,509.213715 353.802979,508.202667 349.451782,496.650757 
	C345.095734,485.085968 342.596832,483.394928 330.152527,484.613678 
	C319.239075,485.682404 308.574036,484.592407 297.657166,481.670471 
M438.516083,419.120575 
	C429.311920,424.495972 429.311920,424.495972 431.089081,431.661926 
	C431.505646,431.775543 431.975037,432.028351 432.433655,432.010040 
	C440.472351,431.689880 443.310669,434.720551 442.001251,442.721039 
	C441.332031,446.809662 440.519135,450.964294 439.037415,454.806091 
	C437.442719,458.940857 437.492188,462.893036 438.694183,466.917328 
	C439.175781,468.529816 438.810577,470.877808 441.148895,471.438538 
	C443.712463,472.053284 445.196045,470.232300 446.490448,468.509064 
	C449.971436,463.874939 451.364807,458.355072 452.621246,452.853394 
	C455.537537,440.083344 455.689484,426.829742 459.399109,414.172150 
	C460.279572,411.168030 459.320770,408.010376 457.856812,404.480408 
	C450.960358,408.823212 446.403748,415.641418 438.516083,419.120575 
M302.379486,371.810913 
	C302.956116,373.256073 304.009155,374.284637 305.254883,375.163483 
	C312.308655,380.139862 319.199341,385.268768 324.421173,392.333435 
	C325.474854,393.759033 326.412720,395.751617 329.074799,396.319794 
	C326.210297,373.418732 317.220093,354.230621 299.478302,339.725891 
	C295.650024,336.596161 290.970917,334.849152 285.706238,336.987579 
	C286.351074,339.910614 287.948914,341.832886 289.661377,343.624084 
	C296.655243,350.939514 303.169128,358.442902 301.586304,369.686188 
	C301.525818,370.115906 301.917358,370.609253 302.379486,371.810913 
M669.641724,469.298798 
	C666.664612,469.323792 664.079773,470.675476 661.824890,472.297333 
	C652.078735,479.307404 641.208008,483.415375 629.484436,485.563599 
	C627.708923,485.888916 626.016418,486.703613 624.308533,487.352539 
	C621.787109,488.310638 619.639404,489.885529 617.608459,491.617249 
	C616.511414,492.552704 615.988831,493.789795 616.488831,495.193970 
	C617.030457,496.715332 618.085571,497.744415 619.844055,497.653564 
	C628.127075,497.225739 636.819275,497.770874 644.403625,494.499176 
	C655.792358,489.586304 667.064880,484.179993 677.407410,477.132904 
	C679.099792,475.979767 681.103760,475.184845 680.281067,472.623718 
	C679.537354,470.308319 677.659546,469.164917 675.372314,468.963043 
	C673.745178,468.819397 672.076843,469.141907 669.641724,469.298798 
M558.884521,445.415924 
	C560.287842,443.756134 560.766418,442.037598 559.719055,439.922028 
	C557.317871,435.071991 559.902771,431.617523 563.277771,428.589539 
	C564.998230,427.045959 567.115906,425.950989 568.883240,424.451874 
	C570.152466,423.375336 571.625427,421.603699 570.051636,420.203827 
	C567.456970,417.895752 563.800781,414.997162 560.773071,416.431580 
	C556.462036,418.474030 551.299744,420.083649 548.716980,424.782928 
	C545.674377,430.318939 542.597595,435.861420 540.013855,441.615814 
	C538.204163,445.646179 539.456726,449.689545 542.702148,452.516846 
	C545.855042,455.263550 549.280945,453.748077 552.396851,451.839325 
	C554.845337,450.339386 556.846680,448.354248 558.884521,445.415924 
M201.889160,530.668396 
	C192.250290,529.030029 182.765076,532.268433 173.110504,531.556458 
	C169.525146,531.292053 167.567993,535.431030 168.388062,539.890503 
	C169.142990,543.995789 171.843094,542.151062 174.190842,541.953735 
	C177.327057,541.690063 180.570770,541.335632 183.634003,541.838379 
	C191.748596,543.170288 199.893951,542.267639 208.003830,542.719849 
	C212.860245,542.990662 217.165512,541.569763 221.405075,539.584045 
	C222.730728,538.963135 224.424438,538.482788 224.422760,536.654541 
	C224.420715,534.423157 222.360565,534.326538 220.871323,533.798584 
	C215.014175,531.722046 208.709747,532.417053 201.889160,530.668396 
M371.464569,434.324493 
	C377.224884,436.751709 384.970154,434.369415 388.190430,442.233124 
	C390.061035,440.069733 389.757385,438.315369 389.616028,436.727051 
	C389.057037,430.446289 388.106140,424.192413 387.761627,417.903351 
	C387.530151,413.677765 386.030426,412.942230 382.504089,414.815308 
	C377.632812,417.402740 373.747742,415.992859 370.019257,412.163757 
	C367.417877,409.492279 365.847931,405.792725 361.308746,403.289307 
	C360.402679,415.399139 362.846619,425.421143 371.464569,434.324493 
M347.280212,366.244415 
	C347.075745,365.612946 346.821259,364.992889 346.674164,364.348297 
	C343.722351,351.412933 341.551636,338.318604 338.787201,325.339233 
	C336.349274,313.892822 328.231903,308.237183 319.733521,301.941132 
	C320.127869,315.401428 338.497345,358.440308 347.874023,368.268127 
	C347.751801,367.783539 347.629578,367.298920 347.280212,366.244415 
M455.322662,635.550964 
	C455.278168,639.381287 455.230072,643.211609 455.190308,647.041992 
	C455.152039,650.726074 455.387177,654.353088 457.020294,657.766846 
	C457.596558,658.971436 457.891083,660.455322 459.568726,660.404114 
	C460.911591,660.363098 461.378418,659.143982 461.944489,658.106812 
	C463.855194,654.605835 465.598877,650.986328 467.820282,647.691101 
	C469.570862,645.094238 469.998962,642.678162 469.046051,639.730896 
	C466.439636,631.669312 464.120148,623.529785 462.634796,615.163818 
	C462.293488,613.241455 461.325623,611.418884 460.556946,609.587769 
	C460.026337,608.323853 459.269196,607.158691 457.629456,607.358459 
	C456.113953,607.543152 455.172577,608.664978 454.921875,609.977966 
	C454.246796,613.513733 452.858276,616.888977 453.817535,620.738342 
	C454.937256,625.231812 455.618256,629.874146 455.322662,635.550964 
M428.011047,642.910034 
	C426.022949,644.558167 425.556335,647.070740 425.547089,649.233826 
	C425.493805,661.681641 422.528351,673.933777 423.254791,686.432678 
	C423.523743,691.059631 423.006622,695.762390 424.599640,700.223816 
	C425.226227,701.978760 425.413788,704.548279 428.039795,704.511108 
	C430.850739,704.471497 430.712189,701.952271 430.905396,700.055237 
	C431.894012,690.348145 432.444580,680.581909 433.830750,670.934387 
	C434.941071,663.206787 434.500305,655.728943 432.486572,648.304443 
	C431.888855,646.100769 432.032959,643.079102 428.011047,642.910034 
M418.878174,333.654694 
	C419.363678,327.680420 415.865234,322.463470 415.634369,316.631012 
	C415.461060,312.252228 412.422028,312.386658 409.275726,312.340607 
	C405.731384,312.288757 405.339905,314.396423 405.283051,317.215759 
	C405.050568,328.745117 406.788361,340.012146 409.789825,351.087524 
	C410.515656,353.765686 409.910187,357.054108 413.038513,359.515076 
	C417.966919,351.629578 419.353058,343.347443 418.878174,333.654694 
M510.015656,671.457642 
	C510.604095,673.714539 511.222015,675.981995 512.827515,677.757812 
	C514.295837,679.381897 515.965149,680.925537 518.383850,680.410767 
	C520.884460,679.878601 520.798828,677.526184 521.245667,675.646301 
	C521.473877,674.686157 521.643005,673.665161 521.577148,672.689331 
	C520.916565,662.901794 516.797546,654.387817 510.946777,646.853516 
	C507.464386,642.369202 500.797943,644.109985 495.567627,639.533936 
	C496.840881,646.580994 499.708496,651.043091 503.028961,655.026978 
	C506.904510,659.676941 509.253296,664.731873 510.015656,671.457642 
M237.874222,621.548889 
	C230.118088,623.566162 223.188873,627.684692 215.663391,630.285583 
	C213.989349,630.864197 212.764633,631.985291 212.004211,633.491211 
	C210.568024,636.335144 212.542999,639.898315 215.370270,639.445496 
	C230.491959,637.023682 244.017761,631.186340 255.146805,620.402039 
	C256.303650,619.281067 257.983215,618.109253 256.641174,616.220947 
	C255.559433,614.698914 253.942795,615.358826 252.542953,615.900513 
	C247.900162,617.697388 243.272995,619.534668 237.874222,621.548889 
M389.653442,327.143768 
	C391.346130,324.991028 389.924438,323.028076 389.214539,321.074280 
	C386.332245,313.141541 382.983582,305.393768 380.685699,297.229340 
	C378.745758,290.336670 375.397827,284.011780 370.726166,276.807404 
	C371.699799,287.542786 372.241669,296.784637 373.465088,305.935394 
	C374.384460,312.811920 375.781708,319.785248 380.255188,325.418915 
	C382.442535,328.173553 385.104675,331.497162 389.653442,327.143768 
M453.819153,551.657837 
	C451.594391,551.212341 449.547211,550.983093 448.489410,553.755432 
	C445.138947,562.536804 448.940643,575.560303 456.459930,580.673584 
	C458.700714,582.197327 460.686066,584.610229 463.871338,582.073303 
	C467.040405,579.549377 467.152252,576.631409 465.903717,573.175171 
	C464.954346,570.547180 463.804810,568.035522 463.581512,565.098022 
	C463.124664,559.088135 460.091614,554.561584 453.819153,551.657837 
M470.929840,318.271820 
	C474.873688,308.525482 475.108459,292.290710 471.343994,288.721802 
	C469.557800,289.138153 468.208374,290.343781 467.932800,292.002136 
	C466.694946,299.450745 462.084259,305.324554 458.776947,311.771210 
	C456.608551,315.997925 456.173340,320.249512 456.336975,324.763977 
	C456.392151,326.285736 456.388885,327.857483 458.111816,328.527008 
	C459.686066,329.138794 461.116760,328.538269 462.237000,327.478333 
	C465.127655,324.743134 468.224915,322.198212 470.929840,318.271820 
M490.662140,732.590149 
	C490.019806,722.513489 486.771362,713.080566 483.506439,703.652832 
	C483.029205,702.274780 482.122803,701.292175 480.573578,701.425659 
	C478.867981,701.572754 476.494629,702.304504 476.589386,703.786316 
	C476.792755,706.966797 474.827087,709.911987 475.533905,712.853638 
	C477.899139,722.697388 480.322327,732.544067 484.128052,741.973267 
	C484.655182,743.279297 485.219727,744.565918 486.864075,744.345093 
	C488.483368,744.127625 489.370209,743.090820 489.779877,741.390930 
	C490.410248,738.775513 490.777832,736.167480 490.662140,732.590149 
M270.446716,393.617126 
	C274.818573,395.305664 277.208466,400.011475 282.093262,401.041901 
	C286.272369,401.923462 288.311523,400.424866 287.613770,396.213623 
	C287.154388,393.441071 286.311920,390.726379 285.549805,388.011353 
	C284.891388,385.665894 283.561584,383.288483 281.253021,382.864349 
	C276.463196,381.984436 272.071289,380.073425 267.490051,378.662323 
	C263.865021,377.545746 259.906830,380.151642 259.395264,383.293640 
	C258.605499,388.143860 260.992096,391.927582 265.286560,392.635284 
	C266.754272,392.877136 268.221619,393.121521 270.446716,393.617126 
M455.490814,367.192291 
	C456.066620,363.687775 456.642426,360.183258 457.218231,356.678741 
	C454.793732,360.765808 451.805145,364.293884 449.092743,368.022156 
	C444.893738,373.793945 440.820374,379.659546 436.811188,385.565094 
	C435.948944,386.835175 434.743835,388.193634 435.969574,390.084686 
	C440.342377,396.831146 443.328552,397.095612 448.918762,391.103699 
	C451.008240,388.864044 452.351624,386.347961 452.754150,383.205475 
	C453.405762,378.118256 454.384613,373.072998 455.490814,367.192291 
M319.800354,427.809418 
	C323.022064,429.966248 326.619781,431.176422 330.414948,431.677124 
	C332.024017,431.889404 334.292267,433.426422 335.183136,430.874908 
	C335.922516,428.757233 333.788910,427.652039 332.408875,426.636688 
	C325.978058,421.905182 320.882812,416.178131 318.200500,408.528137 
	C318.091339,408.216827 317.970154,407.887756 317.769836,407.633759 
	C315.641174,404.934509 312.633240,402.356323 309.520813,403.497772 
	C306.737457,404.518463 306.713348,408.256958 307.148895,411.411896 
	C307.585510,414.574493 309.138275,416.984467 311.244385,419.160461 
	C313.897522,421.901764 316.602539,424.592896 319.800354,427.809418 
M565.320557,660.294800 
	C568.060974,663.601624 572.274170,663.028198 575.807434,664.222717 
	C579.238037,665.382507 580.164673,663.429993 579.386780,660.568970 
	C577.917053,655.162903 574.638855,650.978149 569.428711,648.843750 
	C564.163208,646.686646 559.301392,643.907898 554.532104,640.867310 
	C551.393921,638.866516 548.255432,636.678101 543.462708,636.791687 
	C549.847961,645.739380 558.045227,652.104553 565.320557,660.294800 
M496.832825,501.113403 
	C496.168945,502.344116 494.701477,503.484924 496.344391,504.978180 
	C509.222961,505.371857 520.137817,501.125153 522.647888,488.258728 
	C523.407776,484.363861 521.805420,481.858337 517.948425,482.654480 
	C514.777954,483.308960 511.325684,484.078888 509.656372,487.514526 
	C508.666473,489.551910 507.126526,491.171051 505.168915,492.059723 
	C501.291656,493.819794 499.015411,496.907959 496.832825,501.113403 
M344.177643,626.657593 
	C342.612000,627.194336 340.970764,627.575623 339.493500,628.294128 
	C332.297699,631.794006 324.873688,635.116089 322.419189,643.808960 
	C321.476135,647.148804 321.142120,650.668945 324.707336,652.643433 
	C327.869476,654.394836 330.312897,652.118652 332.591370,650.166992 
	C338.974396,644.699341 341.748627,636.855530 345.883636,629.909363 
	C346.717010,628.509460 346.474274,627.368408 344.177643,626.657593 
M403.615356,722.291626 
	C403.898926,719.336609 405.282349,716.507019 404.886261,712.962219 
	C403.322906,714.729126 402.087799,716.074036 400.908722,717.466370 
	C395.606903,723.727112 393.626892,731.817017 389.305511,738.702271 
	C386.557709,743.080261 388.379852,749.141724 389.236023,754.577820 
	C394.403442,750.873718 399.028656,747.249146 399.622314,740.594360 
	C400.156158,734.609985 402.012512,728.896851 403.615356,722.291626 
M371.249298,577.194519 
	C378.574738,577.153259 383.390350,573.297363 387.151337,567.025391 
	C379.317383,564.731445 372.183563,564.886047 364.816376,567.502808 
	C359.667450,569.331726 359.790863,574.021484 357.684387,577.543701 
	C356.615112,579.331787 356.108856,580.775513 358.023712,582.302734 
	C359.722900,583.658020 361.209930,583.587524 362.969025,582.341064 
	C365.402649,580.616577 367.993774,579.114380 371.249298,577.194519 
M364.264893,467.273438 
	C368.500244,472.203796 370.933655,478.677765 376.752899,482.380280 
	C381.753448,474.834045 379.919830,468.926910 369.707336,458.747772 
	C363.855011,452.914551 360.131195,452.036926 354.795258,455.604156 
	C357.816254,459.327484 360.815491,463.023987 364.264893,467.273438 
M440.174591,730.175720 
	C439.579956,731.548401 438.953278,732.908203 438.395782,734.295837 
	C434.363678,744.332153 432.851349,754.434021 437.664246,764.685242 
	C438.284424,766.006165 438.568298,767.637634 440.590546,767.578064 
	C441.906372,767.539246 443.032806,766.974670 443.300049,765.768494 
	C444.871948,758.673645 449.212708,751.765991 444.233307,744.249756 
	C442.186951,741.160950 441.824127,737.365417 442.303680,733.644653 
	C442.525299,731.925049 442.504608,730.214417 441.532349,728.847656 
	C440.919739,727.986572 440.566193,729.033508 440.174591,730.175720 
M234.293442,671.761719 
	C233.269363,673.882690 231.593597,675.828491 232.125107,678.513733 
	C245.283997,676.799988 255.844284,668.010559 257.635529,657.271851 
	C252.427734,655.234985 247.917740,656.742981 243.953262,660.186035 
	C240.317825,663.343262 236.943954,666.798157 234.293442,671.761719 
M606.983398,520.675171 
	C600.321594,524.547241 590.741943,521.253967 585.489380,529.024475 
	C586.999512,531.237671 588.683350,532.652832 591.002380,532.579956 
	C599.914368,532.299805 608.380920,529.975464 616.550903,526.537231 
	C619.386353,525.343933 618.798218,522.708618 618.547241,520.441528 
	C618.245728,517.717590 615.968201,518.491211 614.252869,518.283386 
	C611.743713,517.979614 609.785156,519.316223 606.983398,520.675171 
M329.340088,592.967102 
	C320.853241,594.278015 313.043945,598.662842 304.205475,598.446411 
	C302.162079,598.396301 301.418427,599.867737 301.359100,601.790527 
	C301.299011,603.738159 301.526855,605.820862 303.638489,606.236145 
	C306.690460,606.836487 309.916199,608.485352 312.887482,607.437256 
	C323.131134,603.823975 331.558136,597.032410 340.541931,591.126160 
	C337.057892,592.110107 333.570770,592.241760 329.340088,592.967102 
M556.984741,510.224762 
	C562.077820,509.511139 567.914856,510.073761 569.413269,503.092499 
	C566.758362,501.422974 566.723999,501.648926 564.449402,501.302856 
	C549.259949,498.991791 538.884521,509.467407 526.823242,515.582336 
	C536.598022,513.877991 546.372803,512.173584 556.984741,510.224762 
M543.806946,543.322510 
	C541.647461,543.331848 539.484131,543.330200 537.554260,544.523865 
	C535.795715,545.611511 534.298157,546.933960 534.437683,549.221924 
	C534.593018,551.769714 536.830688,551.707031 538.498596,552.040283 
	C544.390320,553.217468 550.398926,553.109924 556.289429,552.468079 
	C560.420715,552.017944 564.606445,550.687866 567.473083,546.640503 
	C563.618530,542.560852 558.939331,541.990479 554.088379,542.545227 
	C550.962036,542.902771 547.864136,543.397034 543.806946,543.322510 
M332.528137,271.943909 
	C335.741486,276.534546 334.849854,283.269196 339.690399,286.901611 
	C346.855133,282.544647 343.926910,276.528473 342.952667,271.153748 
	C341.668671,264.069885 337.899414,258.498718 330.681854,254.410538 
	C329.960358,260.743530 330.213684,266.038635 332.528137,271.943909 
M407.460022,241.261276 
	C403.721954,247.167725 400.130432,252.983887 404.422882,260.311218 
	C406.095947,263.167267 406.469482,266.541168 405.692017,269.959595 
	C405.279144,271.774933 404.797516,273.850372 406.969238,275.156860 
	C416.777191,264.994110 417.032013,254.353500 407.460022,241.261276 
M580.122925,379.558044 
	C578.027466,384.241394 575.174377,388.731262 575.738953,394.734436 
	C577.520813,394.228973 578.846375,394.222198 579.643860,393.569794 
	C587.894348,386.820190 593.267456,377.075104 604.065979,371.128326 
	C597.632446,370.045959 593.130554,372.682709 588.377625,373.127411 
	C584.388367,373.500641 581.924072,375.373779 580.122925,379.558044 
M417.588898,478.978271 
	C418.941986,474.171936 414.624054,461.814789 410.737122,458.717743 
	C408.278290,456.758606 406.666382,458.871216 404.968506,459.729065 
	C403.142853,460.651489 400.650879,462.054962 401.688995,464.582550 
	C404.555420,471.561737 408.376709,478.005951 413.386353,483.451996 
	C415.750122,482.595306 416.267761,480.878937 417.588898,478.978271 
M424.160187,551.308838 
	C422.537537,551.363586 420.628571,550.780029 419.472839,552.249817 
	C415.993774,556.674194 412.630157,561.216492 410.824677,566.636719 
	C410.109131,568.784851 411.212463,570.077942 413.379547,570.581116 
	C421.742889,572.523132 430.635590,563.445312 428.396942,555.195862 
	C427.904419,553.380798 427.036224,551.789734 424.160187,551.308838 
M606.428833,338.927765 
	C608.687500,336.723267 610.897156,334.465240 613.221985,332.332886 
	C614.796387,330.888794 617.100830,329.719238 615.523071,327.111694 
	C613.865173,324.371918 610.692932,324.688782 608.913879,325.979187 
	C604.652405,329.070221 599.646301,331.480896 596.602478,335.921021 
	C593.770386,340.052246 591.917114,344.735748 591.770874,350.802032 
	C597.642273,347.462952 601.679382,343.311371 606.428833,338.927765 
M346.690308,553.647827 
	C348.688080,553.640015 350.689514,553.706299 352.682861,553.608398 
	C356.293304,553.431091 359.535828,552.075134 362.252472,549.791626 
	C365.341034,547.195496 364.838074,545.232483 360.915985,544.128784 
	C354.992584,542.461853 349.008362,542.986328 343.199371,544.496643 
	C339.580597,545.437561 336.137726,547.201477 334.381714,551.949097 
	C338.433472,552.549438 342.108490,553.093994 346.690308,553.647827 
M257.776184,297.905457 
	C261.238434,308.704163 268.307861,316.012299 279.006226,319.702820 
	C280.131989,311.948883 268.527161,297.564545 256.594025,292.298676 
	C256.919678,294.053009 257.213837,295.637787 257.776184,297.905457 
M540.220642,722.379578 
	C535.290039,717.378784 530.359436,712.377991 525.491272,707.440552 
	C523.556274,709.143677 523.730042,710.356628 524.078674,711.739929 
	C526.146545,719.944885 530.513000,726.987488 535.302063,733.778198 
	C536.916321,736.067200 540.511292,735.166260 541.572144,732.373596 
	C542.810059,729.114685 543.036682,725.901672 540.220642,722.379578 
M423.045166,509.313751 
	C421.388245,509.350555 419.700684,509.198303 418.080292,509.460663 
	C413.738312,510.163727 411.934448,513.842407 414.188873,517.545410 
	C417.360596,522.755005 422.175720,525.854370 427.963898,527.479980 
	C429.537140,527.921814 430.889740,527.554504 431.527740,525.738220 
	C433.025360,521.474731 428.316986,511.366333 423.045166,509.313751 
M663.291504,421.170135 
	C652.738708,419.322296 639.184204,423.594147 634.703674,430.895721 
	C646.827148,429.232819 659.107422,432.219666 669.750183,424.327820 
	C668.044006,421.759308 666.079163,421.501343 663.291504,421.170135 
M229.753616,511.671967 
	C235.444565,513.398621 241.165695,515.033997 246.810883,516.899048 
	C248.929718,517.599060 250.998718,517.815552 253.155045,517.583618 
	C255.765320,517.302795 256.714020,515.319885 257.238251,513.175049 
	C257.908539,510.432617 255.461365,510.402313 253.894485,509.841125 
	C245.108337,506.694458 235.987808,507.111511 226.896484,507.585052 
	C225.703140,507.647186 224.047943,507.768555 223.036331,509.533600 
	C225.251602,510.276245 227.116882,510.901550 229.753616,511.671967 
M255.998093,595.675659 
	C261.207306,594.143677 266.402649,592.765747 271.853912,592.062317 
	C275.689087,591.567383 279.421722,589.545898 281.948700,586.138977 
	C283.049622,584.654602 284.290771,583.182678 283.042999,581.208130 
	C281.663177,579.024597 279.832397,579.551025 277.781799,580.198853 
	C270.412781,582.526855 264.003326,586.732910 257.387634,590.512573 
	C255.711212,591.470276 253.224960,592.694885 255.998093,595.675659 
M249.335968,561.050354 
	C241.345322,559.345276 233.485138,561.520874 225.568893,561.927368 
	C223.969788,562.009460 222.129456,562.886292 221.888290,564.796997 
	C221.640305,566.761658 223.282028,567.575439 224.855331,568.306641 
	C230.203400,570.792297 235.330414,573.305054 240.830841,568.131287 
	C242.754868,566.321472 245.908554,565.787231 248.539841,564.771912 
	C250.330948,564.080811 252.262360,563.687378 253.927567,561.623230 
	C252.297272,561.442810 251.191483,561.320435 249.335968,561.050354 
M326.344543,697.596985 
	C333.450653,694.364380 339.560089,683.681213 338.724762,676.027039 
	C338.612061,674.994385 338.533234,673.982422 337.426300,673.593628 
	C335.858337,673.042908 334.496704,673.555725 333.361694,674.697083 
	C328.206757,679.880676 324.882660,686.063416 323.483246,693.230469 
	C323.123596,695.072327 323.237427,696.958252 326.344543,697.596985 
M290.553406,293.869629 
	C292.210083,297.790100 294.835114,300.947968 298.251892,303.435394 
	C301.090179,305.501648 302.544312,304.525757 302.604431,301.196869 
	C302.628052,299.890900 302.648438,298.453796 302.160034,297.290649 
	C298.684113,289.013367 292.057343,282.889709 287.082123,275.425568 
	C285.760529,281.882721 288.475922,287.444275 290.553406,293.869629 
M613.090088,467.618134 
	C621.136230,468.051117 627.127686,463.219147 633.528748,459.523407 
	C635.001099,458.673340 635.549744,456.894318 635.080933,455.151459 
	C634.750244,453.922333 633.780457,453.244720 632.432312,453.330658 
	C623.763062,453.883301 616.164246,456.431183 611.318481,464.368713 
	C610.285706,466.060425 610.160095,467.095947 613.090088,467.618134 
M257.040009,427.770813 
	C256.422089,425.992920 255.364044,424.474518 253.860199,423.403748 
	C247.434647,418.828583 240.336960,415.256500 234.810120,409.847198 
	C233.364761,410.808899 233.385941,411.644653 233.496948,412.467834 
	C234.640045,420.944855 245.076736,430.693268 253.655365,431.294189 
	C255.709366,431.438080 256.592682,430.122711 257.040009,427.770813 
M271.902252,684.248108 
	C273.941193,681.980469 276.490875,680.554565 279.233185,679.231628 
	C284.297485,676.788635 288.037445,672.817505 290.752502,667.892395 
	C291.465820,666.598389 291.414185,665.378540 290.524567,664.172607 
	C289.797119,663.186462 288.824066,663.304382 287.827423,663.479431 
	C280.132660,664.831177 268.631500,678.310913 268.401703,686.256104 
	C269.704163,686.322449 270.511871,685.426453 271.902252,684.248108 
M607.529419,414.983704 
	C612.888672,412.308472 618.592285,410.164703 622.991699,405.392487 
	C614.221863,403.181885 594.165466,411.083038 589.481750,418.328247 
	C595.688538,419.599060 601.338013,417.850739 607.529419,414.983704 
M459.530823,517.971741 
	C456.464111,519.961426 453.325623,521.835266 451.734528,525.417542 
	C450.457031,528.293823 451.009705,529.935913 454.395538,529.942444 
	C458.418762,529.950256 462.359436,529.373474 466.033813,527.672852 
	C469.067871,526.268616 472.740753,519.288330 471.202240,517.264160 
	C468.373779,513.542725 464.797668,515.278992 461.460876,516.828796 
	C461.010529,517.037964 460.593933,517.319763 459.530823,517.971741 
M201.236847,611.622803 
	C206.853653,610.151978 212.516464,608.833679 218.071472,607.157959 
	C221.936920,605.992004 225.633575,604.189819 227.355743,600.180969 
	C228.027344,598.617676 229.051331,596.603516 227.355057,595.046875 
	C225.739120,593.563965 223.856186,594.271362 222.278473,595.278076 
	C215.407913,599.662109 208.569229,604.097107 201.770294,608.591187 
	C200.850586,609.199158 199.156464,609.845032 201.236847,611.622803 
M287.510468,701.955383 
	C282.161133,707.981689 278.758606,715.255981 273.137634,722.777832 
	C288.019012,715.585083 297.435974,705.444580 298.709442,696.073547 
	C295.165802,697.925110 291.651154,699.761536 287.510468,701.955383 
M513.737915,266.353088 
	C512.147766,273.649963 507.531342,280.156342 507.508270,288.368683 
	C511.322052,288.123749 513.343689,286.239258 514.473938,283.557648 
	C516.415833,278.950226 518.642700,274.508179 521.088013,270.154175 
	C523.015015,266.723083 522.786194,263.553070 519.506531,260.929443 
	C516.700989,261.505829 515.154724,263.342957 513.737915,266.353088 
M619.719543,579.846924 
	C611.396667,572.989075 601.627441,572.911804 591.476013,574.135498 
	C601.518616,579.180847 612.627563,581.731445 622.365540,588.601501 
	C622.946716,584.712708 622.535156,582.250854 619.719543,579.846924 
M483.778809,333.330719 
	C486.093140,328.885895 488.060364,324.356567 487.715607,319.158936 
	C487.574280,317.028015 487.214294,315.020813 484.684326,314.729187 
	C482.371155,314.462494 480.806244,315.862274 480.312103,317.981171 
	C479.074829,323.286224 478.065887,328.644318 476.947723,333.977448 
	C476.490204,336.159668 475.497559,338.366272 477.180237,340.479065 
	C481.439087,340.190277 481.884949,336.542999 483.778809,333.330719 
M297.666260,531.908752 
	C304.697174,534.893311 311.311462,534.012146 318.081390,530.139099 
	C307.565063,522.701904 296.167023,525.781372 285.010986,525.781006 
	C288.980713,527.745056 292.950409,529.709106 297.666260,531.908752 
M506.369965,318.801971 
	C506.006470,321.814148 504.574615,324.968781 507.436951,327.552277 
	C509.745544,327.886780 510.775208,326.132172 512.018188,324.901672 
	C515.604675,321.350983 517.867065,316.854248 520.496582,312.629425 
	C521.366760,311.231293 522.361206,309.533051 520.876648,308.064758 
	C519.277039,306.482697 517.231812,306.553589 515.370544,307.734039 
	C511.375122,310.268127 507.865082,313.259583 506.369965,318.801971 
M561.007080,459.328522 
	C557.190918,462.305359 554.652466,466.194214 552.193054,470.525208 
	C560.036682,471.961121 574.449890,463.391663 576.117188,455.480804 
	C571.437012,458.195435 566.074829,456.193695 561.007080,459.328522 
M653.100342,550.595520 
	C657.726929,550.932251 662.351379,551.302368 666.981201,551.586426 
	C668.459412,551.677063 669.627625,550.988586 669.897156,549.440735 
	C670.103271,548.257446 669.129150,547.794678 668.239502,547.263977 
	C661.725769,543.378479 654.456299,542.711792 647.146545,542.400757 
	C644.133240,542.272583 643.765930,544.171204 645.193237,546.340393 
	C646.823608,548.818115 649.332153,550.094055 653.100342,550.595520 
M583.664734,688.993774 
	C582.700867,690.281921 582.552917,691.602478 582.987488,693.210632 
	C584.610291,699.215515 589.328552,702.895752 593.452148,706.887512 
	C595.374023,708.747925 597.143372,707.016235 597.672424,704.670654 
	C599.049805,698.563110 590.537109,688.404602 583.664734,688.993774 
M626.386658,380.758148 
	C633.492004,382.814880 640.599243,380.638794 643.452271,375.460388 
	C644.473083,373.607574 646.054565,371.583069 644.175598,369.538300 
	C642.243958,367.436279 639.870361,368.253052 637.783508,369.459930 
	C634.338867,371.452118 630.908936,373.487793 627.617371,375.718384 
	C626.070557,376.766632 624.131104,378.039917 626.386658,380.758148 
M314.383514,451.069763 
	C310.909790,445.503540 304.856720,444.327179 299.474457,441.939026 
	C301.861877,445.461639 302.184235,449.623169 303.980133,453.157776 
	C306.840240,458.787079 314.489227,460.643463 319.468445,456.717438 
	C317.911041,455.016479 316.364502,453.327362 314.383514,451.069763 
M188.949036,486.641357 
	C190.613098,486.585114 192.339767,486.652679 193.116379,484.286987 
	C188.488068,480.813477 183.064804,478.958405 177.525940,477.471222 
	C175.444901,476.912476 173.237732,477.330872 171.234283,478.334869 
	C170.022827,478.942017 168.769836,479.593567 168.798340,481.154907 
	C168.824097,482.565552 170.162338,482.904785 171.156540,483.429474 
	C176.487091,486.242554 181.971451,488.292969 188.949036,486.641357 
M639.733948,591.496033 
	C640.535889,591.703308 641.331665,591.939331 642.140747,592.113159 
	C647.209900,593.201782 651.632019,596.032898 656.553528,597.469971 
	C658.555237,598.054504 661.120972,598.565674 662.278259,596.098999 
	C663.159607,594.220459 662.558411,592.090088 660.872498,590.685730 
	C656.841797,587.328125 644.530701,586.336365 639.791504,588.905090 
	C638.805847,589.439270 637.333801,589.923279 639.733948,591.496033 
M313.681091,727.214722 
	C316.630463,723.571777 318.368530,719.438477 319.149078,714.675171 
	C309.409912,716.340576 306.287842,719.243103 300.999023,731.384766 
	C305.713898,732.061523 309.307739,729.505798 313.681091,727.214722 
M469.513885,252.182648 
	C469.549866,247.532654 466.798370,244.925720 462.828827,242.305573 
	C460.813782,251.618240 459.818329,260.173004 460.543304,269.028473 
	C463.160980,263.357941 466.895782,258.486694 469.513885,252.182648 
M491.535950,540.068726 
	C494.869904,537.154236 494.046173,533.231079 493.335571,529.821106 
	C492.803253,527.266907 489.850464,526.151367 487.835785,528.266052 
	C484.101837,532.185303 480.925903,536.630920 478.649353,542.316589 
	C483.369690,542.950623 487.031250,541.122375 491.535950,540.068726 
M541.474976,667.973206 
	C541.294922,677.786499 548.224609,686.588074 556.467407,686.167786 
	C554.455872,680.960449 552.359802,676.035583 548.774292,671.938904 
	C546.896484,669.793274 544.987732,667.362244 541.474976,667.973206 
M280.160767,618.282410 
	C274.707001,615.341797 261.949646,623.464233 261.631042,630.105652 
	C261.619537,630.345642 262.012726,630.605042 262.472626,631.167786 
	C270.217743,629.775452 276.931854,626.755737 280.160767,618.282410 
M452.779053,703.117737 
	C452.376740,711.436951 455.209259,718.905518 458.653564,726.695496 
	C458.653564,718.361328 458.771454,710.555115 458.583618,702.756348 
	C458.525208,700.332275 460.109833,696.247986 456.865173,695.875366 
	C453.459381,695.484314 453.838013,699.821350 452.779053,703.117737 
M183.080002,572.329712 
	C181.422882,574.432068 181.503571,575.994629 184.497955,576.418152 
	C189.686966,577.152161 194.754410,576.265015 199.741486,574.942627 
	C201.158188,574.567017 202.638596,573.790710 202.509445,571.892700 
	C202.402191,570.316406 201.225189,569.663635 199.860794,569.315430 
	C194.060211,567.834717 188.366104,567.102417 183.080002,572.329712 
M557.010620,725.481567 
	C558.296936,727.608459 558.622681,730.557007 562.260010,731.398743 
	C563.256714,723.240234 562.908630,715.691040 558.760498,708.556824 
	C555.529114,709.594177 554.555542,711.635803 554.348328,714.323608 
	C554.059570,718.069275 555.005371,721.510986 557.010620,725.481567 
M442.211060,280.710602 
	C442.676971,278.286285 443.215790,275.872894 443.580933,273.433472 
	C443.793427,272.014252 443.136169,270.823639 441.880035,270.099548 
	C440.325256,269.203308 439.332581,270.419769 438.499329,271.333588 
	C437.403137,272.535828 435.833832,273.943176 435.760559,275.330597 
	C435.454163,281.131561 435.631409,286.958099 435.631409,293.740814 
	C439.752960,289.757141 440.183350,285.282562 442.211060,280.710602 
M503.480530,613.933899 
	C502.498474,611.114563 501.935547,608.127502 500.229187,605.595825 
	C498.073059,602.396790 495.095154,603.518372 492.637146,604.690369 
	C490.241241,605.832703 491.318817,608.130981 492.203613,609.920471 
	C493.308563,612.155457 494.473450,614.381409 495.843536,616.458862 
	C497.163513,618.460388 499.257080,619.020203 501.574341,618.615784 
	C503.924133,618.205566 503.595612,616.360962 503.480530,613.933899 
M240.667892,330.870331 
	C244.604416,337.368225 251.139679,340.619415 257.154663,344.742065 
	C259.741730,338.921753 250.413208,329.493896 239.421921,326.306488 
	C239.780716,327.701416 240.103363,328.955719 240.667892,330.870331 
M397.806366,379.134369 
	C397.922272,374.017242 397.555420,369.088776 392.569336,365.123230 
	C389.494263,370.684387 388.131897,375.679565 390.816071,381.100098 
	C391.673431,382.831482 392.487061,385.182129 394.820587,384.965942 
	C397.631653,384.705536 397.498291,382.076691 397.806366,379.134369 
M197.805038,396.716949 
	C202.051254,401.697052 206.739838,405.629944 214.886597,403.908417 
	C208.785934,398.475037 203.886612,393.037018 197.113678,390.063782 
	C194.238327,392.488281 195.941406,394.328552 197.805038,396.716949 
M486.967712,376.381805 
	C493.054443,371.619232 493.275940,364.793457 486.952484,360.734650 
	C484.228119,367.169403 482.372192,373.665283 482.044312,380.674988 
	C483.480316,379.361938 484.916321,378.048859 486.967712,376.381805 
M603.793274,449.442657 
	C604.624451,448.893311 605.516296,448.416077 606.273865,447.779144 
	C607.729980,446.554932 610.112061,445.646698 609.069580,443.140900 
	C608.119263,440.856415 605.831970,441.091583 603.843506,441.324493 
	C598.342529,441.968903 594.690491,445.290283 591.543701,449.694946 
	C595.669678,452.296844 599.384888,451.502777 603.793274,449.442657 
M405.675140,534.067688 
	C400.499695,533.146790 400.884888,537.902954 399.269348,540.489929 
	C397.412842,543.462830 399.365784,545.515320 401.916412,546.062073 
	C404.777405,546.675415 408.057312,546.144775 409.983643,543.606567 
	C411.772827,541.249023 410.242615,538.906311 408.639252,536.915344 
	C407.921692,536.024353 407.048126,535.258972 405.675140,534.067688 
M612.635132,679.640381 
	C613.060181,677.452820 612.326782,675.411987 611.934387,673.305237 
	C611.177185,669.239258 608.816528,667.253052 604.941223,668.690491 
	C600.538696,670.323364 603.434265,673.636414 604.502136,675.624207 
	C606.029480,678.466980 607.466431,682.714905 612.635132,679.640381 
M220.812912,359.207520 
	C219.571121,359.137146 218.364029,357.941925 216.898361,359.219086 
	C217.731964,363.562347 220.871429,366.258636 224.105103,368.855530 
	C225.376633,369.876648 226.957291,369.992371 228.343994,369.259796 
	C230.126678,368.318054 229.219666,366.790375 228.998978,365.312836 
	C228.343842,360.926208 225.136002,359.921631 220.812912,359.207520 
M301.306824,566.643127 
	C303.598267,566.842468 305.903046,566.947021 308.177643,567.266479 
	C310.730591,567.625000 312.553955,566.371277 313.304565,564.305298 
	C314.199829,561.841125 311.962433,560.920288 310.141693,560.127502 
	C307.680542,559.055847 300.283051,561.097229 298.763184,563.219849 
	C297.097717,565.545837 299.016235,565.971436 301.306824,566.643127 
M367.473206,352.536835 
	C370.357544,346.358002 368.115967,340.814575 361.717621,338.303345 
	C358.930542,343.599457 361.648743,351.083252 367.473206,352.536835 
M521.741272,532.375488 
	C515.693970,533.928162 513.622192,537.316223 515.299438,543.711365 
	C519.632385,540.717651 524.678101,539.003845 527.342224,534.299744 
	C525.859131,532.240356 524.157227,532.354004 521.741272,532.375488 
M627.244324,556.083496 
	C627.389526,551.438538 623.452820,551.012939 620.591125,550.604126 
	C617.130493,550.109680 613.762939,551.324463 612.645142,555.861023 
	C617.433899,557.487061 621.959717,558.687866 627.244324,556.083496 
M661.488708,520.071472 
	C665.609314,523.074646 669.110291,521.044556 672.921509,518.969666 
	C671.296204,517.206787 670.155518,515.483093 668.581543,514.374390 
	C666.120789,512.641113 663.042969,512.578979 660.680664,514.169067 
	C658.651855,515.534729 658.785522,517.870117 661.488708,520.071472 
M437.612854,328.848846 
	C431.531403,332.674103 431.950165,340.230011 438.681000,344.694519 
	C440.713867,339.387939 439.318604,334.285126 437.612854,328.848846 
M250.394058,548.517822 
	C251.550003,548.597107 252.705811,548.678589 253.861923,548.755249 
	C256.886780,548.955750 258.213501,547.006531 258.265381,544.505615 
	C258.321686,541.792542 255.766129,542.387878 254.101746,542.210693 
	C252.803833,542.072449 251.450760,542.279236 250.141296,542.466431 
	C248.491821,542.702209 247.529160,543.719482 247.125839,545.356750 
	C246.567459,547.623291 248.472687,547.629089 250.394058,548.517822 
M295.321625,640.373596 
	C295.701111,641.894592 293.727600,643.430481 295.489105,645.153625 
	C299.676941,644.014526 301.024750,640.751282 301.891235,637.040771 
	C297.152344,634.658691 296.780579,634.819824 295.321625,640.373596 
M590.481934,488.282074 
	C593.068237,484.612946 589.677124,483.637970 587.576416,482.699188 
	C585.948120,481.971558 583.034424,481.646698 582.785217,484.282196 
	C582.546753,486.804291 585.064575,487.976471 587.381592,488.536682 
	C588.149597,488.722382 589.008057,488.534241 590.481934,488.282074 
M442.366669,597.514343 
	C441.815125,595.054871 440.095947,594.637207 437.827789,594.793457 
	C436.705139,597.933105 435.525208,600.892212 436.138214,604.549622 
	C439.667755,603.437927 441.114838,600.958801 442.366669,597.514343 
M369.558655,250.762482 
	C370.871552,250.561600 372.601837,250.378601 371.968536,248.563690 
	C371.149872,246.217529 370.214203,243.664154 367.252472,242.981506 
	C364.399139,248.999527 364.635071,250.015945 369.558655,250.762482 
M515.106384,748.633118 
	C514.403809,745.800781 512.900085,743.762207 509.621216,742.737793 
	C509.431854,745.638000 508.244568,748.266907 510.275299,750.163086 
	C511.714966,751.507385 513.667358,750.957581 515.106384,748.633118 
M467.318817,761.417603 
	C467.491272,762.994446 466.748810,764.747314 468.176392,766.107849 
	C471.712250,763.115356 471.939697,759.814270 468.928314,755.255981 
	C466.847870,756.600769 467.453644,758.729431 467.318817,761.417603 
M526.470764,459.528625 
	C525.561462,456.383423 523.859619,457.078430 522.256165,458.816620 
	C521.027527,460.148407 518.509460,461.611176 520.190552,463.604736 
	C522.069153,465.832489 523.596863,463.422913 524.939148,462.120239 
	C525.511536,461.564728 525.909668,460.829590 526.470764,459.528625 
M398.024109,499.426422 
	C398.888947,496.126160 397.441742,493.931915 394.762848,492.118195 
	C392.754364,496.897186 393.722565,499.388702 398.024109,499.426422 
M500.097504,691.048523 
	C496.891357,692.176941 498.252411,694.520935 499.045441,696.240479 
	C499.899628,698.092529 501.568268,699.233765 503.879791,697.974792 
	C503.873688,695.095520 502.345642,693.175049 500.097504,691.048523 
M378.185608,595.744507 
	C376.963684,596.936584 374.991119,597.718079 375.763428,600.044250 
	C379.986908,599.826843 380.847809,598.997925 382.370972,593.688782 
	C381.133057,594.277405 379.945862,594.841919 378.185608,595.744507 
M371.405884,377.106445 
	C370.351685,377.613159 369.297485,378.119873 368.214630,378.640320 
	C368.323822,381.467041 369.753510,383.097168 372.001282,384.237152 
	C374.063080,381.528442 372.462189,379.517303 371.405884,377.106445 
M476.226807,680.152344 
	C476.732361,681.328369 477.733917,683.331909 478.738434,681.732239 
	C480.382172,679.114685 477.606689,677.332947 476.179596,674.864624 
	C475.113281,676.824463 475.406250,678.176636 476.226807,680.152344 
z"/>
<path fill="#000000" opacity="1.000000" stroke="none" 
	d="
M825.223572,543.004272 
	C843.091614,614.277710 860.896851,685.139099 878.663635,756.010193 
	C881.226318,766.232666 883.138733,776.510925 879.410645,786.906921 
	C875.854980,796.821960 868.767639,802.946777 858.656372,805.191345 
	C848.440613,807.459045 841.086365,802.332153 834.856018,794.865906 
	C828.686523,787.472412 827.272949,778.413391 825.670837,769.406006 
	C818.408752,728.575134 811.146545,687.744202 803.912598,646.908325 
	C797.459412,610.479675 791.072937,574.039246 784.601501,537.613953 
	C779.060120,506.424011 773.425781,475.250641 767.864746,444.064209 
	C766.386475,435.774139 765.026489,427.463013 763.665100,419.472198 
	C761.007019,418.706268 759.354980,419.692902 757.649597,420.239044 
	C752.041016,422.035248 746.702759,421.934509 742.360168,417.456818 
	C737.554016,412.501038 735.118774,406.434265 737.078003,399.659729 
	C737.993347,396.494843 737.604492,394.365509 735.879517,391.885468 
	C734.270569,389.572266 732.866333,387.084259 731.639160,384.544067 
	C728.184204,377.392029 731.482605,371.319000 739.467712,370.764862 
	C757.873413,369.487701 776.048157,366.541199 794.212891,363.537262 
	C797.497559,362.994080 799.231323,363.750031 800.219604,366.817566 
	C800.980408,369.178833 801.927673,371.479980 802.907471,374.118988 
	C807.801453,373.153809 812.278442,370.836212 817.220581,370.260010 
	C830.049622,368.764130 841.983154,371.434784 853.152405,377.736145 
	C854.416504,378.449280 855.519165,379.598541 856.433594,380.753815 
	C859.552185,384.693817 860.559448,390.666809 858.176392,392.704041 
	C854.590393,395.769562 850.768250,394.446533 847.009216,392.605927 
	C839.077576,388.722137 828.880615,386.502045 819.600220,386.724823 
	C824.960144,391.470886 830.191711,395.371277 834.573059,400.218933 
	C839.958191,406.177063 843.548767,413.012970 845.866272,420.558899 
	C846.764038,423.482056 848.003662,426.851227 844.771484,429.281036 
	C841.614807,431.654175 838.595825,429.766846 835.976440,428.182098 
	C830.946594,425.139099 826.801880,420.970703 823.258606,416.310272 
	C818.934326,410.622559 813.019043,407.480682 806.553650,405.038849 
	C803.702759,403.962128 801.132690,404.437286 798.373352,405.593658 
	C794.472839,407.228241 793.372559,409.562653 794.388794,413.758087 
	C799.506836,434.888092 804.321472,456.091339 809.359253,477.241089 
	C814.552307,499.042511 819.879761,520.811951 825.223572,543.004272 
z"/>
<path fill="#000000" opacity="1.000000" stroke="none" 
	d="
M789.108154,229.749237 
	C809.474915,242.114243 819.348145,260.292908 821.430969,283.338593 
	C822.844849,298.982605 819.029968,313.676422 814.166138,328.204407 
	C811.316162,336.717224 805.704895,343.624786 798.060974,347.984283 
	C776.172363,360.467743 753.014954,364.554749 728.540039,356.298065 
	C719.696228,353.314575 712.760803,347.848328 707.898010,339.822937 
	C691.922607,313.457733 688.550232,285.648132 702.830017,258.100250 
	C714.157898,236.246979 734.087769,224.334808 758.730530,221.923630 
	C769.319336,220.887558 779.418945,224.434052 789.108154,229.749237 
z"/>
</svg>