<svg version="1.1" id="Layer_1" xmlns="http://www.w3.org/2000/svg" xmlns:xlink="http://www.w3.org/1999/xlink" x="0px" y="0px"
	 width="100%" viewBox="0 0 1024 1024" enable-background="new 0 0 1024 1024" xml:space="preserve">
<path fill="#000000" opacity="1.000000" stroke="none" 
	d="
M374.894379,658.121094 
	C385.114777,667.626648 386.643860,680.145325 387.949402,692.550598 
	C389.973450,711.782715 384.570862,729.668457 377.550293,747.035522 
	C374.446899,747.628662 373.388092,745.204407 371.571472,744.287354 
	C375.532959,767.486633 359.288666,779.295654 344.550903,791.823547 
	C341.458679,794.452087 337.822632,796.689331 333.515991,797.302979 
	C331.977173,795.004272 333.388672,792.862183 333.912811,791.011597 
	C336.894318,780.484558 335.503052,770.321472 332.343597,760.118469 
	C328.645264,748.175232 323.781677,736.681030 319.185760,725.086670 
	C317.561798,720.989929 317.830048,717.576294 320.102692,713.793518 
	C323.181122,708.669556 325.711792,703.216492 329.034637,696.834351 
	C322.774811,700.183533 319.644348,705.384705 314.725525,709.217529 
	C312.002045,702.498962 311.165314,695.791138 310.213928,689.163330 
	C309.008148,680.763916 308.333923,672.300842 308.872345,663.789185 
	C309.351715,656.210815 312.497803,649.729309 316.852722,643.671387 
	C318.961365,640.738281 321.255829,637.867310 322.732422,633.832825 
	C318.262634,634.185730 316.192169,638.293457 312.685577,638.957397 
	C311.327087,638.130188 311.652740,637.035950 311.877625,636.140930 
	C315.950439,619.928711 324.353333,606.856750 339.247437,598.493164 
	C344.919434,595.308105 344.962555,594.786194 340.316833,590.597595 
	C333.342407,584.309448 333.531158,573.800110 341.191071,567.932129 
	C344.270752,565.572876 345.080109,563.073547 345.089996,559.499207 
	C345.137451,542.340515 345.351410,525.181885 345.596924,508.024506 
	C345.636963,505.224884 344.989838,502.946625 343.124237,500.740173 
	C318.619232,471.757660 303.118439,438.458282 296.043640,401.248169 
	C292.136688,380.699341 291.679657,359.965363 293.508942,339.138306 
	C298.010223,287.889648 319.683868,244.660095 355.327271,208.269928 
	C388.749237,174.147766 429.346558,153.127960 476.531677,145.671036 
	C535.868408,136.293732 590.819397,148.443817 640.305786,182.493240 
	C687.397583,214.895096 716.304138,260.018890 729.237244,315.471222 
	C733.099487,332.031281 734.887939,348.950989 734.206787,365.940216 
	C732.256042,414.602539 716.711182,458.416290 686.228516,496.636414 
	C683.457275,500.111115 682.211548,503.551208 682.261353,507.985840 
	C682.458008,525.481262 682.401001,542.980469 682.302368,560.477478 
	C682.284973,563.555420 682.966248,565.610229 685.781738,567.475159 
	C693.447388,572.552612 694.409729,582.732483 688.269775,589.694702 
	C683.668640,594.912048 683.818237,596.020691 689.692200,599.995361 
	C702.891724,608.926819 712.581177,620.250916 714.903442,636.677185 
	C715.415710,640.300903 715.617126,643.874634 714.829712,647.783936 
	C710.039856,646.770508 707.549377,642.347839 702.409058,640.372620 
	C704.977356,646.525696 707.873962,651.602356 711.432251,655.971191 
	C716.721069,662.465027 717.762451,669.633972 717.211182,677.486145 
	C716.360107,689.607910 714.859131,701.615662 711.294556,713.283875 
	C710.913330,714.531860 710.408875,715.742126 709.731201,717.602295 
	C704.918335,713.041443 701.728027,707.403015 695.502075,704.201050 
	C698.622437,711.536743 701.413147,718.434753 704.493774,725.200684 
	C706.087952,728.701904 705.774109,731.746582 704.161560,735.164001 
	C698.836487,746.448730 693.494690,757.744324 691.135071,770.153137 
	C689.681091,777.799377 690.047852,785.363159 691.775574,792.897522 
	C692.103210,794.326050 692.864929,795.697144 692.081909,797.171021 
	C691.700073,797.258362 691.321472,797.482300 691.080139,797.380554 
	C676.667969,791.305359 664.964783,781.919678 657.791077,767.915894 
	C654.645691,761.775696 657.125427,754.843262 658.140686,748.302612 
	C658.591003,745.401611 659.123779,742.513306 659.806702,738.523315 
	C654.356323,742.925842 653.020874,749.148926 648.047546,753.421814 
	C638.309448,736.318726 636.967163,718.099792 637.614014,699.377136 
	C638.294434,679.684875 649.672607,664.965088 659.710632,649.356079 
	C653.755432,654.417603 647.800293,659.479126 640.968262,665.285889 
	C641.360107,656.420410 642.451782,648.848938 644.510620,641.402466 
	C648.943726,625.367981 656.535583,611.125061 668.497009,599.404907 
	C671.553345,596.410278 671.250793,594.464294 667.602600,592.010559 
	C658.462585,585.863098 658.180725,574.423889 666.793762,567.536804 
	C668.426880,566.230957 669.777588,565.119202 669.767395,562.759094 
	C669.701050,547.439941 669.733398,532.120361 669.733398,515.823242 
	C665.813599,519.174011 662.490479,521.995667 659.187744,524.841003 
	C627.809937,551.872864 591.666443,568.914185 550.965515,576.306702 
	C541.810974,577.969482 532.598938,579.428040 523.244934,579.335205 
	C520.520813,579.308167 519.322205,580.346008 519.331848,583.152954 
	C519.390137,600.150330 519.384705,617.148193 519.336731,634.145691 
	C519.330872,636.219604 520.328369,637.454529 521.786987,638.744263 
	C531.356018,647.205322 531.179993,656.411804 521.359253,664.292603 
	C517.590820,667.316589 519.720337,669.505615 522.489990,671.251953 
	C533.474243,678.177673 540.765991,688.121521 545.971375,699.749573 
	C551.096436,711.198181 554.265686,723.231995 556.156250,735.610107 
	C556.350098,736.879517 556.612488,738.251770 555.357849,739.695007 
	C548.958679,736.513123 544.103027,730.772583 536.180176,727.146057 
	C542.112061,735.233643 547.084167,742.265381 552.345032,749.074036 
	C554.815552,752.271301 556.018066,755.799500 556.268799,759.646301 
	C557.927734,785.101929 554.545410,809.733704 543.953064,833.145447 
	C543.473328,834.205872 542.983215,835.266479 542.410583,836.277527 
	C542.187256,836.671875 541.722534,836.929626 541.171265,837.426880 
	C537.574280,835.191406 536.679199,830.523254 532.382751,827.680725 
	C532.852600,833.485840 533.104004,838.527222 533.722351,843.523254 
	C534.108032,846.640076 533.894653,849.547913 532.216125,852.176392 
	C523.550232,865.746399 511.992584,875.945801 497.012329,882.097656 
	C496.400818,882.348694 495.738251,882.495422 495.086029,882.620789 
	C494.610077,882.712341 494.112000,882.688660 493.729126,882.710388 
	C492.776062,882.137695 492.666565,881.248840 492.785736,880.471252 
	C495.554840,862.403259 490.181976,845.595764 484.837494,828.781555 
	C484.787048,828.622864 484.762909,828.451538 484.688751,828.305298 
	C478.002899,815.115112 478.736633,802.424622 487.111969,790.165161 
	C488.211884,788.555176 488.801880,786.596802 490.105255,783.761841 
	C483.627869,786.824890 480.893250,792.445862 475.696655,796.678162 
	C470.931366,783.340088 468.842743,770.097534 468.803223,756.547913 
	C468.761536,742.253052 477.043121,731.232849 483.716614,719.319092 
	C479.821259,722.358582 475.925903,725.398071 471.739960,728.664307 
	C469.496033,724.913513 471.436523,721.494446 472.086029,718.431885 
	C476.260284,698.750061 485.926697,682.565125 503.185211,671.443298 
	C507.957458,668.367981 507.915436,667.196594 503.461090,663.390442 
	C495.269165,656.390625 495.224762,646.105347 503.648743,639.377075 
	C506.048553,637.460388 506.772644,635.477478 506.756104,632.600952 
	C506.663208,616.437073 506.652557,600.271851 506.763489,584.108215 
	C506.786224,580.790466 505.850098,579.453186 502.267914,579.275940 
	C468.674835,577.613647 437.115540,568.585815 407.502625,552.669800 
	C398.685669,547.930908 390.245789,542.612366 382.145996,536.727600 
	C374.054382,530.848755 366.454590,524.397583 359.256073,517.374146 
	C357.586273,518.571716 358.280762,520.188599 358.273682,521.514709 
	C358.204437,534.512573 358.298004,547.511597 358.165131,560.508484 
	C358.133606,563.592163 358.968018,565.645447 361.524078,567.658203 
	C369.983643,574.319580 369.497406,585.652710 360.773956,591.878113 
	C356.231506,595.119873 356.021271,596.575439 360.191772,600.127930 
	C375.992035,613.586609 382.083740,631.371948 383.266541,651.378601 
	C383.342163,652.657349 383.623322,654.041687 382.319458,655.595703 
	C376.526031,652.962280 372.009064,648.197266 365.783203,644.458069 
	C368.487946,649.761475 371.671265,653.744263 374.894379,658.121094 
M642.346924,456.499329 
	C642.348145,461.495209 642.213928,466.495850 642.388000,471.485687 
	C642.567322,476.627380 642.920593,481.821045 644.515747,486.728516 
	C646.514465,492.878082 649.486267,493.464539 653.999146,488.930756 
	C663.331116,479.555542 671.044434,468.945129 677.905396,457.671570 
	C691.619934,435.136597 699.254150,410.555908 702.566223,384.527252 
	C703.349548,378.371674 701.287537,376.950775 695.452515,379.546814 
	C691.324097,381.383545 687.682373,384.047394 684.146729,386.828400 
	C671.204895,397.007935 659.259094,408.472443 645.328125,417.358246 
	C641.968750,419.501007 640.801025,421.988312 641.398682,425.588776 
	C643.047302,435.521423 642.071472,445.528717 642.346924,456.499329 
M521.282776,537.232788 
	C509.019348,523.157227 495.061920,510.734100 482.245209,497.198822 
	C480.869751,495.746246 479.615204,495.043762 477.468262,495.990234 
	C461.898926,502.853973 445.347931,506.653107 429.075592,511.327698 
	C423.817871,512.838074 418.428802,514.127869 413.853363,517.338562 
	C410.770386,519.502014 410.507233,521.595154 414.171631,523.652954 
	C420.847870,527.402222 427.586639,530.984375 434.628021,534.033875 
	C460.303345,545.153564 487.184692,550.382263 515.072937,550.541748 
	C518.738342,550.562744 524.004028,551.398438 525.729431,548.334778 
	C527.705994,544.825317 524.204468,540.954041 521.282776,537.232788 
M683.881653,357.608673 
	C688.290527,361.372589 692.049377,366.021637 697.768738,368.014069 
	C702.161499,369.544403 703.621521,368.570984 703.619141,363.916504 
	C703.615540,356.936188 703.393555,349.981171 702.860413,342.991608 
	C700.930481,317.687683 693.517517,294.103821 681.538452,271.899719 
	C677.707153,264.798157 673.675537,257.725708 668.164429,251.504562 
	C662.376282,255.104996 661.473572,260.859070 660.404663,266.311066 
	C657.055176,283.396667 656.085205,300.918488 651.178101,317.711060 
	C650.241577,320.915741 650.921265,322.905823 653.137451,325.202148 
	C663.314148,335.746979 673.321289,346.455444 683.881653,357.608673 
M591.821228,490.085175 
	C586.261353,489.146179 580.678528,488.321259 575.152771,487.212311 
	C572.922424,486.764709 571.814331,487.513763 570.762817,489.341370 
	C565.266052,498.894745 558.327454,507.440735 551.839539,516.307190 
	C545.653564,524.760925 539.217407,533.123474 536.049927,543.340027 
	C534.627014,547.929443 535.808533,549.201538 540.493042,548.478455 
	C572.156372,543.591370 600.955872,531.681030 626.906860,512.952332 
	C632.353638,509.021484 638.081909,505.307678 642.462585,499.967102 
	C639.758301,496.643738 636.562012,495.064972 632.864075,494.330383 
	C619.611755,491.697754 606.127991,491.332916 591.821228,490.085175 
M337.727905,405.231262 
	C347.736847,388.917816 354.917206,371.021210 365.743530,355.167389 
	C367.176880,353.068451 365.960327,351.397888 365.102600,349.615295 
	C360.415039,339.873505 356.127899,329.975464 352.447968,319.791260 
	C349.401306,311.359558 346.615601,302.792206 342.376343,294.834656 
	C341.059509,292.362915 339.765076,289.758484 335.856934,289.548889 
	C320.132690,329.703491 317.928772,370.418976 329.677521,412.064331 
	C333.957581,411.252533 335.500336,408.368164 337.727905,405.231262 
M606.196899,240.919937 
	C611.447754,241.699600 616.691162,242.533783 621.950989,243.247284 
	C631.978760,244.607559 641.843018,247.092026 651.985229,247.648605 
	C655.868652,247.861725 659.189026,246.792252 661.694031,242.588242 
	C635.115234,210.325989 601.453247,189.396683 560.935486,178.605927 
	C559.794922,182.277359 560.725220,184.837585 562.006531,187.432770 
	C568.946289,201.489319 579.159851,213.829239 585.007812,228.290970 
	C589.130859,238.487091 595.477661,241.578552 606.196899,240.919937 
M348.262604,425.325134 
	C343.400238,423.517334 338.873474,420.190918 332.617706,421.924652 
	C345.693542,460.550262 368.569092,491.455658 401.232391,515.443970 
	C405.691925,511.360657 406.065216,506.663116 405.443481,501.734558 
	C404.945099,497.783844 404.262177,493.856476 403.664795,489.918213 
	C401.724335,477.124451 399.143127,464.422791 398.355713,451.462799 
	C398.209290,449.052795 397.768127,446.748505 394.639008,445.711975 
	C378.789825,440.461761 364.106720,432.511658 348.262604,425.325134 
M345.167908,270.561371 
	C343.841400,273.674805 341.363220,276.334534 341.195679,279.856201 
	C345.358368,282.611542 349.168579,280.761841 352.857452,279.537842 
	C370.364105,273.728912 386.938354,265.395050 404.723114,260.319946 
	C406.427673,259.833527 407.400085,258.684509 407.807465,256.804504 
	C411.716064,238.767700 418.253540,221.468597 422.828888,203.614594 
	C423.463043,201.139954 424.512054,198.456223 422.251312,196.644333 
	C419.902985,194.762238 417.912994,197.301514 416.059998,198.366150 
	C385.928040,215.678329 362.275635,239.417053 345.167908,270.561371 
M544.257324,175.313583 
	C505.519135,168.479370 468.409515,173.785797 431.734070,189.863037 
	C435.690765,194.462830 440.420441,195.739349 444.739288,197.498001 
	C459.358459,203.451080 474.619110,207.795853 488.744904,214.984909 
	C491.229523,216.249405 493.081696,215.395950 495.189697,214.067963 
	C503.071899,209.102341 510.994934,204.196365 519.003540,199.437836 
	C527.583801,194.339645 536.330566,189.521027 544.891907,184.392136 
	C547.658752,182.734589 550.524475,180.836029 551.001404,176.700790 
	C548.889832,176.224457 546.983826,175.794510 544.257324,175.313583 
M462.183228,464.152954 
	C460.756317,460.252075 459.016754,456.431458 457.988831,452.428131 
	C456.920563,448.267700 455.271545,446.935944 450.669189,447.822968 
	C438.036987,450.257568 425.219330,450.352173 412.431793,448.948456 
	C407.604889,448.418640 406.780945,448.967804 407.463196,453.821686 
	C408.339844,460.058716 409.392548,466.270782 410.345306,472.497284 
	C412.043579,483.595673 414.071899,494.647797 414.676910,506.317566 
	C422.239471,503.999664 429.343140,501.842865 436.433868,499.644257 
	C446.905518,496.397278 457.447845,493.351990 467.806000,489.774628 
	C474.620850,487.420990 474.671265,486.653931 470.797607,480.760315 
	C467.492157,475.731262 464.766296,470.415802 462.183228,464.152954 
M408.590363,292.645081 
	C407.856018,285.248383 407.121674,277.851685 406.324860,269.825562 
	C387.198090,275.397797 369.691223,284.366425 350.305908,289.759277 
	C359.269867,307.728241 363.762909,326.981049 373.792023,344.866699 
	C385.812592,332.280609 398.836975,322.153381 414.157227,314.860260 
	C412.164337,307.630066 409.601562,300.773712 408.590363,292.645081 
M646.193848,295.927765 
	C648.254089,282.885712 649.448425,269.701569 653.169739,256.598389 
	C633.085632,255.987427 614.171082,250.015793 594.717285,249.320435 
	C593.885132,251.602402 594.521790,253.149582 594.886963,254.750687 
	C597.573303,266.528687 598.179077,278.508850 596.923523,290.437836 
	C596.497314,294.488098 597.366089,295.727661 600.900208,296.560303 
	C614.672913,299.805054 627.131104,306.028412 638.918579,313.712280 
	C639.855103,314.322784 640.720154,315.290924 642.273071,314.589325 
	C644.314514,308.913879 645.149231,302.845215 646.193848,295.927765 
M574.857605,228.568710 
	C567.634521,215.682037 559.397156,203.373978 553.040222,189.428635 
	C536.580872,201.880463 517.549927,209.354080 500.805817,221.689606 
	C513.585083,231.582352 524.381653,242.083786 533.894653,254.327332 
	C548.178833,246.394623 563.485046,242.282761 580.152527,240.092331 
	C578.328918,236.059128 576.779663,232.632721 574.857605,228.568710 
M643.488708,406.868866 
	C658.739502,396.808472 671.254639,383.314758 687.245117,373.171722 
	C671.507324,360.645416 660.424500,344.882538 646.096741,331.447968 
	C638.811584,344.535767 630.372864,355.787903 619.726135,365.271912 
	C617.531433,367.226929 619.051086,368.862000 620.223694,370.450378 
	C626.300781,378.682465 630.704773,387.789917 634.347595,397.298126 
	C635.865356,401.259674 637.344177,405.236206 638.915344,409.403931 
	C640.595947,408.498901 641.754944,407.874786 643.488708,406.868866 
M616.647217,482.642090 
	C622.485718,483.322632 628.324219,484.003143 634.398987,484.711212 
	C632.033630,464.662476 633.262512,444.896515 632.568787,425.289948 
	C631.660217,425.164429 631.304382,425.002655 631.034241,425.094055 
	C617.307251,429.737030 603.407898,433.487427 588.752563,433.407837 
	C585.722412,433.391357 585.253113,435.413879 585.366211,437.794525 
	C585.644531,443.652740 584.513794,449.334656 583.534363,455.070312 
	C582.243408,462.629883 578.980957,469.563721 576.739441,477.257446 
	C589.661682,481.024231 602.822937,480.966309 616.647217,482.642090 
M379.774841,429.650055 
	C385.515900,431.998718 390.924713,435.327850 397.755676,436.126831 
	C399.431030,420.491516 401.659882,405.407959 407.636902,390.536346 
	C394.344940,383.326141 383.457184,373.231598 373.138550,361.927643 
	C361.452393,378.647186 354.958038,397.063507 343.854706,412.861664 
	C355.900421,418.490601 367.497772,423.909973 379.774841,429.650055 
M493.072021,494.506348 
	C505.534027,506.644196 517.996033,518.782043 530.803711,531.256592 
	C539.654419,514.557495 553.065308,500.867126 563.013611,483.991608 
	C547.926025,477.836121 533.638428,471.709076 521.425842,461.575562 
	C512.394653,473.415009 500.960175,481.659851 489.446716,490.026947 
	C490.763611,491.674377 491.693329,492.837463 493.072021,494.506348 
M436.698486,204.101181 
	C435.366730,203.613907 434.187805,202.361740 432.144806,203.443771 
	C428.351837,221.329559 421.009216,238.547394 417.713776,257.066315 
	C421.251312,258.095886 424.427246,257.692993 427.526917,257.607574 
	C437.903564,257.321594 448.166290,258.325714 458.177704,260.889343 
	C461.966095,261.859436 463.132050,260.607727 464.369110,257.522125 
	C468.924805,246.158905 475.139740,235.748962 482.942474,226.293991 
	C483.622772,225.469650 484.834045,224.834534 484.469391,223.316925 
	C481.669983,221.233505 478.383820,220.014938 475.135986,218.767517 
	C462.561401,213.937943 449.961731,209.173584 436.698486,204.101181 
M596.217163,347.201599 
	C600.326416,350.319061 604.643982,353.209351 608.109558,357.072449 
	C610.534790,359.775879 612.424011,359.779602 615.063232,357.119202 
	C620.951111,351.184113 626.367554,344.857452 630.971802,337.927856 
	C640.598389,323.438995 640.827637,326.614563 626.929688,317.654205 
	C626.370300,317.293579 625.806580,316.932465 625.215210,316.629608 
	C615.503479,311.656158 605.667725,307.008545 594.474915,304.485840 
	C591.869690,315.788849 587.624695,325.844635 581.897217,335.268066 
	C580.550537,337.483765 581.897583,338.527618 583.669189,339.559235 
	C587.693787,341.902802 591.648926,344.365692 596.217163,347.201599 
M585.632324,385.301361 
	C583.175781,386.543671 580.205383,386.630768 577.800720,388.574341 
	C580.990906,397.135742 583.529785,405.692383 585.015686,414.573425 
	C585.551270,417.774292 583.718872,421.903809 586.584412,424.016113 
	C589.527161,426.185333 593.357727,423.865662 596.780151,423.580872 
	C606.940613,422.735504 616.680542,419.912933 626.250977,416.502380 
	C628.722473,415.621643 630.007446,414.379395 629.005981,411.257050 
	C624.609375,397.549225 618.784363,384.605011 609.691345,372.778168 
	C602.104370,377.333679 594.680542,382.085388 585.632324,385.301361 
M405.991974,330.527039 
	C397.440460,336.331543 389.223633,342.550446 382.066010,350.057220 
	C380.627869,351.565491 378.425140,353.080322 380.572357,355.496887 
	C389.671051,365.736786 399.866638,374.649200 412.218628,381.740112 
	C418.447968,370.029114 425.935394,359.757965 435.603546,350.973846 
	C428.266266,342.564026 422.037415,334.000458 417.858215,323.923889 
	C413.372223,325.440796 410.113312,328.023804 405.991974,330.527039 
M553.521912,294.464813 
	C563.030884,292.553314 572.581848,291.865967 582.224792,293.381500 
	C584.936768,293.807739 587.633179,294.358185 587.673157,290.013855 
	C587.786438,277.709137 587.982605,265.419098 584.703125,253.389145 
	C584.164917,251.414810 584.089417,249.421646 581.071106,249.890121 
	C567.912964,251.932556 554.938782,254.542816 542.833008,260.438782 
	C539.583252,262.021545 538.835144,263.797943 540.685852,267.057098 
	C544.891602,274.463440 547.868469,282.367615 549.655090,290.726715 
	C549.999573,292.338531 550.072937,294.615723 553.521912,294.464813 
M413.275940,404.653900 
	C410.194061,414.864014 408.935455,425.374329 407.946716,435.948151 
	C407.669373,438.914337 409.357880,439.453125 411.453125,439.544708 
	C424.399475,440.110504 437.324493,440.562042 450.157684,437.813202 
	C453.699768,437.054443 453.978180,435.260712 453.364929,432.499115 
	C452.137482,426.971588 451.573792,421.398071 451.580078,415.720093 
	C451.592834,404.178894 451.531158,404.029938 440.178345,401.736298 
	C432.231506,400.130768 424.562897,397.673615 416.750000,394.599091 
	C415.549652,397.962280 414.495483,400.915985 413.275940,404.653900 
M560.157227,472.191040 
	C562.974792,472.173889 566.179382,477.161438 568.554138,471.913635 
	C573.542969,460.888947 575.236450,449.039062 576.606506,437.148804 
	C576.799377,435.475586 576.707031,433.714569 574.380493,433.387115 
	C563.223755,431.816742 552.264893,429.421509 541.475281,424.913361 
	C538.371155,435.644806 533.542480,445.051025 527.337646,454.239410 
	C537.530090,461.669830 548.132507,467.416290 560.157227,472.191040 
M446.858734,268.716339 
	C438.478180,267.181396 430.011993,267.342560 421.543030,267.307373 
	C417.693115,267.291382 415.993378,268.796478 416.331573,272.661224 
	C416.721863,277.121246 416.802185,281.618011 417.392029,286.048889 
	C418.522095,294.537903 419.758575,303.028259 422.858978,311.483124 
	C433.154938,308.061127 443.347443,306.014709 453.837830,305.621307 
	C456.342194,305.527405 456.788940,303.920837 456.322662,301.788208 
	C455.418640,297.653534 456.160583,293.553131 456.358459,289.408264 
	C456.642487,283.458557 458.548950,277.775452 458.992004,271.804932 
	C455.190308,270.213135 451.430969,269.623322 446.858734,268.716339 
M509.503784,241.996490 
	C504.456177,237.477264 499.898529,232.356049 493.662598,228.843033 
	C484.118011,239.683990 477.001068,251.711487 471.542053,265.248291 
	C482.860016,269.513824 492.743195,275.476532 501.855560,283.589386 
	C507.937805,273.562378 516.330444,266.564606 525.474060,260.063995 
	C520.606201,253.455856 515.443298,247.855606 509.503784,241.996490 
M499.170135,470.663696 
	C504.314453,466.019867 509.401031,461.322113 513.972839,455.600006 
	C505.740997,447.851105 498.983246,439.549011 493.670471,429.591553 
	C484.699371,436.011597 475.012695,440.165894 465.278137,444.171234 
	C468.811890,456.894836 474.104126,468.090973 480.544006,478.814026 
	C482.342468,481.808655 484.092407,481.708466 486.535828,479.889252 
	C490.528992,476.916077 494.582672,474.024231 499.170135,470.663696 
M444.101959,358.724731 
	C439.214050,359.581146 437.043884,363.875763 434.096863,366.998169 
	C428.921265,372.481689 424.786591,378.770111 421.091461,385.746399 
	C431.135651,389.961212 440.866302,391.798981 450.651093,393.427551 
	C452.495972,393.734619 453.412659,392.754822 453.832214,391.076538 
	C455.680725,383.682312 458.697327,376.730865 462.387024,369.838165 
	C455.854065,366.754883 449.939575,363.435028 444.101959,358.724731 
M576.627258,325.173889 
	C580.308105,318.204987 583.814087,311.175079 584.998596,302.802490 
	C574.062927,301.808289 563.874207,302.433167 553.735229,304.356232 
	C552.448914,304.600189 551.407104,305.206146 551.471191,306.558502 
	C551.816956,313.856262 550.061646,320.957306 549.099182,328.107666 
	C554.859985,329.397827 560.386414,330.018372 565.415283,331.940552 
	C570.156494,333.752838 572.832214,332.770844 574.757629,328.388367 
	C575.155579,327.482635 575.749756,326.663055 576.627258,325.173889 
M544.348206,400.573425 
	C544.286621,404.049377 544.525269,407.527649 543.564209,410.962250 
	C543.052856,412.789825 543.240784,414.636993 545.372375,415.582855 
	C555.083313,419.891846 565.309387,422.003418 576.203125,423.373627 
	C575.108398,412.441071 572.736816,402.537445 568.579712,393.072083 
	C567.955688,391.651123 567.193115,390.175232 565.348022,390.596375 
	C558.494629,392.160583 551.487061,390.778198 544.348999,391.604309 
	C544.348999,394.409393 544.348999,397.025085 544.348206,400.573425 
M591.524048,371.949524 
	C595.096558,370.042419 599.047119,368.722992 602.124268,365.401917 
	C594.541626,357.616974 585.828125,351.965424 576.531921,347.119171 
	C575.473816,346.567535 574.289001,346.073486 573.287415,347.045074 
	C568.471436,351.716797 563.463318,356.181763 557.469177,360.526733 
	C563.591553,365.665131 568.088806,370.948151 571.769165,376.889587 
	C572.879395,378.681854 574.244568,378.537994 576.047363,378.069092 
	C581.222473,376.723083 586.000366,374.419373 591.524048,371.949524 
M467.229889,284.496826 
	C465.640839,290.733368 466.598877,297.086090 466.355560,303.384308 
	C466.279480,305.353271 467.105743,306.542633 469.030060,306.967346 
	C475.501740,308.395721 481.722870,310.650513 488.143433,313.175415 
	C489.506256,309.060760 490.618073,305.256439 492.018005,301.561249 
	C496.173126,290.593567 496.220459,290.606079 486.587769,283.855316 
	C481.184082,280.068390 475.491547,276.876282 468.744354,274.558502 
	C468.179413,278.108002 467.740326,280.866913 467.229889,284.496826 
M495.370178,356.772766 
	C495.523560,365.292786 499.903412,371.235321 507.010925,372.566803 
	C514.666138,374.000854 521.697021,370.312775 524.482483,363.401886 
	C527.287048,356.443604 524.778381,348.805359 518.320740,344.683289 
	C508.556702,338.450714 496.571625,345.483215 495.370178,356.772766 
M515.796082,281.298370 
	C514.111877,283.352448 512.425232,285.404602 510.744080,287.461182 
	C509.515961,288.963593 508.582642,290.601044 510.074829,292.378235 
	C514.132141,297.210510 517.094421,302.766327 520.458923,308.706116 
	C526.644897,304.689667 532.530029,301.008911 539.017639,298.489349 
	C540.017700,298.100952 540.700500,297.211029 540.458313,296.126129 
	C538.378723,286.810974 536.200928,277.523010 530.847046,268.910828 
	C525.011353,272.269379 520.471436,276.303680 515.796082,281.298370 
M463.920532,334.060150 
	C461.815430,329.176453 460.118134,324.150848 458.852814,318.989624 
	C458.442474,317.315765 458.202545,315.580750 456.045746,315.461700 
	C446.193726,314.917786 436.723145,316.622162 426.839111,320.034363 
	C431.048798,328.953278 436.021729,336.478821 442.256592,343.204926 
	C443.708191,344.770874 445.110748,344.387207 446.704315,343.504730 
	C451.370667,340.920807 456.297638,338.972656 461.433441,337.518921 
	C462.788055,337.135498 464.549469,336.897675 463.920532,334.060150 
M479.771759,399.867401 
	C474.910461,401.615997 469.826630,402.371277 464.758911,403.170288 
	C463.020538,403.444336 461.388672,403.687500 461.322632,405.920776 
	C461.046204,415.262268 460.586456,424.618744 462.954742,434.244446 
	C472.005829,430.923553 480.068695,426.826691 487.508484,421.478943 
	C488.988373,420.415222 489.235687,419.202911 488.545715,417.627716 
	C486.275482,412.444733 484.857147,406.991241 483.852966,401.459656 
	C483.402618,398.978821 482.245667,398.961761 479.771759,399.867401 
M506.391388,432.160278 
	C510.204193,437.689697 513.838623,443.379913 519.873901,447.712524 
	C525.140259,439.574585 528.867798,431.345306 531.524475,422.616669 
	C531.903931,421.369843 531.909119,419.848602 530.531006,419.034088 
	C525.136353,415.845734 520.619141,411.478851 515.723938,407.319702 
	C512.002991,411.674866 508.981293,415.878998 505.273895,419.351044 
	C501.993530,422.423126 501.337280,425.114014 504.123444,428.630310 
	C504.840424,429.535187 505.385162,430.576508 506.391388,432.160278 
M465.248535,385.696594 
	C464.632782,388.052917 463.307953,390.271179 463.732147,392.827881 
	C467.512695,393.630463 479.186310,391.415558 481.445526,389.461121 
	C481.918304,389.052094 482.340485,388.482300 482.562744,387.901215 
	C485.914948,379.137970 483.967163,375.717255 475.111572,373.771484 
	C472.195099,373.130646 470.669464,374.040802 469.524536,376.407013 
	C468.150330,379.247009 466.814362,382.105499 465.248535,385.696594 
M526.701294,316.273254 
	C522.486694,319.287659 525.323425,322.874146 526.010925,326.201080 
	C526.366821,327.923401 525.940063,331.155640 528.855591,330.429382 
	C532.145874,329.609772 536.927368,331.609039 538.553955,327.346466 
	C540.834290,321.370667 542.209778,315.047729 541.429321,308.061188 
	C535.802063,309.658783 531.553650,312.782898 526.701294,316.273254 
M555.015076,370.491272 
	C551.818298,366.406708 548.041138,364.467957 543.072266,367.430115 
	C541.415955,368.417511 537.612732,368.070160 538.777954,370.991699 
	C540.211487,374.585724 539.333130,380.301300 544.348633,381.253204 
	C550.097778,382.344391 556.108337,381.933868 562.374023,381.315948 
	C560.904663,376.783325 558.112671,373.954834 555.015076,370.491272 
M511.309845,312.135437 
	C509.042145,307.866486 507.137299,303.339203 503.183807,300.060974 
	C494.752960,314.327667 495.395813,319.802582 506.463562,326.020691 
	C507.870819,321.440063 514.604919,319.262024 511.309845,312.135437 
M453.614899,354.191467 
	C457.565796,356.260010 461.489563,358.383423 465.485260,360.361481 
	C466.587494,360.907135 467.928528,361.896759 469.156616,360.709259 
	C471.717346,358.233246 475.269196,356.914612 477.515533,353.906189 
	C475.685944,351.613373 474.038788,349.554626 472.397888,347.490936 
	C471.317657,346.132294 470.050842,345.041779 468.184113,345.453400 
	C462.999573,346.596649 458.092102,348.527557 453.335297,350.861786 
	C451.582520,351.721924 451.709198,352.706390 453.614899,354.191467 
M506.923584,402.492706 
	C510.770782,395.934937 503.478149,393.521820 502.423981,388.287018 
	C499.916779,389.827972 498.065338,390.893372 496.293365,392.077637 
	C494.833588,393.053284 492.270386,393.569122 492.660126,395.712616 
	C493.678772,401.315369 494.277100,407.109802 497.271515,412.386017 
	C501.915283,410.398346 503.803558,406.320374 506.923584,402.492706 
M563.471130,341.155884 
	C559.061279,339.051483 554.247070,338.495239 549.538269,337.552094 
	C547.833069,337.210541 546.211060,337.313080 545.279663,339.192963 
	C543.825439,342.128082 542.324158,345.039886 540.875854,347.896454 
	C550.334839,354.474152 550.334839,354.474152 558.825195,347.597717 
	C563.097534,344.137482 563.097534,344.137451 563.471130,341.155884 
M473.118317,330.464264 
	C475.887024,337.220245 481.681488,333.794800 486.921997,335.246857 
	C485.945099,330.694061 488.556610,326.089203 485.384308,323.492432 
	C480.861206,319.789917 475.055359,318.148895 468.840546,317.487274 
	C469.259155,322.303131 471.142242,326.006592 473.118317,330.464264 
M528.172302,405.322815 
	C530.020874,406.469391 531.379089,408.727753 534.280579,408.137054 
	C534.970276,402.854797 535.016541,397.743164 534.657532,392.625153 
	C534.318665,387.793701 529.914673,388.696320 527.118958,387.680756 
	C524.156006,386.604431 523.796570,389.307739 523.157898,391.414215 
	C520.739014,399.391846 520.704163,399.381287 528.172302,405.322815 
M492.922119,381.227142 
	C492.943024,381.692780 492.912323,382.555511 492.992432,382.565948 
	C494.926422,382.817474 496.027374,381.460693 496.470062,380.010132 
	C496.999969,378.273987 496.318542,376.825958 494.115295,376.923553 
	C492.918060,377.997894 493.379333,379.423920 492.922119,381.227142 
M514.016663,333.368164 
	C519.107849,334.079895 515.731445,330.804626 516.775208,328.528900 
	C514.586731,330.077667 513.408447,331.051697 514.016663,333.368164 
M527.942139,378.056671 
	C528.857605,378.293365 530.016235,378.822479 529.878418,377.129150 
	C529.788940,376.030029 529.638184,374.725006 528.391846,374.253876 
	C527.316833,373.847504 526.512085,374.537231 526.034851,375.453705 
	C525.281372,376.900879 526.148438,377.522736 527.942139,378.056671 
z"/>
</svg>