<svg version="1.1" id="Layer_1" xmlns="http://www.w3.org/2000/svg" xmlns:xlink="http://www.w3.org/1999/xlink" x="0px" y="0px"
	 width="100%" viewBox="0 0 1024 1024" enable-background="new 0 0 1024 1024" xml:space="preserve">
<path fill="#000000" opacity="1.000000" stroke="none" 
	d="
M463.698425,903.619019 
	C456.073578,917.332214 448.721619,930.777100 441.173798,944.111023 
	C435.840668,953.532349 427.932465,955.962524 418.416077,950.840515 
	C410.946167,946.820129 403.417816,942.710266 396.617279,937.689514 
	C385.685394,929.618591 374.329590,927.991333 361.304443,931.515503 
	C351.572632,934.148560 341.644775,936.347168 331.563324,937.660583 
	C324.957001,938.521240 319.120697,937.480347 315.082581,932.011292 
	C310.715027,926.095947 311.009521,919.567627 314.425018,913.226685 
	C325.641174,892.403503 336.960754,871.635498 347.422272,850.416077 
	C347.716583,849.819092 348.087524,849.260010 348.385620,848.664734 
	C352.497681,840.452881 352.500397,840.446106 345.073853,835.023499 
	C323.079651,818.963867 303.729095,800.397705 289.649597,776.796326 
	C274.378937,751.198242 264.338043,723.686890 259.923401,694.227844 
	C259.303711,690.092834 257.575623,688.931458 254.104523,688.366699 
	C239.468338,685.985413 225.072220,682.614075 211.385559,676.786987 
	C179.378922,663.160217 158.261826,639.164673 145.856186,607.120178 
	C141.399063,595.607239 138.300095,583.825684 138.520111,571.202942 
	C138.965912,545.626648 157.796066,531.363037 182.652466,538.456177 
	C197.367676,542.655457 211.350754,549.073486 226.188354,552.972473 
	C239.077423,556.359436 252.076431,558.881287 265.400177,559.663025 
	C268.645172,559.853455 270.541870,558.693115 271.998657,555.658264 
	C287.577179,523.204407 308.535492,494.602417 334.174438,469.382904 
	C335.596558,467.984009 336.908630,466.469482 338.219543,464.963196 
	C338.748688,464.355164 339.136780,463.624390 339.641449,462.871307 
	C337.437134,460.793793 334.848419,461.413757 332.467957,461.410980 
	C297.638916,461.369904 262.809082,461.514648 227.981094,461.318268 
	C210.532654,461.219879 195.194733,455.255646 181.980682,443.644836 
	C175.685913,438.113739 173.730087,431.509277 174.906250,423.303040 
	C178.476685,422.480469 181.943497,421.649628 185.619949,421.657562 
	C257.273712,421.812134 328.927551,421.928772 400.581390,422.047607 
	C404.555939,422.054199 408.503967,422.455048 412.510529,421.752106 
	C415.596863,421.210632 417.362579,419.734344 418.047211,416.861115 
	C418.735840,413.970917 417.065826,412.006866 414.916962,410.593353 
	C412.373138,408.919983 409.414734,408.299438 406.365601,408.283417 
	C402.032959,408.260620 397.700134,408.273529 393.367371,408.272552 
	C305.545868,408.252716 217.724396,408.240082 129.902908,408.204285 
	C119.065483,408.199890 111.434784,402.851715 109.996712,393.804657 
	C109.378365,389.914581 109.204582,385.690704 110.024879,381.875671 
	C118.602203,341.984039 141.299698,315.311371 182.147446,306.170715 
	C192.705811,303.808014 203.566833,303.414307 214.335114,302.710602 
	C247.847977,300.520508 281.200439,297.060883 314.287415,291.176453 
	C330.190552,288.348114 345.840576,284.670959 361.133698,279.388275 
	C367.898682,277.051422 371.872742,273.235596 374.417236,266.157227 
	C391.106201,219.731842 424.460724,190.742813 470.806091,175.764389 
	C479.052124,173.099304 487.509583,171.336502 496.028015,169.850555 
	C498.308594,169.452759 500.064667,168.882675 500.634552,166.172943 
	C506.138123,140.005997 513.063782,114.177475 519.293823,88.182869 
	C519.797180,86.082718 520.197937,83.957649 520.716370,81.861511 
	C523.688293,69.846474 526.357666,66.740860 538.494446,66.180466 
	C551.594727,65.575569 564.798645,64.985062 577.899170,66.669601 
	C585.142883,67.601044 589.852295,72.376244 591.351501,79.504501 
	C597.226562,107.439651 603.233459,135.347549 608.969727,163.311035 
	C610.198059,169.299316 611.332825,175.369202 611.377136,181.550232 
	C611.406738,185.688354 612.971313,188.645401 616.934631,190.695419 
	C653.833862,209.781326 676.078308,240.471832 684.630371,280.491180 
	C695.240356,330.140320 684.547974,375.222321 651.605103,414.451416 
	C645.716492,421.463715 639.593567,428.248840 632.081238,433.675598 
	C628.128784,436.530792 628.410156,438.403381 633.138062,440.831909 
	C645.592102,447.229218 657.870544,453.893768 669.473694,461.775452 
	C694.271362,478.619812 714.788818,499.893738 733.112427,523.381226 
	C735.793335,526.817627 737.809204,527.919373 742.142212,526.388550 
	C775.718323,514.526855 809.397522,502.957520 843.027283,491.247253 
	C849.262634,489.076019 855.637695,488.189178 862.169250,488.903137 
	C875.260254,490.334137 883.119873,497.888428 887.034790,510.204376 
	C892.892212,528.631287 890.934143,547.032898 886.857788,565.347534 
	C880.174927,595.372986 866.166443,621.602844 845.940247,644.809631 
	C827.380249,666.104797 806.266113,684.167847 781.993713,698.535461 
	C778.046326,700.871948 776.687500,703.704651 776.049500,708.372986 
	C771.100464,744.587158 757.786560,777.314636 734.259216,805.635559 
	C718.812805,824.229126 699.628418,838.267700 679.067078,850.414490 
	C673.421326,853.749756 673.139343,857.838806 672.747375,863.081238 
	C672.060242,872.269409 671.759888,881.324524 675.111938,890.141113 
	C678.777039,899.781250 682.371033,909.448914 685.913940,919.134583 
	C687.510864,923.500122 689.518127,927.703857 690.601074,932.275757 
	C693.678772,945.268005 685.911072,955.204102 672.660583,955.404541 
	C662.973755,955.551025 654.053467,952.145264 644.870667,949.959351 
	C638.571045,948.459656 632.316223,946.740723 626.108643,944.893433 
	C619.597656,942.955872 613.736938,944.162170 607.984802,947.538452 
	C599.249573,952.665649 590.666321,958.087524 580.252197,959.545837 
	C570.010071,960.980042 560.599182,956.581177 555.896057,947.102905 
	C550.271851,935.768372 544.950806,924.283325 539.503479,912.861023 
	C535.562439,904.597229 531.567139,896.358215 527.730286,888.046204 
	C526.552185,885.494019 525.032593,884.236572 522.056396,884.197510 
	C508.960571,884.025757 495.860901,883.798523 482.776794,883.252747 
	C477.362854,883.026855 473.906342,885.391235 471.414032,889.771912 
	C468.861877,894.257690 466.392944,898.790894 463.698425,903.619019 
M543.332703,711.277344 
	C546.961060,720.177673 551.308533,728.766235 550.620544,738.943909 
	C549.612976,753.847595 533.811096,765.564697 519.695740,761.291321 
	C511.098145,758.688477 506.873901,751.583923 503.034454,744.297180 
	C493.311920,725.845032 482.777893,707.897766 469.736145,691.568604 
	C451.288818,668.471313 429.674713,649.170959 401.948059,637.871033 
	C377.486084,627.901550 353.528534,628.466431 330.945251,643.451660 
	C319.632935,650.958008 311.448761,661.447632 304.123840,672.690613 
	C300.952545,677.558167 298.465607,683.487488 293.084778,685.986145 
	C286.738190,688.933167 286.896667,693.161560 288.441559,698.472900 
	C288.811981,699.746399 289.061188,701.055420 289.360565,702.349365 
	C300.274689,749.521729 324.744354,787.350342 365.903625,813.779236 
	C390.123718,829.331360 416.560883,839.511597 444.252380,846.783752 
	C469.582611,853.435791 495.223267,858.022583 521.484436,855.456116 
	C533.364075,854.295105 540.440063,859.131714 546.167908,868.863892 
	C556.470886,886.369690 567.428101,903.490479 578.122803,920.765503 
	C581.231506,925.786865 582.718384,926.257141 587.777588,923.457458 
	C590.978638,921.685974 594.044373,919.665283 597.133972,917.698547 
	C601.485474,914.928589 606.219116,913.406860 611.350952,914.075195 
	C621.405518,915.384644 631.408386,917.103027 641.473633,918.311523 
	C644.572632,918.683655 648.380310,921.130859 650.850342,917.915039 
	C653.062256,915.035339 650.160095,911.975769 649.315735,909.048950 
	C646.705078,899.999817 642.022217,891.484009 642.696716,881.606201 
	C643.286133,872.974487 644.538269,864.438782 645.646790,855.868591 
	C647.314270,842.977173 652.247375,832.685791 664.863892,827.296265 
	C666.677551,826.521606 668.246094,825.176453 669.935486,824.107117 
	C705.430847,801.638977 730.118225,771.012451 740.852966,729.923462 
	C742.039551,725.381531 743.662231,720.833374 743.401062,716.018311 
	C740.836304,715.334900 739.067749,716.495178 737.214050,717.042297 
	C728.286072,719.677490 719.362366,722.226868 710.104004,723.583252 
	C683.046631,727.547241 656.436401,725.346619 630.131531,718.276550 
	C623.041992,716.370972 618.690369,711.487122 618.195862,704.479553 
	C617.626343,696.409912 619.889404,690.871521 627.997925,689.774109 
	C630.926331,689.377747 634.017822,689.557495 636.959167,689.989746 
	C653.415894,692.408508 669.775330,694.574524 686.578430,692.918091 
	C700.775452,691.518616 714.525269,688.848694 727.806580,683.821594 
	C760.230347,671.548828 788.313354,652.444153 813.239197,628.605347 
	C829.915161,612.656555 843.405884,594.329956 851.605957,572.582703 
	C856.740112,558.966553 860.249451,544.889343 857.861877,530.156677 
	C856.517395,521.860046 851.840332,519.215759 843.801697,522.019714 
	C827.468079,527.716919 811.230835,533.690735 794.960632,539.569275 
	C776.189148,546.351562 757.572266,553.598022 738.163879,558.463623 
	C729.276123,560.691772 722.111694,558.080200 716.700439,550.705383 
	C714.828369,548.154114 713.020142,545.554810 711.226196,542.947571 
	C690.184509,512.368469 664.410889,487.167023 630.273804,471.377594 
	C616.357910,464.941101 602.094543,459.397156 587.710815,454.127106 
	C583.406372,452.549957 580.140808,449.874329 579.684326,444.902893 
	C579.198669,439.613007 580.170959,434.927765 585.250671,431.997864 
	C587.702026,430.583984 590.078796,429.041504 592.513367,427.597839 
	C606.748352,419.156738 620.305237,410.069885 630.482178,396.485718 
	C652.794800,366.702881 665.740112,334.584961 658.841431,296.465454 
	C653.208557,265.340271 637.759705,240.950104 610.610779,224.673477 
	C585.696594,209.736649 557.853027,204.145844 529.334290,201.334122 
	C515.211609,199.941727 501.024017,199.359100 487.021362,201.881836 
	C455.412720,207.576462 430.689514,224.151871 412.721039,250.666595 
	C409.089539,256.025330 405.302734,261.507385 403.507416,268.273346 
	C421.829620,271.964203 433.242493,283.350983 440.426483,299.078461 
	C453.750946,328.248932 460.901733,358.633881 457.488892,391.045105 
	C455.993286,405.248505 453.156067,418.983948 446.514709,431.655579 
	C437.703186,448.467896 424.566437,459.530151 404.650421,458.919464 
	C390.711548,458.492096 379.764374,463.888550 370.275208,473.240967 
	C363.517273,479.901398 356.932465,486.747009 350.467346,493.693298 
	C329.634674,516.076538 310.388062,539.628784 297.040039,567.440369 
	C288.846832,584.511414 283.303131,602.379333 281.471832,621.265808 
	C280.979156,626.346802 281.397217,631.516113 281.397217,636.644958 
	C284.682922,633.754395 286.788971,630.762024 289.143127,627.979492 
	C291.504639,625.188293 294.087036,622.580933 296.618256,619.936646 
	C319.259369,596.283936 347.138214,583.699036 379.680542,583.163269 
	C410.948486,582.648499 438.426453,594.589783 463.467285,612.645935 
	C498.807343,638.128479 523.268921,672.453308 543.332703,711.277344 
M394.404877,318.867828 
	C395.829132,318.005585 397.259827,317.153778 398.676239,316.278870 
	C401.606384,314.469055 403.947998,312.110260 401.956085,308.539459 
	C400.110352,305.230621 397.323914,302.543488 392.996338,304.462921 
	C384.940216,308.036041 376.849243,311.565765 369.006348,315.570923 
	C364.408356,317.919037 363.168304,322.425079 365.245117,326.064575 
	C367.365082,329.779724 371.652344,330.925446 376.149017,328.647095 
	C382.088745,325.637543 387.907867,322.389984 394.404877,318.867828 
z"/>
<path fill="#000000" opacity="1.000000" stroke="none" 
	d="
M599.073486,507.622864 
	C630.925537,507.034485 654.926392,520.316406 669.599426,547.792847 
	C686.482910,579.408447 682.297363,619.743408 655.543152,646.477539 
	C624.242493,677.754639 569.900635,674.832397 542.031616,640.077637 
	C516.581665,608.339600 518.635437,559.621948 547.090149,530.760376 
	C561.127808,516.522034 578.273254,508.327942 599.073486,507.622864 
M580.924316,636.568359 
	C595.720398,643.115906 610.377502,642.532043 624.666687,635.221802 
	C651.155396,621.670349 659.510071,589.077759 647.828613,563.941345 
	C637.554443,541.833130 613.024597,530.999390 592.776123,535.352112 
	C567.992676,540.679688 549.962097,564.806946 550.904175,587.909424 
	C551.809326,610.106323 560.963318,625.898682 580.924316,636.568359 
z"/>
<path fill="#000000" opacity="1.000000" stroke="none" 
	d="
M537.940186,380.306885 
	C503.663239,377.765717 483.171906,350.810455 479.503418,323.242340 
	C476.369904,299.694763 481.897186,278.998718 498.712219,261.900970 
	C509.454132,250.978470 522.982849,244.792648 538.086609,245.150543 
	C564.551514,245.777710 586.045044,259.078766 595.778381,285.897827 
	C605.436340,312.508728 601.591614,337.859711 583.136780,359.824188 
	C571.679199,373.460724 556.393127,380.242493 537.940186,380.306885 
M515.090698,283.585327 
	C502.879730,294.846527 498.958527,313.877136 505.857483,328.905182 
	C516.244019,351.530334 543.087402,358.258209 560.490234,337.142151 
	C568.043701,327.976990 570.877136,317.424347 569.541443,305.934113 
	C567.958496,292.316803 560.607605,282.297028 547.916687,277.011963 
	C536.076477,272.081207 525.155151,274.560547 515.090698,283.585327 
z"/>
<path fill="#000000" opacity="1.000000" stroke="none" 
	d="
M421.958801,679.886169 
	C441.572662,690.358154 457.579132,704.447693 470.370392,722.125000 
	C474.564575,727.921265 478.441711,734.018616 478.340271,741.662231 
	C478.241364,749.114807 474.547516,754.767822 468.028687,757.260193 
	C461.280487,759.840332 455.719910,757.279907 451.519684,752.331299 
	C445.817352,745.612976 440.689667,738.396729 435.471588,731.279602 
	C421.498718,712.221252 402.720825,700.745483 379.338898,698.822449 
	C363.746216,697.539917 349.896393,703.316406 340.322601,716.755188 
	C339.840302,717.432251 339.436493,718.164673 338.975677,718.857727 
	C333.627350,726.901367 327.942169,729.022217 320.474457,725.764954 
	C314.226776,723.039978 311.172913,715.513000 313.101440,707.422363 
	C317.268646,689.940125 329.733154,680.096313 345.354553,673.961121 
	C368.917847,664.706726 392.297485,667.429199 415.243011,676.853149 
	C417.398621,677.738464 419.496460,678.764526 421.958801,679.886169 
z"/>
<path fill="#000000" opacity="1.000000" stroke="none" 
	d="
M577.368591,597.051758 
	C574.753967,582.435059 579.550049,571.554626 590.348877,566.858643 
	C604.121948,560.869202 619.017700,566.628235 624.380066,580.015930 
	C629.691345,593.276123 623.283630,608.391113 610.200439,613.463562 
	C596.696838,618.699036 582.730652,611.855164 577.368591,597.051758 
z"/>
<path fill="#000000" opacity="1.000000" stroke="none" 
	d="
M549.629150,296.303772 
	C558.312195,305.075287 559.499573,316.743408 552.897339,326.030670 
	C547.028320,334.286560 535.858337,337.338348 526.672852,333.195526 
	C515.285217,328.059509 510.589569,314.589844 516.080261,302.810333 
	C520.930847,292.404144 534.764709,288.094696 545.578796,293.658905 
	C546.900635,294.338989 548.102966,295.251160 549.629150,296.303772 
z"/>
</svg>