<svg version="1.1" id="Layer_1" xmlns="http://www.w3.org/2000/svg" xmlns:xlink="http://www.w3.org/1999/xlink" x="0px" y="0px"
	 width="100%" viewBox="0 0 1024 1024" enable-background="new 0 0 1024 1024" xml:space="preserve">
<path fill="#000000" opacity="1.000000" stroke="none" 
	d="
M406.249939,422.749329 
	C380.415497,396.311646 366.242310,364.782318 361.550964,328.637543 
	C356.877563,292.631195 358.805115,256.538605 359.428619,220.447571 
	C359.678986,205.957886 359.607941,191.462265 359.639893,176.969269 
	C359.671112,162.808060 360.165161,148.623352 359.527222,134.490875 
	C358.543701,112.702393 368.356903,97.218079 386.040314,85.845558 
	C395.354095,79.855682 405.216583,75.059700 416.346680,73.679398 
	C431.792572,71.763885 443.491791,78.191864 452.258575,90.566994 
	C457.392731,97.814369 460.771362,105.985329 464.355530,114.055138 
	C470.772522,128.503189 471.377380,128.174530 486.925690,126.395569 
	C498.432281,125.079063 510.097565,124.392548 521.789978,125.314751 
	C531.387268,126.071716 541.043457,125.825256 550.605591,127.466499 
	C554.197815,128.083069 556.776245,125.654152 558.638306,122.571060 
	C561.838501,117.272499 564.067139,111.520439 566.615601,105.918076 
	C570.432678,97.527168 574.960938,89.618378 581.673950,83.146790 
	C590.679749,74.464859 601.595703,71.874344 613.508301,74.151390 
	C628.571899,77.030754 641.605591,84.163834 652.804810,94.685020 
	C663.092285,104.349602 668.080322,116.309769 668.205139,130.273697 
	C668.373230,149.098541 668.527588,167.928894 668.266907,186.751053 
	C667.786987,221.404449 669.736938,256.034119 669.165955,290.678192 
	C668.784485,313.823303 666.415344,336.762115 659.788879,359.089661 
	C650.468872,390.493195 631.856140,415.339203 606.717957,435.928955 
	C584.349915,454.249878 558.439758,462.799011 530.197937,465.431671 
	C492.804718,468.917450 458.132935,460.966705 426.671600,440.095795 
	C419.282135,435.193787 412.870331,429.114594 406.249939,422.749329 
M407.075348,356.557098 
	C405.726532,360.796722 406.391113,365.161041 406.382446,369.463409 
	C406.350250,385.449921 412.460266,393.361908 427.818451,397.676971 
	C446.878418,403.032074 466.511627,404.123138 486.076904,404.475616 
	C508.861115,404.886108 531.673706,405.360718 554.478638,403.806885 
	C567.421448,402.924988 580.322876,401.984467 593.066101,399.579285 
	C612.034912,395.999023 619.068665,390.317780 621.063843,373.067139 
	C623.585754,351.262268 618.183838,340.104156 597.837463,334.831055 
	C597.194702,334.664459 596.556152,334.480835 595.910400,334.326935 
	C572.615540,328.775726 548.784058,328.501678 525.069397,327.497772 
	C504.603729,326.631409 484.113251,327.665680 463.720917,329.504425 
	C450.019440,330.739838 436.274811,332.188080 423.177094,337.028809 
	C414.288361,340.313904 408.732300,346.236633 407.075348,356.557098 
M451.185944,165.370407 
	C434.539062,161.386490 418.539093,160.753799 403.237427,170.890244 
	C387.063629,181.604416 372.322113,198.743698 372.808014,208.018158 
	C377.853424,203.067490 382.692932,197.770889 388.092285,193.124847 
	C403.669189,179.721130 420.107147,168.406326 442.442352,172.637711 
	C458.023529,175.589554 472.398651,181.592529 485.694550,189.988464 
	C492.500214,194.285965 493.211212,201.268204 489.035736,209.962158 
	C485.659119,216.992874 480.460022,219.372543 472.679016,217.733185 
	C465.117432,216.140060 458.303467,212.568970 451.131378,209.946945 
	C441.731628,206.510483 432.099548,203.394958 421.987610,205.015182 
	C403.848602,207.921585 393.785156,221.400040 384.144440,235.188248 
	C383.495453,236.116394 383.214813,237.302078 382.233154,239.617188 
	C388.605652,233.566010 393.992981,228.611862 399.199524,223.474442 
	C412.175110,210.671097 426.939819,207.507568 444.040009,214.247452 
	C452.221802,217.472244 460.338318,220.964890 468.931488,223.113159 
	C481.582703,226.275894 485.192993,225.262711 492.458313,214.292053 
	C500.564850,202.051132 498.971649,188.671997 486.123962,180.587784 
	C475.482788,173.891983 464.038025,169.028809 451.185944,165.370407 
M654.145081,207.796463 
	C654.295715,208.093842 654.401245,208.429199 654.610229,208.677505 
	C654.803589,208.907257 655.107727,209.043869 655.473267,209.298203 
	C655.932617,206.236450 654.792114,203.602264 653.363647,201.218185 
	C651.143738,197.513321 648.830933,193.811157 646.119141,190.462814 
	C631.125732,171.949783 613.461060,159.181488 587.802429,163.293762 
	C570.615051,166.048325 554.588867,171.865250 540.163513,181.479980 
	C528.766846,189.076111 526.812073,201.881302 534.480164,213.384598 
	C536.045715,215.733109 537.907776,217.886292 539.665710,220.103699 
	C542.779053,224.030685 547.007446,225.281921 551.720459,224.477585 
	C557.119446,223.556198 562.441528,222.257645 567.577881,220.207657 
	C574.683411,217.371704 581.800171,214.580292 589.158508,212.382919 
	C600.846497,208.892654 611.376770,210.772873 621.356201,217.711884 
	C630.292480,223.925613 636.877686,232.613724 645.176270,239.601913 
	C645.622620,238.188980 644.632202,237.326370 644.097900,236.408401 
	C638.042358,226.004990 629.639099,217.732971 620.035034,210.683167 
	C616.427979,208.035400 612.261047,206.239685 607.772827,205.304459 
	C596.659729,202.988770 586.376038,206.312729 576.143372,209.873001 
	C568.920654,212.386047 562.056580,215.876846 554.590698,217.747330 
	C547.079163,219.629257 541.412903,216.978775 538.283630,210.008270 
	C533.965332,200.389221 534.716980,194.770493 541.854126,190.298615 
	C554.764709,182.209290 568.635315,176.136841 583.577759,172.920227 
	C596.985901,170.033875 609.831177,172.131302 621.565247,179.210327 
	C633.918335,186.662781 644.738220,196.017075 654.145081,207.796463 
M433.654510,221.546234 
	C421.385773,219.589386 411.261993,222.840561 404.236023,233.642807 
	C400.880219,238.802338 397.490356,243.939774 394.143921,249.105347 
	C392.292755,251.962814 390.499390,254.857758 388.069214,258.701935 
	C396.617737,257.713654 400.503906,262.360260 404.432098,267.710846 
	C416.273315,283.839722 438.344025,284.294098 449.849579,268.141602 
	C454.954926,260.974304 459.777344,254.125870 467.821289,250.152496 
	C467.963287,250.082336 467.879272,249.554581 467.935944,248.724854 
	C459.687134,246.640991 455.180298,240.276779 450.796936,233.391708 
	C447.057129,227.517456 441.342560,223.640106 433.654510,221.546234 
M623.180115,233.312088 
	C611.921021,215.894638 587.687866,216.042221 576.249634,233.380219 
	C571.331787,240.834595 566.210999,246.807632 557.058838,249.009094 
	C566.333862,252.305130 571.472595,259.408325 576.731079,266.878113 
	C587.709717,282.473511 609.701538,283.176086 621.301941,268.388702 
	C625.607361,262.900482 629.465698,257.544861 637.621887,257.199615 
	C633.380371,248.481628 628.094971,241.424393 623.180115,233.312088 
M494.869202,260.236084 
	C493.013641,263.324982 490.416779,265.617249 487.184998,267.149139 
	C482.982330,269.141235 478.703217,270.973022 474.512756,272.989716 
	C464.137177,277.982971 457.889526,294.575073 462.678772,304.589874 
	C464.152710,302.786224 464.443329,300.685547 464.679626,298.561310 
	C466.090790,285.876160 472.548950,277.727325 485.457153,275.238861 
	C491.503326,274.073273 495.766052,270.588593 499.155975,265.361023 
	C508.012665,251.703003 517.125488,251.506180 526.616577,264.673218 
	C530.594604,270.191956 535.387207,274.292358 542.144653,275.479065 
	C553.454651,277.465271 559.423279,284.319733 561.580872,295.323639 
	C562.249451,298.733398 562.431763,302.509125 565.011597,305.647125 
	C567.115173,287.596344 563.468506,274.937805 546.343140,269.820831 
	C537.663757,267.227478 531.311035,261.776062 528.047424,252.870224 
	C525.728821,246.543243 520.494080,242.811996 513.922180,242.643188 
	C507.332489,242.473907 502.309784,246.187576 499.176239,252.120331 
	C497.859467,254.613373 496.587067,257.129852 494.869202,260.236084 
M584.773071,132.000641 
	C587.747620,126.422119 590.561279,120.750328 593.729919,115.284309 
	C600.539612,103.537247 606.822266,101.041534 619.435730,105.786057 
	C634.968872,111.628807 645.841553,120.819130 645.716553,139.665695 
	C645.656616,148.689926 645.642639,157.950882 647.099609,167.025421 
	C647.539673,169.766266 648.026855,172.088852 651.649170,172.625351 
	C651.649170,160.293060 651.636658,148.318268 651.652588,136.343506 
	C651.669800,123.398788 646.521179,113.105865 635.703491,105.918129 
	C630.015137,102.138496 623.908813,99.065826 617.406921,96.866844 
	C608.010681,93.688972 599.925537,95.872612 593.574280,103.362610 
	C586.511536,111.691734 582.728638,121.853638 577.950012,131.985809 
	C580.504211,132.345459 582.193726,134.482925 584.773071,132.000641 
M389.651245,117.188072 
	C393.996735,112.665581 399.244751,109.512505 404.985718,107.120575 
	C420.812378,100.526505 427.088013,102.594658 435.723328,117.506599 
	C438.222412,121.822144 440.441589,126.315689 442.531586,130.846405 
	C443.844208,133.691971 445.925537,133.074707 447.967224,132.466064 
	C449.935944,131.879181 449.736176,130.315842 449.024780,128.804077 
	C444.770691,119.763824 440.864105,110.463043 433.997681,103.011208 
	C427.888824,96.381561 420.382294,93.725494 411.409943,96.683922 
	C403.772705,99.202126 396.431519,102.364418 390.074890,107.341705 
	C382.316254,113.416794 376.765503,121.061386 376.424774,131.260452 
	C376.013336,143.576157 376.142059,155.910873 376.121307,168.237488 
	C376.118744,169.756485 375.468292,171.577087 377.269226,172.826584 
	C380.393494,171.365295 380.735687,168.693390 380.667938,165.717316 
	C380.406128,154.217468 382.046265,142.828537 382.844940,131.392639 
	C383.209534,126.172058 384.908173,121.273819 389.651245,117.188072 
M499.720306,301.596161 
	C498.888367,294.774536 494.767731,290.102417 488.410522,288.772675 
	C484.141144,287.879608 477.948181,291.186462 475.585541,295.620819 
	C473.093842,300.297424 473.749359,305.460480 477.565674,309.377350 
	C477.290924,303.090057 478.410339,297.225677 485.275024,295.996857 
	C493.960175,294.442200 496.024963,301.264038 497.221649,308.166229 
	C500.108398,306.465118 499.549591,304.302612 499.720306,301.596161 
M532.461426,290.940186 
	C527.027161,296.880951 526.360596,301.655823 530.556335,306.871307 
	C531.495117,300.508850 533.769897,294.740875 540.910767,295.001068 
	C548.133057,295.264191 550.191956,301.206329 550.760742,307.927277 
	C554.775635,302.032562 554.466125,296.781799 549.973328,292.195953 
	C546.270264,288.416229 540.313171,285.061951 532.461426,290.940186 
z"/>
<path fill="#000000" opacity="1.000000" stroke="none" 
	d="
M635.663757,504.262268 
	C636.708740,501.065308 634.550598,500.020142 632.709045,498.959412 
	C628.646851,496.619720 626.424072,493.368866 627.834900,488.632782 
	C629.286804,483.758789 633.410828,483.659882 637.572449,483.604919 
	C640.427734,483.567200 643.181763,484.070526 646.931702,484.795990 
	C643.274780,477.751068 645.896667,472.701691 651.581177,468.762665 
	C649.552795,466.506744 647.440369,467.397400 645.624695,467.396423 
	C640.777588,467.393768 635.948303,467.498718 631.449829,465.273895 
	C627.044128,463.095001 624.421387,459.478821 624.237244,454.653503 
	C624.069641,450.263153 626.733215,447.260773 630.518127,445.188751 
	C633.146606,443.749786 635.723572,442.208771 638.258606,440.610382 
	C639.648926,439.733704 640.892212,438.767609 641.453430,436.970093 
	C643.359985,430.863281 647.956360,429.792145 652.538452,434.222473 
	C653.821289,435.462830 654.465332,437.368256 656.880615,438.180939 
	C659.048096,431.345917 659.590881,424.289825 660.576538,417.367798 
	C662.711975,402.371002 662.742310,387.201904 663.881165,372.131500 
	C664.792114,360.076569 668.475647,348.369019 672.389221,336.871674 
	C672.510132,336.516418 673.124634,336.329224 673.737915,335.905487 
	C680.934937,370.593842 676.246643,404.764679 670.754761,439.119385 
	C678.550903,440.040192 682.950012,444.344513 684.963623,451.149200 
	C685.552124,453.138000 686.895630,454.276123 688.447021,455.162872 
	C692.979675,457.753601 693.898804,461.256317 692.205261,466.113617 
	C690.313782,471.538422 687.157288,474.823547 682.230530,475.289703 
	C676.843323,475.799408 671.611145,475.166809 666.062622,472.370270 
	C669.206421,478.992371 669.821838,484.704468 662.877869,488.883453 
	C667.499023,489.552063 671.831482,489.476837 675.937439,490.875122 
	C681.005920,492.601196 684.075989,496.433319 683.791992,501.212494 
	C683.498535,506.150543 680.267334,508.600250 675.725708,509.304596 
	C671.824646,509.909607 671.110718,512.869934 670.673645,515.804199 
	C670.235657,518.744446 670.367004,521.778198 670.353882,524.771423 
	C670.314575,533.712952 669.820862,534.349426 661.034363,535.939636 
	C661.512268,539.859558 661.531921,543.811401 657.539856,547.542358 
	C662.889404,546.808289 666.931824,547.339478 670.092957,550.899597 
	C673.400635,554.624695 673.727295,558.862671 670.365234,562.512634 
	C667.435059,565.693787 664.447998,568.915466 661.034790,571.530212 
	C658.181580,573.715881 657.211792,576.069397 657.269348,579.557373 
	C657.442017,590.018738 656.796875,590.698975 646.758484,593.125793 
	C646.228760,597.463745 647.315369,600.279175 652.208252,601.740723 
	C660.164429,604.117126 662.622620,612.032471 657.028687,618.193665 
	C651.447876,624.340393 648.006531,631.137817 646.152893,639.120972 
	C644.567017,645.950623 640.430176,650.004150 632.295227,647.946960 
	C633.603088,653.960754 632.455505,658.755127 628.046143,662.902466 
	C631.383545,664.049072 633.814026,662.182800 636.491821,663.450134 
	C647.023193,668.434570 643.935791,680.383667 636.837036,685.025574 
	C630.902771,688.906006 628.317322,691.422974 629.963806,699.127625 
	C631.856628,707.985474 625.220764,711.885742 616.810364,708.066650 
	C614.888123,707.193848 613.044373,706.148254 610.719055,704.953308 
	C610.496460,710.201355 608.528870,714.469910 613.625000,718.973755 
	C619.087769,723.801636 613.628601,736.842896 605.493225,738.997498 
	C601.361450,740.091858 600.338196,741.881531 600.199829,745.819763 
	C599.967896,752.420044 597.438110,754.947937 591.000671,756.274719 
	C589.688232,756.545227 588.377258,756.710938 586.998169,757.879700 
	C587.971741,762.397827 588.219543,767.127930 584.983826,771.702759 
	C588.434387,772.738953 591.297913,773.405762 594.015625,774.451416 
	C602.092651,777.559204 603.186951,783.667358 596.652954,789.193542 
	C594.365540,791.128113 591.970276,792.887939 590.065796,795.263184 
	C587.777954,798.116638 584.779053,797.422485 581.749268,796.188843 
	C580.374023,800.877869 580.291870,805.615845 577.807617,809.737793 
	C574.383911,815.418518 572.053650,816.981018 566.014038,814.666321 
	C561.286194,812.854431 558.909485,814.405762 555.930908,817.796692 
	C551.106628,823.288879 545.772766,828.367065 540.350647,833.285583 
	C537.809265,835.591003 537.043457,837.494141 537.970337,840.998169 
	C539.922485,848.378296 541.180359,855.898254 539.525818,863.663147 
	C538.315552,869.343201 536.335815,874.516052 532.281067,878.711914 
	C530.574890,880.477417 530.267395,882.123108 530.948608,884.539734 
	C534.307739,896.456665 535.270813,908.686035 535.390869,921.026428 
	C535.432800,925.337219 533.427612,927.808105 529.417786,928.177917 
	C524.796570,928.604126 520.138000,928.493958 515.471191,927.903381 
	C510.729492,927.303406 509.083618,924.579834 508.641266,920.257629 
	C507.784424,911.885498 506.725006,903.534119 505.281067,895.178955 
	C504.297913,903.748596 503.264191,912.312866 502.355072,920.890381 
	C501.960083,924.617371 500.524292,926.913696 496.448395,927.688782 
	C491.452545,928.638733 486.475891,928.517578 481.521027,928.205994 
	C477.355072,927.943970 475.652771,925.067078 475.631531,920.954102 
	C475.570190,909.081299 477.025635,897.404358 480.265045,885.996704 
	C481.201141,882.700134 481.204681,880.210815 478.735535,877.424194 
	C469.814789,867.356323 470.491974,855.412170 473.070831,843.413757 
	C473.870270,839.694458 473.312897,837.192993 470.667969,834.497864 
	C467.297089,831.063049 464.381287,827.170898 461.376312,823.390930 
	C458.644928,819.955078 455.633362,817.033936 451.377594,815.442078 
	C447.877350,814.132751 446.030487,811.003845 444.665680,807.732178 
	C443.452942,804.825012 441.714569,803.308594 438.350159,803.124329 
	C433.901398,802.880798 429.330017,802.518921 426.094025,798.581909 
	C424.722534,796.913269 422.902771,798.179199 421.438568,798.631592 
	C416.678619,800.102356 412.567261,799.670044 409.436340,795.357239 
	C406.358490,791.117554 404.084717,786.725708 407.502960,781.632629 
	C408.940521,779.490723 408.552094,777.168884 408.687866,774.873352 
	C409.184174,766.484741 411.386017,763.800842 419.526337,761.579468 
	C420.628632,761.278625 421.688995,760.824341 423.141541,760.308777 
	C421.391144,757.091858 419.560394,754.154785 418.921661,750.717712 
	C418.443390,748.144226 416.743042,748.547852 414.713348,748.879883 
	C408.827820,749.842651 403.088654,751.636963 396.986115,751.442017 
	C392.114288,751.286438 389.008942,749.185852 387.773956,744.618530 
	C384.550446,732.697327 387.086945,725.092285 399.221649,722.788818 
	C403.498840,721.976929 404.095093,718.995850 403.364075,715.730286 
	C402.797638,713.199768 400.765167,710.952942 400.911194,708.229980 
	C401.042236,705.785095 401.807068,703.374268 402.256348,701.128235 
	C401.003052,699.272827 399.286896,699.369507 397.620453,699.357483 
	C395.620728,699.343018 393.620697,699.371460 391.620941,699.358948 
	C380.107208,699.286865 375.301178,694.247864 378.046143,683.091492 
	C379.693756,676.395081 379.499481,671.000671 375.901917,665.151245 
	C373.349854,661.001770 377.049774,656.697571 382.418488,657.193481 
	C384.862610,657.419189 387.250366,658.254944 390.385925,658.981262 
	C388.451996,655.032898 387.991882,651.362488 390.139404,647.826721 
	C388.783173,646.745361 387.442047,647.403748 386.214294,647.390747 
	C382.106842,647.347290 380.394562,645.060486 380.752045,641.311768 
	C381.396606,634.552490 376.561768,630.002686 374.263031,624.441223 
	C373.769653,623.247620 372.263702,623.492737 371.130707,623.281494 
	C368.302307,622.754028 365.728607,621.693726 363.600159,619.654846 
	C358.294342,614.572327 358.614349,609.797302 364.638397,605.635742 
	C367.378326,603.742859 370.281403,602.075500 372.940125,600.078979 
	C375.352600,598.267456 376.202057,596.375000 373.697632,593.480774 
	C369.674988,588.831970 369.710419,585.372314 372.762939,578.055908 
	C368.066956,575.991211 363.104706,576.367493 358.195709,576.373352 
	C354.326233,576.377991 349.900818,576.768188 348.319855,572.374207 
	C346.709747,567.899292 347.243927,563.332153 350.368347,559.161926 
	C352.945923,555.721619 357.819794,555.486267 359.927277,551.448181 
	C361.748810,547.958008 362.399384,543.699219 366.740784,541.324524 
	C361.409546,536.061707 361.578156,530.529724 365.724243,524.471924 
	C360.083893,524.061768 355.035339,523.794006 350.008209,523.305481 
	C342.719055,522.596985 336.956726,514.137573 339.031158,507.171143 
	C339.998108,503.923859 342.323853,500.919891 345.586121,501.063416 
	C353.866577,501.427673 357.176392,495.045807 362.104034,490.697174 
	C355.881653,483.241150 355.516418,479.109009 360.327179,471.540527 
	C356.578522,471.803955 352.977051,472.207550 349.369019,472.278870 
	C342.091675,472.422760 339.342804,470.863464 337.772949,466.043213 
	C335.683685,459.628082 337.289276,453.492767 342.091736,449.811554 
	C343.397003,448.811005 344.830383,447.977600 346.617767,446.794220 
	C343.898102,441.975037 341.761536,437.024689 337.075684,433.647614 
	C332.548950,430.385193 331.570557,426.699768 333.568085,422.413879 
	C335.689911,417.861145 339.085724,416.489044 344.901642,417.954132 
	C347.283752,418.554230 349.450409,419.990356 352.784119,419.852234 
	C350.141052,391.864838 348.356781,363.944763 354.450256,336.155151 
	C358.038849,344.565704 360.135132,353.359039 362.348572,362.143860 
	C365.647339,375.236603 363.607941,388.672638 365.311584,401.858154 
	C366.226166,408.936798 366.760773,416.063934 367.563171,423.158325 
	C367.666718,424.073822 368.350098,424.923706 368.790894,425.859253 
	C376.824341,423.159851 383.311920,426.340302 389.212891,430.974152 
	C392.580322,433.618469 393.594879,437.295227 390.907684,441.146576 
	C388.374390,444.777344 389.469635,446.987183 393.016785,449.194946 
	C400.820435,454.052094 403.073730,458.371735 401.350708,463.949463 
	C399.676727,469.368439 394.237854,472.190796 385.823273,472.407684 
	C383.248047,472.474030 380.674622,471.244263 377.189240,472.499420 
	C381.879364,477.662109 381.710114,482.703705 378.654938,488.505554 
	C376.742981,492.136414 380.250092,495.797852 384.614319,495.809479 
	C386.779083,495.815216 388.955841,495.565155 391.106720,495.718201 
	C396.126434,496.075378 399.166504,499.707886 398.046661,504.525909 
	C397.488831,506.925995 397.868256,508.503204 399.250824,510.416626 
	C402.804138,515.334290 402.973846,521.087463 402.060242,526.732849 
	C401.146790,532.377380 395.641937,534.786804 387.425323,533.630432 
	C385.863647,534.575073 385.890625,536.203186 385.472321,538.029785 
	C389.831146,539.023010 394.042938,538.571411 397.995239,539.938538 
	C404.587708,542.218872 406.525909,545.838318 404.565094,552.645813 
	C403.635223,555.874268 402.759674,559.312195 400.274811,561.532715 
	C396.897919,564.550354 397.778320,567.172729 399.938782,570.119995 
	C400.824463,571.328186 401.698120,572.545166 402.575867,573.759033 
	C406.483521,579.163513 406.618042,585.270874 396.632599,585.469910 
	C396.168549,588.462585 396.591949,591.692200 395.182983,594.706665 
	C396.824524,593.634766 398.384369,592.399597 400.126038,591.527771 
	C403.014465,590.081970 405.970520,590.155945 408.576599,592.212708 
	C411.212219,594.292786 412.973145,596.882141 411.718140,600.450317 
	C408.063782,610.840332 411.646088,618.504089 420.308746,624.596680 
	C423.469147,626.819519 426.279907,629.888428 424.814545,634.282593 
	C423.349396,638.676208 419.424347,639.317627 415.416443,639.281189 
	C412.478851,639.254517 409.871735,640.126648 407.244751,641.752075 
	C410.435547,645.900391 413.506714,650.055542 411.781891,655.749573 
	C411.185730,657.717529 412.399963,658.464478 414.174835,658.612183 
	C415.995209,658.763672 417.856445,658.738586 419.626465,659.125916 
	C426.639282,660.660583 428.943878,663.691284 427.110931,670.499573 
	C425.907074,674.971313 427.078339,678.209351 429.625671,681.558533 
	C431.534210,684.067688 433.574615,686.600464 434.854797,689.439087 
	C438.022827,696.463623 434.177368,701.715515 426.447205,701.308167 
	C425.480499,701.257324 424.521149,701.066956 423.194305,700.893677 
	C423.741608,703.937439 424.252869,706.780945 424.818481,709.926819 
	C432.447632,707.199097 439.456085,709.355408 446.280609,712.110107 
	C450.808228,713.937683 454.001160,717.035767 454.511749,722.436340 
	C455.036163,727.983521 452.146454,731.073669 447.843781,733.639099 
	C444.236481,735.789917 440.312012,737.133972 435.891022,738.810852 
	C440.742889,742.427856 443.371155,746.900452 442.051910,753.008179 
	C450.286346,750.452026 454.828491,751.608032 458.428955,756.901672 
	C462.813690,763.348389 462.385834,766.473572 455.957397,774.955566 
	C462.695251,783.412231 462.829956,784.275208 458.106049,791.281982 
	C461.412872,791.179443 464.490662,791.147156 465.927246,794.738770 
	C467.102264,797.676514 469.166534,800.575684 468.202911,803.741577 
	C466.702118,808.672485 468.884766,811.987305 471.897003,815.315735 
	C474.110657,817.761841 476.112213,820.399963 479.147339,824.096008 
	C474.634796,811.236145 479.238312,800.360352 481.758728,789.468506 
	C483.654114,781.277649 490.766602,779.361694 497.613647,784.109680 
	C500.930206,786.409363 510.251221,786.320740 513.712585,783.956421 
	C520.514465,779.310364 528.197205,781.321655 529.845337,789.151245 
	C531.932922,799.068054 535.751526,808.894226 533.431641,820.359375 
	C538.106018,814.937439 543.600769,811.565796 546.550903,805.740417 
	C537.137756,801.914734 538.412781,793.384155 542.161804,787.574341 
	C544.299683,784.261230 547.645020,781.705200 548.600586,777.679199 
	C543.506104,772.287720 542.086853,765.613770 544.804565,760.002991 
	C546.479858,756.544434 548.915100,754.748169 552.825317,756.614441 
	C556.546997,758.390808 560.235535,760.236572 564.204468,762.182129 
	C565.712952,758.060181 568.349121,754.958984 572.681519,752.305664 
	C560.922302,745.072021 566.662415,737.078674 571.509766,729.159668 
	C568.425537,726.453430 564.934570,725.435913 561.524048,724.211060 
	C555.849487,722.173157 554.220947,719.106812 555.918152,713.943115 
	C557.694031,708.540100 562.398743,705.668701 567.479431,707.197327 
	C572.419617,708.683594 577.303711,710.277344 582.499634,710.660095 
	C585.744202,710.899048 587.784241,710.449829 587.881042,706.300720 
	C587.977478,702.167419 590.123108,698.694885 594.310120,697.027588 
	C593.168030,693.763916 590.495239,693.983215 588.432983,693.370422 
	C577.663452,690.170654 575.007263,682.850647 581.298157,673.592590 
	C584.037537,669.561218 588.003540,666.348816 588.292419,660.745422 
	C588.419678,658.276001 591.112366,657.197266 593.801392,658.003296 
	C596.191101,658.719543 598.542725,659.562317 600.929199,660.290039 
	C605.543274,661.696960 609.676208,658.245789 609.093567,653.432373 
	C608.565186,649.067993 611.033875,645.869812 613.252380,642.718201 
	C612.671387,640.973328 611.149902,640.923218 609.995972,640.429504 
	C603.606628,637.695801 601.555237,634.741943 604.366943,628.418945 
	C607.863831,620.555115 608.450378,613.134583 606.000427,604.968689 
	C604.861450,601.172729 605.205505,596.597839 609.025574,594.080261 
	C613.832886,590.912170 618.561646,592.846069 623.086304,595.944275 
	C624.543396,593.550964 625.605164,591.076538 628.113586,589.310486 
	C626.137573,586.741516 623.402161,586.105530 620.798401,585.262817 
	C612.902466,582.707275 611.080811,578.072327 615.019592,570.751526 
	C617.218628,566.664246 621.307556,563.856323 622.880066,559.173706 
	C622.435059,558.862793 622.094543,558.513306 621.680664,558.352417 
	C615.065125,555.780273 612.632568,552.041016 613.930786,546.390320 
	C615.223938,540.761780 619.930664,537.584229 626.664124,539.036072 
	C631.663696,540.114075 634.098633,538.984680 635.085876,534.000305 
	C635.381958,532.505310 636.681335,531.209106 637.529541,529.807922 
	C629.555664,526.841125 627.787231,522.951416 630.942810,515.072632 
	C632.362793,511.527313 634.050415,508.089172 635.663757,504.262268 
M514.878784,806.455383 
	C515.943237,808.106873 516.853821,810.252319 519.397827,808.710693 
	C521.044189,807.713135 522.995056,806.712097 521.728210,804.090149 
	C520.848755,802.269836 520.062134,800.118347 517.624390,800.554749 
	C514.863342,801.049072 514.029846,803.143188 514.878784,806.455383 
M493.681091,809.603455 
	C495.984528,810.833679 497.714539,809.984619 498.397827,807.743896 
	C499.031311,805.666565 499.016052,803.366150 496.842865,801.916870 
	C495.468781,801.000488 494.161255,801.572571 493.387604,802.783813 
	C492.081299,804.829102 490.209595,806.990234 493.681091,809.603455 
M503.107391,814.361633 
	C501.528809,815.437134 501.018188,816.665955 503.080261,817.615173 
	C505.793396,818.864136 508.586945,819.550354 511.319702,816.950684 
	C509.279816,814.036011 507.068451,812.580566 503.107391,814.361633 
z"/>
<path fill="#000000" opacity="1.000000" stroke="none" 
	d="
M612.335571,368.914001 
	C612.300537,381.799805 609.936951,385.067383 598.040771,388.831207 
	C586.366150,392.524963 574.197632,393.243713 562.134766,394.201965 
	C543.543762,395.678894 524.872498,396.124786 506.236877,395.865234 
	C482.642181,395.536682 458.994171,395.195312 435.731262,390.339294 
	C434.756927,390.135925 433.780518,389.910950 432.835907,389.601837 
	C426.923309,387.666992 419.716003,387.262451 417.219147,380.327911 
	C413.868652,371.022461 413.489349,361.390167 417.563171,352.081818 
	C419.122314,348.519318 422.589508,346.962250 426.088257,345.611847 
	C437.223938,341.313721 448.974335,339.829865 460.680145,338.796783 
	C482.735016,336.850372 504.881531,335.972260 527.019836,336.803192 
	C550.249573,337.675079 573.592896,337.866058 596.325073,343.759094 
	C609.476074,347.168335 612.319580,350.955780 612.336121,364.434174 
	C612.337769,365.767120 612.334473,367.100067 612.335571,368.914001 
M532.758728,384.291595 
	C539.627258,383.533997 539.634521,383.533997 539.644836,376.447205 
	C539.649658,373.126007 539.603394,369.804688 539.612000,366.483490 
	C539.618774,363.889740 538.522339,362.396301 535.771057,362.403046 
	C530.789185,362.415222 525.807312,362.416870 520.825500,362.401001 
	C518.277222,362.392883 517.302307,363.748444 517.319702,366.162994 
	C517.355713,371.144684 517.372009,376.127472 517.305176,381.108582 
	C517.271118,383.652740 518.417542,384.735291 520.920776,384.651733 
	C524.570007,384.529846 528.222107,384.494171 532.758728,384.291595 
M511.005310,369.634644 
	C510.913605,362.337860 510.913605,362.336182 503.451721,362.344604 
	C499.954193,362.348541 496.453430,362.457001 492.960144,362.339447 
	C489.899750,362.236420 488.233704,363.274811 488.320374,366.603394 
	C488.432983,370.930756 488.404480,375.263794 488.342285,379.593018 
	C488.303345,382.306702 489.594086,383.533295 492.230896,383.672058 
	C497.050049,383.925629 501.868652,384.208618 506.681030,384.565887 
	C509.623230,384.784332 511.033081,383.615784 510.967224,380.584717 
	C510.894867,377.256012 510.987976,373.923737 511.005310,369.634644 
M465.813812,363.343933 
	C461.802429,362.906281 459.975739,364.524994 460.297516,368.718994 
	C460.550232,372.013458 460.422241,375.342773 460.355469,378.654419 
	C460.301666,381.322479 461.414612,382.660858 464.163483,382.646088 
	C468.967590,382.620209 473.759949,382.742157 478.525726,383.531067 
	C481.497040,384.022949 482.749023,382.540771 482.667847,379.554169 
	C482.555420,375.415833 482.483124,371.263855 482.691925,367.132782 
	C482.908386,362.850037 480.743134,362.114899 477.114532,362.579010 
	C473.677124,363.018616 470.193787,363.099304 465.813812,363.343933 
M554.030029,383.431458 
	C568.136353,381.015656 568.013000,381.018494 567.734741,368.934265 
	C567.656982,365.556549 566.255798,364.055206 563.193115,363.687805 
	C561.554749,363.491302 559.896545,363.399506 558.245789,363.377014 
	C545.351501,363.201263 545.351440,363.209991 545.346924,375.911469 
	C545.344116,383.778137 545.344055,383.778137 554.030029,383.431458 
M447.780609,364.778503 
	C444.335999,365.206848 440.886047,366.020996 437.448059,365.972992 
	C432.312958,365.901337 431.237305,368.311218 431.197052,372.985199 
	C431.156494,377.695251 432.150299,380.229095 437.386383,379.903351 
	C439.653564,379.762268 441.962616,380.558929 444.262817,380.639435 
	C454.791321,381.008026 454.608826,380.968872 454.737244,370.352783 
	C454.793274,365.716797 453.147461,363.849487 447.780609,364.778503 
M596.517151,373.807983 
	C595.475891,371.175995 597.351135,366.969421 592.485413,366.401001 
	C589.849609,366.093140 587.229919,365.618256 584.588013,365.397736 
	C574.124207,364.524414 571.744385,367.214020 573.597229,377.693481 
	C573.626221,377.857361 573.674194,378.018921 573.690552,378.183838 
	C573.958801,380.887726 575.503174,381.943848 578.117432,381.609314 
	C582.886841,380.998932 587.640808,380.159760 592.429443,379.843140 
	C596.068970,379.602509 596.999573,377.800720 596.517151,373.807983 
z"/>
<path fill="#000000" opacity="1.000000" stroke="none" 
	d="
M448.722839,255.118958 
	C442.289886,274.654663 420.322449,275.582520 410.765411,263.847351 
	C403.658875,255.121246 404.046539,244.149857 412.115753,235.892563 
	C420.095551,227.726776 432.170959,226.729553 440.562897,233.680069 
	C447.152008,239.137405 450.849670,245.839310 448.722839,255.118958 
z"/>
<path fill="#000000" opacity="1.000000" stroke="none" 
	d="
M580.727661,259.990082 
	C576.107605,251.662079 576.581055,244.119400 582.578613,237.051926 
	C588.471985,230.107178 595.876221,227.159454 604.792480,229.302505 
	C613.992493,231.513794 619.154907,237.982727 621.126282,246.914963 
	C622.797607,254.487793 617.747742,263.684631 610.031555,268.130005 
	C602.596619,272.413330 592.626770,271.702148 586.231934,266.210724 
	C584.239624,264.499878 582.666870,262.300568 580.727661,259.990082 
z"/>
</svg>