<svg version="1.1" id="Layer_1" xmlns="http://www.w3.org/2000/svg" xmlns:xlink="http://www.w3.org/1999/xlink" x="0px" y="0px"
	 width="100%" viewBox="0 0 1024 1024" enable-background="new 0 0 1024 1024" xml:space="preserve">
<path fill="#000000" opacity="1.000000" stroke="none" 
	d="
M95.705620,582.131470 
	C96.612877,565.425964 100.834221,550.197937 109.339989,536.254517 
	C110.554497,534.263550 111.738548,532.254028 112.938980,530.254395 
	C116.905518,523.647400 116.533081,517.293335 111.778831,511.230713 
	C105.507790,503.233917 99.235847,495.269958 94.640236,486.099762 
	C77.415337,451.728790 82.412643,423.292847 105.913551,394.932159 
	C117.701088,380.707092 132.075134,369.094574 146.829285,358.381775 
	C166.748032,343.919067 177.502853,324.866058 181.688263,301.222168 
	C185.707245,278.518433 194.730209,258.415649 212.132507,242.492203 
	C222.015350,233.449219 233.667435,229.719589 246.589386,228.657730 
	C266.766083,226.999756 283.444702,235.705978 299.476776,246.383011 
	C301.833282,247.952377 304.183899,249.537003 306.607941,250.997223 
	C312.377319,254.472641 314.936646,252.995255 315.726898,246.341125 
	C317.096344,234.810104 317.477264,223.058228 320.784485,211.887238 
	C328.385071,186.214249 338.897736,161.975998 359.681305,143.894516 
	C377.332397,128.538239 398.613129,123.898369 421.217041,126.294189 
	C441.365753,128.429794 461.177307,132.786636 480.463318,139.381210 
	C500.404388,146.199768 519.612488,141.473648 538.330688,134.201904 
	C549.958496,129.684677 561.233093,124.235382 573.657654,122.097824 
	C584.684692,120.200691 595.781494,119.092262 606.834045,121.556862 
	C625.788147,125.783409 640.277771,137.036682 651.448486,152.285706 
	C660.973511,165.288223 665.732178,180.046585 662.433960,196.526230 
	C662.241394,197.488449 662.347534,198.522980 662.408997,199.518021 
	C662.438049,199.987610 662.690918,200.443359 663.011353,201.420731 
	C667.432617,200.003708 671.815186,198.646652 676.166138,197.194626 
	C685.016968,194.240860 693.996033,191.122406 703.290344,190.911041 
	C727.782043,190.354065 747.844116,199.256226 761.158264,220.685699 
	C763.873108,225.055328 766.429138,229.646088 768.218628,234.447891 
	C777.905701,260.441986 796.772583,274.713654 823.688843,279.862976 
	C836.078186,282.233154 848.272705,285.910156 858.724976,293.663574 
	C874.181335,305.128906 881.576172,321.416138 886.251465,339.346619 
	C892.014038,361.446808 885.188171,381.408691 875.544250,400.804565 
	C872.896667,406.129181 869.605347,411.133667 866.303223,416.811646 
	C871.686646,419.094269 876.706482,421.161011 881.676758,423.340637 
	C904.842224,433.499634 921.824585,449.238922 927.941956,474.749939 
	C933.138000,496.418945 929.350891,516.625977 918.293213,535.761353 
	C913.122375,544.709534 907.360840,553.286926 902.088013,562.151733 
	C896.560364,571.445068 891.396790,581.216370 892.518799,592.582031 
	C893.529724,602.822510 895.496643,612.941650 897.644775,623.024414 
	C900.301758,635.496033 900.670898,648.027161 897.939941,660.608765 
	C893.422668,681.420227 879.449219,693.923401 861.164673,702.479431 
	C851.978455,706.778015 842.337769,710.102539 833.132385,714.363892 
	C820.075928,720.407898 809.072021,729.127686 800.509583,740.845520 
	C796.582092,746.220398 792.170227,751.239380 788.187378,756.575928 
	C777.688110,770.644043 762.893494,776.050598 746.181763,777.223511 
	C741.581299,777.546326 739.227417,778.507690 738.894043,783.650269 
	C738.314819,792.585571 737.973083,801.547363 736.205933,810.409058 
	C731.314270,834.939087 715.294128,849.279419 693.276550,858.468384 
	C674.619690,866.254822 655.513367,866.588318 635.938599,862.971924 
	C628.159241,861.534668 620.377319,859.827454 612.231018,860.779602 
	C600.271545,862.177673 590.607239,867.894409 581.554260,875.262634 
	C568.110901,886.204224 554.815735,897.529297 537.326904,901.598877 
	C503.289490,909.519287 472.944550,904.147461 448.726257,876.734436 
	C441.618713,868.689331 438.867615,858.764771 435.601288,848.987244 
	C435.040009,847.307129 435.054169,845.332703 433.149475,843.652527 
	C427.839386,846.692810 422.429626,849.833313 416.979462,852.902100 
	C404.098969,860.154602 390.636658,865.329224 375.642822,866.536987 
	C354.483582,868.241272 336.379333,861.459045 320.294769,848.270691 
	C313.150848,842.413147 306.966949,835.565491 302.364014,827.590454 
	C289.005463,804.445679 269.288422,791.332703 242.709351,788.242310 
	C235.970367,787.458862 229.304001,785.836243 222.687515,784.251587 
	C195.208389,777.670410 172.972748,752.249695 171.100113,724.237549 
	C170.281464,711.991699 173.805969,700.177185 178.938461,689.015991 
	C181.639938,683.141296 184.708344,677.435364 187.793915,671.289001 
	C182.104828,668.900330 176.120758,668.555603 170.369507,667.412781 
	C151.430893,663.649231 134.116486,656.629395 119.337059,643.813477 
	C105.476349,631.794067 98.831230,616.352295 96.598129,598.543457 
	C95.932587,593.235779 95.554047,587.947571 95.705620,582.131470 
M282.315247,582.101929 
	C278.483612,583.198730 274.724487,584.505005 270.617493,584.371521 
	C264.844727,584.183899 261.820129,582.057739 260.815979,577.102600 
	C259.694672,571.569336 261.615509,567.370728 266.551300,565.135803 
	C270.794678,563.214417 275.125336,561.480469 279.450439,559.745972 
	C287.339996,556.581970 295.500122,554.272400 303.704346,552.086731 
	C306.764313,551.271484 310.170776,549.534058 307.817535,545.932922 
	C303.218231,538.894653 303.470093,532.054871 306.179596,524.541504 
	C307.892609,519.791382 306.024811,517.055115 301.158447,515.415405 
	C298.937500,514.667114 296.639038,513.992676 294.297943,514.440857 
	C287.049957,515.828430 279.681213,515.251160 272.380035,515.898071 
	C262.424591,516.780212 252.393585,516.800903 242.594635,514.255676 
	C235.983795,512.538574 232.417206,508.054626 232.698792,502.269196 
	C232.934006,497.436493 238.397934,491.971649 244.466278,491.846069 
	C255.934616,491.608734 267.425049,490.999237 278.898743,492.338074 
	C284.829926,493.030151 290.750763,494.094025 296.789764,493.707397 
	C299.800781,493.514648 302.401886,492.495911 302.459991,489.318420 
	C302.572723,483.154266 305.037750,478.120422 308.477509,473.250824 
	C311.580231,468.858276 308.879395,464.152771 308.378082,459.681244 
	C308.015381,456.446198 304.296967,456.861115 301.909424,456.020386 
	C293.278961,452.981354 284.585449,450.119080 275.979797,447.012604 
	C268.715637,444.390350 266.147766,439.805634 267.913300,433.210571 
	C269.467957,427.403229 274.762512,424.604004 281.860504,426.115295 
	C291.769623,428.225067 301.635712,430.536194 311.528473,432.723938 
	C317.964172,434.147217 320.444794,432.599457 321.590668,426.058411 
	C322.837189,418.942657 325.797974,413.128571 332.548004,409.770844 
	C333.284729,409.404327 333.959320,408.875488 334.587677,408.334747 
	C338.311768,405.129974 338.360901,402.819061 334.505371,399.846191 
	C330.674194,396.892090 326.491455,394.466064 322.135406,392.340027 
	C314.942535,388.829346 308.042023,384.803772 301.323364,380.455475 
	C297.726624,378.127686 296.216400,374.879395 296.719513,370.667572 
	C297.703827,362.427795 305.191254,357.830109 312.617157,361.343658 
	C321.661682,365.623047 330.149414,370.923798 338.199982,376.895752 
	C342.351135,379.975098 346.544647,383.010834 351.354492,385.007324 
	C355.067871,386.548737 358.036774,385.234863 358.480682,381.394653 
	C359.510590,372.485809 363.973511,366.664551 372.323273,363.605865 
	C375.991150,362.262238 376.208282,359.490784 375.026215,356.256714 
	C373.550690,352.219727 370.712036,349.141663 367.775146,346.196716 
	C360.717682,339.119873 353.004028,332.619720 346.538788,325.047089 
	C335.027527,311.564178 322.341888,299.301758 309.330292,287.366058 
	C297.029205,276.082123 284.091095,265.440247 268.374268,259.195404 
	C254.030548,253.496140 240.269135,254.693680 228.144363,265.116760 
	C219.379578,272.651428 214.218536,282.377655 211.370560,293.465729 
	C208.189163,305.851990 206.080246,318.536469 201.250641,330.468506 
	C192.439056,352.238495 177.052780,368.411072 158.071014,381.674072 
	C145.771057,390.268372 133.631744,399.222900 124.592628,411.443939 
	C114.773216,424.720001 109.212585,439.334503 112.394577,456.255798 
	C114.845421,469.288971 121.291374,479.984650 130.391907,489.558075 
	C146.581787,506.589386 148.658295,527.726990 135.244690,546.422974 
	C128.073410,556.418335 123.785439,566.925720 122.675392,578.949829 
	C121.563454,590.994324 122.303604,602.919128 130.002945,612.789368 
	C147.890594,635.720520 171.893219,644.022644 200.255524,640.074097 
	C215.311676,637.977966 229.357712,631.928711 243.861465,627.664734 
	C270.005371,619.978638 294.933228,609.401062 318.972382,596.638123 
	C324.475891,593.716125 325.147919,592.110962 322.882507,586.398682 
	C321.712555,583.448547 320.684540,580.456482 321.015747,577.212158 
	C321.560974,571.871399 319.785309,570.378723 314.459778,571.901611 
	C303.905396,574.919739 293.358704,577.967590 282.315247,582.101929 
M710.224487,711.349609 
	C717.806335,721.893127 723.654724,733.578430 731.891174,743.712341 
	C738.713562,752.106628 744.377686,752.849426 755.693542,747.338623 
	C758.325928,746.056641 760.574768,743.869812 762.785706,741.863220 
	C768.100586,737.039734 772.969116,731.755310 777.221558,725.986938 
	C788.729675,710.375977 803.055054,698.345459 820.778625,690.283386 
	C829.578735,686.280334 838.627258,682.934387 847.544250,679.245300 
	C864.834106,672.092163 873.837585,659.697937 872.749512,640.474548 
	C872.220215,631.123413 870.570007,622.011047 868.314209,612.988098 
	C862.336487,589.077881 865.276794,566.816345 880.005432,546.546387 
	C886.875427,537.091553 892.590942,526.869446 897.823425,516.484009 
	C908.463074,495.366333 905.384644,470.301910 884.318298,454.890961 
	C868.408142,443.251984 850.373047,441.701782 831.495361,445.828613 
	C813.282654,449.810059 795.681824,455.974762 777.646118,460.615326 
	C755.891418,466.212738 733.615295,469.093506 711.769714,474.164734 
	C707.144409,475.238464 706.074768,477.091370 707.418213,481.347870 
	C708.844299,485.865967 709.059265,490.586731 707.579590,495.101074 
	C704.932617,503.176971 705.940430,504.663910 714.846802,504.653870 
	C717.502075,504.650879 720.137634,504.441467 722.795288,504.156616 
	C732.039612,503.165771 741.309570,502.294159 750.592468,501.826416 
	C756.968567,501.505188 761.898804,506.321075 762.265442,512.401489 
	C762.687866,519.407410 758.114929,524.819946 751.317993,525.362244 
	C738.669495,526.371338 726.059021,525.476990 713.458374,524.508240 
	C710.423645,524.274902 708.731750,524.519348 708.055115,528.297852 
	C706.812378,535.238220 703.842468,541.525574 698.731018,546.728821 
	C695.309204,550.212036 695.724976,551.608582 700.086487,553.727844 
	C706.837097,557.007996 713.887024,559.499878 721.067688,561.671692 
	C727.604065,563.648682 734.082458,565.860840 739.999390,569.342651 
	C745.004089,572.287659 746.595703,576.612549 745.068909,582.195618 
	C743.772888,586.934998 740.139893,589.329102 734.497559,589.383423 
	C731.585938,589.411438 728.968262,588.607056 726.310181,587.513672 
	C716.308777,583.399658 706.313354,579.256775 696.191284,575.455872 
	C690.178589,573.198120 689.083313,573.789917 686.570923,579.493652 
	C684.059448,585.195435 680.453125,589.618042 674.634399,592.306335 
	C670.314392,594.302185 670.216248,597.389404 674.128601,600.241272 
	C682.200256,606.124817 690.371155,611.871948 698.451721,617.743408 
	C705.451599,622.829590 712.540161,627.814209 719.280273,633.228699 
	C722.815369,636.068420 723.466797,642.035400 721.450867,645.536438 
	C719.432495,649.041687 714.847778,650.389648 709.916809,648.739990 
	C708.038086,648.111511 706.245789,647.173889 704.491394,646.233154 
	C691.492432,639.262024 680.155457,629.977905 668.825256,620.665649 
	C664.319885,616.962708 662.576721,617.312256 658.913391,621.732117 
	C656.463745,624.687622 653.853210,627.463989 650.523438,629.499573 
	C639.914978,635.984924 639.684204,638.082520 648.863159,646.143311 
	C671.211609,665.769226 691.027649,687.775452 710.224487,711.349609 
M533.232483,316.772919 
	C535.787109,317.507996 538.420837,318.046051 540.875366,319.030609 
	C543.617310,320.130432 544.976929,319.248688 545.604309,316.585175 
	C545.947144,315.129913 546.331604,313.684448 546.671265,312.228455 
	C549.009094,302.207855 550.511047,292.000183 553.517822,282.126862 
	C554.901367,277.583466 558.193359,275.918549 562.542664,275.685364 
	C566.865295,275.453613 569.888550,277.459351 571.696411,281.313293 
	C573.453430,285.058899 573.722595,288.915527 572.811646,292.990692 
	C570.563782,303.046143 567.067078,312.779724 565.293701,322.960327 
	C564.231079,329.060577 565.533936,330.580933 571.561523,329.376770 
	C579.146362,327.861511 586.511169,328.144531 593.257751,332.311218 
	C596.113403,334.074890 597.410889,333.043823 598.559998,330.424316 
	C610.462708,303.289825 621.344849,275.883698 627.595276,246.701859 
	C631.747009,227.318481 636.167175,208.112381 635.635925,188.154266 
	C635.414368,179.828705 633.415283,171.993317 628.348450,165.220901 
	C615.864380,148.534668 598.453979,146.038895 579.528259,148.910797 
	C569.596191,150.417984 560.717407,155.461563 551.315308,158.771973 
	C532.987305,165.225159 514.314697,170.102570 494.745331,169.053528 
	C474.559052,167.971390 454.865875,163.724854 435.965179,156.526001 
	C424.968994,152.337799 413.963470,152.388153 402.604065,153.817017 
	C385.894501,155.918869 374.342682,165.894943 364.873444,178.595642 
	C346.779297,202.864639 338.857758,230.477631 340.568634,260.565155 
	C341.139740,270.608276 343.200806,280.921051 350.423523,288.825562 
	C366.826813,306.777252 383.541016,324.431793 396.454132,345.249023 
	C399.342957,349.906036 401.682343,349.572144 405.341431,345.390533 
	C410.141754,339.904724 415.961151,336.511017 423.563446,336.613617 
	C431.702057,336.723480 432.973633,335.066223 431.798523,326.750122 
	C431.543121,324.942505 431.407501,323.117432 431.130951,321.313507 
	C429.636536,311.565308 425.752075,302.470337 423.358887,292.969208 
	C421.573425,285.880646 423.851685,281.087860 429.657471,279.259155 
	C436.837219,276.997711 443.037781,279.677399 445.349640,286.489868 
	C447.590332,293.092651 449.377625,299.850006 451.332245,306.548798 
	C452.540497,310.689728 453.103699,315.031281 455.052704,318.940155 
	C457.343719,323.534821 460.503387,324.875702 464.752502,322.229492 
	C471.380035,318.102081 478.115875,317.900116 485.343536,319.983582 
	C489.706848,321.241333 492.482819,318.920105 491.459137,314.585205 
	C489.955017,308.215729 489.637848,301.745422 489.124390,295.309021 
	C488.357971,285.702026 487.909912,276.055725 487.754333,266.419220 
	C487.663025,260.763184 491.704224,257.208801 497.735443,256.685150 
	C505.014923,256.053101 508.118134,257.965088 509.415924,264.389252 
	C510.301300,268.771912 510.953552,273.231628 511.294373,277.688660 
	C512.257629,290.284729 513.533936,302.860565 513.443115,315.528656 
	C513.409180,320.264954 516.114746,321.771362 520.421021,319.811493 
	C524.241943,318.072449 528.063049,316.520264 533.232483,316.772919 
M696.730042,740.728882 
	C680.021729,714.160706 659.010254,691.227478 636.482300,669.596191 
	C631.198181,664.522400 625.716125,659.611877 619.576721,655.569763 
	C613.521484,651.583130 609.611084,652.369629 605.655518,658.234070 
	C603.742920,661.069763 601.376526,663.262268 598.437439,664.973816 
	C591.983582,668.732300 591.781372,669.993286 594.789307,677.000732 
	C598.921204,686.626404 603.001892,696.286377 606.664978,706.095764 
	C608.527466,711.083374 606.398804,715.720581 602.196289,718.109619 
	C598.201538,720.380432 593.664246,719.596130 589.835815,716.079895 
	C586.633179,713.138489 585.138489,709.256836 583.786377,705.311462 
	C580.974121,697.105774 577.807129,689.046021 573.498108,681.506165 
	C569.771179,674.984802 563.797668,673.561890 557.378540,677.271545 
	C554.067566,679.184937 550.675415,680.964722 547.267029,682.700806 
	C544.886292,683.913391 542.943054,685.453064 543.151794,688.368652 
	C543.579285,694.341431 543.249084,700.318542 543.858948,706.316223 
	C544.627197,713.872803 545.575256,721.628235 542.737610,729.033142 
	C541.083008,733.350952 537.842041,735.689148 533.028809,735.293213 
	C528.384949,734.911133 525.794922,732.046814 524.834961,727.787476 
	C523.887695,723.584473 523.421570,719.275391 522.647827,715.030457 
	C521.127380,706.689636 521.952759,698.076233 519.697083,689.826294 
	C517.928467,683.357727 515.356445,682.258850 509.784790,685.720825 
	C503.290253,689.756348 496.499695,691.517761 488.836334,689.617920 
	C485.891632,688.888000 483.484711,685.145996 480.201294,687.214417 
	C477.110413,689.161499 478.454956,693.066772 477.777130,696.050049 
	C471.561096,723.408936 464.134583,750.505798 459.839081,778.284729 
	C457.034149,796.424377 455.458466,814.605713 458.367950,832.875610 
	C462.054260,856.023499 476.463318,871.556396 499.408264,876.170532 
	C515.369141,879.380188 531.253052,879.289978 545.632324,869.900391 
	C554.164490,864.328918 561.480957,857.193176 569.463745,850.908630 
	C587.542358,836.676208 607.640747,831.555237 630.370850,836.194397 
	C642.381653,838.645752 654.444275,840.799866 666.954895,838.806702 
	C696.110535,834.161804 710.011963,816.558167 711.588562,789.168091 
	C712.602417,771.556702 707.065430,755.728455 696.730042,740.728882 
M199.428238,731.960205 
	C207.018661,747.836243 220.326889,755.987305 236.936218,759.577026 
	C242.451340,760.769043 248.023148,761.707825 253.583282,762.681030 
	C279.071869,767.142395 299.551453,779.462219 314.500397,800.852600 
	C319.261505,807.665283 324.486877,814.208923 330.008728,820.423462 
	C343.545197,835.658081 360.578003,842.548340 380.893707,839.627258 
	C403.991302,836.306152 419.234589,822.419250 427.419373,801.314880 
	C432.210052,788.962158 433.482574,775.511475 434.708771,762.247620 
	C435.930573,749.031616 436.650665,735.744812 441.137360,723.025757 
	C445.231171,711.420349 448.956360,699.684937 452.849731,688.008728 
	C454.915009,681.815002 453.347839,679.173218 447.050903,679.501343 
	C438.813599,679.930542 432.672791,676.534485 427.377838,670.610229 
	C422.903107,665.603699 420.292725,666.100098 417.580475,672.276306 
	C412.761688,683.249329 407.972504,694.237000 403.339355,705.289185 
	C401.098572,710.634399 397.008820,713.318787 391.584930,714.169800 
	C384.321320,715.309387 378.913177,708.717346 381.510468,701.845764 
	C382.799957,698.434204 384.513763,695.171631 386.182831,691.917236 
	C390.284973,683.919067 394.507324,675.982605 398.610016,667.984741 
	C400.471985,664.355042 399.478027,661.349121 395.818848,659.719116 
	C390.298187,657.259827 386.314026,653.302673 382.704834,648.542908 
	C377.364166,641.499573 373.574768,641.818909 368.260254,648.902466 
	C361.766785,657.557434 355.112885,666.091858 348.610809,674.740356 
	C345.124420,679.377686 340.586884,682.202637 334.899261,683.086426 
	C328.128296,684.138611 323.186859,678.414429 325.162781,671.856384 
	C326.144684,668.597412 328.197540,665.993713 330.449646,663.483337 
	C337.902435,655.175903 345.308502,646.825745 352.665344,638.433167 
	C356.806854,633.708496 356.859985,631.378235 352.902466,626.766479 
	C350.883911,624.414185 349.650482,621.740967 348.912689,618.814575 
	C347.145874,611.806396 345.717621,611.115906 339.393707,614.325195 
	C324.397583,621.935486 309.422363,629.587646 294.389832,637.125305 
	C276.210693,646.240662 256.945618,652.823792 238.318146,660.911255 
	C221.849792,668.061340 210.756348,679.887085 203.857666,695.932129 
	C199.034225,707.150391 195.411224,718.742493 199.428238,731.960205 
M674.240662,326.326355 
	C677.810608,324.244324 681.469971,323.897095 685.157898,325.938721 
	C692.714539,330.122070 693.349976,337.086060 686.684265,344.196259 
	C677.913452,353.551971 668.932129,362.711243 660.217041,372.117798 
	C655.615601,377.084290 655.885498,379.346436 661.040283,383.654419 
	C665.692200,387.542053 669.898071,391.630890 671.791382,397.705597 
	C672.913147,401.304565 675.701660,401.346344 678.648926,399.674500 
	C683.718750,396.798676 688.801819,393.944672 693.831299,390.999542 
	C698.301086,388.382202 702.813599,385.871033 707.988403,384.964264 
	C715.574524,383.634918 721.739258,389.763641 720.179626,397.145996 
	C719.316589,401.231049 716.323853,403.609100 712.807739,405.443146 
	C706.278259,408.848816 699.108459,410.571259 692.304443,413.257324 
	C684.104065,416.494720 683.526245,419.457672 689.761841,425.666595 
	C695.130005,431.011841 697.643433,437.502197 696.412231,445.110443 
	C695.541626,450.490753 696.322327,451.334625 701.844604,449.942200 
	C730.680603,442.671173 759.554810,435.577606 788.676086,429.505554 
	C802.791931,426.562256 816.049805,421.339813 828.290649,413.542358 
	C851.591858,398.699341 861.697266,376.978271 860.459045,350.054779 
	C859.528137,329.813904 848.773865,316.224457 829.155334,310.133331 
	C825.825073,309.099365 822.461060,308.138885 819.062317,307.365997 
	C786.839783,300.038513 762.255432,282.917480 747.758667,252.474319 
	C744.115784,244.824219 739.865845,237.441605 734.409424,230.829193 
	C727.740234,222.747269 719.250000,218.645294 708.806946,218.346390 
	C689.119873,217.782928 673.469666,226.242859 660.148132,239.966949 
	C658.468323,241.697495 657.769470,243.814163 657.268311,246.182983 
	C654.723389,258.211456 652.521912,270.346802 648.675110,282.042999 
	C641.639893,303.433838 633.021606,324.174164 621.852844,343.773102 
	C619.693359,347.562469 620.265930,349.976471 624.264465,351.658356 
	C627.885315,353.181305 630.769592,355.604706 633.037537,358.833862 
	C637.613403,365.348724 639.243042,365.235870 644.625610,359.107697 
	C654.178467,348.231567 663.925476,337.525879 674.240662,326.326355 
M468.022583,629.677612 
	C468.992218,626.674133 469.958130,623.669495 470.932404,620.667542 
	C472.278198,616.520935 470.378418,613.912170 466.759583,612.350586 
	C462.217194,610.390503 457.930969,612.313477 455.503845,617.675659 
	C451.936066,625.557861 449.358063,633.792847 447.261230,642.197815 
	C446.377991,645.738159 446.781189,649.113342 447.434967,652.529297 
	C447.881866,654.864380 448.754425,657.333923 451.230621,657.963013 
	C453.676056,658.584351 455.040131,656.348083 456.346832,654.658691 
	C461.938812,647.429077 464.981354,638.984619 468.022583,629.677612 
M400.190582,400.308258 
	C397.517731,397.566589 394.862915,394.807007 392.166748,392.088531 
	C389.688385,389.589691 386.995270,387.368439 383.658966,386.085754 
	C380.305511,384.796570 376.985382,384.666962 374.531036,387.676666 
	C372.163635,390.579773 373.183807,393.726746 375.023651,396.461487 
	C376.404999,398.514648 378.122742,400.382751 379.897430,402.122406 
	C385.605347,407.717743 391.386658,413.239105 397.194336,418.731140 
	C398.391327,419.863129 399.732361,420.910370 401.166504,421.710999 
	C405.136993,423.927551 407.767487,421.598175 410.150970,418.786041 
	C412.497559,416.017426 412.191956,413.390045 409.744293,410.794769 
	C406.661865,407.526337 403.673248,404.169525 400.190582,400.308258 
M653.366028,522.922302 
	C661.304138,524.549255 669.280884,526.012634 677.164673,527.870056 
	C681.311157,528.846924 684.044861,527.760132 685.389587,523.780701 
	C686.813721,519.566223 685.237549,514.832825 681.421082,513.673157 
	C670.173035,510.255432 658.724548,507.614960 646.901001,507.144928 
	C642.553345,506.972107 640.788879,510.021118 639.714111,513.501709 
	C638.560303,517.238281 641.414429,518.990417 643.963623,520.457458 
	C646.549744,521.945862 649.538269,522.518005 653.366028,522.922302 
M643.160645,540.252686 
	C635.497620,538.091309 632.012939,539.807251 631.178223,545.993713 
	C630.642761,549.962097 632.731995,552.399353 635.830322,554.048340 
	C644.500366,558.662720 653.168884,563.303894 662.409546,566.724182 
	C663.645081,567.181458 664.957642,567.537842 666.263000,567.680481 
	C671.597900,568.263245 674.640503,564.407532 673.199280,559.178223 
	C672.210938,555.591919 669.520996,553.737000 666.536316,552.171997 
	C659.017578,548.229614 651.458618,544.363953 643.160645,540.252686 
M619.927246,629.334351 
	C621.437805,626.982361 620.181458,624.818542 619.368225,622.697205 
	C615.418518,612.394043 609.768982,603.020325 603.449768,594.030701 
	C601.203674,590.835449 593.377380,589.725708 589.824158,592.190613 
	C585.508423,595.184448 587.744995,598.653076 589.574097,601.801697 
	C594.930603,611.022400 601.592651,619.325378 608.111145,627.726807 
	C612.584412,633.492371 613.085388,633.623352 619.927246,629.334351 
M563.326294,367.720673 
	C561.122620,373.090576 558.904419,378.454620 556.723877,383.833923 
	C556.042053,385.516022 555.308472,387.167969 555.306885,389.074677 
	C555.303589,392.963928 557.335205,395.466980 560.845520,396.394714 
	C564.278076,397.301849 567.455200,395.931641 568.524902,392.510956 
	C572.007751,381.374481 578.324402,371.462006 582.043152,360.455017 
	C583.736511,355.442932 582.598450,352.733582 578.487915,351.102570 
	C574.072266,349.350464 570.995972,350.505280 568.744690,355.134735 
	C566.860718,359.008881 565.300903,363.040680 563.326294,367.720673 
M497.456543,385.637146 
	C502.127106,385.449890 503.834290,382.598969 503.826324,378.372467 
	C503.808746,369.047089 503.768646,359.721008 503.614136,350.397278 
	C503.578735,348.261261 503.258026,346.074799 502.693054,344.014557 
	C501.603210,340.040710 498.335205,339.271576 494.820953,339.434784 
	C491.150360,339.605225 489.719238,342.090759 489.385223,345.431519 
	C488.374451,355.542358 488.149261,365.681213 488.366943,375.831787 
	C488.502625,382.158539 490.115814,384.005524 497.456543,385.637146 
M565.803406,606.087952 
	C559.954224,605.509705 556.423401,609.331482 558.051941,614.704468 
	C561.627258,626.500854 566.656311,637.749451 571.312927,649.134216 
	C572.360962,651.696594 574.106812,653.963379 577.332947,652.986511 
	C580.267212,652.097961 582.756653,650.623962 582.707092,646.761597 
	C582.663818,643.390625 582.319519,640.135437 581.217407,636.962463 
	C578.381226,628.797424 575.349365,620.693787 572.779663,612.446045 
	C571.712585,609.021240 570.031372,606.876770 565.803406,606.087952 
M415.077728,618.470947 
	C413.254395,622.203125 411.296997,625.877197 409.646149,629.684143 
	C408.055573,633.352051 407.063538,637.240112 411.469025,639.758240 
	C415.806396,642.237305 419.208038,640.161682 421.826294,636.702515 
	C427.868774,628.719238 432.763916,620.002991 437.203369,611.067505 
	C439.716156,606.009949 438.613708,602.465149 434.774750,600.286438 
	C430.807434,598.034790 426.574463,599.048462 423.619598,603.559753 
	C420.620575,608.138489 418.114227,613.039978 415.077728,618.470947 
M448.243134,354.675385 
	C449.501282,366.782074 453.870850,378.143127 456.775482,389.853088 
	C457.480194,392.694244 459.837830,395.256958 463.022247,394.258453 
	C466.483215,393.173279 470.336456,390.845734 469.420044,386.510925 
	C467.296417,376.465637 466.792786,366.110901 463.585358,356.283264 
	C462.637634,353.379456 461.309021,350.798767 458.678253,349.009033 
	C453.371368,345.398651 449.190277,347.306488 448.243134,354.675385 
M417.177399,385.372070 
	C420.730743,390.784851 423.621582,396.667053 428.075195,401.441620 
	C430.760284,404.320190 433.962036,406.026489 437.722168,403.112366 
	C441.223236,400.399048 441.346680,397.071503 439.280701,393.383545 
	C437.494415,390.194885 435.660309,387.019653 434.108521,383.715820 
	C430.961761,377.016052 426.275299,371.377350 421.746643,365.660614 
	C418.893890,362.059448 415.096619,362.353760 411.461823,364.666260 
	C407.645508,367.094269 407.933197,370.184021 410.127075,373.641479 
	C412.441162,377.288422 414.571289,381.052063 417.177399,385.372070 
M372.709930,424.804108 
	C368.747589,422.349396 364.829102,419.819977 360.811676,417.459015 
	C355.886841,414.564789 351.737213,415.226929 348.987274,419.169708 
	C346.632812,422.545349 347.758240,426.048187 352.731659,429.527679 
	C358.870544,433.822571 365.125427,437.957092 371.422577,442.017609 
	C373.929993,443.634430 376.559418,445.233704 379.355896,446.190521 
	C383.637634,447.655518 386.793762,445.650909 388.833649,441.835602 
	C390.959320,437.859955 388.739471,435.908600 385.486572,433.921539 
	C381.235687,431.324860 377.332397,428.159241 372.709930,424.804108 
M373.509766,575.949707 
	C376.680450,574.137939 379.974976,572.501343 382.583191,569.862305 
	C385.516632,566.894165 386.193176,563.651672 383.733582,560.014526 
	C381.258118,556.354004 378.050629,555.728821 374.216949,557.620422 
	C364.758392,562.287415 356.590424,568.862610 348.587067,575.563965 
	C344.406372,579.064514 344.461029,582.489746 347.471008,585.988464 
	C350.339661,589.322876 353.607208,589.478760 358.077606,586.421448 
	C363.008820,583.048889 367.481018,579.005432 373.509766,575.949707 
M526.363525,362.836304 
	C525.678894,368.102203 525.034180,373.373688 524.297363,378.632294 
	C523.670837,383.103821 525.693054,385.873169 529.956543,386.457123 
	C534.234497,387.043121 536.868164,384.753204 537.643372,380.445038 
	C539.201111,371.788391 540.798035,363.148529 543.944946,354.871796 
	C544.578308,353.206085 544.671265,351.299530 544.811890,349.488403 
	C545.257812,343.744781 543.903564,341.596710 539.070679,340.794189 
	C534.484070,340.032562 532.460449,343.040436 531.232300,346.775513 
	C529.571594,351.826141 528.038025,356.918579 526.363525,362.836304 
M539.709412,661.322021 
	C542.595886,659.902832 543.640930,657.434875 543.644104,654.384644 
	C543.655701,643.354248 539.577637,632.934692 538.777161,622.020752 
	C538.720581,621.250488 538.259399,620.407471 537.752563,619.790222 
	C535.281433,616.780518 532.247559,615.785034 528.456299,617.188843 
	C525.034546,618.455750 522.615540,621.147461 523.741455,624.353149 
	C527.241943,634.319885 526.790283,645.006348 529.991089,655.002808 
	C531.485474,659.669678 533.971680,662.123108 539.709412,661.322021 
M351.207367,508.895508 
	C354.815033,509.466919 358.411896,510.122589 362.033478,510.585266 
	C365.438568,511.020264 367.879913,509.537659 369.102814,506.319977 
	C370.411102,502.877838 369.210266,500.066040 366.423553,497.984680 
	C365.267212,497.121033 363.765839,496.549103 362.336426,496.248535 
	C351.720459,494.016266 340.985107,492.833374 330.133392,493.407562 
	C326.517059,493.598969 323.670898,495.398224 323.386322,499.445648 
	C323.088226,503.686035 325.527679,506.053650 329.493652,506.563934 
	C336.413300,507.454193 343.371063,508.048157 351.207367,508.895508 
M389.692139,589.159424 
	C384.367401,594.439697 379.585907,600.158447 376.016083,606.782349 
	C374.049194,610.431946 372.541168,614.420410 376.816589,617.432617 
	C380.747375,620.201965 383.952148,617.902832 386.916992,615.121216 
	C394.095154,608.386536 399.680725,600.301758 405.898895,592.760193 
	C408.723572,589.334412 407.705048,585.220337 403.932648,582.464783 
	C399.703583,579.375671 397.058197,579.751221 393.824707,583.906433 
	C392.602234,585.477295 391.389557,587.055847 389.692139,589.159424 
M615.307678,571.650757 
	C611.988831,574.514465 611.760071,577.889160 614.921448,580.641846 
	C623.430664,588.050964 631.480408,596.058350 641.115662,602.081055 
	C645.438538,604.783081 649.778748,602.686035 650.689514,597.660034 
	C651.372314,593.891418 650.277649,590.825073 647.233093,588.397461 
	C640.220337,582.805786 633.254456,577.155151 626.281677,571.513489 
	C622.878662,568.760010 619.427063,568.386719 615.307678,571.650757 
M490.473145,626.151550 
	C488.997986,636.032532 488.802429,646.002319 488.298248,655.955872 
	C488.073578,660.391479 489.305176,663.723755 493.969910,664.394043 
	C498.805786,665.088928 499.483551,660.939453 500.452026,657.673584 
	C503.198334,648.412415 503.987427,638.787781 505.445435,629.288513 
	C506.342133,623.446411 504.359528,619.529541 499.985565,618.510498 
	C495.673492,617.505798 492.833771,619.599854 490.473145,626.151550 
M356.920013,529.473206 
	C354.332825,530.090820 351.754181,530.747314 349.156769,531.318237 
	C343.127594,532.643433 337.169769,534.202087 331.804901,537.373474 
	C329.147369,538.944519 327.622101,541.343445 328.545044,544.517212 
	C329.404968,547.474304 331.874115,548.495361 334.725006,548.666992 
	C336.051727,548.746887 337.437164,548.870300 338.714233,548.594910 
	C348.616211,546.459290 358.530731,544.364258 368.369202,541.961121 
	C371.939819,541.088989 374.302582,538.443420 373.468170,534.531372 
	C372.684113,530.855164 370.343750,528.399109 366.154053,528.253601 
	C363.272430,528.153503 360.542084,528.866211 356.920013,529.473206 
M651.332275,402.277649 
	C647.653625,396.896942 644.851868,396.048859 639.212036,399.104340 
	C633.312927,402.300354 628.542236,407.022644 623.559387,411.420074 
	C620.335632,414.264984 616.506165,416.475952 614.183044,420.293427 
	C612.172302,423.597778 611.300110,426.880890 614.953796,429.544281 
	C618.310486,431.991272 621.631348,432.145233 624.609436,428.597870 
	C628.508789,423.953064 633.501648,420.633270 638.546997,417.365784 
	C642.170166,415.019348 645.874451,412.750488 648.921692,409.608887 
	C650.724976,407.749786 652.182068,405.795105 651.332275,402.277649 
M599.764465,404.302979 
	C602.571655,400.125824 606.250122,396.719757 609.691223,393.105194 
	C613.501282,389.103088 616.713013,384.676361 619.396973,379.844360 
	C621.347290,376.333221 620.592896,373.666382 617.503052,371.149139 
	C614.245178,368.495087 611.666626,369.775238 609.109436,372.003174 
	C607.986755,372.981354 606.949951,374.097748 606.048584,375.283966 
	C600.713989,382.304321 595.541016,389.419373 589.406250,395.830505 
	C584.386475,401.076477 585.104553,405.661682 590.395691,408.550903 
	C595.034546,411.083923 597.032593,407.734039 599.764465,404.302979 
M675.754456,486.392578 
	C676.725952,486.167603 677.689209,485.894226 678.670471,485.726349 
	C682.240356,485.115417 685.476807,483.567078 685.269470,479.590637 
	C685.075195,475.863586 682.657227,473.893982 678.480591,472.986542 
	C670.923645,471.344635 663.979065,474.112305 656.786255,474.819336 
	C652.714600,475.219543 648.419373,474.661713 644.517944,476.526550 
	C641.283447,478.072662 638.554932,480.194275 639.919739,484.156555 
	C641.196594,487.863495 643.253967,490.955078 648.286316,490.086334 
	C657.104004,488.564117 665.864197,486.492401 675.754456,486.392578 
M367.445404,476.475159 
	C371.842560,476.086487 374.104309,473.125610 374.456787,469.281311 
	C374.852997,464.960022 372.250641,462.318512 367.970917,461.074188 
	C359.669739,458.660675 351.462097,455.927551 343.184235,453.431244 
	C338.493439,452.016663 334.195221,453.409576 333.029175,456.873810 
	C331.436768,461.604797 334.542694,463.905151 338.210510,465.696411 
	C347.363678,470.166626 357.016052,473.301697 367.445404,476.475159 
M668.828064,434.315308 
	C666.295105,433.967834 663.883667,434.484497 661.454590,435.179321 
	C652.596313,437.713470 644.518494,442.080688 636.208679,445.888824 
	C630.942566,448.302155 630.162720,450.546875 632.403687,455.272858 
	C634.591248,459.886292 638.298950,461.661926 642.574768,458.702271 
	C650.677368,453.093811 660.169861,450.857361 668.805481,446.626801 
	C675.159851,443.513794 675.415955,438.802429 668.828064,434.315308 
z"/>
</svg>