<svg version="1.1" id="Layer_1" xmlns="http://www.w3.org/2000/svg" xmlns:xlink="http://www.w3.org/1999/xlink" x="0px" y="0px"
	 width="100%" viewBox="0 0 672 1024" enable-background="new 0 0 672 1024" xml:space="preserve">
<path fill="#000000" opacity="1.000000" stroke="none" 
	d="
M241.529633,502.374207 
	C243.265121,509.479736 247.580170,513.416687 254.333664,514.495972 
	C256.528870,514.846802 257.820709,515.792969 259.061005,517.581848 
	C265.673798,527.119324 281.470551,528.219849 289.244751,519.723633 
	C290.427551,518.430969 291.601288,517.315369 293.365845,517.208130 
	C298.331055,516.906494 301.479828,513.725037 304.511871,510.334137 
	C314.304657,499.382172 322.463806,487.165131 331.433258,475.575531 
	C332.844452,473.752106 334.128571,471.760834 336.559875,470.575134 
	C339.698883,472.794312 341.983032,475.861176 343.636871,479.245148 
	C345.788086,483.646820 343.880066,487.798706 338.549316,489.961395 
	C335.347473,491.260345 333.228119,492.818573 332.559998,496.423004 
	C331.808533,500.477142 328.903259,503.198212 325.342590,504.866638 
	C322.224152,506.327850 320.145721,507.964355 319.953888,511.780945 
	C319.851532,513.817444 318.776917,516.007202 317.591003,517.754395 
	C309.589630,529.543030 310.484589,541.727966 316.312531,553.809265 
	C322.206879,566.028381 329.354248,577.453735 340.669952,585.615051 
	C341.842316,586.460632 343.227570,587.246887 343.567932,588.872742 
	C339.264954,594.670593 333.941895,595.238525 328.368561,590.288635 
	C321.000244,583.744507 316.173340,575.303589 311.821686,566.677429 
	C305.978485,555.094543 300.523560,543.301025 298.639618,530.226562 
	C298.117249,540.932556 301.911255,550.659729 305.406250,560.408997 
	C308.679199,569.538635 313.011780,578.168640 318.866943,585.967529 
	C327.406067,597.341431 331.679352,598.712280 344.915375,594.114258 
	C345.761383,597.085022 344.143036,598.918701 342.010620,600.188904 
	C332.620117,605.781982 319.040375,608.770691 309.100159,596.890564 
	C296.170044,581.437012 289.831116,563.248474 285.713440,543.994019 
	C285.296753,542.045654 284.965088,540.079163 284.575653,538.124817 
	C284.555695,538.024536 284.362000,537.958923 283.862152,537.596558 
	C283.773376,546.293518 284.593933,554.619324 286.846191,562.704895 
	C291.298065,578.687012 298.545166,593.132385 311.004181,604.538879 
	C313.810913,607.108521 313.205688,609.710571 309.067291,611.680847 
	C303.056885,614.542358 296.627136,613.669922 290.393280,612.830017 
	C286.540100,612.310974 282.506042,611.537415 279.363373,608.860840 
	C279.425140,606.671936 281.271912,606.082947 282.388336,604.978516 
	C288.378143,599.052734 289.789276,592.927917 285.984528,585.490051 
	C278.444977,570.750916 272.321167,555.548523 269.342346,539.174133 
	C270.170929,553.096008 273.645355,566.367432 278.963257,579.197449 
	C280.302155,582.427795 281.726532,585.626282 282.952972,588.898926 
	C285.336121,595.258118 283.811432,600.126953 278.209351,604.062683 
	C270.246704,609.656799 261.451508,609.942383 252.357025,607.863159 
	C249.764893,607.270508 247.244537,606.370972 244.668045,605.701538 
	C239.875031,604.456238 238.320694,605.938965 239.807419,610.746216 
	C242.317947,618.863708 245.277512,626.836487 249.041687,634.467651 
	C256.611298,649.813599 259.661682,665.875244 257.374084,682.934143 
	C255.403763,697.627441 259.640015,711.263428 264.887756,724.710388 
	C266.338501,728.427917 267.177185,732.323425 267.448303,736.368286 
	C267.636230,739.172119 268.414185,741.913269 270.260803,744.250122 
	C280.940765,757.765320 284.418701,773.680603 285.671326,790.370972 
	C285.877930,793.123535 284.157379,794.163574 282.444550,795.480103 
	C275.769623,800.610535 270.332001,806.494202 270.402588,816.431335 
	C273.374481,809.620178 276.168396,803.434570 283.736176,799.392578 
	C282.332703,807.874695 283.087372,815.517395 279.933350,822.645447 
	C279.462463,823.709595 278.819550,824.697021 278.338165,825.757202 
	C272.309937,839.033264 278.186920,842.666016 288.399780,847.545349 
	C290.429230,848.514954 292.829834,848.676331 294.623871,850.370728 
	C297.564392,853.148071 300.573151,850.601624 303.621796,850.182739 
	C309.860779,858.907898 319.876495,859.979370 329.003113,862.742249 
	C340.789612,866.310486 353.094818,865.491028 365.172668,866.574707 
	C367.841919,866.814270 370.374786,867.110107 372.933807,868.076599 
	C376.946136,869.592041 381.172729,869.429382 385.149139,867.842590 
	C388.130066,866.652954 390.935577,865.521484 393.925781,868.002747 
	C391.603943,864.511963 389.013275,863.321838 385.025452,865.105896 
	C381.104370,866.860107 377.107025,866.220581 372.986389,864.456909 
	C366.750854,861.788025 359.888367,862.570862 353.287598,862.401672 
	C340.656464,862.077698 328.515411,859.677673 316.836151,854.931335 
	C308.883453,851.699402 306.534088,847.645813 308.621521,839.243958 
	C313.217255,820.746460 320.697693,803.453918 333.658569,789.285706 
	C337.990112,784.550659 340.802124,779.698730 342.870087,773.816650 
	C349.320984,755.468079 365.079041,746.427490 384.473358,749.639160 
	C391.665222,750.830078 398.777588,752.428406 405.376984,754.879578 
	C405.844727,757.606323 403.789459,757.984009 402.656555,759.089966 
	C402.924164,759.302612 403.288879,759.654846 403.332947,759.618530 
	C409.347504,754.654541 418.494385,755.461731 423.489288,748.508118 
	C426.406342,744.447083 430.886505,745.812805 435.197968,746.304138 
	C431.948517,741.821167 425.378479,741.582947 421.471863,746.286194 
	C417.501190,751.066650 411.822662,750.552429 406.105988,753.801086 
	C408.335754,743.201904 413.928955,735.945190 418.688934,727.646240 
	C426.928650,732.219849 436.270905,734.171814 442.789459,741.432434 
	C447.237244,746.386536 452.338745,750.735413 456.370483,756.087219 
	C457.753876,757.923584 459.614105,758.903198 462.033142,758.488098 
	C468.193085,757.431030 477.661621,747.594604 478.505127,741.362915 
	C478.818176,739.049805 477.724518,737.185974 476.695007,735.264404 
	C475.690155,733.388855 473.730896,732.095520 473.270355,729.565552 
	C475.233154,728.352539 477.075928,729.208801 478.850616,729.881165 
	C489.613312,733.958618 496.226318,745.349304 494.751373,757.149231 
	C494.483063,759.295593 494.017731,761.469177 494.135925,763.602844 
	C494.610748,772.173828 490.961517,778.771545 484.563171,784.026978 
	C482.695648,785.560791 481.404419,787.208679 480.583771,789.519897 
	C479.246399,793.286377 476.613556,796.146301 472.760040,797.421814 
	C469.720306,798.427856 468.769012,800.020630 469.126831,803.284058 
	C470.499969,815.807922 467.230652,827.161194 457.358582,835.168762 
	C450.993439,840.331543 445.574463,845.862854 440.719360,852.447449 
	C435.575989,859.422913 428.508240,864.710022 420.679626,868.703491 
	C414.743652,871.731567 408.751129,874.617188 403.660889,879.064209 
	C401.049164,881.345886 397.630524,881.878418 394.329010,882.222107 
	C377.271271,883.998535 360.190308,885.792664 343.012512,885.023560 
	C321.324768,884.052612 299.831146,881.726868 279.623047,872.955505 
	C269.356995,868.499573 260.353241,862.334229 254.364807,852.559143 
	C253.158951,850.590759 251.730179,848.404785 251.553421,846.225891 
	C251.000458,839.408936 246.745972,835.739990 241.439316,832.528503 
	C237.877335,830.372742 234.671570,827.654968 231.872757,824.538574 
	C225.630997,817.588928 224.443237,808.712585 229.693573,801.100952 
	C234.802673,793.694153 240.052902,786.586365 242.752625,777.755493 
	C244.068710,773.450500 248.518463,770.157410 254.421173,772.622864 
	C260.662231,775.229614 263.799957,774.828064 271.105835,772.914734 
	C267.728333,772.211182 265.358948,771.640991 262.962036,771.231873 
	C253.885269,769.682556 245.568161,766.544312 239.227768,759.539612 
	C233.945251,753.703613 227.319565,750.116272 220.216034,747.001221 
	C210.588165,742.779236 202.269577,736.891602 197.249237,727.145081 
	C194.291916,721.403809 194.302933,716.012451 197.890656,710.641052 
	C198.538422,709.671204 199.079636,708.609436 199.840500,707.739136 
	C205.600266,701.151062 207.834961,693.518127 207.992142,684.773010 
	C208.197784,673.330933 209.279800,672.950256 219.176834,678.321960 
	C223.902206,680.886719 228.193359,683.977051 231.774811,688.037415 
	C235.988480,692.814636 237.616745,698.366089 237.215744,704.654175 
	C236.945847,708.886292 234.774002,711.320740 230.749771,712.459961 
	C227.135010,713.483276 223.479050,713.179077 219.823654,713.215637 
	C216.359268,713.250244 212.837585,712.924866 208.759949,715.299377 
	C216.132904,714.994385 222.363876,717.243225 228.930344,716.714417 
	C236.210312,716.128235 239.783630,712.558350 239.813919,705.258789 
	C239.887299,687.575867 228.665115,674.755554 210.123169,671.339661 
	C196.019897,668.741516 187.419006,661.415894 185.210342,649.512939 
	C183.207870,638.721375 186.975693,629.514099 194.027786,621.474121 
	C200.006470,614.657837 207.713120,610.453735 215.970535,607.075073 
	C221.980957,604.615784 228.083115,602.323547 233.901703,599.463196 
	C252.802795,590.171570 258.062164,580.563477 255.575378,559.776367 
	C254.389420,549.862732 253.021194,539.980103 252.818985,529.980164 
	C252.803345,529.207214 252.605972,528.437927 252.022690,527.687744 
	C248.504150,537.940735 250.353439,548.313477 251.686783,558.676208 
	C249.748398,558.719849 249.473557,557.341431 249.009689,556.394836 
	C245.864014,549.975952 241.388657,544.580017 235.695053,540.409546 
	C231.895538,537.626465 231.470673,534.723328 232.845123,530.547424 
	C235.179657,523.454651 238.336334,516.610535 239.438797,509.094513 
	C234.695541,516.847961 231.175903,525.158752 228.687332,534.282959 
	C224.066238,532.606323 220.841995,530.123840 218.050125,526.984436 
	C216.538620,525.284851 216.584839,523.367554 217.209167,521.351562 
	C220.032761,512.234192 224.537964,503.861603 228.762939,495.368683 
	C229.416840,494.054291 230.422913,492.325684 232.167938,493.341187 
	C235.211914,495.112610 239.627487,494.842621 241.080978,499.021027 
	C241.401016,499.941101 241.327759,500.997925 241.529633,502.374207 
M354.848694,836.613708 
	C366.086121,843.519897 378.126007,842.472229 390.195770,839.915283 
	C402.426208,837.324280 407.395691,838.952515 414.200165,848.492432 
	C414.318024,848.657654 414.802734,848.561218 415.099335,848.585510 
	C415.870270,847.992371 416.157745,847.050781 415.830780,846.352539 
	C413.764771,841.940491 416.425903,840.349670 419.817535,838.533264 
	C423.374390,836.628357 426.505737,833.947632 428.928833,830.585327 
	C424.533142,834.076050 419.191833,835.640381 414.301605,838.060547 
	C412.983826,838.712646 411.462708,839.309753 409.982422,838.481506 
	C401.008423,833.460205 391.870483,836.137451 382.726654,837.790466 
	C372.589783,839.623169 363.231964,837.418396 354.533783,832.064514 
	C352.997040,831.118591 351.507935,829.895325 353.205750,828.147949 
	C356.884064,824.362549 359.367615,819.513367 364.265076,816.780151 
	C370.975220,813.035461 376.220154,802.096985 374.888794,794.984802 
	C374.336823,796.543945 374.038391,797.802917 373.469574,798.924683 
	C370.387573,805.002991 367.687164,811.525940 361.037689,814.620972 
	C358.630829,815.741211 356.837006,817.030945 355.510223,819.261169 
	C351.683502,825.693481 346.638397,829.943848 338.490662,828.380676 
	C338.333405,828.350464 338.095764,828.739136 337.719086,829.102905 
	C343.512329,830.996155 349.027252,833.242554 354.848694,836.613708 
M412.914917,813.308167 
	C407.365814,815.756165 405.128448,814.681946 403.250153,809.036194 
	C402.647369,807.224487 403.429321,804.768738 401.253906,803.643677 
	C395.935669,800.893372 396.095642,796.418274 397.428955,791.647217 
	C398.091217,789.277344 400.333099,786.643616 399.762878,784.766357 
	C398.031525,779.066406 398.359802,774.480103 403.917267,770.861511 
	C398.750000,771.569763 396.601837,775.037170 396.436249,779.185303 
	C396.273010,783.273926 395.153961,786.940491 394.108063,790.782959 
	C392.645020,796.158081 391.996796,801.818604 396.962708,806.002625 
	C398.856934,807.598511 399.949432,809.255981 400.655548,811.621643 
	C402.314423,817.178955 406.029327,819.094360 411.721161,817.517761 
	C413.509552,817.022400 414.913086,817.506714 416.514923,818.029541 
	C422.170563,819.875793 427.271179,819.370422 431.478363,814.525696 
	C434.165466,811.431274 437.441467,809.482361 441.886810,809.576782 
	C445.712158,809.658081 449.284576,808.007141 451.250061,804.697144 
	C453.216370,801.385803 455.932190,799.194580 458.967712,797.105225 
	C461.026520,795.688171 462.866913,793.953857 464.804993,792.361389 
	C460.115326,795.661316 453.866119,796.491943 450.192169,800.761230 
	C447.095093,804.360229 443.857361,806.459106 439.154602,806.323608 
	C435.659302,806.222778 432.462341,807.791809 430.394714,810.106140 
	C424.076569,817.178040 421.356506,817.893738 412.914917,813.308167 
M238.314728,630.878235 
	C238.490265,629.252930 238.665802,627.627625 238.841354,626.002258 
	C235.763626,631.090515 232.446564,635.733948 227.169678,638.649902 
	C222.278702,641.352600 216.914459,642.440796 211.495026,643.247925 
	C205.257706,644.176880 200.171066,646.677429 196.522766,653.920532 
	C201.354263,649.247559 206.285233,648.095764 211.273880,647.129517 
	C215.663513,646.279236 220.131073,645.756287 224.454987,644.658569 
	C231.369476,642.903198 236.253174,638.773438 238.314728,630.878235 
M462.977051,771.933289 
	C463.090210,767.683838 460.937164,764.659180 457.579803,762.445984 
	C453.396362,759.687988 449.100220,757.101013 444.563965,754.259338 
	C445.657013,759.434387 449.932526,760.827087 453.314392,762.996277 
	C457.204987,765.491821 460.769409,768.201111 462.977051,771.933289 
M442.653900,785.838562 
	C442.898926,785.259460 443.396118,784.711914 442.828918,783.970825 
	C440.885956,784.266113 440.709534,786.248413 439.654205,787.381897 
	C438.420410,788.707031 437.299805,790.158813 435.946075,791.345764 
	C434.232880,792.847900 432.686371,794.948303 430.242798,795.027832 
	C427.654938,795.112061 427.399109,791.957886 425.400299,790.371765 
	C427.083801,796.965942 429.887756,798.116882 434.958313,794.941833 
	C438.344635,792.821411 439.914459,789.239624 442.653900,785.838562 
M431.719330,772.140198 
	C430.819672,771.515015 430.375854,770.213440 428.983551,770.268616 
	C430.771820,776.168579 432.799103,777.504944 440.107849,777.309692 
	C436.883148,776.661926 434.465759,774.747559 431.719330,772.140198 
M414.652252,793.216858 
	C417.733643,794.177979 419.853607,796.849609 423.617401,798.814758 
	C419.489227,793.238403 416.003479,791.406555 412.634521,792.513916 
	C413.158112,792.683044 413.628754,792.835083 414.652252,793.216858 
z"/>
<path fill="#000000" opacity="1.000000" stroke="none" 
	d="
M567.599243,327.262268 
	C565.399048,329.464813 568.074646,329.237946 568.721863,329.690430 
	C573.096313,332.748749 573.369324,335.306580 569.151367,338.545319 
	C563.638367,342.778412 557.035034,343.834717 550.338318,344.259583 
	C546.876953,344.479156 543.390198,344.298157 539.874390,344.298157 
	C539.971008,344.820312 539.919250,345.230530 540.098328,345.408813 
	C545.989136,351.272797 545.123047,355.509644 537.235474,358.432159 
	C531.837219,360.432312 526.229126,360.858063 520.523804,359.885010 
	C518.596863,359.556335 516.641174,359.396393 514.612183,359.148773 
	C515.682739,368.225800 511.931580,372.495178 502.952148,373.139618 
	C499.297974,373.401855 495.761932,372.368103 492.019623,372.104156 
	C496.036072,384.564789 491.298370,388.616333 474.316223,387.718811 
	C471.103088,400.894287 468.355652,402.803986 454.427765,401.543121 
	C450.227539,413.055847 449.814178,413.344727 437.595123,413.038422 
	C435.005188,422.718933 427.622681,424.865997 418.695618,424.345886 
	C416.122437,424.195984 413.447815,423.658112 412.296051,421.180908 
	C411.083038,418.571991 413.942413,417.534424 415.249054,416.014435 
	C417.867340,412.968536 420.292725,409.835846 421.962280,406.143066 
	C424.651031,400.195984 423.986420,394.831421 419.441589,390.034393 
	C418.183990,388.706970 417.059906,387.363861 416.692596,385.408081 
	C414.010193,371.123871 396.756592,353.500122 382.813507,350.809357 
	C380.709198,350.403259 378.516815,350.450531 376.364624,350.295929 
	C374.896179,350.190430 373.180878,350.460632 372.659668,348.545380 
	C372.170258,346.747070 373.508057,345.768097 374.745728,344.930023 
	C379.018860,342.036530 383.144867,338.849945 387.675507,336.426727 
	C402.058594,328.733795 409.223328,316.734192 411.734955,300.747559 
	C416.658142,269.410828 438.739960,248.116699 470.195068,242.607468 
	C487.441040,239.586929 504.712982,240.464905 521.981506,241.464401 
	C553.484741,243.287781 584.866211,244.287125 615.306030,233.622253 
	C626.038391,229.862061 636.211243,224.943420 645.993713,219.178772 
	C647.572021,218.248703 649.137329,217.284897 650.775024,216.470093 
	C652.802673,215.461334 654.989502,213.580750 657.178711,215.538086 
	C659.137085,217.289017 658.454407,219.918274 657.918274,222.155991 
	C655.575684,231.934265 650.008423,239.684006 642.322571,245.942093 
	C638.859070,248.762192 635.096985,251.215515 630.905823,254.243073 
	C633.986877,255.008469 636.101440,253.365524 638.372498,253.022614 
	C643.059631,252.314865 645.156372,254.300766 644.046753,258.896545 
	C642.684631,264.538116 638.839905,268.497101 634.386658,271.858215 
	C627.186096,277.292969 619.140015,281.139709 610.559814,284.035217 
	C613.708008,284.558350 616.615234,282.804138 619.778992,283.569672 
	C625.156677,284.870880 626.196228,286.893738 623.419312,291.646881 
	C620.307251,296.973694 615.221436,299.910919 609.746887,302.020233 
	C605.108521,303.807434 600.209839,304.920319 595.422363,306.318207 
	C594.354736,306.629883 593.125244,306.615051 592.500427,307.914276 
	C593.875977,309.173981 595.657654,308.639679 597.201355,309.032562 
	C602.000183,310.254089 603.069031,313.216980 599.890442,317.079407 
	C595.969910,321.843262 590.351318,323.657837 584.694763,325.115143 
	C579.217407,326.526276 573.604126,327.312592 567.599243,327.262268 
z"/>
<path fill="#000000" opacity="1.000000" stroke="none" 
	d="
M283.353088,258.378021 
	C282.494812,271.209686 285.651489,282.108490 294.464264,291.283264 
	C298.482697,295.466736 301.986389,300.208527 304.465820,305.562073 
	C305.346039,307.462646 306.429810,309.355286 305.720001,311.901917 
	C299.926086,308.750092 294.210754,306.484680 290.142059,301.123138 
	C286.338654,296.111176 281.490326,291.867981 275.083160,290.022522 
	C272.606964,289.309296 269.897461,288.620728 267.812592,290.049896 
	C264.218170,292.513855 261.048889,291.666962 257.578003,290.105896 
	C254.609421,288.770721 251.286652,288.714752 248.227707,289.254761 
	C243.722321,290.050110 240.107910,289.140015 237.040375,285.756866 
	C236.268921,284.906036 235.280563,284.202637 234.284760,283.612183 
	C224.841080,278.012939 217.570175,270.247559 210.638519,261.781982 
	C203.088776,252.561523 192.314560,246.950623 182.692047,240.097916 
	C172.786484,233.043625 162.915451,225.939575 152.938370,218.987778 
	C149.904984,216.874146 148.375381,214.352753 148.779266,210.604187 
	C149.559952,203.358505 146.969894,196.499100 145.732849,189.557266 
	C143.913376,179.347229 132.909927,176.254395 125.546303,183.538239 
	C122.502190,186.549362 120.482513,186.224701 117.653992,183.645782 
	C113.593971,179.944077 109.244049,176.562378 105.115952,172.932556 
	C102.210388,170.377670 99.953705,167.285675 98.362534,163.730667 
	C95.521271,157.382690 96.591293,155.124069 103.550728,153.477966 
	C102.130379,149.975647 99.086899,147.780807 97.036026,144.886429 
	C93.815582,140.341461 90.902824,135.674408 90.800415,129.915680 
	C90.699699,124.252335 93.283218,122.665619 98.322258,125.071289 
	C100.399506,126.062996 102.437660,127.136620 105.287498,128.573181 
	C101.007263,122.718987 97.131500,117.635422 93.501251,112.382179 
	C90.730904,108.373260 88.784256,103.979317 88.498062,98.973854 
	C88.364914,96.644997 87.673927,94.176788 89.993462,92.562103 
	C92.521416,90.802353 94.301453,93.042702 97.202393,94.725410 
	C94.503181,89.751862 92.188766,85.714745 90.090759,81.568138 
	C86.961952,75.384216 85.117302,68.881386 85.657608,61.840481 
	C85.828300,59.616173 85.942940,57.205894 88.259567,56.326908 
	C90.341873,55.536835 91.489502,57.660290 92.662170,58.940979 
	C95.195152,61.707314 97.554390,64.632744 100.598305,66.934624 
	C97.515274,58.778561 93.270485,51.428200 91.333473,43.103298 
	C90.295441,38.642021 90.398445,34.141510 90.955879,29.691628 
	C91.328636,26.715929 92.326569,23.603836 95.847176,22.843756 
	C99.365425,22.084185 101.487846,24.436798 103.100258,27.063236 
	C105.539360,31.036249 107.772293,35.136913 110.056801,39.203575 
	C128.856979,72.669754 155.980530,98.102791 187.364502,119.457085 
	C208.332108,133.723846 230.226303,146.398926 252.692490,158.138611 
	C274.109314,169.329956 284.716888,188.334671 290.334534,210.891022 
	C292.837646,220.941818 292.318390,230.565613 287.844177,240.073196 
	C285.218964,245.651672 284.125763,251.786545 283.353088,258.378021 
z"/>
<path fill="#000000" opacity="1.000000" stroke="none" 
	d="
M369.043457,487.532837 
	C369.272034,497.674835 364.546600,500.748230 355.855103,496.586456 
	C353.126923,495.280182 350.642059,493.654877 348.509399,491.483459 
	C347.122101,490.070984 346.349823,488.554901 347.038757,486.547424 
	C348.488007,482.324524 347.037445,478.591156 344.657013,475.280670 
	C340.458099,469.441223 336.862305,463.287231 333.903595,456.744751 
	C333.423706,455.683624 332.412201,454.623688 332.460114,453.601318 
	C332.810120,446.130585 327.088501,443.285034 322.284912,439.557800 
	C308.771088,429.072113 301.127655,414.509674 294.837341,399.108673 
	C287.078491,380.112244 284.415222,360.295105 285.762360,339.886993 
	C286.056854,335.426086 287.267151,331.128906 288.183655,326.784180 
	C283.565002,337.607422 281.537598,348.993805 282.479309,360.648499 
	C284.205353,382.009979 290.458893,402.084686 301.258453,420.667114 
	C307.034607,430.605896 314.406982,439.099121 324.131256,445.371765 
	C326.528229,446.917969 327.998047,448.780029 328.348694,451.723572 
	C328.851746,455.946289 331.659912,459.314819 333.076233,463.220093 
	C333.769409,465.131348 334.527527,466.906769 332.791199,468.760437 
	C323.304962,478.888123 316.755493,491.270844 307.580780,501.649750 
	C302.531738,507.361511 298.213867,513.897705 289.729095,515.153625 
	C288.445679,515.343628 287.319702,516.818848 286.188538,517.779236 
	C279.114838,523.784851 267.339813,522.478333 262.030670,514.948792 
	C260.392487,512.625488 258.644897,511.392120 255.611526,511.034973 
	C248.843765,510.238068 245.888428,505.259644 244.508331,499.167114 
	C243.941895,496.666656 243.451065,494.313110 240.685928,493.204773 
	C230.036057,488.936035 229.824158,479.657532 231.262161,471.093140 
	C232.216049,465.412079 235.045242,460.432343 237.337875,455.283081 
	C241.659653,445.576324 241.144302,435.385071 240.481262,425.276276 
	C239.053925,403.514221 242.396118,382.496613 249.485352,362.003265 
	C252.305573,353.850708 255.485321,345.822540 258.137177,337.533691 
	C252.489716,342.485260 250.247391,349.623474 247.174881,355.750305 
	C244.502136,355.858093 243.680191,354.426361 243.589935,352.962952 
	C243.285660,348.029877 239.919556,345.931183 236.085129,343.944305 
	C228.346954,339.934540 227.081696,337.416840 228.114212,328.755920 
	C229.326767,318.584656 231.748291,308.731659 237.049301,299.866699 
	C242.183792,291.280151 251.260864,289.529572 259.269501,295.357697 
	C259.189209,297.860291 256.997559,299.220001 255.896271,301.179749 
	C254.767532,303.188354 253.585022,305.166748 252.714218,307.392487 
	C256.191223,303.995300 258.829620,299.858459 262.907593,297.060333 
	C268.838501,292.990845 272.962494,292.746246 279.040894,296.634125 
	C281.721405,298.348633 284.277924,300.299591 286.145020,302.871002 
	C290.197083,308.451660 294.454803,313.354889 301.718597,315.182251 
	C305.588928,316.155914 306.919067,319.399353 304.235504,323.456909 
	C301.723175,327.255493 300.630585,331.715515 300.303345,336.223358 
	C298.440643,361.883484 303.485077,386.192627 314.740967,409.286316 
	C320.771759,421.659698 330.842468,429.861420 342.398102,436.602234 
	C346.716125,439.121033 350.970917,441.742493 354.648956,445.167999 
	C355.617584,446.070160 356.459564,447.125946 357.263641,448.184204 
	C360.956451,453.044312 361.556702,457.728851 358.877441,460.422394 
	C355.701080,463.615753 351.392761,463.589844 345.713043,460.039734 
	C347.569397,467.730774 348.946320,474.808533 358.166443,476.853241 
	C363.416840,478.017609 367.052856,481.920868 369.043457,487.532837 
z"/>
<path fill="#000000" opacity="1.000000" stroke="none" 
	d="
M459.006653,518.008179 
	C457.789001,519.115906 457.387268,520.965210 455.392426,521.780396 
	C451.718262,520.203674 448.679749,517.369202 445.626770,514.625854 
	C429.018280,499.701630 412.636566,484.540100 397.725677,467.875458 
	C396.949829,467.008362 396.254211,466.066315 395.557404,465.132233 
	C393.244659,462.031799 391.008301,458.647675 390.451416,454.936127 
	C389.700958,449.934235 395.405487,450.057037 397.886414,447.518219 
	C400.893707,444.440765 404.633881,442.016785 407.089996,438.414459 
	C409.518005,434.853485 411.461304,435.595734 414.205627,438.143097 
	C421.903473,445.288513 427.734039,453.661713 432.065796,463.195801 
	C436.476685,472.904083 441.014435,482.571991 447.388794,491.204651 
	C451.965454,497.402740 457.415161,501.653900 465.929199,500.418457 
	C473.775452,499.279938 478.526093,503.195190 481.647217,510.450806 
	C484.531677,517.156128 482.288757,521.989868 478.023468,526.742615 
	C477.060913,527.815186 475.157806,528.786987 475.914581,530.383118 
	C477.925018,534.623535 474.972626,536.846008 472.665100,539.154663 
	C472.947693,541.572815 474.921967,541.762146 476.290558,542.459534 
	C481.129852,544.925293 481.769379,549.261108 481.530396,553.935486 
	C481.390625,556.670166 479.223175,557.481079 477.244263,556.506226 
	C468.344208,552.122192 464.452759,557.408936 460.893005,564.265808 
	C459.597961,566.760254 459.219177,568.709839 460.652985,571.192017 
	C463.312073,575.795410 466.284851,580.254822 467.715363,585.484253 
	C469.524628,592.098145 468.449188,596.396484 463.359009,600.154968 
	C461.684509,590.519165 453.922852,585.203064 448.802063,578.022034 
	C444.570801,572.088379 443.880402,565.835632 447.369293,559.254883 
	C448.373291,557.361145 449.145416,555.344543 450.714813,551.842285 
	C438.156830,559.740479 426.009949,561.642700 412.744202,556.671021 
	C422.947876,572.082092 421.076782,580.381409 406.370178,585.537109 
	C403.240753,580.216797 400.024994,574.820068 396.879517,569.382751 
	C393.543213,563.615540 390.473846,557.672424 386.298645,552.447144 
	C384.598877,550.319946 384.760162,548.750366 386.577545,546.823730 
	C388.042084,545.271118 389.308289,543.452271 390.319855,541.567688 
	C392.545837,537.420471 392.071777,533.718323 388.475098,530.305908 
	C384.319000,526.362732 379.680847,523.315186 374.208893,521.459961 
	C377.363220,523.697327 380.627106,525.797729 383.641602,528.209839 
	C386.768555,530.711975 389.196899,533.887878 387.594940,538.151062 
	C385.771301,543.004150 382.562195,547.757324 377.257111,547.922363 
	C369.649994,548.159058 364.328644,551.752075 359.427826,556.653137 
	C357.298798,558.782349 355.558380,558.464478 353.269470,557.099304 
	C348.951355,554.523926 345.289978,551.152710 341.399658,547.990784 
	C343.499512,552.368347 346.812958,555.712341 350.753326,558.368530 
	C353.807861,560.427612 354.699646,562.429138 352.360291,565.694519 
	C348.368134,571.266907 346.039032,577.718872 343.521210,584.059326 
	C342.818146,584.020203 342.156372,584.188599 341.900726,583.939819 
	C327.628387,570.046875 315.983032,554.789551 315.633759,533.600647 
	C315.565308,529.445740 316.614441,525.734863 318.738373,522.218750 
	C320.456726,519.373962 322.373077,516.595764 323.168304,513.304565 
	C323.845795,510.500549 325.474152,508.669525 328.058075,507.405365 
	C331.832733,505.558716 334.141052,502.425049 335.574097,498.473480 
	C338.172729,491.307922 342.707458,490.335388 348.658142,495.117188 
	C358.268677,502.839905 369.049896,508.238708 381.228027,510.698425 
	C394.989746,513.477966 404.384003,521.310242 408.384460,534.956116 
	C410.109253,540.839600 414.169281,543.316223 419.806732,543.573242 
	C431.186890,544.091919 441.952576,541.898865 451.725037,535.719177 
	C452.938446,534.951843 454.351440,534.500061 455.687805,533.894897 
	C456.075836,531.951660 453.803650,531.167114 453.786865,529.446960 
	C453.764923,527.194641 452.971375,524.634521 456.149414,523.650879 
	C458.572113,522.901001 458.489166,520.681824 459.272491,518.208496 
	C466.479126,514.354004 470.083649,514.634094 472.797516,518.710876 
	C473.141479,515.550964 471.427094,513.902954 468.628143,513.562927 
	C464.610199,513.074890 460.981750,513.866943 459.006653,518.008179 
M339.473450,518.094971 
	C343.875397,522.929626 349.305725,526.142395 355.481689,528.198181 
	C348.705536,523.653442 343.062683,517.506592 335.340790,514.293701 
	C336.556183,515.402039 337.771576,516.510376 339.473450,518.094971 
z"/>
<path fill="#000000" opacity="1.000000" stroke="none" 
	d="
M355.004944,641.115356 
	C362.670898,654.741272 363.744263,668.894348 361.289307,684.686890 
	C357.602448,680.779236 355.164246,677.199280 351.357239,674.963074 
	C356.269470,680.716248 357.758514,687.793030 360.015991,694.702332 
	C363.332764,704.853882 372.025421,709.859619 381.465332,713.327209 
	C386.445831,715.156860 391.758850,716.059509 396.839661,717.643738 
	C402.323090,719.353699 407.268738,721.977905 410.694214,726.902649 
	C412.084747,728.901733 412.475311,730.641113 411.032043,732.816284 
	C407.985077,737.408386 405.406067,742.276733 403.611298,747.499268 
	C402.701813,750.145813 401.394562,750.641113 398.713074,749.739990 
	C391.292603,747.246277 383.715942,745.240112 375.791565,745.390076 
	C367.119629,745.554138 358.871094,747.140076 352.322906,753.487854 
	C349.687195,756.042969 346.424957,755.418823 343.327148,755.345215 
	C330.803802,755.047852 321.642639,745.849304 321.732117,733.412292 
	C321.824829,720.524475 315.950836,710.105164 308.842651,700.016479 
	C300.829346,688.643188 296.264038,676.410645 299.531738,662.095703 
	C300.477356,657.953064 300.051392,653.470764 300.041748,649.144653 
	C300.033661,645.525391 301.535522,644.513245 305.020538,645.234436 
	C311.847687,646.647278 318.731750,647.784973 325.680420,648.656860 
	C318.995453,645.062561 311.636963,643.752869 304.323700,642.543213 
	C301.083740,642.007263 299.574341,640.668945 299.289917,637.581238 
	C298.771423,631.953003 298.220398,626.327820 297.714539,620.698486 
	C297.489716,618.196472 298.729858,616.972778 301.201691,616.945435 
	C306.879578,616.882629 312.033813,615.311584 316.473969,611.668701 
	C318.391144,610.095703 320.277985,610.990967 322.088654,611.836670 
	C335.847351,618.263123 347.428497,627.165161 355.004944,641.115356 
M348.408966,727.106506 
	C354.921204,732.795471 362.664459,735.371948 371.121429,736.232605 
	C359.964539,731.228638 349.462891,725.307617 340.932495,716.283997 
	C342.154114,720.649292 344.936340,723.697815 348.408966,727.106506 
z"/>
<path fill="#000000" opacity="1.000000" stroke="none" 
	d="
M352.380646,438.289917 
	C345.931610,437.600098 346.032990,436.856476 348.638702,431.650452 
	C352.921356,423.094025 358.761017,418.932037 368.627838,420.860809 
	C372.686615,421.654266 376.730774,419.999756 381.850250,417.411743 
	C371.854004,418.760925 363.382141,418.759094 355.188965,415.536774 
	C353.374756,414.823273 352.600281,416.120789 352.059998,417.773376 
	C350.745758,421.793304 347.937012,424.955872 345.731506,428.474121 
	C343.556519,431.943756 341.404053,431.623352 338.330994,429.699219 
	C324.103424,420.790894 316.619415,407.099060 311.163544,391.932068 
	C307.094849,380.621277 304.941162,368.928955 303.833008,357.180054 
	C306.231964,355.845490 307.507294,357.330994 308.885345,358.015442 
	C315.024323,361.064545 321.416473,363.297119 328.084320,364.943939 
	C333.614960,366.309845 337.910706,364.555847 341.668610,360.813507 
	C345.442474,357.055176 348.927429,352.999207 352.793274,349.342468 
	C359.747009,342.764832 363.539764,343.258026 369.669861,351.638519 
	C362.197968,356.972504 355.753143,363.253601 354.325287,374.034821 
	C357.809357,369.013672 360.089081,364.276733 363.817047,360.556213 
	C372.013550,352.376099 390.176941,352.432373 398.143921,360.899231 
	C400.639160,363.551025 403.146606,366.498322 399.876587,370.346436 
	C405.482361,371.386078 406.824890,374.695099 403.262146,379.299530 
	C399.722260,383.874420 394.884094,386.891724 389.719147,389.294861 
	C384.501251,391.722595 379.156006,393.876587 374.036041,396.465881 
	C388.831024,394.623535 402.584839,390.888458 410.129608,376.001862 
	C414.746918,381.442474 414.198059,386.306854 407.547119,397.846313 
	C411.098419,396.320007 412.551361,393.231018 414.660828,391.088562 
	C420.560760,395.485962 421.598785,399.580566 418.485748,405.399384 
	C415.185150,411.568695 410.157349,416.171844 404.637421,420.263794 
	C389.253632,431.667786 372.282654,438.572906 352.380646,438.289917 
z"/>
<path fill="#000000" opacity="1.000000" stroke="none" 
	d="
M181.401093,546.457275 
	C171.410126,532.996643 178.674637,511.744629 194.038422,506.328064 
	C199.889160,504.265320 201.741196,505.200256 202.178146,511.226929 
	C202.417877,514.533386 203.365509,517.589783 205.577942,519.891663 
	C212.363113,526.951111 218.765717,534.369202 227.591003,539.265015 
	C236.848251,544.400513 244.081482,551.878296 247.900116,561.900269 
	C255.485321,581.807556 246.314880,589.963257 229.273560,597.627563 
	C226.744858,598.764709 226.132156,596.786011 225.593124,594.936035 
	C223.780823,588.715942 224.918091,582.345093 224.638229,576.047119 
	C224.549881,574.058716 224.624451,572.063049 224.258316,570.027588 
	C220.920731,577.898132 218.807495,586.009521 221.743332,594.502380 
	C223.246964,598.852112 221.872116,600.776306 217.870407,602.342285 
	C207.880722,606.251465 198.735352,611.392944 191.194656,619.418945 
	C184.570084,626.469910 173.172958,624.940063 166.579666,616.893860 
	C155.497849,603.369873 156.318771,586.005188 168.658356,573.784180 
	C170.116043,572.340454 171.133545,570.691833 171.893661,568.810486 
	C174.069885,563.424011 178.373993,560.483887 183.716965,558.909119 
	C189.174072,557.300720 192.555679,558.492310 194.908768,562.618896 
	C197.433899,567.047180 196.870026,572.554077 193.038696,575.849121 
	C190.026855,578.439453 186.475327,580.390503 183.290482,582.793823 
	C176.930542,587.592896 174.668961,593.231812 176.639359,599.168884 
	C176.982498,600.202820 177.145340,601.504333 179.341049,602.143188 
	C175.834793,592.268188 181.606232,587.059326 188.931671,583.395752 
	C196.355896,579.682800 199.664383,573.304565 202.125992,566.126160 
	C203.758423,561.365723 202.153656,556.974731 199.985428,552.712585 
	C196.605469,546.068542 192.810654,539.541870 193.001022,531.619751 
	C191.844574,536.737610 191.811569,541.756836 193.010437,546.919128 
	C194.188324,551.990967 198.864670,555.905029 197.947815,563.011597 
	C191.820984,557.307922 185.965805,552.844849 181.401093,546.457275 
z"/>
<path fill="#000000" opacity="1.000000" stroke="none" 
	d="
M402.717102,586.346069 
	C407.072540,591.804871 408.285950,598.082520 409.209259,604.319580 
	C410.207397,611.062012 412.636963,616.998901 416.381927,622.691895 
	C424.037750,634.330017 428.422089,647.052551 428.413818,661.225098 
	C428.409973,667.817078 425.498383,671.916748 419.784210,674.448303 
	C414.441772,676.815125 405.853088,675.822021 402.439911,671.976440 
	C398.135406,667.126648 393.979401,662.094421 390.252716,656.793945 
	C384.200836,648.186462 382.264099,638.073730 381.990509,627.892700 
	C381.770569,619.708191 378.198029,613.675171 373.135834,607.905762 
	C367.090485,601.015686 359.070068,596.773987 351.811584,591.500977 
	C345.799500,587.133362 345.783295,587.040466 348.829163,580.150513 
	C352.909210,570.921204 357.951691,562.352112 366.152130,556.077087 
	C367.208649,555.268677 368.274200,554.449341 369.424225,553.789490 
	C377.333252,549.251465 379.575684,549.572449 384.556366,557.191711 
	C390.752655,566.670471 396.546356,576.412354 402.717102,586.346069 
z"/>
<path fill="#000000" opacity="1.000000" stroke="none" 
	d="
M499.320312,671.409180 
	C494.991974,676.770325 498.857941,680.159485 501.922058,683.431641 
	C500.466217,685.424866 498.680359,684.965088 497.079041,685.050781 
	C484.014343,685.750488 477.485992,693.281738 479.055511,706.118774 
	C479.338806,708.435791 478.372009,709.509216 476.585815,710.388672 
	C470.339417,713.464355 465.265259,717.117188 470.158051,725.850647 
	C464.479706,723.895996 460.224304,721.134338 456.338440,718.067139 
	C451.918701,714.578552 447.848602,710.569092 444.028107,706.416565 
	C437.477936,699.296997 436.299896,690.056885 434.844666,681.019226 
	C433.737030,674.140259 433.566254,667.126648 431.908234,660.321533 
	C431.085876,656.946411 433.148834,655.052795 435.568909,653.358093 
	C445.803528,646.191101 457.374481,642.820435 469.642731,641.748962 
	C492.682190,639.736816 512.078918,649.325867 530.658325,661.330933 
	C531.619385,661.951782 532.620483,662.653809 532.413391,664.212585 
	C530.987732,666.110962 528.826599,665.250671 526.960693,665.343994 
	C520.670166,665.658569 514.328979,664.718689 508.086334,666.340515 
	C504.783783,667.198486 501.774567,668.420776 499.320312,671.409180 
z"/>
<path fill="#000000" opacity="1.000000" stroke="none" 
	d="
M259.763550,649.245239 
	C257.042908,639.315735 252.009048,630.799683 248.208923,621.761963 
	C246.749741,618.291626 245.286987,614.804932 244.679611,610.763611 
	C248.869537,610.128723 252.377350,611.446838 255.903244,611.988831 
	C260.897400,612.756348 265.789154,613.112305 270.716553,611.784607 
	C272.538971,611.293457 274.279022,611.505249 276.069489,612.222656 
	C279.152893,613.458191 282.261566,615.138977 285.472107,615.442383 
	C291.987000,616.058105 294.089966,619.594482 294.031006,625.559021 
	C293.971680,631.557373 295.341125,637.440979 295.886719,643.386963 
	C296.356384,648.505127 297.317444,654.041077 295.942596,658.777222 
	C292.119690,671.946655 296.568268,683.678833 300.541992,695.653381 
	C303.417908,704.319824 302.067352,713.097717 301.109436,721.852295 
	C300.953156,723.280579 299.777039,724.104736 298.740509,724.942444 
	C291.732513,730.605713 280.315338,731.336182 272.506439,726.660278 
	C271.332397,725.957336 270.336212,725.179565 269.842804,723.831421 
	C264.755737,709.932190 259.625000,696.277039 262.271637,680.746643 
	C264.023956,670.464050 263.004913,659.828064 259.763550,649.245239 
z"/>
<path fill="#000000" opacity="1.000000" stroke="none" 
	d="
M374.309845,313.925537 
	C375.444031,311.899017 376.316986,310.099243 377.347656,308.394806 
	C378.098114,307.153687 379.207062,306.444641 380.709595,307.270599 
	C382.179840,308.078888 382.302856,309.268097 381.567444,310.651581 
	C378.447815,316.520782 375.782379,322.697418 369.605164,326.278595 
	C366.886719,327.854553 364.464355,329.795929 362.324951,332.250427 
	C359.110046,335.938843 355.146576,335.936829 351.135010,333.177582 
	C348.087128,331.081238 345.448029,328.564026 343.140289,325.692322 
	C341.008820,323.039917 338.806549,320.438293 337.013214,317.552216 
	C341.133789,326.164185 344.534637,335.407043 355.157410,338.509460 
	C355.358734,341.939575 352.872253,343.684387 351.063629,345.671753 
	C347.480408,349.609161 343.482697,353.144012 340.223816,357.412598 
	C338.096466,360.199036 334.915710,361.628448 331.395172,361.204071 
	C322.355499,360.114380 313.812195,357.519012 306.409302,351.945679 
	C304.910217,350.817078 303.749054,349.511169 303.676208,347.432678 
	C303.399811,339.542175 303.914948,331.773163 306.870636,324.336578 
	C307.359924,323.105560 307.761444,321.795776 309.161438,321.219482 
	C311.113678,320.969208 311.606262,323.422302 313.723022,323.506714 
	C316.920288,321.096252 318.680542,317.223999 321.142120,313.953064 
	C323.943542,310.230560 326.365845,306.225311 329.045288,302.407776 
	C331.891449,298.352661 336.023254,294.857330 332.709900,288.918884 
	C331.752411,287.202820 332.565186,284.639374 333.939850,282.776367 
	C335.972229,280.022034 337.906891,278.704865 340.328094,282.577728 
	C342.646576,286.286194 346.059570,287.395966 350.264313,285.788635 
	C351.658997,285.255493 353.350677,285.258606 354.539337,284.465851 
	C362.839081,278.930573 372.056549,280.539032 381.091339,280.925018 
	C386.156647,281.141418 389.847778,285.861511 389.166473,290.921722 
	C388.811707,293.556519 388.360962,296.180237 387.884796,298.796448 
	C387.173889,302.702148 386.144653,305.891266 380.792755,304.707642 
	C377.956604,304.080383 376.576721,306.989471 375.314972,309.087433 
	C373.967926,311.327179 373.278015,313.944244 370.990234,315.957184 
	C372.913971,316.175903 373.350494,314.940063 374.309845,313.925537 
M363.555450,292.987793 
	C366.177643,296.034180 369.771454,297.008850 373.469513,297.768463 
	C370.524902,295.605194 367.377594,293.854248 363.555450,292.987793 
z"/>
<path fill="#000000" opacity="1.000000" stroke="none" 
	d="
M113.928764,191.388641 
	C121.584229,191.832062 127.857941,189.343811 133.983337,185.495453 
	C137.212341,183.466782 143.092590,188.113815 141.881256,192.415619 
	C140.107422,198.715073 143.705933,203.888290 144.006973,209.701797 
	C144.368301,216.679703 141.654831,219.785233 136.638260,222.882263 
	C144.815048,240.189957 153.029755,257.272766 160.984940,274.475616 
	C182.159653,320.265289 203.220306,366.107758 224.332214,411.926483 
	C227.607376,419.034454 230.804016,426.181610 234.236176,433.213409 
	C237.745636,440.403656 235.475357,447.022858 233.117737,453.973785 
	C229.225937,452.963654 229.062149,449.678772 227.985474,447.326996 
	C205.531006,398.279510 183.180649,349.184387 160.788589,300.108307 
	C150.906067,278.449066 140.746552,256.910431 132.091782,234.715576 
	C130.505554,230.647797 128.150253,227.682388 124.132149,225.639557 
	C115.303185,221.150818 113.625069,217.532059 115.039581,207.464645 
	C115.386398,204.996246 115.903076,202.567245 114.925514,199.872803 
	C114.452660,202.015808 113.941521,204.151291 113.517265,206.303879 
	C113.055008,208.649277 112.210121,210.692719 109.310722,209.901382 
	C106.763718,209.206207 105.228577,207.252579 105.920769,204.601746 
	C107.230095,199.587494 108.916588,194.675278 113.928764,191.388641 
z"/>
<path fill="#000000" opacity="1.000000" stroke="none" 
	d="
M401.070404,275.393097 
	C403.288788,283.563568 404.929260,291.363098 399.171631,298.440369 
	C397.541779,300.443726 396.096283,302.852570 392.784668,303.073303 
	C390.842255,300.338379 391.721283,297.340057 392.332001,294.575470 
	C393.554779,289.039978 392.004242,284.476501 388.421326,280.303925 
	C386.648102,278.238861 384.596832,277.437622 381.886414,277.385681 
	C371.742279,277.191376 361.768127,277.042603 352.325439,282.115021 
	C347.977264,284.450775 342.899323,284.858948 340.095886,278.805573 
	C339.248596,276.976105 337.709167,277.452484 336.316345,278.454132 
	C332.399078,281.271271 330.762787,285.336670 331.565216,289.807892 
	C332.465485,294.824432 329.221954,297.346130 326.267670,299.678375 
	C323.125549,302.158936 320.675323,299.607147 319.983856,296.668610 
	C318.471802,290.242859 314.379150,283.889954 318.579193,277.024475 
	C319.309418,275.830872 318.477875,274.889160 318.136963,273.786316 
	C316.832336,269.565979 317.242065,265.835297 321.858063,263.758026 
	C323.709991,262.924622 324.682343,261.590149 324.719940,259.499847 
	C324.761902,257.166718 325.806000,254.888168 327.847931,254.163101 
	C332.687195,252.444748 335.939819,249.020004 339.351227,245.469162 
	C341.874573,242.842667 345.646332,242.006424 349.123016,243.093185 
	C352.531677,244.158676 355.430054,243.406631 358.674896,242.612564 
	C367.445251,240.466263 375.866913,241.387482 383.314178,247.010513 
	C386.352448,249.304581 388.957489,252.167236 392.459869,253.857712 
	C393.029846,254.132812 393.740082,254.674469 393.871094,255.217117 
	C395.527161,262.077423 401.625671,267.353912 401.070404,275.393097 
z"/>
<path fill="#000000" opacity="1.000000" stroke="none" 
	d="
M196.679276,296.309998 
	C186.286301,290.193146 178.461884,281.868317 171.376999,272.717529 
	C160.470581,258.630798 148.887665,244.985931 142.769775,227.853333 
	C142.174240,226.185623 140.517883,224.541580 141.617905,222.729736 
	C143.125122,220.247177 145.111160,218.682846 148.124329,221.098343 
	C164.905899,234.551163 182.998383,246.195923 200.326141,258.895691 
	C203.000549,260.855774 205.939438,262.857941 207.748718,265.524200 
	C214.752747,275.845734 224.734543,282.737091 234.577881,289.838715 
	C236.122406,290.953064 237.816910,292.020599 236.279236,294.209686 
	C231.243011,301.379364 228.415787,309.553497 225.455261,319.051666 
	C215.542267,311.203400 206.261032,303.855286 196.679276,296.309998 
z"/>
<path fill="#000000" opacity="1.000000" stroke="none" 
	d="
M281.361572,838.206665 
	C278.121246,835.124695 279.130188,831.975891 280.497528,828.817871 
	C291.434998,803.556458 292.713806,778.211304 281.183075,752.746643 
	C280.911133,752.146057 280.695953,751.509094 280.548889,750.867432 
	C280.484039,750.584412 280.656219,750.247009 280.868500,749.218689 
	C287.961884,752.414429 294.334045,749.787048 300.330170,746.320251 
	C303.362671,748.169800 302.309235,751.069397 302.678589,753.313293 
	C304.334259,763.371094 307.894836,772.884766 310.610840,782.636353 
	C312.564301,789.649902 313.413757,796.569458 310.314697,803.572876 
	C308.513153,807.643921 309.114105,812.124878 309.396912,816.406128 
	C310.011353,825.706848 307.155487,834.122192 303.295105,842.304382 
	C302.337402,844.334229 301.376617,847.042542 298.613068,846.909302 
	C295.820068,846.774536 295.371155,843.971802 294.538605,841.835266 
	C287.798004,845.319519 285.710693,843.800903 285.604553,835.162781 
	C283.723328,835.639709 284.359558,839.206299 281.361572,838.206665 
z"/>
<path fill="#000000" opacity="1.000000" stroke="none" 
	d="
M213.316498,314.652588 
	C215.010452,316.034393 216.335602,317.328094 217.848877,318.340637 
	C222.470551,321.432983 224.893478,324.897919 223.571289,331.159729 
	C222.076782,338.237762 226.591599,343.188141 232.490143,346.424591 
	C236.519058,348.635223 238.011124,352.633759 240.682800,355.708221 
	C246.325760,362.202026 243.098068,367.783356 241.474991,373.934662 
	C240.381409,378.079315 239.687958,382.329529 238.772980,386.737335 
	C234.395966,386.660461 232.654541,383.859467 232.352249,380.451324 
	C232.112122,377.743896 230.862579,376.810852 228.666138,375.944489 
	C224.120407,374.151489 219.947708,371.814240 217.710312,367.065613 
	C216.046997,363.535400 215.492844,360.343475 220.208588,357.946198 
	C216.402512,355.442200 212.208969,354.375580 209.596207,351.006378 
	C206.879501,347.503082 205.337677,344.069763 210.058640,340.496552 
	C207.718903,339.110657 205.737396,337.954742 203.773621,336.769470 
	C201.141739,335.180939 199.067413,333.057800 197.861374,330.203766 
	C195.834671,325.407684 198.026718,323.056915 205.022812,323.348297 
	C198.511185,319.599304 193.060349,315.583679 190.400223,308.967224 
	C189.442596,306.585327 187.694626,303.762726 190.325333,301.610291 
	C193.002762,299.419617 195.712769,301.108826 198.021530,302.851654 
	C203.065994,306.659546 208.034302,310.568359 213.316498,314.652588 
z"/>
<path fill="#000000" opacity="1.000000" stroke="none" 
	d="
M425.964233,689.857056 
	C430.453674,687.558411 432.673920,688.748596 433.494080,693.414856 
	C436.043335,707.918762 447.251190,715.681702 457.909668,723.540710 
	C463.261322,727.486633 469.174103,730.663147 473.561523,735.808289 
	C476.203979,738.907043 477.043945,742.159851 474.056610,745.397278 
	C471.975769,745.747498 471.451660,743.751343 469.734863,743.243103 
	C469.882416,745.337097 472.243164,747.278137 470.230804,749.256531 
	C468.360718,751.095093 467.466248,748.451355 465.604126,747.808228 
	C466.291748,750.791382 466.291992,753.218994 463.278412,754.376709 
	C460.168976,755.571106 458.736847,753.387451 457.088226,751.491272 
	C448.537628,741.656982 439.993408,731.825806 427.102814,727.355957 
	C423.635406,726.153687 421.537201,723.319824 421.073639,719.925964 
	C419.717285,709.995361 417.384064,700.369507 413.054504,691.250000 
	C417.356232,688.973694 421.636963,691.083923 425.964233,689.857056 
z"/>
<path fill="#000000" opacity="1.000000" stroke="none" 
	d="
M377.320862,690.291870 
	C385.032318,686.282532 391.137268,680.532349 397.999298,675.985229 
	C410.676453,691.252808 420.664520,715.558289 414.150909,726.549133 
	C406.331177,715.684509 394.053680,713.763062 382.561340,710.219299 
	C375.449219,708.026306 370.380493,703.178894 365.787628,697.308350 
	C369.195282,694.074036 373.380005,692.720886 377.320862,690.291870 
z"/>
<path fill="#000000" opacity="1.000000" stroke="none" 
	d="
M325.864258,765.867432 
	C321.892120,770.383118 319.416229,775.502075 315.776459,781.134216 
	C304.183685,756.421631 302.948944,731.492126 306.217529,706.063049 
	C308.031860,705.573425 308.562225,706.580566 309.096710,707.352417 
	C314.502441,715.158386 318.684235,723.587097 318.230408,733.267456 
	C317.740662,743.714111 321.962830,750.865051 331.117706,755.442688 
	C331.989868,755.878784 332.767578,756.503784 335.275238,758.143860 
	C331.911774,760.875183 329.003693,763.236694 325.864258,765.867432 
z"/>
<path fill="#000000" opacity="1.000000" stroke="none" 
	d="
M216.732727,475.703613 
	C220.055435,473.307465 222.537552,470.210815 227.331573,469.269623 
	C225.443314,476.853943 226.791794,483.725952 229.314941,490.479431 
	C229.592392,491.222015 229.138535,492.524139 228.595505,493.243286 
	C222.185822,501.731628 215.307281,509.928894 213.367035,520.590393 
	C210.027161,520.568604 209.061584,518.548157 208.126694,516.944946 
	C197.877548,499.369781 199.518356,489.586548 213.420227,478.525482 
	C214.462097,477.696533 215.446793,476.795746 216.732727,475.703613 
z"/>
<path fill="#000000" opacity="1.000000" stroke="none" 
	d="
M407.455322,432.098206 
	C400.458740,442.036377 391.784058,449.355103 380.653137,453.358368 
	C368.838837,457.607422 363.234375,454.765594 358.230927,441.984436 
	C376.617950,440.443970 392.721344,433.117340 407.531403,422.569672 
	C410.318604,426.087708 409.383667,428.934174 407.455322,432.098206 
z"/>
<path fill="#000000" opacity="1.000000" stroke="none" 
	d="
M333.987915,782.889282 
	C326.470093,790.990784 320.802887,799.962646 315.887848,809.133484 
	C314.582336,809.039124 313.978729,808.473938 314.157776,807.840271 
	C317.157745,797.224426 316.686768,785.626770 323.403961,776.049377 
	C327.382538,770.376648 331.812561,765.295593 338.185608,762.271545 
	C339.776550,761.516602 341.399384,760.391602 343.961823,761.722961 
	C339.176178,768.033081 339.486328,776.521851 333.987915,782.889282 
z"/>
<path fill="#000000" opacity="1.000000" stroke="none" 
	d="
M293.291931,731.449097 
	C295.772827,730.431030 297.878571,729.538940 299.978058,728.649536 
	C302.280701,733.956543 301.770844,740.751709 299.039978,743.130005 
	C294.291687,747.265320 283.630676,749.096191 279.355408,746.510620 
	C274.874756,743.800842 272.171051,737.509949 273.447784,732.213562 
	C279.914368,732.900452 286.500000,733.902954 293.291931,731.449097 
z"/>
<path fill="#000000" opacity="1.000000" stroke="none" 
	d="
M405.785583,679.335266 
	C404.671539,677.355957 403.965546,675.746887 407.070526,676.132019 
	C408.387054,676.295349 409.677734,676.667969 410.994385,676.829468 
	C417.585083,677.638184 424.063934,677.985901 428.406311,670.713501 
	C430.938110,675.481384 430.198639,679.605347 431.016785,683.420593 
	C431.275757,684.628296 430.178741,685.492310 429.185028,686.185608 
	C423.071838,690.450684 412.232086,688.558228 407.995422,682.477173 
	C407.329376,681.521179 406.649200,680.575134 405.785583,679.335266 
z"/>
<path fill="#000000" opacity="1.000000" stroke="none" 
	d="
M361.918823,474.317383 
	C354.897308,472.999481 353.029449,471.698090 351.786072,467.470154 
	C354.488831,466.299316 357.210388,465.134583 359.919342,463.941315 
	C361.482941,463.252533 362.918701,462.316254 363.398010,460.589783 
	C363.989197,458.460541 364.648254,456.680786 367.430511,457.717804 
	C369.781586,458.594116 371.396057,459.865692 371.348541,462.763336 
	C371.258026,468.281525 367.866913,472.780365 361.918823,474.317383 
z"/>
</svg>