<svg version="1.1" id="Layer_1" xmlns="http://www.w3.org/2000/svg" xmlns:xlink="http://www.w3.org/1999/xlink" x="0px" y="0px"
	 width="100%" viewBox="0 0 1024 1024" enable-background="new 0 0 1024 1024" xml:space="preserve">
<path fill="#000000" opacity="1.000000" stroke="none" 
	d="
M775.349121,517.991394 
	C774.750549,539.774658 772.434448,560.900513 769.652039,581.994568 
	C766.895813,602.890320 763.767029,623.724792 760.364319,644.524231 
	C758.109680,658.305786 750.601624,667.149780 737.022766,670.698242 
	C722.128174,674.590576 707.202209,677.826843 691.919189,672.619507 
	C690.974182,672.297485 690.032776,671.963745 689.098145,671.612915 
	C671.971191,665.184448 670.852356,655.842285 679.716736,640.301575 
	C682.825317,634.851685 688.074585,631.242798 693.323975,627.994324 
	C696.150208,626.245239 696.390930,624.663696 694.871460,621.949646 
	C685.678101,605.528137 676.546570,589.071594 667.500000,572.568848 
	C666.081543,569.981323 664.412659,569.547791 661.816772,570.524292 
	C643.677002,577.347961 624.953552,581.698669 605.693115,583.876343 
	C600.361328,584.479126 595.035095,584.098694 589.725891,584.461121 
	C585.266968,584.765625 584.074707,582.623657 584.815613,578.731140 
	C587.009705,567.203674 587.208313,555.540405 586.571533,543.911011 
	C585.598633,526.144165 581.207764,509.144592 573.629333,493.011597 
	C573.152161,491.995819 572.356384,491.129700 570.959595,490.427551 
	C572.132385,496.285065 573.214417,502.162445 574.492676,507.996857 
	C583.227966,547.867981 577.589294,585.959290 560.442078,622.658264 
	C550.857605,643.171265 539.282898,662.302124 522.864563,678.211975 
	C513.703796,687.089050 503.290436,692.078247 490.163086,691.495178 
	C478.020386,690.955933 465.834991,691.424438 453.669037,691.347412 
	C442.914825,691.279175 438.612000,685.443542 441.351227,675.050537 
	C443.910614,665.339722 450.591858,658.676025 457.774536,652.345642 
	C458.399200,651.795166 458.992340,651.144836 459.720856,650.785889 
	C470.409515,645.519775 471.526337,635.857544 471.696808,625.520264 
	C472.026703,605.514648 468.203064,586.499817 458.831177,568.735840 
	C449.603821,551.245789 433.752258,541.646729 416.680664,533.481750 
	C396.355316,523.760681 374.556305,519.340820 352.614563,515.339783 
	C328.165771,510.881622 303.550720,508.981781 278.686737,509.058716 
	C265.865082,509.098358 253.181000,506.879852 241.415573,501.123871 
	C232.873581,496.944946 226.337677,490.918701 222.749908,481.877502 
	C220.540955,476.310883 217.871185,470.928925 215.516907,465.417694 
	C212.302124,457.892120 213.593475,453.430298 220.859940,449.721832 
	C232.426163,443.819031 244.111694,438.121429 255.956528,432.804291 
	C262.588654,429.827118 266.997131,425.677124 267.926361,418.217621 
	C268.969452,409.844055 274.856781,404.860535 281.056366,400.192291 
	C288.784943,394.372864 296.825287,389.001740 305.342651,384.418121 
	C308.148529,382.908173 309.564667,381.158051 309.654175,377.897552 
	C309.891479,369.251373 314.088135,363.080231 322.037628,359.620575 
	C329.838928,356.225494 336.654938,357.995911 342.495056,363.947510 
	C343.667603,365.142395 344.813599,365.415833 346.482971,365.254517 
	C363.174530,363.641602 379.885284,362.225922 396.574982,360.594666 
	C413.904602,358.900909 429.689545,352.209259 445.331116,345.137970 
	C455.702667,340.449249 466.276947,336.744568 477.882355,336.593323 
	C485.957672,336.488098 493.254333,338.844055 500.379730,342.283447 
	C512.208069,347.992920 523.815918,354.348999 536.950256,356.675201 
	C550.900269,359.145905 564.771057,358.123199 578.541870,355.117920 
	C592.320923,352.110931 605.899780,348.292419 619.955811,346.435028 
	C648.712585,342.635010 676.001282,347.221558 701.765137,360.232208 
	C739.532654,379.304657 760.798340,410.808472 769.339661,451.609131 
	C773.888428,473.338196 775.729858,495.314545 775.349121,517.991394 
M361.879547,394.330261 
	C355.102509,400.301788 349.913788,407.459473 346.015442,415.650452 
	C348.362762,414.113037 350.451630,412.323730 352.491241,410.479919 
	C356.693054,406.681427 360.974792,402.988342 366.275940,400.772278 
	C373.860870,397.601562 380.427734,400.499634 382.798431,408.274902 
	C383.853271,411.734619 384.397247,415.278534 383.735687,419.056519 
	C382.866913,424.017670 381.415619,428.722046 379.282501,433.236145 
	C378.072113,435.797607 377.887787,438.262177 380.538208,439.784332 
	C383.530121,441.502686 384.662018,438.582947 385.879303,436.835236 
	C391.341492,428.993011 394.293121,420.423157 393.760559,410.664459 
	C392.786285,392.812225 377.839203,384.730011 361.879547,394.330261 
M289.676605,445.664124 
	C293.115173,447.239990 295.442719,445.503387 297.302368,442.912109 
	C298.779968,440.853180 298.984772,438.618835 297.267181,436.476685 
	C295.740479,434.572571 293.921722,433.070099 291.340149,433.543457 
	C288.742218,434.019836 286.816589,435.491211 286.015198,438.192871 
	C285.049896,441.447083 286.608978,443.588745 289.676605,445.664124 
z"/>
<path fill="#000000" opacity="1.000000" stroke="none" 
	d="
M460.577789,604.503906 
	C455.220520,614.338623 449.609833,623.583130 443.716858,632.677307 
	C431.873871,650.953613 414.576080,658.753784 393.452911,659.281006 
	C384.459442,659.505554 375.452576,659.174622 366.457916,659.373657 
	C349.360504,659.752075 347.248596,649.399780 349.101990,636.781311 
	C349.789948,632.097534 352.211090,628.024719 355.468964,624.536926 
	C356.605865,623.319763 357.658051,621.947998 359.003082,621.012146 
	C376.975677,608.507019 382.898651,589.332397 387.594147,569.489075 
	C389.772919,560.281494 391.503510,550.985779 392.743195,541.599060 
	C393.134796,538.634033 393.771912,535.772949 397.992767,537.128784 
	C427.716125,546.676392 450.863617,563.500854 461.546844,594.257996 
	C462.774872,597.793457 463.062347,601.034668 460.577789,604.503906 
z"/>
<path fill="#000000" opacity="1.000000" stroke="none" 
	d="
M598.852295,611.144287 
	C599.791382,606.674072 600.840393,602.649231 601.420227,598.557983 
	C601.885742,595.273315 603.685974,593.977478 606.704468,593.734741 
	C624.311035,592.318970 641.556946,589.169189 658.152344,582.943481 
	C660.633850,582.012512 662.494629,582.214661 664.077026,584.712769 
	C667.724670,590.471313 671.572083,596.104248 675.382568,601.758423 
	C676.814087,603.882446 676.967834,605.845276 675.765503,608.249512 
	C670.412537,618.953369 665.378601,629.818115 659.952820,640.484009 
	C653.007874,654.136475 640.417786,658.404724 626.413696,659.186768 
	C615.299744,659.807434 604.120605,659.482544 592.976318,659.269104 
	C583.849609,659.094238 579.220032,652.770569 581.041260,643.751099 
	C582.414551,636.949768 585.675537,631.158875 591.037903,626.952515 
	C596.194702,622.907349 598.388733,617.795410 598.852295,611.144287 
z"/>
</svg>