<svg version="1.1" id="Layer_1" xmlns="http://www.w3.org/2000/svg" xmlns:xlink="http://www.w3.org/1999/xlink" x="0px" y="0px"
	 width="100%" viewBox="0 0 1024 1024" enable-background="new 0 0 1024 1024" xml:space="preserve">
<path fill="#000000" opacity="1.000000" stroke="none" 
	d="
M676.179382,546.798706 
	C686.688416,545.582764 696.735352,544.404297 706.926025,544.601257 
	C750.406067,545.441589 789.159546,559.453247 822.816101,586.833313 
	C851.950500,610.534546 871.999878,640.306335 880.405701,677.364807 
	C889.119568,715.781250 883.641357,752.720093 868.358948,788.432068 
	C847.517395,837.134399 813.482727,873.829346 766.128479,897.708923 
	C740.108215,910.830383 712.289856,917.130066 683.106384,915.123535 
	C644.644287,912.479065 610.520142,898.369263 580.371338,874.390015 
	C541.147949,843.193115 516.646240,803.065186 509.009521,753.543091 
	C502.669128,712.427185 507.358246,672.481628 528.580383,635.844177 
	C540.615234,615.067444 558.975098,600.250916 578.863342,587.386658 
	C606.559570,569.471985 635.704651,554.761719 668.407104,548.251404 
	C670.846985,547.765747 673.297180,547.331543 676.179382,546.798706 
z"/>
<path fill="#000000" opacity="1.000000" stroke="none" 
	d="
M694.000488,193.000092 
	C678.340820,208.629562 664.370972,225.003601 656.007141,245.519028 
	C642.043152,279.770538 662.246094,313.575317 695.669312,322.131714 
	C711.906494,326.288422 726.542847,321.230865 740.623779,313.738861 
	C754.310669,306.456512 765.683716,296.161346 776.568176,285.332092 
	C804.206604,257.833679 831.740112,230.229904 859.332275,202.684921 
	C860.605713,201.413651 861.638367,199.795456 863.623962,199.283371 
	C865.746094,200.620926 866.306824,203.008591 867.242615,205.071075 
	C879.931702,233.036194 887.883606,262.222046 885.132751,293.073212 
	C881.380066,335.160736 866.290283,372.440002 834.550842,401.774231 
	C800.737732,433.024902 759.999756,449.919525 715.644348,459.300232 
	C687.512146,465.249878 659.007446,467.122742 630.319885,466.244263 
	C620.852966,465.954346 611.411011,464.909149 601.948914,464.360107 
	C599.655090,464.226990 598.848206,462.972900 598.145081,461.137726 
	C584.624451,425.849121 559.667725,400.587128 527.963989,381.284302 
	C522.677734,378.065765 516.969055,375.722229 510.968964,374.178070 
	C508.062042,373.429932 506.829681,372.053192 506.536102,368.734985 
	C504.784607,348.937988 505.242462,329.092377 505.813324,309.318176 
	C507.461365,252.232361 521.960205,198.958817 555.610352,151.966980 
	C580.414551,117.328423 614.195618,97.461166 656.267944,90.442505 
	C697.213928,83.611740 735.571960,90.830170 772.502686,108.505829 
	C773.534302,108.999565 774.502563,109.625648 776.329346,110.658890 
	C748.759094,138.232971 721.504578,165.491287 694.000488,193.000092 
z"/>
<path fill="#000000" opacity="1.000000" stroke="none" 
	d="
M173.443817,756.698486 
	C240.584259,689.038696 307.504761,621.670105 374.185211,554.543213 
	C386.344971,566.919006 398.271576,579.057434 411.251801,592.268250 
	C408.759979,594.408020 405.157440,597.110962 402.008453,600.266479 
	C372.584259,629.751831 343.241119,659.317993 313.866180,688.852417 
	C308.659515,694.087402 308.661682,694.049561 303.498840,688.908875 
	C300.337128,685.760803 297.499695,682.241333 293.609039,679.807739 
	C290.196167,681.735352 288.067596,684.719360 284.844940,688.187317 
	C290.041077,692.724792 295.110535,697.151672 300.266602,701.654114 
	C268.698242,732.787659 238.269623,762.797119 207.394501,793.246948 
	C204.254654,790.166260 200.248657,786.239380 196.246780,782.308350 
	C189.471527,775.653198 182.655167,769.038818 175.960449,762.303528 
	C174.558365,760.893066 172.146118,759.771667 173.443817,756.698486 
z"/>
<path fill="#000000" opacity="1.000000" stroke="none" 
	d="
M220.764587,395.253448 
	C205.684326,381.115021 190.843811,367.240479 176.071411,353.293762 
	C166.476685,344.235321 166.421967,335.705322 175.747925,326.281067 
	C178.793686,323.203186 181.798630,320.083160 184.902374,317.064758 
	C192.505722,309.670532 201.487305,309.738525 209.175491,316.888092 
	C250.757843,355.557251 292.384216,394.179108 334.011963,432.799469 
	C358.426422,455.450043 382.872589,478.066406 407.297577,500.705688 
	C407.899689,501.263794 408.420135,501.910034 409.037689,502.579071 
	C397.237854,513.845276 385.525818,525.027588 373.338104,536.664124 
	C323.538818,490.503204 272.286041,442.994934 220.764587,395.253448 
z"/>
<path fill="#000000" opacity="1.000000" stroke="none" 
	d="
M193.573029,808.566528 
	C155.189117,847.233459 117.051064,885.647461 78.905640,924.054199 
	C68.107124,934.926636 54.928810,935.007874 44.151054,924.603271 
	C34.161366,914.959473 32.210346,898.518066 43.098969,887.763550 
	C81.726822,849.611206 119.857231,810.955261 158.187271,772.501282 
	C159.817413,770.865906 161.268021,768.991638 164.324799,767.652588 
	C175.276093,779.502380 186.428101,791.569397 197.580109,803.636414 
	C197.971985,804.995911 195.398605,806.232849 193.573029,808.566528 
z"/>
<path fill="#000000" opacity="1.000000" stroke="none" 
	d="
M439.049042,563.052429 
	C432.902435,569.367126 427.003754,575.428162 420.049530,582.573792 
	C415.281250,577.400269 411.120880,572.665649 406.721436,568.164673 
	C400.083130,561.373169 393.312378,554.709778 386.522919,548.068481 
	C384.496979,546.086853 384.055695,544.558960 386.318756,542.275574 
	C409.070099,519.320007 431.731384,496.275238 454.429565,473.266937 
	C454.883606,472.806732 455.476807,472.483765 455.894714,472.177643 
	C457.671906,472.130127 458.372498,473.416138 459.208618,474.366333 
	C468.685669,485.135925 479.092743,495.001984 489.335632,505.009735 
	C492.233154,507.840759 491.778473,509.258240 489.324036,511.745575 
	C472.589020,528.704773 455.960114,545.768677 439.049042,563.052429 
z"/>
<path fill="#000000" opacity="1.000000" stroke="none" 
	d="
M508.292053,656.759521 
	C506.883179,660.670166 505.163635,659.074280 503.440308,657.472351 
	C495.759094,650.331909 488.045319,643.226135 480.401794,636.045593 
	C463.675751,620.332703 447.226959,604.323364 430.409058,589.649353 
	C442.297058,577.662781 454.043732,565.818726 465.811401,553.953552 
	C480.388184,567.440308 495.504669,581.419617 510.612579,595.408142 
	C516.476135,600.837219 522.227905,606.391907 528.214417,611.681274 
	C530.979065,614.123901 531.463989,615.931091 528.858398,619.011292 
	C519.513245,630.058777 512.770813,642.612305 508.292053,656.759521 
z"/>
<path fill="#000000" opacity="1.000000" stroke="none" 
	d="
M520.278809,467.708008 
	C507.768188,454.002380 493.877563,442.303345 480.151947,430.423828 
	C476.881195,427.592926 473.550171,424.808899 470.964478,421.277618 
	C467.505829,416.554077 468.101715,412.055878 472.882080,407.053864 
	C476.919922,402.828796 480.466583,402.161835 485.280212,405.685303 
	C497.243469,414.442108 508.729156,423.837280 519.374390,434.154388 
	C533.252197,447.604462 546.554871,461.615387 558.337646,476.994141 
	C561.273621,480.826172 564.177917,484.655518 566.128723,489.750061 
	C575.171204,486.084778 584.221863,485.420868 592.932922,490.390686 
	C597.586609,493.045715 600.606384,497.209656 602.632996,502.102783 
	C607.452087,513.738342 603.588928,526.717896 592.875671,534.980652 
	C584.819641,541.193970 570.341858,540.969910 561.453491,534.494568 
	C552.045898,527.640747 549.964966,516.027954 555.539246,500.480682 
	C551.169189,501.572571 548.111633,499.578003 545.473511,496.550507 
	C537.164246,487.014862 528.840515,477.491791 520.278809,467.708008 
M584.437073,514.080933 
	C584.867493,512.504456 584.336304,511.059692 583.454102,509.880157 
	C581.249817,506.932678 578.190430,506.495697 575.077087,507.981384 
	C572.247559,509.331726 571.708984,512.011719 572.800110,514.751160 
	C574.163208,518.173950 576.933594,519.303894 580.451416,518.444336 
	C582.364380,517.976868 583.468628,516.537598 584.437073,514.080933 
z"/>
<path fill="#000000" opacity="1.000000" stroke="none" 
	d="
M541.914673,442.079071 
	C527.943787,427.742188 513.134094,414.863220 497.940735,402.410065 
	C497.040100,401.671814 496.115326,400.962158 495.231628,400.204407 
	C491.801483,397.263123 487.876770,394.577667 490.701935,389.022308 
	C492.786896,384.922424 498.591431,382.195007 503.900269,383.083923 
	C512.116821,384.459625 519.289734,388.348328 526.198914,392.690704 
	C549.766846,407.503021 568.363708,427.104675 582.095581,451.312225 
	C584.899719,456.255524 586.913513,461.522614 588.041565,467.104004 
	C589.182129,472.746979 587.069397,476.638947 581.602783,479.080505 
	C576.001038,481.582428 572.685913,480.743286 569.090576,475.721893 
	C560.751953,464.075775 551.740051,452.977325 541.914673,442.079071 
z"/>
<path fill="#000000" opacity="1.000000" stroke="none" 
	d="
M459.857300,453.556976 
	C458.960541,449.387512 461.080994,446.917145 463.415436,444.389465 
	C465.313171,442.334686 466.857727,439.953735 468.686890,437.549225 
	C472.860260,438.744720 475.817200,441.824890 479.026154,444.302856 
	C497.856995,458.843903 513.580688,476.485718 528.778015,494.644012 
	C530.757080,497.008698 530.647278,498.605988 528.076294,500.285706 
	C526.840820,501.092834 525.803833,502.235382 524.771118,503.315979 
	C518.808228,509.555725 514.271484,510.253052 506.982300,505.024139 
	C496.519684,497.518768 487.637909,488.194824 478.972168,478.760162 
	C471.921356,471.083710 463.911560,464.039215 459.857300,453.556976 
z"/>
<path fill="#000000" opacity="1.000000" stroke="none" 
	d="
M777.026123,161.031158 
	C767.203308,170.566620 764.711975,170.874588 752.591980,163.430466 
	C751.754211,162.915939 753.820801,160.999939 754.837769,159.978958 
	C766.588318,148.182770 778.442871,136.488724 790.076721,124.579010 
	C792.607483,121.988312 794.505371,121.631233 797.086365,124.150993 
	C799.796753,126.797165 803.559326,128.222733 806.089478,131.643417 
	C797.492126,142.471497 786.687134,150.947952 777.026123,161.031158 
z"/>
<path fill="#000000" opacity="1.000000" stroke="none" 
	d="
M813.216309,220.154114 
	C806.131531,207.439926 805.930115,207.234909 815.865356,197.474121 
	C825.211243,188.292252 835.043945,179.605942 845.148254,170.252045 
	C847.232971,172.084991 849.220520,176.096954 851.665588,179.732239 
	C852.614014,181.142242 851.749512,182.255127 850.786987,183.241501 
	C838.954346,195.367249 827.119873,207.491226 815.253479,219.583862 
	C814.837158,220.008163 814.084473,220.102356 813.216309,220.154114 
z"/>
<path fill="#000000" opacity="1.000000" stroke="none" 
	d="
M826.950439,159.898041 
	C817.762878,169.316360 808.747131,178.401901 799.941223,187.686554 
	C797.259338,190.514252 795.490112,191.216522 792.402100,187.964249 
	C785.129395,180.304626 784.945801,180.460815 792.375244,172.873581 
	C800.398254,164.680038 808.609009,156.661407 816.399170,148.252701 
	C819.870972,144.505142 822.479797,144.330978 825.492554,148.352112 
	C825.984375,149.008621 826.678040,149.512772 827.271790,150.094177 
	C832.031494,154.754715 832.031006,154.755219 826.950439,159.898041 
z"/>
</svg>