<svg version="1.1" id="Layer_1" xmlns="http://www.w3.org/2000/svg" xmlns:xlink="http://www.w3.org/1999/xlink" x="0px" y="0px"
	 width="100%" viewBox="0 0 1024 1024" enable-background="new 0 0 1024 1024" xml:space="preserve">
<path fill="#FCFCFC" opacity="1.000000" stroke="none" 
	d="
M1025.000000,361.000000 
	C1025.000000,582.666687 1025.000000,803.833313 1025.000000,1025.000000 
	C683.666687,1025.000000 342.333344,1025.000000 1.000000,1025.000000 
	C1.000000,683.666687 1.000000,342.333344 1.000000,1.000000 
	C342.333344,1.000000 683.666687,1.000000 1025.000000,1.000000 
	C1025.000000,120.833336 1025.000000,240.666672 1025.000000,361.000000 
M758.829224,464.150818 
	C758.939819,462.491241 758.962708,460.820404 759.174255,459.173798 
	C761.829590,438.502747 762.930664,417.878326 760.154297,397.050842 
	C755.390381,361.313629 736.174133,338.233978 701.855652,328.517303 
	C698.291748,327.508240 697.284912,326.194641 698.502197,322.637939 
	C700.418701,317.038635 702.030945,311.329071 703.609985,305.621429 
	C712.280762,274.280121 720.083130,242.740219 725.097473,210.571274 
	C726.725342,200.128464 728.356689,189.686203 730.012146,179.079300 
	C730.518982,179.396713 730.891052,179.671814 731.298035,179.877716 
	C733.965454,181.227066 736.640442,182.561462 739.312866,183.900726 
	C740.536865,180.956421 741.781738,178.020447 742.961609,175.058609 
	C743.134399,174.625046 742.965942,174.065353 743.008179,173.568512 
	C744.015015,161.731949 740.957092,150.924362 734.606323,141.008743 
	C731.109619,135.549316 730.820374,129.913437 731.578369,123.502586 
	C733.302246,108.924873 732.680603,100.539688 715.719482,93.466629 
	C708.161926,90.315041 700.188049,87.945847 692.203613,86.071381 
	C658.392883,78.133804 623.829407,76.528793 589.337708,75.173042 
	C560.214417,74.028297 531.032471,73.918549 501.880737,74.086166 
	C473.405975,74.249886 444.897491,74.651543 416.477325,76.253281 
	C394.300049,77.503181 372.120361,80.005196 350.163177,83.387932 
	C336.598572,85.477684 323.094360,89.305824 310.207825,94.090271 
	C295.918793,99.395439 291.734619,107.752861 294.271698,122.760117 
	C295.578217,130.488159 294.223175,136.875549 290.190582,143.463837 
	C283.968903,153.628586 281.084198,164.789474 283.942871,176.723969 
	C284.570435,179.344055 286.208221,183.097183 288.141144,183.644836 
	C290.093994,184.198135 292.985809,181.408157 295.483276,180.115570 
	C295.723541,179.991226 296.083954,180.098969 296.168854,180.098969 
	C298.433838,194.161728 300.583374,208.180344 302.963348,222.159698 
	C310.448822,266.127167 321.310822,309.327179 336.819000,351.075562 
	C351.872070,391.598785 369.077545,431.324554 385.506134,471.331390 
	C387.016663,475.009857 387.202972,477.983917 385.597046,481.681458 
	C384.116760,485.089722 383.206665,489.001556 383.118805,492.716949 
	C382.575409,515.699951 382.149719,538.690247 382.156494,561.677917 
	C382.157776,566.088989 384.268036,570.496155 385.378967,574.911743 
	C385.795868,576.568726 386.741211,578.371826 386.420746,579.892212 
	C383.187561,595.230408 379.728058,610.520630 376.357819,625.830078 
	C365.898712,673.340942 355.307739,720.823364 345.042877,768.376221 
	C336.541229,807.760742 328.611603,847.269104 320.047485,886.639648 
	C316.987061,900.708679 321.039215,911.650269 331.858032,920.639160 
	C340.868927,928.126038 351.225159,933.080872 362.128937,936.979858 
	C399.214905,950.241028 437.991730,954.075134 476.864563,955.701599 
	C505.926300,956.917542 535.115662,955.818970 564.224670,954.955933 
	C590.942993,954.163818 617.383240,950.377014 643.335083,943.893738 
	C660.639526,939.570801 677.483398,933.837769 692.021606,922.961365 
	C703.513977,914.363525 709.799500,903.399231 706.951477,888.585144 
	C705.268127,879.829468 703.440186,871.099548 701.536560,862.388733 
	C693.051880,823.563782 684.519043,784.749329 675.998413,745.932251 
	C667.119629,705.483643 658.235229,665.036194 649.352539,624.588440 
	C646.274475,610.572327 643.273865,596.538513 640.069031,582.551453 
	C639.023254,577.987488 640.227051,575.800903 645.123169,575.244263 
	C651.838257,574.480713 658.479614,573.085510 665.164795,572.038940 
	C702.359497,566.216064 728.846497,545.806641 745.521973,512.469360 
	C752.967407,497.584595 756.130310,481.350342 758.829224,464.150818 
z"/>
<path fill="#050505" opacity="1.000000" stroke="none" 
	d="
M758.697632,464.575104 
	C756.130310,481.350342 752.967407,497.584595 745.521973,512.469360 
	C728.846497,545.806641 702.359497,566.216064 665.164795,572.038940 
	C658.479614,573.085510 651.838257,574.480713 645.123169,575.244263 
	C640.227051,575.800903 639.023254,577.987488 640.069031,582.551453 
	C643.273865,596.538513 646.274475,610.572327 649.352539,624.588440 
	C658.235229,665.036194 667.119629,705.483643 675.998413,745.932251 
	C684.519043,784.749329 693.051880,823.563782 701.536560,862.388733 
	C703.440186,871.099548 705.268127,879.829468 706.951477,888.585144 
	C709.799500,903.399231 703.513977,914.363525 692.021606,922.961365 
	C677.483398,933.837769 660.639526,939.570801 643.335083,943.893738 
	C617.383240,950.377014 590.942993,954.163818 564.224670,954.955933 
	C535.115662,955.818970 505.926300,956.917542 476.864563,955.701599 
	C437.991730,954.075134 399.214905,950.241028 362.128937,936.979858 
	C351.225159,933.080872 340.868927,928.126038 331.858032,920.639160 
	C321.039215,911.650269 316.987061,900.708679 320.047485,886.639648 
	C328.611603,847.269104 336.541229,807.760742 345.042877,768.376221 
	C355.307739,720.823364 365.898712,673.340942 376.357819,625.830078 
	C379.728058,610.520630 383.187561,595.230408 386.420746,579.892212 
	C386.741211,578.371826 385.795868,576.568726 385.378967,574.911743 
	C384.268036,570.496155 382.157776,566.088989 382.156494,561.677917 
	C382.149719,538.690247 382.575409,515.699951 383.118805,492.716949 
	C383.206665,489.001556 384.116760,485.089722 385.597046,481.681458 
	C387.202972,477.983917 387.016663,475.009857 385.506134,471.331390 
	C369.077545,431.324554 351.872070,391.598785 336.819000,351.075562 
	C321.310822,309.327179 310.448822,266.127167 302.963348,222.159698 
	C300.583374,208.180344 298.433838,194.161728 296.168854,180.098969 
	C296.083954,180.098969 295.723541,179.991226 295.483276,180.115570 
	C292.985809,181.408157 290.093994,184.198135 288.141144,183.644836 
	C286.208221,183.097183 284.570435,179.344055 283.942871,176.723969 
	C281.084198,164.789474 283.968903,153.628586 290.190582,143.463837 
	C294.223175,136.875549 295.578217,130.488159 294.271698,122.760117 
	C291.734619,107.752861 295.918793,99.395439 310.207825,94.090271 
	C323.094360,89.305824 336.598572,85.477684 350.163177,83.387932 
	C372.120361,80.005196 394.300049,77.503181 416.477325,76.253281 
	C444.897491,74.651543 473.405975,74.249886 501.880737,74.086166 
	C531.032471,73.918549 560.214417,74.028297 589.337708,75.173042 
	C623.829407,76.528793 658.392883,78.133804 692.203613,86.071381 
	C700.188049,87.945847 708.161926,90.315041 715.719482,93.466629 
	C732.680603,100.539688 733.302246,108.924873 731.578369,123.502586 
	C730.820374,129.913437 731.109619,135.549316 734.606323,141.008743 
	C740.957092,150.924362 744.015015,161.731949 743.008179,173.568512 
	C742.965942,174.065353 743.134399,174.625046 742.961609,175.058609 
	C741.781738,178.020447 740.536865,180.956421 739.312866,183.900726 
	C736.640442,182.561462 733.965454,181.227066 731.298035,179.877716 
	C730.891052,179.671814 730.518982,179.396713 730.012146,179.079300 
	C728.356689,189.686203 726.725342,200.128464 725.097473,210.571274 
	C720.083130,242.740219 712.280762,274.280121 703.609985,305.621429 
	C702.030945,311.329071 700.418701,317.038635 698.502197,322.637939 
	C697.284912,326.194641 698.291748,327.508240 701.855652,328.517303 
	C736.174133,338.233978 755.390381,361.313629 760.154297,397.050842 
	C762.930664,417.878326 761.829590,438.502747 759.174255,459.173798 
	C758.962708,460.820404 758.939819,462.491241 758.697632,464.575104 
M466.916931,212.422058 
	C466.693512,212.391312 466.470093,212.360550 466.246674,212.329803 
	C466.279999,212.715683 466.313354,213.101578 466.733032,214.108109 
	C471.789368,224.120972 476.695831,234.212997 481.933899,244.129883 
	C492.165955,263.501617 502.583313,282.775513 512.923950,302.089905 
	C513.437134,302.133667 513.950378,302.177429 514.463623,302.221191 
	C528.637756,272.654755 545.884888,244.665359 558.754822,214.392990 
	C557.076538,215.473145 555.775085,216.763641 554.809265,218.269409 
	C542.143250,238.016464 529.468201,257.758240 516.935364,277.589752 
	C513.942261,282.325897 512.959961,282.490051 510.036865,277.650604 
	C504.147186,267.899658 498.607452,257.914429 492.277924,248.457794 
	C484.204102,236.394989 475.491669,224.759598 466.916931,212.422058 
M629.677673,313.840210 
	C634.270142,310.057526 638.787598,306.176819 643.509399,302.563049 
	C644.651062,301.689240 646.467773,301.697388 647.974182,301.299988 
	C648.323975,302.996857 649.078552,304.734680 648.912292,306.379395 
	C648.738342,308.100067 647.974548,309.942993 646.955200,311.364258 
	C642.912842,317.000549 639.300903,323.154022 634.350281,327.880829 
	C627.231812,334.677490 624.297729,343.045746 621.889832,352.714844 
	C623.181152,351.802887 623.935974,351.273010 624.687439,350.738617 
	C630.211060,346.811096 635.586182,342.648468 641.308777,339.036285 
	C645.165894,336.601593 647.608337,338.176575 646.840271,342.610962 
	C646.364990,345.355225 644.863525,348.306335 642.951660,350.349640 
	C635.242249,358.589142 627.406067,366.736816 619.193909,374.469482 
	C614.003662,379.356781 610.699158,384.756134 609.686523,392.811310 
	C616.407776,388.143677 621.937866,383.953888 627.841187,380.380585 
	C630.107666,379.008636 633.224915,379.042236 635.954590,378.435394 
	C635.148743,381.259644 635.182922,384.883789 633.389282,386.767517 
	C626.200562,394.317200 619.362610,402.800934 610.689697,408.200256 
	C596.776184,416.862152 592.806519,430.770844 587.453369,444.303650 
	C587.436707,444.345703 587.990295,444.613251 588.108887,444.214813 
	C587.904907,444.141479 587.700867,444.068146 587.496887,443.994812 
	C587.761902,444.248016 588.026855,444.501190 588.447021,444.028595 
	C591.836487,442.001740 595.254272,440.020447 598.607849,437.935760 
	C602.244995,435.674835 606.281494,433.807312 609.354248,430.926147 
	C638.179565,403.898193 654.922791,370.923737 657.955750,331.248047 
	C659.859985,306.338501 657.509583,281.906097 649.799133,258.130249 
	C645.590637,245.153061 641.349487,232.094238 632.426086,220.869003 
	C629.510315,224.003403 626.548889,226.900131 623.913086,230.067932 
	C609.145691,247.816040 597.378235,267.484711 586.472412,287.779907 
	C567.492371,323.100861 558.347717,360.036499 567.091064,400.005829 
	C569.484558,410.947540 572.988586,421.646332 575.983032,432.456573 
	C583.622498,418.290649 583.800720,403.833038 580.492981,389.219696 
	C578.750488,381.521210 576.096802,374.031616 574.233337,366.355743 
	C573.852295,364.786316 575.161865,362.806396 575.692200,361.015717 
	C577.151550,361.904877 579.205261,362.446411 579.964722,363.744904 
	C582.865784,368.704865 585.386108,373.890411 587.975464,379.028595 
	C589.329590,381.715790 590.531494,384.479675 592.085449,387.817474 
	C596.683411,379.595856 594.391113,372.280945 592.340515,365.213257 
	C588.682068,352.604248 584.414917,340.172821 580.629395,327.598755 
	C580.131714,325.945679 580.970337,323.890289 581.347168,320.684296 
	C593.230896,330.270416 596.243896,343.434937 603.410217,355.711304 
	C604.453491,351.579315 606.303955,348.324799 605.804871,345.482941 
	C604.132446,335.960815 601.740723,326.556061 599.389038,317.165344 
	C597.795166,310.800568 595.491760,304.598328 594.194885,298.184021 
	C593.828430,296.371857 595.889221,294.068878 596.836731,291.990997 
	C598.407166,293.217865 600.492554,294.133484 601.456116,295.727325 
	C605.011047,301.607880 608.194885,307.712830 612.095520,314.779205 
	C612.541016,312.063080 613.156006,310.450714 613.001099,308.916046 
	C611.873291,297.743347 610.564697,286.588989 609.369873,275.422821 
	C608.918091,271.200958 607.938660,266.852722 611.450012,262.828888 
	C617.961487,266.388733 615.422302,274.861725 620.686829,279.395569 
	C621.837036,272.863892 622.780579,266.714935 624.027588,260.628143 
	C625.514526,253.370697 627.172852,246.144150 628.986267,238.962097 
	C629.277710,237.808014 630.764648,236.955811 631.698975,235.964081 
	C632.460815,237.120239 633.654175,238.192276 633.899231,239.449173 
	C634.499878,242.530350 634.903381,245.692810 634.955688,248.829742 
	C635.093506,257.093109 635.002319,265.360321 635.002319,273.407135 
	C636.314636,272.567871 638.250183,271.016144 640.442505,270.042694 
	C641.816223,269.432739 644.355225,269.002228 644.988159,269.716675 
	C646.053406,270.919037 646.846558,273.434631 646.289062,274.799377 
	C644.682556,278.731995 642.856567,282.789764 640.180237,286.023193 
	C635.491699,291.687683 632.985901,298.161285 631.089294,305.054108 
	C630.306213,307.899902 629.281006,310.679077 628.071106,313.969635 
	C628.136597,314.232330 628.202087,314.494995 628.267578,314.757721 
	C628.522278,314.516510 628.776978,314.275269 629.677673,313.840210 
M557.499084,92.999832 
	C509.058350,92.706200 460.589020,91.537666 412.262360,96.044975 
	C391.468506,97.984367 370.679932,100.226318 350.015930,103.210281 
	C339.294495,104.758499 328.849915,108.223686 316.928314,111.155334 
	C319.411041,112.782944 320.432922,113.593704 321.573395,114.169701 
	C323.612671,115.199638 325.671509,116.229729 327.812256,117.013924 
	C351.395386,125.652962 376.167419,128.053207 400.884735,129.752701 
	C428.269043,131.635544 455.748169,132.564865 483.199646,132.959579 
	C546.916138,133.875717 610.641602,133.796051 673.819580,123.816109 
	C684.432495,122.139641 694.675964,118.075142 705.041687,114.953011 
	C706.197266,114.604942 707.033813,113.197540 708.018311,112.281403 
	C706.970093,111.373955 706.062317,110.126183 704.846558,109.624397 
	C701.514404,108.248993 698.138184,106.635063 694.628296,106.092102 
	C673.861511,102.879585 653.132019,99.078064 632.235535,97.141846 
	C607.738892,94.872063 583.084290,94.306206 557.499084,92.999832 
M399.021698,348.496368 
	C400.587250,349.639404 402.152832,350.782471 404.404297,352.426331 
	C402.095612,344.002075 399.949036,336.640472 394.227814,330.529633 
	C388.927917,324.868835 384.461365,318.413605 379.804138,312.176575 
	C378.783539,310.809753 378.122772,308.914917 377.995361,307.210968 
	C377.858490,305.380890 378.545227,303.489197 378.872589,301.624390 
	C380.640381,302.142975 382.753784,302.213287 384.113251,303.261475 
	C388.808411,306.881653 393.240753,310.842682 398.268982,315.093048 
	C394.097626,304.262268 392.912720,292.882843 384.985626,284.108246 
	C382.572083,281.436646 381.263947,277.580353 380.118866,274.049561 
	C379.716827,272.809998 380.920441,270.211517 382.123016,269.534943 
	C383.236267,268.908661 385.527588,269.663330 386.941010,270.452759 
	C389.001709,271.603699 390.740875,273.330414 392.946411,275.071625 
	C392.110107,261.561279 389.560486,248.635788 394.764343,235.898636 
	C402.529510,249.303131 401.908600,264.713440 405.844513,280.604828 
	C408.604523,273.791901 410.838379,268.277740 413.422974,261.897919 
	C418.876373,267.534119 417.061249,272.960052 416.491394,277.939636 
	C415.721375,284.668427 413.899902,291.282990 413.239594,298.016205 
	C412.732178,303.190216 413.321533,308.471771 413.423157,313.705505 
	C418.561768,307.122101 422.270691,300.525940 426.208588,294.069397 
	C426.823761,293.060699 428.508453,292.146088 429.648285,292.202637 
	C430.472321,292.243500 431.821442,293.933411 431.873657,294.942871 
	C432.015015,297.676331 432.030365,300.560577 431.311188,303.168732 
	C428.555786,313.161530 425.170715,322.988831 422.653992,333.036530 
	C420.902527,340.028961 418.425598,347.371368 423.736145,354.671021 
	C427.027802,347.656281 429.923584,340.882599 433.359222,334.394806 
	C435.345215,330.644531 438.059235,327.238831 440.760223,323.935242 
	C441.493988,323.037750 443.712860,322.407104 444.623718,322.874573 
	C445.492706,323.320618 445.975159,325.395477 445.861694,326.687042 
	C445.661560,328.964966 444.995026,331.227173 444.321045,333.434052 
	C440.433868,346.162201 436.271942,358.811615 432.667572,371.618408 
	C431.241608,376.684906 430.573517,382.132629 434.195984,388.161011 
	C435.462769,385.473175 436.292236,383.764435 437.078125,382.035889 
	C439.258209,377.240936 441.045959,372.214081 443.730591,367.722290 
	C445.319519,365.063721 448.314209,363.245331 450.676727,361.049133 
	C450.887817,364.306763 451.817169,367.714081 451.175201,370.793884 
	C449.262939,379.968018 446.170898,388.916779 444.586334,398.133514 
	C442.566132,409.884491 444.038513,421.464050 449.412323,433.123871 
	C450.449341,430.470490 451.490723,428.466370 452.023010,426.335114 
	C455.133057,413.882904 458.694244,401.506531 461.026428,388.905243 
	C464.894867,368.003448 463.036591,347.410553 456.243378,327.161804 
	C447.321014,300.566681 433.940094,276.246826 419.099274,252.650452 
	C412.059418,241.457275 404.793457,230.374390 394.420807,221.059998 
	C391.575958,225.737701 388.513397,229.877716 386.366486,234.447876 
	C371.697357,265.673859 365.798126,298.435333 368.855957,332.912628 
	C371.324921,360.750397 379.823425,386.167389 397.223419,408.238800 
	C405.936890,419.291565 414.121704,430.962555 427.161102,437.692322 
	C431.167023,439.759796 434.998169,442.165924 438.788666,444.347473 
	C437.446594,440.929016 435.693054,437.425812 434.686829,433.719727 
	C431.603973,422.364594 423.925842,414.887390 415.059479,407.731171 
	C406.571899,400.880646 399.133362,392.701294 391.506592,384.841248 
	C390.189209,383.483643 390.231445,380.806854 389.645660,378.739349 
	C391.921448,378.904388 394.663513,378.313110 396.386322,379.375153 
	C401.724792,382.666260 406.669159,386.595184 411.781799,390.255157 
	C412.973541,391.108337 414.225952,391.876801 415.983429,393.035706 
	C414.983154,384.243835 410.786652,378.422638 405.229828,373.095245 
	C397.791260,365.963776 390.714417,358.447510 383.649323,350.939301 
	C381.864288,349.042267 380.302704,346.698853 379.415039,344.276001 
	C378.815826,342.640564 379.577911,340.506317 379.731079,338.595184 
	C381.579803,338.779785 383.757874,338.400970 385.216125,339.253510 
	C389.782501,341.922974 394.077393,345.056763 399.021698,348.496368 
M667.843933,409.317322 
	C658.566833,431.462341 649.262390,453.596008 640.071533,475.776794 
	C639.431641,477.321075 638.807556,480.013336 639.581543,480.815186 
	C644.293823,485.697296 643.650330,491.772675 643.987976,497.644043 
	C644.490967,506.390533 644.894714,515.142700 645.350281,524.082275 
	C647.714417,523.690125 649.820435,523.302124 651.938171,522.995300 
	C681.533264,518.707764 697.339539,504.340515 705.119812,475.326752 
	C710.953674,453.571808 711.496094,431.445312 711.217773,409.139679 
	C711.016785,393.039368 702.676392,382.969543 688.980408,376.296875 
	C683.760986,373.753967 682.158508,374.424255 679.921448,379.819641 
	C675.949463,389.399689 671.982300,398.981689 667.843933,409.317322 
M356.569580,160.995926 
	C382.157715,163.646606 407.691101,167.473434 433.347015,168.668671 
	C470.599091,170.404129 507.937988,170.544815 545.243225,170.749405 
	C562.209534,170.842468 579.213257,169.865372 596.147034,168.641144 
	C616.516907,167.168503 636.908997,165.505219 657.142151,162.805557 
	C671.985657,160.825012 686.759888,157.689514 701.244629,153.857697 
	C712.737854,150.817245 715.199219,145.608887 713.546570,133.920654 
	C713.221191,133.920654 712.855286,133.825775 712.565430,133.934158 
	C686.866333,143.545471 659.852844,146.416794 632.854675,148.783524 
	C609.989136,150.787964 587.024414,152.311264 564.082275,152.664978 
	C506.148102,153.558197 448.187256,154.226089 390.424103,148.090103 
	C364.338654,145.319122 338.130615,143.198715 313.423584,133.211594 
	C311.819794,145.782761 315.619781,151.666794 328.150848,154.907608 
	C337.244781,157.259506 346.508270,158.955627 356.569580,160.995926 
M404.016968,674.513428 
	C391.619659,696.420898 381.814392,719.390808 375.576172,743.870789 
	C394.901245,712.333496 412.196899,679.528198 435.582611,650.266663 
	C436.686340,651.317566 437.307312,651.675415 437.579163,652.210632 
	C438.465973,653.955994 439.232147,655.763123 440.032654,657.551880 
	C446.685791,672.418640 452.963837,687.467224 460.069885,702.114197 
	C472.448853,727.629761 487.851959,751.071167 508.895691,770.485657 
	C512.338440,773.661804 514.929016,773.888489 518.037842,770.495544 
	C524.217957,763.750793 531.005188,757.483459 536.574341,750.271973 
	C555.991211,725.129395 569.964050,696.912292 582.071045,667.691589 
	C584.486206,661.862305 587.322632,656.207520 590.697266,648.882507 
	C601.860535,665.484863 612.456543,680.472839 622.222351,695.983643 
	C632.042114,711.580017 641.035645,727.696655 650.391174,743.585327 
	C638.426880,700.396667 619.486511,661.133972 587.162048,628.240356 
	C584.382263,634.660706 582.266113,639.816528 579.940125,644.875732 
	C567.436279,672.072815 557.029419,700.329651 540.936157,725.728882 
	C533.528259,737.420410 524.536377,748.112000 516.192749,759.204346 
	C514.086975,762.003845 511.784973,762.118286 509.452789,759.227478 
	C505.182495,753.934265 500.402313,749.002380 496.565796,743.417603 
	C476.865967,714.741028 462.903961,683.060730 448.930054,651.399841 
	C445.579102,643.807495 442.201538,636.226868 438.621124,628.155945 
	C423.379944,641.235046 414.546204,658.049438 404.016968,674.513428 
M376.897919,789.951233 
	C373.717255,792.747559 370.536591,795.543823 366.832214,798.800598 
	C364.909271,792.880066 363.219879,787.678589 361.476135,782.309692 
	C357.388855,794.644592 356.467163,806.781372 360.622375,820.788208 
	C366.658234,815.169128 371.652496,810.639526 376.508057,805.965881 
	C381.412750,801.244751 382.430786,801.275391 385.888733,807.228821 
	C390.102173,814.483032 394.027527,821.908691 398.378693,829.077393 
	C401.531219,834.271240 402.517181,834.212585 407.077606,830.271729 
	C413.621582,824.616638 420.003998,818.746582 426.839905,813.466125 
	C432.781647,808.876465 435.463348,809.299194 440.323578,814.908508 
	C445.654053,821.060486 450.734619,827.434692 455.774292,833.830139 
	C457.688080,836.258667 459.506226,836.901123 461.971283,834.792542 
	C463.233002,833.713440 464.580994,832.735413 465.847321,831.661438 
	C472.440826,826.069031 479.035950,820.478210 485.598663,814.849731 
	C488.701508,812.188660 491.609283,812.360229 494.191895,815.453430 
	C498.234833,820.295532 502.247406,825.168091 506.116974,830.148804 
	C512.000122,837.721436 513.973083,837.800537 520.007690,830.355774 
	C520.424866,829.841187 520.729309,829.235168 521.147522,828.721619 
	C524.291687,824.860840 527.320679,820.895691 530.637268,817.188232 
	C535.382385,811.883911 537.365356,811.781616 542.648315,816.232239 
	C545.829224,818.912048 548.807800,821.834717 552.023865,824.469421 
	C557.088684,828.618713 562.276978,832.617371 567.940430,837.096985 
	C573.485291,829.960205 578.311340,823.642029 583.252258,817.415039 
	C589.812622,809.147034 593.713623,808.672913 601.876282,815.342773 
	C607.671387,820.078003 613.171387,825.174438 618.969360,829.905884 
	C624.325623,834.276855 624.642822,834.194031 628.294495,828.605042 
	C630.633728,825.024658 632.758789,821.296143 634.830444,817.551270 
	C637.052856,813.533813 638.942749,809.326599 641.273865,805.377075 
	C643.142212,802.211609 645.500732,801.634888 648.319153,804.718750 
	C651.236633,807.910767 654.347168,810.950562 657.585327,813.817383 
	C659.973999,815.932129 662.703430,817.661987 666.205933,820.245605 
	C669.565552,806.663391 668.102783,794.658569 664.450378,782.035217 
	C662.585876,787.927185 660.914124,793.210144 659.014038,799.214600 
	C656.520447,796.862976 654.370239,795.265076 652.759033,793.238647 
	C646.891296,785.858643 639.885437,788.397827 636.016968,795.289124 
	C632.015198,802.417969 627.670227,809.354126 623.053528,817.080505 
	C617.451111,812.315369 612.258240,807.947510 607.119263,803.517151 
	C596.212585,794.114624 588.782288,794.832581 579.968445,805.951660 
	C576.061768,810.880066 571.827698,815.548950 567.708069,820.375671 
	C566.272522,819.630188 565.144531,819.263733 564.288452,818.564392 
	C558.624756,813.937439 552.959351,809.309021 547.409973,804.546509 
	C540.091919,798.266357 534.219788,798.251831 527.442688,805.051819 
	C522.652466,809.858215 518.161865,814.963257 513.344299,820.142761 
	C509.445831,815.804260 505.689117,811.572205 501.876617,807.391052 
	C493.303619,797.989380 487.364044,797.611511 477.597290,805.617310 
	C471.463318,810.645325 465.205200,815.521912 458.557587,820.821289 
	C452.992981,814.168457 447.826447,808.101440 442.786072,801.931335 
	C438.616608,796.827332 433.829193,795.120728 427.883972,798.060730 
	C423.659882,800.149475 419.952698,803.365845 416.211090,806.326965 
	C411.702087,809.895447 407.400909,813.726440 403.027740,817.428528 
	C398.323059,809.378967 394.154388,801.870789 389.603271,794.602051 
	C386.915375,790.309143 383.293823,787.194458 376.897919,789.951233 
M416.817139,887.892212 
	C410.805786,886.752075 404.775146,885.704346 398.786652,884.454651 
	C380.195129,880.574829 362.143768,875.112244 345.436005,865.666016 
	C344.595795,871.635986 346.203522,875.763428 352.393433,879.170654 
	C359.855896,883.278198 367.579376,887.220215 375.635742,889.887024 
	C411.424042,901.733337 448.657257,904.541016 485.962372,905.779480 
	C527.250183,907.150208 568.451599,905.078186 609.337952,898.876221 
	C627.100464,896.181885 644.939026,893.183044 661.506958,885.848083 
	C667.688904,883.111145 673.332886,878.873230 678.646790,874.603638 
	C680.731934,872.928345 681.240845,869.291260 682.467651,866.547668 
	C681.993591,866.287292 681.519592,866.026855 681.045593,865.766479 
	C680.332642,866.114197 679.607788,866.439392 678.908508,866.812744 
	C649.554077,882.489990 617.358093,887.254944 584.952209,890.877136 
	C571.579529,892.371887 558.070312,893.256287 544.618896,893.307617 
	C516.160278,893.416260 487.685150,893.216003 459.244476,892.291504 
	C445.360992,891.840210 431.539581,889.480774 416.817139,887.892212 
M465.937988,604.521545 
	C502.569366,604.289917 539.209839,604.455933 575.827393,603.619324 
	C589.354248,603.310181 602.860474,600.872498 616.309875,598.944336 
	C622.515991,598.054626 623.000244,596.765991 622.540039,589.971741 
	C550.113525,597.836914 477.669434,598.968384 405.231720,590.205200 
	C403.517151,595.350830 404.376831,597.548645 409.114075,598.871033 
	C412.596466,599.843201 416.190033,600.652222 419.782684,600.953064 
	C434.848572,602.214844 449.932800,603.257935 465.937988,604.521545 
M412.831543,496.867859 
	C410.360657,496.576599 407.896576,496.140411 405.417511,496.024353 
	C400.311279,495.785278 398.731018,497.872406 401.079926,502.371246 
	C401.804016,503.758087 404.407379,504.779663 406.215759,504.889404 
	C424.653748,506.008514 443.099548,507.578430 461.554077,507.734680 
	C513.502136,508.174500 565.476562,509.300964 617.354492,505.083252 
	C626.066162,504.375031 626.531738,504.131531 626.282715,495.723663 
	C617.340271,496.446686 608.425232,497.524048 599.484192,497.822693 
	C574.021118,498.673218 548.541565,499.912354 523.079468,499.695984 
	C486.633362,499.386169 450.197052,497.921478 412.831543,496.867859 
M565.135681,254.679428 
	C564.917847,255.119186 564.727783,255.575394 564.478149,255.996353 
	C549.025757,282.055298 533.862427,308.257538 525.698975,337.764160 
	C523.816406,344.568542 522.251587,351.460876 520.540527,358.312744 
	C521.015259,358.480835 521.489929,358.648895 521.964661,358.816986 
	C523.307251,356.608276 524.802368,354.476929 525.967957,352.178467 
	C534.222900,335.899841 542.653931,319.704254 550.569092,303.260895 
	C567.650574,267.775360 589.316711,235.239410 613.372253,204.192368 
	C614.397217,202.869522 614.870605,201.119308 615.600952,199.568192 
	C615.176819,199.237701 614.752625,198.907211 614.328491,198.576721 
	C613.051575,199.163406 611.606201,199.533981 610.527344,200.374832 
	C606.210327,203.739395 601.737427,206.970428 597.810974,210.757614 
	C584.694946,223.408310 574.922058,238.602020 565.135681,254.679428 
M416.971039,209.552200 
	C453.980377,254.432480 477.850067,307.043793 504.167236,358.372742 
	C504.868286,356.581299 505.192871,354.951447 504.814362,353.505737 
	C502.731201,345.549042 500.848480,337.511322 498.215363,329.732147 
	C486.959839,296.479370 469.024841,266.651031 449.882050,237.543060 
	C440.835297,223.786850 430.370697,211.045090 416.861450,201.251831 
	C415.055664,199.942764 412.645447,199.467514 410.515106,198.606155 
	C410.073608,199.157745 409.632111,199.709320 409.190613,200.260910 
	C411.620544,203.184296 414.050446,206.107697 416.971039,209.552200 
M512.632812,671.948730 
	C500.579346,661.595764 488.525848,651.242737 475.607849,640.147278 
	C475.823608,642.102295 475.729706,642.658875 475.948517,643.031982 
	C484.677460,657.915344 495.663422,670.847229 509.253021,681.534302 
	C512.070374,683.749878 514.758362,683.562927 517.192017,681.142151 
	C524.592041,673.781494 532.245239,666.634216 539.142090,658.823120 
	C543.833740,653.509705 547.420959,647.221252 551.502014,641.368774 
	C551.115173,641.066101 550.728333,640.763428 550.341431,640.460754 
	C548.414001,641.938110 546.408447,643.324951 544.572021,644.907837 
	C534.144287,653.895752 523.757080,662.930542 512.632812,671.948730 
M684.173767,218.846725 
	C682.636841,219.633377 681.099976,220.420029 679.297363,221.342682 
	C678.306946,212.070038 679.692017,202.844040 673.194153,194.237885 
	C671.509033,196.783951 669.785950,198.559799 669.020752,200.681183 
	C664.833069,212.290833 666.865784,223.337601 672.389099,234.045944 
	C674.291687,237.734634 676.662598,239.105637 680.004150,236.053696 
	C687.942322,228.803589 695.899109,221.558731 703.484375,213.949005 
	C705.213257,212.214554 705.468201,209.010956 706.883057,205.179565 
	C698.621582,210.136887 691.714111,214.281708 684.173767,218.846725 
M349.569153,237.971359 
	C350.758026,236.944092 352.332123,236.139191 353.073975,234.853928 
	C358.378967,225.663071 360.173645,215.634506 358.643372,205.248795 
	C358.091003,201.499649 355.714783,198.019226 354.170837,194.416168 
	C353.595459,194.529785 353.020081,194.643417 352.444702,194.757034 
	C351.591705,196.822083 350.422668,198.816788 349.944519,200.965256 
	C348.461212,207.630112 347.240479,214.353394 345.924194,221.021744 
	C337.910217,216.182724 329.289398,210.977264 320.668549,205.771805 
	C320.264740,206.227493 319.860962,206.683197 319.457153,207.138885 
	C326.246033,220.066727 336.711365,229.645599 349.569153,237.971359 
M591.286987,698.171509 
	C592.477783,710.037292 593.668579,721.903137 594.859375,733.768921 
	C595.268250,733.724792 595.677124,733.680664 596.085999,733.636597 
	C595.241882,717.244995 599.050110,700.470764 592.737305,684.528992 
	C592.205750,684.551575 591.674255,684.574158 591.142700,684.596741 
	C591.142700,688.812256 591.142700,693.027832 591.286987,698.171509 
M430.912903,697.273682 
	C430.912903,709.170532 430.912903,721.067383 430.912903,732.964233 
	C431.070862,732.998596 431.228821,733.032959 431.386810,733.067322 
	C432.833008,716.883545 434.279205,700.699768 435.725403,684.515991 
	C434.893860,684.396667 434.062317,684.277344 433.230774,684.158020 
	C432.477783,688.232117 431.724823,692.306152 430.912903,697.273682 
M497.035736,867.459473 
	C500.366089,863.861389 498.927643,860.285889 496.389557,857.306030 
	C495.236755,855.952637 491.960175,854.590088 491.025391,855.233765 
	C488.828430,856.746338 486.558319,859.277466 486.046783,861.753601 
	C485.645325,863.697083 487.389893,866.579651 488.976807,868.319031 
	C491.220551,870.778076 494.056305,869.897217 497.035736,867.459473 
M534.275330,869.075684 
	C535.565308,868.417542 537.117798,868.023254 538.095032,867.050781 
	C540.820984,864.337952 540.396423,860.292053 537.341553,856.812317 
	C535.404724,854.606018 532.659546,852.908020 530.591919,855.306519 
	C528.638123,857.572876 527.078186,861.222290 527.389832,864.036865 
	C527.603088,865.962830 531.322998,867.500549 534.275330,869.075684 
M449.953766,857.611633 
	C448.025116,861.614929 449.282257,865.026123 452.885834,866.840332 
	C455.891052,868.353333 459.147125,867.499634 460.934845,864.089661 
	C462.622040,860.871521 461.101257,855.088623 457.939545,853.566223 
	C454.322632,851.824524 452.020874,853.981750 449.953766,857.611633 
M682.410767,265.923065 
	C681.177063,266.304779 679.629761,266.342804 678.766418,267.130432 
	C675.777588,269.857025 674.654602,273.513855 676.893005,276.925781 
	C678.090820,278.751617 681.287537,280.831085 683.014954,280.418854 
	C686.620056,279.558502 688.784790,276.089752 687.784607,272.324371 
	C687.159180,269.969635 684.788757,268.078369 682.410767,265.923065 
M347.595154,267.842865 
	C345.290466,265.527710 342.811371,264.963226 340.172180,267.246368 
	C336.848755,270.121460 337.380432,273.858063 338.617615,277.275421 
	C340.187744,281.612518 344.587036,282.211304 347.709015,278.798950 
	C350.736786,275.489563 350.646942,272.011871 347.595154,267.842865 
M610.541687,851.233154 
	C608.851196,848.886719 606.843811,847.435608 603.848450,848.948975 
	C600.664307,850.557739 598.811768,855.928528 600.400330,859.308289 
	C601.851013,862.394409 604.374634,863.760559 607.720215,862.801575 
	C610.939026,861.878967 612.664917,857.288818 611.500122,853.263306 
	C611.364624,852.795105 611.109802,852.361450 610.541687,851.233154 
M421.290894,863.017883 
	C426.271271,860.457642 427.848145,853.948181 424.090576,850.108459 
	C423.020691,849.015259 419.734772,848.218811 419.168579,848.839661 
	C417.098450,851.110046 414.695984,853.925232 414.399323,856.743652 
	C414.052582,860.037659 416.509003,862.816956 421.290894,863.017883 
M572.998962,866.933777 
	C574.115662,865.984680 575.598206,865.243713 576.279297,864.046692 
	C578.186951,860.694153 577.906372,857.062134 574.915222,854.732239 
	C573.389099,853.543640 569.161926,853.084351 568.568359,853.949951 
	C566.784180,856.551575 565.185181,860.043030 565.414734,863.041748 
	C565.630920,865.866516 568.585632,867.937134 572.998962,866.933777 
M619.917236,445.583191 
	C619.308838,446.724976 618.406738,447.804688 618.149597,449.020752 
	C617.492493,452.127747 617.935913,455.219971 621.123596,456.625580 
	C624.190918,457.978180 626.899780,456.810730 628.747864,453.939331 
	C630.887512,450.614838 629.882263,447.603577 627.575684,444.945740 
	C625.294189,442.316895 622.769592,442.408936 619.917236,445.583191 
M408.005737,452.240082 
	C407.835785,450.787048 408.136780,448.998108 407.392578,447.954620 
	C406.063293,446.090820 404.167664,443.504486 402.388885,443.406891 
	C400.636200,443.310730 398.228455,445.588806 397.005249,447.423370 
	C394.557831,451.093964 396.661224,454.200806 399.747528,456.147217 
	C403.440399,458.476166 406.235229,456.758148 408.005737,452.240082 
M643.016479,843.696106 
	C642.872986,845.586060 642.107117,847.729126 642.746338,849.300781 
	C643.514404,851.189331 645.211548,853.247437 647.015564,853.982178 
	C648.300049,854.505310 650.995789,853.462708 652.061646,852.244080 
	C654.596191,849.346313 654.610413,845.652344 652.056580,842.822815 
	C649.470459,839.957397 646.253174,840.120789 643.016479,843.696106 
M425.967041,764.042175 
	C427.086792,767.020386 428.713898,769.666504 432.393890,768.528564 
	C435.754120,767.489624 437.855438,764.591919 436.780121,761.255005 
	C436.010010,758.864990 433.681671,755.715088 431.576691,755.300720 
	C428.055389,754.607361 426.330872,757.822449 425.920746,761.263977 
	C425.843353,761.913635 425.886719,762.577759 425.967041,764.042175 
M376.915375,841.123718 
	C375.836853,842.098938 373.920410,843.010193 373.840149,844.061646 
	C373.617676,846.977722 373.672760,850.132263 374.661591,852.806763 
	C375.011871,853.754089 379.364777,854.553345 380.161346,853.735596 
	C382.003204,851.845276 383.587921,848.993896 383.809875,846.406311 
	C384.124176,842.742432 381.481873,840.871704 376.915375,841.123718 
M392.694824,754.523804 
	C392.440857,755.782715 391.609985,757.310608 392.046844,758.247314 
	C393.125061,760.559509 394.784698,762.600525 396.210663,764.750488 
	C398.311432,763.229126 401.777252,761.997986 402.177704,760.114990 
	C402.714020,757.593079 401.639679,753.865967 399.865784,751.933167 
	C397.633728,749.501099 394.735840,750.983765 392.694824,754.523804 
M627.821594,751.022278 
	C626.762207,752.025452 624.928101,752.936829 624.796204,754.049927 
	C624.468018,756.821228 624.425232,759.844910 625.275574,762.436646 
	C625.649475,763.576538 629.233215,764.975037 630.035706,764.401978 
	C631.983704,763.011047 634.185608,760.639832 634.409607,758.469971 
	C634.786743,754.816833 633.515808,751.169067 627.821594,751.022278 
M424.946106,473.091095 
	C430.220276,473.228973 432.942596,470.937347 432.662842,466.595184 
	C432.425110,462.904968 429.450378,460.163177 425.963287,461.140625 
	C424.182159,461.639862 421.531921,463.686279 421.554535,464.993927 
	C421.599976,467.620026 423.209656,470.219025 424.946106,473.091095 
M681.782104,296.664886 
	C677.460632,295.884369 675.153259,297.673035 674.710754,302.146637 
	C674.304626,306.252258 676.511230,309.760834 679.644836,309.991852 
	C682.783752,310.223206 685.448242,306.864044 684.935669,302.611542 
	C684.702637,300.678070 683.338501,298.880920 681.782104,296.664886 
M591.373596,767.031494 
	C593.745300,769.440918 596.941162,769.283081 598.164917,766.829712 
	C599.443665,764.265991 599.359558,760.664795 598.800598,757.720276 
	C598.580872,756.562561 594.186951,754.892456 593.869629,755.272461 
	C591.988281,757.525452 590.522339,760.222412 589.423584,762.972717 
	C589.091431,763.804077 590.372009,765.279663 591.373596,767.031494 
M342.783142,308.590393 
	C345.264557,310.764313 347.605438,310.397522 349.652069,308.031647 
	C352.140259,305.155304 351.978760,301.817017 349.983459,298.996338 
	C348.989380,297.591003 345.429230,296.075012 345.089996,296.453857 
	C343.283875,298.470947 341.780243,300.952637 340.903534,303.523071 
	C340.490906,304.732941 341.717041,306.501740 342.783142,308.590393 
M594.921204,463.561523 
	C592.971313,467.203949 593.710693,470.732727 597.102722,472.470428 
	C598.788940,473.334320 603.331238,472.323151 603.791260,471.105835 
	C604.731873,468.617004 604.780151,464.738800 603.373840,462.673523 
	C601.488892,459.905273 597.947021,460.134979 594.921204,463.561523 
M395.026703,631.141663 
	C395.988678,633.943298 397.657471,637.125549 400.758026,635.547363 
	C403.029755,634.390930 405.128021,630.951477 405.345306,628.365051 
	C405.497162,626.557068 402.340912,624.471313 400.662231,622.509583 
	C398.778625,624.461792 396.843811,626.369141 395.057892,628.406982 
	C394.729218,628.781982 395.004059,629.686035 395.026703,631.141663 
M626.835449,635.392822 
	C627.777039,634.499695 629.011841,633.766724 629.603821,632.682678 
	C631.215637,629.730713 629.753784,624.552490 627.104980,623.027832 
	C624.119690,621.309448 622.048645,622.727478 620.552795,625.180420 
	C617.680542,629.890198 620.440491,635.001282 626.835449,635.392822 
M563.009583,769.602661 
	C563.671143,767.816589 564.936584,766.010010 564.876648,764.248474 
	C564.721558,759.684021 560.934570,756.930603 557.774963,758.864258 
	C554.725586,760.730591 553.127563,763.341919 554.753418,767.183716 
	C556.352539,770.962280 558.640564,772.300659 563.009583,769.602661 
M462.242584,762.182251 
	C461.270599,765.606018 462.128754,768.596863 465.125092,770.405212 
	C466.266602,771.094177 468.920868,771.089661 469.641968,770.285645 
	C471.154480,768.599609 472.920349,765.983582 472.587982,764.101624 
	C472.198700,761.897461 470.007935,759.487183 467.945770,758.350708 
	C467.072784,757.869446 464.536041,760.406982 462.242584,762.182251 
M699.057434,247.274429 
	C698.037659,245.225586 697.477600,242.491486 695.826477,241.383698 
	C694.828796,240.714401 691.335876,242.032303 690.405151,243.422256 
	C689.168823,245.268692 688.752686,248.150696 689.118591,250.403503 
	C689.342529,251.782333 692.547058,254.069458 692.947388,253.796783 
	C695.214111,252.252853 697.037903,250.058655 699.057434,247.274429 
M328.437836,250.807434 
	C330.492310,251.734665 332.546783,252.661880 334.601227,253.589096 
	C335.406189,251.574753 336.415741,249.610245 336.924225,247.523651 
	C337.155762,246.573441 336.737244,244.929504 336.019653,244.389572 
	C334.273560,243.075760 332.180176,242.223526 330.226654,241.185379 
	C329.220673,243.228149 328.053070,245.213608 327.297089,247.345047 
	C327.035522,248.082520 327.796448,249.182648 328.437836,250.807434 
M418.172150,730.595337 
	C419.362183,725.431396 416.828644,720.149841 413.621033,721.334839 
	C412.050293,721.915222 410.126190,724.431946 410.207123,725.975464 
	C410.365448,728.995483 411.818298,731.947632 412.735260,734.927917 
	C414.499725,733.736877 416.264191,732.545776 418.172150,730.595337 
M617.012024,728.362061 
	C616.566284,722.713135 613.314758,719.501953 610.760681,722.155457 
	C609.035645,723.947693 608.195801,727.354370 608.369019,729.944702 
	C608.485535,731.687256 611.062927,733.265320 612.539307,734.916992 
	C614.028259,733.001892 615.517212,731.086731 617.012024,728.362061 
M572.229126,740.194946 
	C576.103821,741.797729 576.965027,738.634521 578.084717,736.288696 
	C579.558044,733.201721 577.897278,728.661316 575.095032,728.127747 
	C571.172974,727.381042 569.613831,730.406128 569.347778,733.281006 
	C569.152527,735.390930 570.753540,737.667114 572.229126,740.194946 
M631.898621,663.560303 
	C633.493591,665.788635 636.175659,667.626770 637.900635,665.285278 
	C639.385803,663.269226 639.630127,659.444519 638.802002,656.959717 
	C638.317505,655.505859 634.656494,655.110535 632.424500,654.239014 
	C631.796265,656.562012 631.097290,658.869995 630.595642,661.219971 
	C630.487000,661.729065 631.087402,662.389404 631.898621,663.560303 
M450.029327,728.310608 
	C449.118622,729.245178 447.410187,730.214966 447.449585,731.107544 
	C447.559418,733.596375 448.126099,736.163330 449.074615,738.468140 
	C449.451263,739.383423 451.924347,740.485413 452.382355,740.131226 
	C454.111847,738.793396 456.010468,737.113464 456.726654,735.152771 
	C457.917023,731.894104 454.835297,728.559509 450.029327,728.310608 
M386.880005,659.720398 
	C387.142059,665.014526 389.380310,667.417358 392.579437,665.632751 
	C395.388184,664.065796 397.076050,661.455994 396.015045,658.176880 
	C395.498810,656.581299 393.882416,655.341614 392.764069,653.940857 
	C390.830353,655.589905 388.896637,657.238953 386.880005,659.720398 
z"/>
<path fill="#FAFAFA" opacity="1.000000" stroke="none" 
	d="
M557.998657,93.000557 
	C583.084290,94.306206 607.738892,94.872063 632.235535,97.141846 
	C653.132019,99.078064 673.861511,102.879585 694.628296,106.092102 
	C698.138184,106.635063 701.514404,108.248993 704.846558,109.624397 
	C706.062317,110.126183 706.970093,111.373955 708.018311,112.281410 
	C707.033813,113.197540 706.197266,114.604942 705.041687,114.953011 
	C694.675964,118.075142 684.432495,122.139641 673.819580,123.816109 
	C610.641602,133.796051 546.916138,133.875717 483.199646,132.959579 
	C455.748169,132.564865 428.269043,131.635544 400.884735,129.752701 
	C376.167419,128.053207 351.395386,125.652962 327.812256,117.013924 
	C325.671509,116.229729 323.612671,115.199638 321.573395,114.169701 
	C320.432922,113.593704 319.411041,112.782944 316.928314,111.155334 
	C328.849915,108.223686 339.294495,104.758499 350.015930,103.210281 
	C370.679932,100.226318 391.468506,97.984367 412.262360,96.044975 
	C460.589020,91.537666 509.058350,92.706200 557.998657,93.000557 
z"/>
<path fill="#F8F8F8" opacity="1.000000" stroke="none" 
	d="
M588.277527,444.775482 
	C587.990295,444.613251 587.436707,444.345703 587.453369,444.303650 
	C592.806519,430.770844 596.776184,416.862152 610.689697,408.200256 
	C619.362610,402.800934 626.200562,394.317200 633.389282,386.767517 
	C635.182922,384.883789 635.148743,381.259644 635.954590,378.435394 
	C633.224915,379.042236 630.107666,379.008636 627.841187,380.380585 
	C621.937866,383.953888 616.407776,388.143677 609.686523,392.811310 
	C610.699158,384.756134 614.003662,379.356781 619.193909,374.469482 
	C627.406067,366.736816 635.242249,358.589142 642.951660,350.349640 
	C644.863525,348.306335 646.364990,345.355225 646.840271,342.610962 
	C647.608337,338.176575 645.165894,336.601593 641.308777,339.036285 
	C635.586182,342.648468 630.211060,346.811096 624.687439,350.738617 
	C623.935974,351.273010 623.181152,351.802887 621.889832,352.714844 
	C624.297729,343.045746 627.231812,334.677490 634.350281,327.880829 
	C639.300903,323.154022 642.912842,317.000549 646.955200,311.364258 
	C647.974548,309.942993 648.738342,308.100067 648.912292,306.379395 
	C649.078552,304.734680 648.323975,302.996857 647.974121,301.299988 
	C646.467773,301.697388 644.651062,301.689240 643.509399,302.563049 
	C638.787598,306.176819 634.270142,310.057526 629.197266,313.789734 
	C628.716797,313.739258 628.365906,313.488556 628.365967,313.488586 
	C629.281006,310.679077 630.306213,307.899902 631.089294,305.054108 
	C632.985901,298.161285 635.491699,291.687683 640.180237,286.023193 
	C642.856567,282.789764 644.682556,278.731995 646.289062,274.799377 
	C646.846558,273.434631 646.053406,270.919037 644.988159,269.716675 
	C644.355225,269.002228 641.816223,269.432739 640.442505,270.042694 
	C638.250183,271.016144 636.314636,272.567871 635.002319,273.407135 
	C635.002319,265.360321 635.093506,257.093109 634.955688,248.829742 
	C634.903381,245.692810 634.499878,242.530350 633.899231,239.449173 
	C633.654175,238.192276 632.460815,237.120239 631.698975,235.964066 
	C630.764648,236.955811 629.277710,237.808014 628.986267,238.962097 
	C627.172852,246.144150 625.514526,253.370697 624.027588,260.628143 
	C622.780579,266.714935 621.837036,272.863892 620.686829,279.395569 
	C615.422302,274.861725 617.961487,266.388733 611.450012,262.828888 
	C607.938660,266.852722 608.918091,271.200958 609.369873,275.422821 
	C610.564697,286.588989 611.873291,297.743347 613.001099,308.916046 
	C613.156006,310.450714 612.541016,312.063080 612.095520,314.779205 
	C608.194885,307.712830 605.011047,301.607880 601.456116,295.727325 
	C600.492554,294.133484 598.407166,293.217865 596.836731,291.990967 
	C595.889221,294.068878 593.828430,296.371857 594.194885,298.184021 
	C595.491760,304.598328 597.795166,310.800568 599.389038,317.165344 
	C601.740723,326.556061 604.132446,335.960815 605.804871,345.482941 
	C606.303955,348.324799 604.453491,351.579315 603.410217,355.711304 
	C596.243896,343.434937 593.230896,330.270416 581.347168,320.684296 
	C580.970337,323.890289 580.131714,325.945679 580.629395,327.598755 
	C584.414917,340.172821 588.682068,352.604248 592.340515,365.213257 
	C594.391113,372.280945 596.683411,379.595856 592.085449,387.817474 
	C590.531494,384.479675 589.329590,381.715790 587.975464,379.028595 
	C585.386108,373.890411 582.865784,368.704865 579.964722,363.744904 
	C579.205261,362.446411 577.151550,361.904877 575.692200,361.015717 
	C575.161865,362.806396 573.852295,364.786316 574.233337,366.355743 
	C576.096802,374.031616 578.750488,381.521210 580.492981,389.219696 
	C583.800720,403.833038 583.622498,418.290649 575.983032,432.456573 
	C572.988586,421.646332 569.484558,410.947540 567.091064,400.005829 
	C558.347717,360.036499 567.492371,323.100861 586.472412,287.779907 
	C597.378235,267.484711 609.145691,247.816040 623.913086,230.067932 
	C626.548889,226.900131 629.510315,224.003403 632.426086,220.869003 
	C641.349487,232.094238 645.590637,245.153061 649.799133,258.130249 
	C657.509583,281.906097 659.859985,306.338501 657.955750,331.248047 
	C654.922791,370.923737 638.179565,403.898193 609.354248,430.926147 
	C606.281494,433.807312 602.244995,435.674835 598.607849,437.935760 
	C595.254272,440.020447 591.836487,442.001740 588.348633,444.359863 
	C588.250305,444.691101 588.277527,444.775482 588.277527,444.775482 
z"/>
<path fill="#F8F8F8" opacity="1.000000" stroke="none" 
	d="
M398.749573,348.253510 
	C394.077393,345.056763 389.782501,341.922974 385.216125,339.253510 
	C383.757874,338.400970 381.579803,338.779785 379.731079,338.595215 
	C379.577911,340.506317 378.815826,342.640564 379.415039,344.276001 
	C380.302704,346.698853 381.864288,349.042267 383.649323,350.939301 
	C390.714417,358.447510 397.791260,365.963776 405.229828,373.095245 
	C410.786652,378.422638 414.983154,384.243835 415.983429,393.035706 
	C414.225952,391.876801 412.973541,391.108337 411.781799,390.255157 
	C406.669159,386.595184 401.724792,382.666260 396.386322,379.375153 
	C394.663513,378.313110 391.921448,378.904388 389.645660,378.739380 
	C390.231445,380.806854 390.189209,383.483643 391.506592,384.841248 
	C399.133362,392.701294 406.571899,400.880646 415.059479,407.731171 
	C423.925842,414.887390 431.603973,422.364594 434.686829,433.719727 
	C435.693054,437.425812 437.446594,440.929016 438.788666,444.347473 
	C434.998169,442.165924 431.167023,439.759796 427.161102,437.692322 
	C414.121704,430.962555 405.936890,419.291565 397.223419,408.238800 
	C379.823425,386.167389 371.324921,360.750397 368.855957,332.912628 
	C365.798126,298.435333 371.697357,265.673859 386.366486,234.447876 
	C388.513397,229.877716 391.575958,225.737701 394.420807,221.059998 
	C404.793457,230.374390 412.059418,241.457275 419.099274,252.650452 
	C433.940094,276.246826 447.321014,300.566681 456.243378,327.161804 
	C463.036591,347.410553 464.894867,368.003448 461.026428,388.905243 
	C458.694244,401.506531 455.133057,413.882904 452.023010,426.335114 
	C451.490723,428.466370 450.449341,430.470490 449.412323,433.123871 
	C444.038513,421.464050 442.566132,409.884491 444.586334,398.133514 
	C446.170898,388.916779 449.262939,379.968018 451.175201,370.793884 
	C451.817169,367.714081 450.887817,364.306763 450.676727,361.049133 
	C448.314209,363.245331 445.319519,365.063721 443.730591,367.722290 
	C441.045959,372.214081 439.258209,377.240936 437.078125,382.035889 
	C436.292236,383.764435 435.462769,385.473175 434.195984,388.161011 
	C430.573517,382.132629 431.241608,376.684906 432.667572,371.618408 
	C436.271942,358.811615 440.433868,346.162201 444.321045,333.434052 
	C444.995026,331.227173 445.661560,328.964966 445.861694,326.687042 
	C445.975159,325.395477 445.492706,323.320618 444.623718,322.874573 
	C443.712860,322.407104 441.493988,323.037750 440.760223,323.935242 
	C438.059235,327.238831 435.345215,330.644531 433.359222,334.394806 
	C429.923584,340.882599 427.027802,347.656281 423.736145,354.671021 
	C418.425598,347.371368 420.902527,340.028961 422.653992,333.036530 
	C425.170715,322.988831 428.555786,313.161530 431.311188,303.168732 
	C432.030365,300.560577 432.015015,297.676331 431.873657,294.942871 
	C431.821442,293.933411 430.472321,292.243500 429.648285,292.202637 
	C428.508453,292.146088 426.823761,293.060699 426.208588,294.069397 
	C422.270691,300.525940 418.561768,307.122101 413.423157,313.705505 
	C413.321533,308.471771 412.732178,303.190216 413.239594,298.016205 
	C413.899902,291.282990 415.721375,284.668427 416.491394,277.939636 
	C417.061249,272.960052 418.876373,267.534119 413.422974,261.897919 
	C410.838379,268.277740 408.604523,273.791901 405.844513,280.604828 
	C401.908600,264.713440 402.529510,249.303131 394.764343,235.898636 
	C389.560486,248.635788 392.110107,261.561279 392.946411,275.071625 
	C390.740875,273.330414 389.001709,271.603699 386.941010,270.452759 
	C385.527588,269.663330 383.236267,268.908661 382.123016,269.534943 
	C380.920441,270.211517 379.716827,272.809998 380.118866,274.049561 
	C381.263947,277.580353 382.572083,281.436646 384.985626,284.108246 
	C392.912720,292.882843 394.097626,304.262268 398.268982,315.093048 
	C393.240753,310.842682 388.808411,306.881653 384.113251,303.261475 
	C382.753784,302.213287 380.640381,302.142975 378.872589,301.624390 
	C378.545227,303.489197 377.858490,305.380890 377.995361,307.210968 
	C378.122772,308.914917 378.783539,310.809753 379.804138,312.176575 
	C384.461365,318.413605 388.927917,324.868835 394.227814,330.529633 
	C399.949036,336.640472 402.095612,344.002075 404.404297,352.426331 
	C402.152832,350.782471 400.587250,349.639404 398.749573,348.253510 
z"/>
<path fill="#FBFAFB" opacity="1.000000" stroke="none" 
	d="
M667.928528,408.940094 
	C671.982300,398.981689 675.949463,389.399689 679.921448,379.819641 
	C682.158508,374.424255 683.760986,373.753967 688.980408,376.296875 
	C702.676392,382.969543 711.016785,393.039368 711.217773,409.139679 
	C711.496094,431.445312 710.953674,453.571808 705.119812,475.326752 
	C697.339539,504.340515 681.533264,518.707764 651.938171,522.995300 
	C649.820435,523.302124 647.714417,523.690125 645.350281,524.082275 
	C644.894714,515.142700 644.490967,506.390533 643.987976,497.644043 
	C643.650330,491.772675 644.293823,485.697296 639.581543,480.815186 
	C638.807556,480.013336 639.431641,477.321075 640.071533,475.776794 
	C649.262390,453.596008 658.566833,431.462341 667.928528,408.940094 
z"/>
<path fill="#F9F9F9" opacity="1.000000" stroke="none" 
	d="
M356.132874,160.970032 
	C346.508270,158.955627 337.244781,157.259506 328.150848,154.907608 
	C315.619781,151.666794 311.819794,145.782761 313.423584,133.211594 
	C338.130615,143.198715 364.338654,145.319122 390.424103,148.090103 
	C448.187256,154.226089 506.148102,153.558197 564.082275,152.664978 
	C587.024414,152.311264 609.989136,150.787964 632.854675,148.783524 
	C659.852844,146.416794 686.866333,143.545471 712.565430,133.934158 
	C712.855286,133.825775 713.221191,133.920654 713.546570,133.920654 
	C715.199219,145.608887 712.737854,150.817245 701.244629,153.857697 
	C686.759888,157.689514 671.985657,160.825012 657.142151,162.805557 
	C636.908997,165.505219 616.516907,167.168503 596.147034,168.641144 
	C579.213257,169.865372 562.209534,170.842468 545.243225,170.749405 
	C507.937988,170.544815 470.599091,170.404129 433.347015,168.668671 
	C407.691101,167.473434 382.157715,163.646606 356.132874,160.970032 
z"/>
<path fill="#F8F8F8" opacity="1.000000" stroke="none" 
	d="
M404.232666,674.214172 
	C414.546204,658.049438 423.379944,641.235046 438.621124,628.155945 
	C442.201538,636.226868 445.579102,643.807495 448.930054,651.399841 
	C462.903961,683.060730 476.865967,714.741028 496.565796,743.417603 
	C500.402313,749.002380 505.182495,753.934265 509.452789,759.227478 
	C511.784973,762.118286 514.086975,762.003845 516.192749,759.204346 
	C524.536377,748.112000 533.528259,737.420410 540.936157,725.728882 
	C557.029419,700.329651 567.436279,672.072815 579.940125,644.875732 
	C582.266113,639.816528 584.382263,634.660706 587.162048,628.240356 
	C619.486511,661.133972 638.426880,700.396667 650.391174,743.585327 
	C641.035645,727.696655 632.042114,711.580017 622.222351,695.983643 
	C612.456543,680.472839 601.860535,665.484863 590.697266,648.882507 
	C587.322632,656.207520 584.486206,661.862305 582.071045,667.691589 
	C569.964050,696.912292 555.991211,725.129395 536.574341,750.271973 
	C531.005188,757.483459 524.217957,763.750793 518.037842,770.495544 
	C514.929016,773.888489 512.338440,773.661804 508.895691,770.485657 
	C487.851959,751.071167 472.448853,727.629761 460.069885,702.114197 
	C452.963837,687.467224 446.685791,672.418640 440.032654,657.551880 
	C439.232147,655.763123 438.465973,653.955994 437.579163,652.210632 
	C437.307312,651.675415 436.686340,651.317566 435.582611,650.266663 
	C412.196899,679.528198 394.901245,712.333496 375.576172,743.870789 
	C381.814392,719.390808 391.619659,696.420898 404.232666,674.214172 
z"/>
<path fill="#F8F8F8" opacity="1.000000" stroke="none" 
	d="
M377.250488,789.780518 
	C383.293823,787.194458 386.915375,790.309143 389.603271,794.602051 
	C394.154388,801.870789 398.323059,809.378967 403.027740,817.428528 
	C407.400909,813.726440 411.702087,809.895447 416.211090,806.326965 
	C419.952698,803.365845 423.659882,800.149475 427.883972,798.060730 
	C433.829193,795.120728 438.616608,796.827332 442.786072,801.931335 
	C447.826447,808.101440 452.992981,814.168457 458.557587,820.821289 
	C465.205200,815.521912 471.463318,810.645325 477.597290,805.617310 
	C487.364044,797.611511 493.303619,797.989380 501.876617,807.391052 
	C505.689117,811.572205 509.445831,815.804260 513.344299,820.142761 
	C518.161865,814.963257 522.652466,809.858215 527.442688,805.051819 
	C534.219788,798.251831 540.091919,798.266357 547.409973,804.546509 
	C552.959351,809.309021 558.624756,813.937439 564.288452,818.564392 
	C565.144531,819.263733 566.272522,819.630188 567.708069,820.375671 
	C571.827698,815.548950 576.061768,810.880066 579.968445,805.951660 
	C588.782288,794.832581 596.212585,794.114624 607.119263,803.517151 
	C612.258240,807.947510 617.451111,812.315369 623.053528,817.080505 
	C627.670227,809.354126 632.015198,802.417969 636.016968,795.289124 
	C639.885437,788.397827 646.891296,785.858643 652.759033,793.238647 
	C654.370239,795.265076 656.520447,796.862976 659.014038,799.214600 
	C660.914124,793.210144 662.585876,787.927185 664.450378,782.035217 
	C668.102783,794.658569 669.565552,806.663391 666.205933,820.245605 
	C662.703430,817.661987 659.973999,815.932129 657.585327,813.817383 
	C654.347168,810.950562 651.236633,807.910767 648.319153,804.718750 
	C645.500732,801.634888 643.142212,802.211609 641.273865,805.377075 
	C638.942749,809.326599 637.052856,813.533813 634.830444,817.551270 
	C632.758789,821.296143 630.633728,825.024658 628.294495,828.605042 
	C624.642822,834.194031 624.325623,834.276855 618.969360,829.905884 
	C613.171387,825.174438 607.671387,820.078003 601.876282,815.342773 
	C593.713623,808.672913 589.812622,809.147034 583.252258,817.415039 
	C578.311340,823.642029 573.485291,829.960205 567.940430,837.096985 
	C562.276978,832.617371 557.088684,828.618713 552.023865,824.469421 
	C548.807800,821.834717 545.829224,818.912048 542.648315,816.232239 
	C537.365356,811.781616 535.382385,811.883911 530.637268,817.188232 
	C527.320679,820.895691 524.291687,824.860840 521.147522,828.721619 
	C520.729309,829.235168 520.424866,829.841187 520.007690,830.355774 
	C513.973083,837.800537 512.000122,837.721436 506.116974,830.148804 
	C502.247406,825.168091 498.234833,820.295532 494.191895,815.453430 
	C491.609283,812.360229 488.701508,812.188660 485.598663,814.849731 
	C479.035950,820.478210 472.440826,826.069031 465.847321,831.661438 
	C464.580994,832.735413 463.233002,833.713440 461.971283,834.792542 
	C459.506226,836.901123 457.688080,836.258667 455.774292,833.830139 
	C450.734619,827.434692 445.654053,821.060486 440.323578,814.908508 
	C435.463348,809.299194 432.781647,808.876465 426.839905,813.466125 
	C420.003998,818.746582 413.621582,824.616638 407.077606,830.271729 
	C402.517181,834.212585 401.531219,834.271240 398.378693,829.077393 
	C394.027527,821.908691 390.102173,814.483032 385.888733,807.228821 
	C382.430786,801.275391 381.412750,801.244751 376.508057,805.965881 
	C371.652496,810.639526 366.658234,815.169128 360.622375,820.788208 
	C356.467163,806.781372 357.388855,794.644592 361.476135,782.309692 
	C363.219879,787.678589 364.909271,792.880066 366.832214,798.800598 
	C370.536591,795.543823 373.717255,792.747559 377.250488,789.780518 
z"/>
<path fill="#F8F8F8" opacity="1.000000" stroke="none" 
	d="
M417.253601,887.938599 
	C431.539581,889.480774 445.360992,891.840210 459.244476,892.291504 
	C487.685150,893.216003 516.160278,893.416260 544.618896,893.307617 
	C558.070312,893.256287 571.579529,892.371887 584.952209,890.877136 
	C617.358093,887.254944 649.554077,882.489990 678.908508,866.812744 
	C679.607788,866.439392 680.332642,866.114197 681.045593,865.766479 
	C681.519592,866.026855 681.993591,866.287292 682.467651,866.547668 
	C681.240845,869.291260 680.731934,872.928345 678.646790,874.603638 
	C673.332886,878.873230 667.688904,883.111145 661.506958,885.848083 
	C644.939026,893.183044 627.100464,896.181885 609.337952,898.876221 
	C568.451599,905.078186 527.250183,907.150208 485.962372,905.779480 
	C448.657257,904.541016 411.424042,901.733337 375.635742,889.887024 
	C367.579376,887.220215 359.855896,883.278198 352.393433,879.170654 
	C346.203522,875.763428 344.595795,871.635986 345.436005,865.666016 
	C362.143768,875.112244 380.195129,880.574829 398.786652,884.454651 
	C404.775146,885.704346 410.805786,886.752075 417.253601,887.938599 
z"/>
<path fill="#F7F7F7" opacity="1.000000" stroke="none" 
	d="
M465.474152,604.451294 
	C449.932800,603.257935 434.848572,602.214844 419.782684,600.953064 
	C416.190033,600.652222 412.596466,599.843201 409.114075,598.871033 
	C404.376831,597.548645 403.517151,595.350830 405.231720,590.205200 
	C477.669434,598.968384 550.113525,597.836914 622.540039,589.971741 
	C623.000244,596.765991 622.515991,598.054626 616.309875,598.944336 
	C602.860474,600.872498 589.354248,603.310181 575.827393,603.619324 
	C539.209839,604.455933 502.569366,604.289917 465.474152,604.451294 
z"/>
<path fill="#F7F7F7" opacity="1.000000" stroke="none" 
	d="
M413.294037,496.908905 
	C450.197052,497.921478 486.633362,499.386169 523.079468,499.695984 
	C548.541565,499.912354 574.021118,498.673218 599.484192,497.822693 
	C608.425232,497.524048 617.340271,496.446686 626.282715,495.723663 
	C626.531738,504.131531 626.066162,504.375031 617.354492,505.083252 
	C565.476562,509.300964 513.502136,508.174500 461.554077,507.734680 
	C443.099548,507.578430 424.653748,506.008514 406.215759,504.889404 
	C404.407379,504.779663 401.804016,503.758087 401.079926,502.371246 
	C398.731018,497.872406 400.311279,495.785278 405.417511,496.024353 
	C407.896576,496.140411 410.360657,496.576599 413.294037,496.908905 
z"/>
<path fill="#F7F7F7" opacity="1.000000" stroke="none" 
	d="
M565.353149,254.382080 
	C574.922058,238.602020 584.694946,223.408310 597.810974,210.757614 
	C601.737427,206.970428 606.210327,203.739395 610.527344,200.374832 
	C611.606201,199.533981 613.051575,199.163406 614.328491,198.576721 
	C614.752625,198.907211 615.176819,199.237701 615.600952,199.568192 
	C614.870605,201.119308 614.397217,202.869522 613.372253,204.192368 
	C589.316711,235.239410 567.650574,267.775360 550.569092,303.260895 
	C542.653931,319.704254 534.222900,335.899841 525.967957,352.178467 
	C524.802368,354.476929 523.307251,356.608276 521.964661,358.816986 
	C521.489929,358.648895 521.015259,358.480835 520.540527,358.312744 
	C522.251587,351.460876 523.816406,344.568542 525.698975,337.764160 
	C533.862427,308.257538 549.025757,282.055298 564.478149,255.996353 
	C564.727783,255.575394 564.917847,255.119186 565.353149,254.382080 
z"/>
<path fill="#F7F7F7" opacity="1.000000" stroke="none" 
	d="
M416.725708,209.291641 
	C414.050446,206.107697 411.620544,203.184296 409.190613,200.260910 
	C409.632111,199.709320 410.073608,199.157745 410.515106,198.606155 
	C412.645447,199.467514 415.055664,199.942764 416.861450,201.251831 
	C430.370697,211.045090 440.835297,223.786850 449.882050,237.543060 
	C469.024841,266.651031 486.959839,296.479370 498.215363,329.732147 
	C500.848480,337.511322 502.731201,345.549042 504.814362,353.505737 
	C505.192871,354.951447 504.868286,356.581299 504.167236,358.372742 
	C477.850067,307.043793 453.980377,254.432480 416.725708,209.291641 
z"/>
<path fill="#F7F7F7" opacity="1.000000" stroke="none" 
	d="
M467.054474,212.939972 
	C475.491669,224.759598 484.204102,236.394989 492.277924,248.457794 
	C498.607452,257.914429 504.147186,267.899658 510.036865,277.650604 
	C512.959961,282.490051 513.942261,282.325897 516.935364,277.589752 
	C529.468201,257.758240 542.143250,238.016464 554.809265,218.269409 
	C555.775085,216.763641 557.076538,215.473145 558.754822,214.392990 
	C545.884888,244.665359 528.637756,272.654755 514.463623,302.221191 
	C513.950378,302.177429 513.437134,302.133667 512.923950,302.089905 
	C502.583313,282.775513 492.165955,263.501617 481.933899,244.129883 
	C476.695831,234.212997 471.789368,224.120972 466.727264,213.674438 
	C466.721497,213.240784 467.054474,212.939972 467.054474,212.939972 
z"/>
<path fill="#F7F7F7" opacity="1.000000" stroke="none" 
	d="
M512.994446,671.949097 
	C523.757080,662.930542 534.144287,653.895752 544.572021,644.907837 
	C546.408447,643.324951 548.414001,641.938110 550.341431,640.460754 
	C550.728333,640.763428 551.115173,641.066101 551.502014,641.368774 
	C547.420959,647.221252 543.833740,653.509705 539.142090,658.823120 
	C532.245239,666.634216 524.592041,673.781494 517.192017,681.142151 
	C514.758362,683.562927 512.070374,683.749878 509.253021,681.534302 
	C495.663422,670.847229 484.677460,657.915344 475.948517,643.031982 
	C475.729706,642.658875 475.823608,642.102295 475.607849,640.147278 
	C488.525848,651.242737 500.579346,661.595764 512.994446,671.949097 
z"/>
<path fill="#F8F8F8" opacity="1.000000" stroke="none" 
	d="
M684.490234,218.636627 
	C691.714111,214.281708 698.621582,210.136887 706.883057,205.179565 
	C705.468201,209.010956 705.213257,212.214554 703.484375,213.949005 
	C695.899109,221.558731 687.942322,228.803589 680.004150,236.053696 
	C676.662598,239.105637 674.291687,237.734634 672.389099,234.045944 
	C666.865784,223.337601 664.833069,212.290833 669.020752,200.681183 
	C669.785950,198.559799 671.509033,196.783951 673.194153,194.237885 
	C679.692017,202.844040 678.306946,212.070038 679.297363,221.342682 
	C681.099976,220.420029 682.636841,219.633377 684.490234,218.636627 
z"/>
<path fill="#F9F9F9" opacity="1.000000" stroke="none" 
	d="
M349.230408,237.816803 
	C336.711365,229.645599 326.246033,220.066727 319.457153,207.138885 
	C319.860962,206.683197 320.264740,206.227493 320.668549,205.771805 
	C329.289398,210.977264 337.910217,216.182724 345.924194,221.021744 
	C347.240479,214.353394 348.461212,207.630112 349.944519,200.965256 
	C350.422668,198.816788 351.591705,196.822083 352.444702,194.757034 
	C353.020081,194.643417 353.595459,194.529785 354.170837,194.416168 
	C355.714783,198.019226 358.091003,201.499649 358.643372,205.248795 
	C360.173645,215.634506 358.378967,225.663071 353.073975,234.853928 
	C352.332123,236.139191 350.758026,236.944092 349.230408,237.816803 
z"/>
<path fill="#EFEFEF" opacity="1.000000" stroke="none" 
	d="
M591.214844,697.707458 
	C591.142700,693.027832 591.142700,688.812256 591.142700,684.596741 
	C591.674255,684.574158 592.205750,684.551575 592.737305,684.528992 
	C599.050110,700.470764 595.241882,717.244995 596.085999,733.636597 
	C595.677124,733.680664 595.268250,733.724792 594.859375,733.768921 
	C593.668579,721.903137 592.477783,710.037292 591.214844,697.707458 
z"/>
<path fill="#F3F3F3" opacity="1.000000" stroke="none" 
	d="
M430.942383,696.826904 
	C431.724823,692.306152 432.477783,688.232117 433.230774,684.158020 
	C434.062317,684.277344 434.893860,684.396667 435.725403,684.515991 
	C434.279205,700.699768 432.833008,716.883545 431.386810,733.067322 
	C431.228821,733.032959 431.070862,732.998596 430.912903,732.964233 
	C430.912903,721.067383 430.912903,709.170532 430.942383,696.826904 
z"/>
<path fill="#F5F5F5" opacity="1.000000" stroke="none" 
	d="
M496.773071,867.735840 
	C494.056305,869.897217 491.220551,870.778076 488.976807,868.319031 
	C487.389893,866.579651 485.645325,863.697083 486.046783,861.753601 
	C486.558319,859.277466 488.828430,856.746338 491.025391,855.233765 
	C491.960175,854.590088 495.236755,855.952637 496.389557,857.306030 
	C498.927643,860.285889 500.366089,863.861389 496.773071,867.735840 
z"/>
<path fill="#F5F5F5" opacity="1.000000" stroke="none" 
	d="
M533.875305,869.143738 
	C531.322998,867.500549 527.603088,865.962830 527.389832,864.036865 
	C527.078186,861.222290 528.638123,857.572876 530.591919,855.306519 
	C532.659546,852.908020 535.404724,854.606018 537.341553,856.812317 
	C540.396423,860.292053 540.820984,864.337952 538.095032,867.050781 
	C537.117798,868.023254 535.565308,868.417542 533.875305,869.143738 
z"/>
<path fill="#F5F5F5" opacity="1.000000" stroke="none" 
	d="
M450.081696,857.248779 
	C452.020874,853.981750 454.322632,851.824524 457.939545,853.566223 
	C461.101257,855.088623 462.622040,860.871521 460.934845,864.089661 
	C459.147125,867.499634 455.891052,868.353333 452.885834,866.840332 
	C449.282257,865.026123 448.025116,861.614929 450.081696,857.248779 
z"/>
<path fill="#F6F6F6" opacity="1.000000" stroke="none" 
	d="
M682.806030,265.951111 
	C684.788757,268.078369 687.159180,269.969635 687.784607,272.324371 
	C688.784790,276.089752 686.620056,279.558502 683.014954,280.418854 
	C681.287537,280.831085 678.090820,278.751617 676.893005,276.925781 
	C674.654602,273.513855 675.777588,269.857025 678.766418,267.130432 
	C679.629761,266.342804 681.177063,266.304779 682.806030,265.951111 
z"/>
<path fill="#F7F7F7" opacity="1.000000" stroke="none" 
	d="
M347.823700,268.162842 
	C350.646942,272.011871 350.736786,275.489563 347.709015,278.798950 
	C344.587036,282.211304 340.187744,281.612518 338.617615,277.275421 
	C337.380432,273.858063 336.848755,270.121460 340.172180,267.246368 
	C342.811371,264.963226 345.290466,265.527710 347.823700,268.162842 
z"/>
<path fill="#F6F6F6" opacity="1.000000" stroke="none" 
	d="
M610.726074,851.572449 
	C611.109802,852.361450 611.364624,852.795105 611.500122,853.263306 
	C612.664917,857.288818 610.939026,861.878967 607.720215,862.801575 
	C604.374634,863.760559 601.851013,862.394409 600.400330,859.308289 
	C598.811768,855.928528 600.664307,850.557739 603.848450,848.948975 
	C606.843811,847.435608 608.851196,848.886719 610.726074,851.572449 
z"/>
<path fill="#F5F5F5" opacity="1.000000" stroke="none" 
	d="
M420.893768,863.039612 
	C416.509003,862.816956 414.052582,860.037659 414.399323,856.743652 
	C414.695984,853.925232 417.098450,851.110046 419.168579,848.839661 
	C419.734772,848.218811 423.020691,849.015259 424.090576,850.108459 
	C427.848145,853.948181 426.271271,860.457642 420.893768,863.039612 
z"/>
<path fill="#F8F8F8" opacity="1.000000" stroke="none" 
	d="
M572.593628,867.008911 
	C568.585632,867.937134 565.630920,865.866516 565.414734,863.041748 
	C565.185181,860.043030 566.784180,856.551575 568.568359,853.949951 
	C569.161926,853.084351 573.389099,853.543640 574.915222,854.732239 
	C577.906372,857.062134 578.186951,860.694153 576.279297,864.046692 
	C575.598206,865.243713 574.115662,865.984680 572.593628,867.008911 
z"/>
<path fill="#F5F5F5" opacity="1.000000" stroke="none" 
	d="
M620.143677,445.269196 
	C622.769592,442.408936 625.294189,442.316895 627.575684,444.945740 
	C629.882263,447.603577 630.887512,450.614838 628.747864,453.939331 
	C626.899780,456.810730 624.190918,457.978180 621.123596,456.625580 
	C617.935913,455.219971 617.492493,452.127747 618.149597,449.020752 
	C618.406738,447.804688 619.308838,446.724976 620.143677,445.269196 
z"/>
<path fill="#F5F5F5" opacity="1.000000" stroke="none" 
	d="
M407.997253,452.648651 
	C406.235229,456.758148 403.440399,458.476166 399.747528,456.147217 
	C396.661224,454.200806 394.557831,451.093964 397.005249,447.423370 
	C398.228455,445.588806 400.636200,443.310730 402.388885,443.406891 
	C404.167664,443.504486 406.063293,446.090820 407.392578,447.954620 
	C408.136780,448.998108 407.835785,450.787048 407.997253,452.648651 
z"/>
<path fill="#F5F5F5" opacity="1.000000" stroke="none" 
	d="
M643.231689,843.363342 
	C646.253174,840.120789 649.470459,839.957397 652.056580,842.822815 
	C654.610413,845.652344 654.596191,849.346313 652.061646,852.244080 
	C650.995789,853.462708 648.300049,854.505310 647.015564,853.982178 
	C645.211548,853.247437 643.514404,851.189331 642.746338,849.300781 
	C642.107117,847.729126 642.872986,845.586060 643.231689,843.363342 
z"/>
<path fill="#F6F6F6" opacity="1.000000" stroke="none" 
	d="
M425.920654,763.638672 
	C425.886719,762.577759 425.843353,761.913635 425.920746,761.263977 
	C426.330872,757.822449 428.055389,754.607361 431.576691,755.300720 
	C433.681671,755.715088 436.010010,758.864990 436.780121,761.255005 
	C437.855438,764.591919 435.754120,767.489624 432.393890,768.528564 
	C428.713898,769.666504 427.086792,767.020386 425.920654,763.638672 
z"/>
<path fill="#F7F7F7" opacity="1.000000" stroke="none" 
	d="
M377.312317,841.074707 
	C381.481873,840.871704 384.124176,842.742432 383.809875,846.406311 
	C383.587921,848.993896 382.003204,851.845276 380.161346,853.735596 
	C379.364777,854.553345 375.011871,853.754089 374.661591,852.806763 
	C373.672760,850.132263 373.617676,846.977722 373.840149,844.061646 
	C373.920410,843.010193 375.836853,842.098938 377.312317,841.074707 
z"/>
<path fill="#F6F6F6" opacity="1.000000" stroke="none" 
	d="
M392.829803,754.139771 
	C394.735840,750.983765 397.633728,749.501099 399.865784,751.933167 
	C401.639679,753.865967 402.714020,757.593079 402.177704,760.114990 
	C401.777252,761.997986 398.311432,763.229126 396.210632,764.750488 
	C394.784698,762.600525 393.125061,760.559509 392.046844,758.247314 
	C391.609985,757.310608 392.440857,755.782715 392.829803,754.139771 
z"/>
<path fill="#F5F5F5" opacity="1.000000" stroke="none" 
	d="
M628.218689,751.005615 
	C633.515808,751.169067 634.786743,754.816833 634.409607,758.469971 
	C634.185608,760.639832 631.983704,763.011047 630.035706,764.401978 
	C629.233215,764.975037 625.649475,763.576538 625.275574,762.436646 
	C624.425232,759.844910 624.468018,756.821228 624.796204,754.049927 
	C624.928101,752.936829 626.762207,752.025452 628.218689,751.005615 
z"/>
<path fill="#F5F5F5" opacity="1.000000" stroke="none" 
	d="
M424.559937,472.960144 
	C423.209656,470.219025 421.599976,467.620026 421.554535,464.993927 
	C421.531921,463.686279 424.182159,461.639862 425.963287,461.140625 
	C429.450378,460.163177 432.425110,462.904968 432.662842,466.595184 
	C432.942596,470.937347 430.220276,473.228973 424.559937,472.960144 
z"/>
<path fill="#F7F7F7" opacity="1.000000" stroke="none" 
	d="
M682.134766,296.843384 
	C683.338501,298.880920 684.702637,300.678070 684.935669,302.611542 
	C685.448242,306.864044 682.783752,310.223206 679.644836,309.991852 
	C676.511230,309.760834 674.304626,306.252258 674.710754,302.146637 
	C675.153259,297.673035 677.460632,295.884369 682.134766,296.843384 
z"/>
<path fill="#F4F4F4" opacity="1.000000" stroke="none" 
	d="
M591.143738,766.745850 
	C590.372009,765.279663 589.091431,763.804077 589.423584,762.972717 
	C590.522339,760.222412 591.988281,757.525452 593.869629,755.272461 
	C594.186951,754.892456 598.580872,756.562561 598.800598,757.720276 
	C599.359558,760.664795 599.443665,764.265991 598.164917,766.829712 
	C596.941162,769.283081 593.745300,769.440918 591.143738,766.745850 
z"/>
<path fill="#F7F7F7" opacity="1.000000" stroke="none" 
	d="
M342.491852,308.303833 
	C341.717041,306.501740 340.490906,304.732941 340.903534,303.523071 
	C341.780243,300.952637 343.283875,298.470947 345.089996,296.453857 
	C345.429230,296.075012 348.989380,297.591003 349.983459,298.996338 
	C351.978760,301.817017 352.140259,305.155304 349.652069,308.031647 
	C347.605438,310.397522 345.264557,310.764313 342.491852,308.303833 
z"/>
<path fill="#F6F6F6" opacity="1.000000" stroke="none" 
	d="
M595.090698,463.194519 
	C597.947021,460.134979 601.488892,459.905273 603.373840,462.673523 
	C604.780151,464.738800 604.731873,468.617004 603.791260,471.105835 
	C603.331238,472.323151 598.788940,473.334320 597.102722,472.470428 
	C593.710693,470.732727 592.971313,467.203949 595.090698,463.194519 
z"/>
<path fill="#F4F4F4" opacity="1.000000" stroke="none" 
	d="
M395.013550,630.743774 
	C395.004059,629.686035 394.729218,628.781982 395.057892,628.406982 
	C396.843811,626.369141 398.778625,624.461792 400.662231,622.509583 
	C402.340912,624.471313 405.497162,626.557068 405.345306,628.365051 
	C405.128021,630.951477 403.029755,634.390930 400.758026,635.547363 
	C397.657471,637.125549 395.988678,633.943298 395.013550,630.743774 
z"/>
<path fill="#F6F6F6" opacity="1.000000" stroke="none" 
	d="
M626.495117,635.584412 
	C620.440491,635.001282 617.680542,629.890198 620.552795,625.180420 
	C622.048645,622.727478 624.119690,621.309448 627.104980,623.027832 
	C629.753784,624.552490 631.215637,629.730713 629.603821,632.682678 
	C629.011841,633.766724 627.777039,634.499695 626.495117,635.584412 
z"/>
<path fill="#F3F3F3" opacity="1.000000" stroke="none" 
	d="
M562.709167,769.869141 
	C558.640564,772.300659 556.352539,770.962280 554.753418,767.183716 
	C553.127563,763.341919 554.725586,760.730591 557.774963,758.864258 
	C560.934570,756.930603 564.721558,759.684021 564.876648,764.248474 
	C564.936584,766.010010 563.671143,767.816589 562.709167,769.869141 
z"/>
<path fill="#F6F6F6" opacity="1.000000" stroke="none" 
	d="
M462.499023,761.877319 
	C464.536041,760.406982 467.072784,757.869446 467.945770,758.350708 
	C470.007935,759.487183 472.198700,761.897461 472.587982,764.101624 
	C472.920349,765.983582 471.154480,768.599609 469.641968,770.285645 
	C468.920868,771.089661 466.266602,771.094177 465.125092,770.405212 
	C462.128754,768.596863 461.270599,765.606018 462.499023,761.877319 
z"/>
<path fill="#F5F5F5" opacity="1.000000" stroke="none" 
	d="
M699.034973,247.680145 
	C697.037903,250.058655 695.214111,252.252853 692.947388,253.796783 
	C692.547058,254.069458 689.342529,251.782333 689.118591,250.403503 
	C688.752686,248.150696 689.168823,245.268692 690.405151,243.422256 
	C691.335876,242.032303 694.828796,240.714401 695.826477,241.383698 
	C697.477600,242.491486 698.037659,245.225586 699.034973,247.680145 
z"/>
<path fill="#F4F4F4" opacity="1.000000" stroke="none" 
	d="
M328.264099,250.462280 
	C327.796448,249.182648 327.035522,248.082520 327.297089,247.345047 
	C328.053070,245.213608 329.220673,243.228149 330.226654,241.185379 
	C332.180176,242.223526 334.273560,243.075760 336.019653,244.389572 
	C336.737244,244.929504 337.155762,246.573441 336.924225,247.523651 
	C336.415741,249.610245 335.406189,251.574753 334.601257,253.589111 
	C332.546783,252.661880 330.492310,251.734665 328.264099,250.462280 
z"/>
<path fill="#F1F2F2" opacity="1.000000" stroke="none" 
	d="
M418.100403,730.975037 
	C416.264191,732.545776 414.499725,733.736877 412.735260,734.927917 
	C411.818298,731.947632 410.365448,728.995483 410.207123,725.975464 
	C410.126190,724.431946 412.050293,721.915222 413.621033,721.334839 
	C416.828644,720.149841 419.362183,725.431396 418.100403,730.975037 
z"/>
<path fill="#F5F5F5" opacity="1.000000" stroke="none" 
	d="
M617.009094,728.766846 
	C615.517212,731.086731 614.028259,733.001892 612.539307,734.916992 
	C611.062927,733.265320 608.485535,731.687256 608.369019,729.944702 
	C608.195801,727.354370 609.035645,723.947693 610.760681,722.155457 
	C613.314758,719.501953 616.566284,722.713135 617.009094,728.766846 
z"/>
<path fill="#F1F2F2" opacity="1.000000" stroke="none" 
	d="
M571.891541,740.032104 
	C570.753540,737.667114 569.152527,735.390930 569.347778,733.281006 
	C569.613831,730.406128 571.172974,727.381042 575.095032,728.127747 
	C577.897278,728.661316 579.558044,733.201721 578.084717,736.288696 
	C576.965027,738.634521 576.103821,741.797729 571.891541,740.032104 
z"/>
<path fill="#F8F8F8" opacity="1.000000" stroke="none" 
	d="
M631.629944,663.270142 
	C631.087402,662.389404 630.487000,661.729065 630.595642,661.219971 
	C631.097290,658.869995 631.796265,656.562012 632.424500,654.239014 
	C634.656494,655.110535 638.317505,655.505859 638.802002,656.959717 
	C639.630127,659.444519 639.385803,663.269226 637.900635,665.285278 
	C636.175659,667.626770 633.493591,665.788635 631.629944,663.270142 
z"/>
<path fill="#F7F7F7" opacity="1.000000" stroke="none" 
	d="
M450.399963,728.168274 
	C454.835297,728.559509 457.917023,731.894104 456.726654,735.152771 
	C456.010468,737.113464 454.111847,738.793396 452.382355,740.131226 
	C451.924347,740.485413 449.451263,739.383423 449.074615,738.468140 
	C448.126099,736.163330 447.559418,733.596375 447.449585,731.107544 
	C447.410187,730.214966 449.118622,729.245178 450.399963,728.168274 
z"/>
<path fill="#F8F8F8" opacity="1.000000" stroke="none" 
	d="
M386.921448,659.304199 
	C388.896637,657.238953 390.830353,655.589905 392.764069,653.940857 
	C393.882416,655.341614 395.498810,656.581299 396.015045,658.176880 
	C397.076050,661.455994 395.388184,664.065796 392.579437,665.632751 
	C389.380310,667.417358 387.142059,665.014526 386.921448,659.304199 
z"/>
<path fill="#F8F8F8" opacity="1.000000" stroke="none" 
	d="
M628.874207,313.886658 
	C628.776978,314.275269 628.522278,314.516510 628.267578,314.757690 
	C628.202087,314.494995 628.136597,314.232330 628.218506,313.729095 
	C628.365906,313.488556 628.716797,313.739258 628.874207,313.886658 
z"/>
<path fill="#F7F7F7" opacity="1.000000" stroke="none" 
	d="
M466.534088,213.364120 
	C466.313354,213.101578 466.279999,212.715683 466.246674,212.329803 
	C466.470093,212.360550 466.693512,212.391312 466.985718,212.681015 
	C467.054474,212.939972 466.721497,213.240784 466.534088,213.364120 
z"/>
<path fill="#F8F8F8" opacity="1.000000" stroke="none" 
	d="
M588.271118,444.722717 
	C588.026855,444.501190 587.761902,444.248016 587.496887,443.994812 
	C587.700867,444.068146 587.904907,444.141479 588.193237,444.495148 
	C588.277527,444.775482 588.250305,444.691101 588.271118,444.722717 
z"/>
</svg>